<?xml version="1.0" standalone="no"?>
<!DOCTYPE svg PUBLIC "-//W3C//DTD SVG 1.1//EN" "http://www.w3.org/Graphics/SVG/1.1/DTD/svg11.dtd" >
<svg xmlns="http://www.w3.org/2000/svg">
<metadata></metadata>
<defs>
<font id="avalon_mediumbold" horiz-adv-x="553" >
<font-face units-per-em="1000" ascent="750" descent="-250" />
<missing-glyph horiz-adv-x="251" />
<glyph unicode="&#xfb01;" horiz-adv-x="547" d="M8 389v114h56v26q0 155 192 155h22v-114h-17q-22 0 -34 -12.5t-12 -34.5v-20h63v-114h-63v-389h-151v389h-56zM346 0v503h151v-503h-151zM346 556v114h151v-114h-151z" />
<glyph unicode="&#xfb02;" horiz-adv-x="547" d="M8 389v114h56v26q0 155 192 155h22v-114h-17q-22 0 -34 -12.5t-12 -34.5v-20h63v-114h-63v-389h-151v389h-56zM346 0v670h151v-670h-151z" />
<glyph unicode="&#xfb03;" horiz-adv-x="829" d="M8 389v114h56v26q0 155 192 155h22v-114h-17q-22 0 -34 -12.5t-12 -34.5v-20h131v26q0 155 192 155h22v-114h-17q-46 0 -46 -47v-20h63v-114h-63v-389h-151v389h-131v-389h-151v389h-56zM628 0v503h151v-503h-151zM628 556v114h151v-114h-151z" />
<glyph unicode="&#xfb04;" horiz-adv-x="829" d="M8 389v114h56v26q0 155 192 155h22v-114h-17q-22 0 -34 -12.5t-12 -34.5v-20h131v26q0 155 192 155h22v-114h-17q-46 0 -46 -47v-20h63v-114h-63v-389h-151v389h-131v-389h-151v389h-56zM628 0v670h151v-670h-151z" />
<glyph horiz-adv-x="1000" />
<glyph horiz-adv-x="1000" />
<glyph unicode="&#xd;" horiz-adv-x="1000" />
<glyph unicode=" "  horiz-adv-x="251" />
<glyph unicode="&#x09;" horiz-adv-x="251" />
<glyph unicode="&#xa0;" horiz-adv-x="251" />
<glyph unicode="!" horiz-adv-x="297" d="M70 0v154h156v-154h-156zM70 221v449h156v-449h-156z" />
<glyph unicode="&#x22;" horiz-adv-x="263" d="M26 670h86l-9 -215h-68zM150 670h86l-9 -215h-68z" />
<glyph unicode="#" d="M33 210l13 94h90l11 80h-90l14 94h89l21 147h94l-21 -147h86l21 147h93l-21 -147h87l-13 -94h-87l-11 -80h87l-14 -94h-86l-21 -148h-93l20 148h-86l-20 -148h-94l21 148h-90zM230 304h86l11 80h-86z" />
<glyph unicode="$" d="M65 194q0 5 1 9h155q6 -64 53 -64q22 0 37 15.5t15 38.5q0 32 -30 53q-23 16 -83 38q-142 53 -142 176q0 69 37.5 116.5t107.5 66.5v92h122v-92q47 -11 76 -41q51 -51 51 -121q0 -6 -1 -10h-140q-4 58 -50 58q-21 0 -35 -14.5t-14 -36.5q0 -38 47 -62q11 -6 76 -31 q62 -23 97.5 -69.5t35.5 -105.5q0 -63 -38.5 -112t-104.5 -71v-95h-122v91q-74 16 -111 62q-40 50 -40 109z" />
<glyph unicode="%" horiz-adv-x="804" d="M30 522q0 68 47 114.5t117 46.5q71 0 118 -46t47 -116t-47 -116t-119 -46q-71 0 -117 46.5t-46 116.5zM135 522q0 -27 17 -45t43 -18q25 0 42 18t17 44t-17 44t-42 18t-42.5 -18t-17.5 -43zM208 0l282 670h106l-282 -670h-106zM445 150q0 68 47 114.5t117 46.5 q71 0 118 -46t47 -116t-47 -116t-119 -46q-70 0 -116.5 46.5t-46.5 116.5zM550 150q0 -27 17 -45t43 -18q25 0 42 18t17 44t-17 44t-42 18t-42.5 -18t-17.5 -43z" />
<glyph unicode="&#x26;" horiz-adv-x="663" d="M30 181q0 55 28 96.5t96 88.5q-63 64 -63 144q0 73 53.5 123t132.5 50q75 0 125.5 -47.5t50.5 -117.5q0 -88 -93 -153l79 -80l49 110h158l-51 -125q-19 -48 -51 -89l92 -94l-102 -100l-80 81q-91 -82 -200 -82q-94 0 -159 56.5t-65 138.5zM195 197q0 -29 21.5 -48 t55.5 -19q48 0 82 37l-108 108q-51 -40 -51 -78zM237 518q0 -33 38 -72q26 26 34 40t8 33t-11 31t-28 12t-29 -12.5t-12 -31.5z" />
<glyph unicode="'" horiz-adv-x="139" d="M26 670h86l-9 -215h-68z" />
<glyph unicode="(" horiz-adv-x="374" d="M30 251q0 113 49.5 214t137.5 168q53 42 130 71v-150q-71 -39 -115 -123.5t-44 -180.5q0 -94 44.5 -178.5t114.5 -122.5v-150q-75 29 -130 71q-88 67 -137.5 167.5t-49.5 213.5z" />
<glyph unicode=")" horiz-adv-x="374" d="M27 -51q70 38 114.5 123t44.5 181q0 94 -44.5 178t-114.5 123v150q75 -29 130 -71q88 -67 137.5 -168t49.5 -214t-49.5 -213.5t-137.5 -167.5q-57 -43 -130 -71v150z" />
<glyph unicode="*" horiz-adv-x="486" d="M44 488l33 99l116 -44l-3 127h108l-6 -127l116 44l35 -99l-119 -37l75 -100l-84 -63l-74 104l-72 -104l-84 63l78 100z" />
<glyph unicode="+" d="M42 278v114h178v178h114v-178h177v-114h-177v-177h-114v177h-178z" />
<glyph unicode="," horiz-adv-x="263" d="M54 0v154h156v-190q0 -49 -25.5 -79.5t-66.5 -30.5h-64v81h31q17 0 28 9.5t11 24.5v31h-70z" />
<glyph unicode="-" horiz-adv-x="255" d="M0 194v127h255v-127h-255z" />
<glyph unicode="." horiz-adv-x="263" d="M54 0v154h156v-154h-156z" />
<glyph unicode="/" horiz-adv-x="424" d="M-19 -168l262 838h148l-263 -838h-147z" />
<glyph unicode="0" d="M26 238v194q0 99 60 165q36 39 88 62.5t104 23.5q59 0 116.5 -30.5t92.5 -80.5q39 -57 39 -140v-194q0 -92 -50 -156q-36 -44 -88.5 -69.5t-108.5 -25.5q-58 0 -113.5 28t-92.5 75q-47 60 -47 148zM197 237q0 -54 27 -78q21 -21 52 -21q33 0 57 24q22 22 22 75v196 q0 53 -22 75q-24 24 -57 24q-31 0 -52 -21q-27 -24 -27 -78v-196z" />
<glyph unicode="1" d="M105 526v144h281v-670h-171v526h-110z" />
<glyph unicode="2" d="M35 426q1 55 10 88t29 66q32 49 86.5 76.5t121.5 27.5q98 0 163 -56t65 -140q0 -115 -104 -229q-41 -46 -119 -115h227v-144h-473v133q79 52 108.5 73.5t64.5 55.5q125 123 125 206q0 29 -18 47t-46 18q-37 0 -55.5 -26t-21.5 -81h-163z" />
<glyph unicode="3" horiz-adv-x="550" d="M23 199h173q15 -61 77 -61q33 0 53.5 18.5t20.5 47.5q0 40 -34 58q-20 9 -57 9h-60v126h29q84 0 84 77q0 26 -13 42t-34 16q-50 0 -53 -57h-169q2 94 65 151t165 57q89 0 149.5 -52.5t60.5 -130.5q0 -94 -89 -141q127 -43 127 -161q0 -88 -73 -149.5t-176 -61.5 q-69 0 -126.5 27t-86.5 73q-28 45 -33 112z" />
<glyph unicode="4" d="M10 118v125l300 427h159v-418h74v-134h-74v-118h-164v118h-295zM181 252h135v210z" />
<glyph unicode="5" d="M17 180h173q31 -43 78 -43q37 0 64 26.5t27 62.5q0 38 -26 63t-66 25q-62 0 -87 -57l-138 34l57 379h371v-144h-239l-15 -91q39 20 91 20q105 0 167 -74q56 -67 56 -151q0 -99 -74 -173q-71 -71 -183 -71q-100 0 -169.5 52.5t-86.5 141.5z" />
<glyph unicode="6" d="M13 244q0 87 63 181l166 245h199l-148 -204q27 4 42 4q87 0 145.5 -65.5t58.5 -162.5q0 -110 -74.5 -182.5t-187.5 -72.5q-132 0 -210 101q-54 73 -54 156zM182 231q0 -39 26.5 -66t66.5 -27q39 0 66 26t27 64t-27 64.5t-67 26.5q-39 0 -65.5 -25.5t-26.5 -62.5z" />
<glyph unicode="7" d="M61 526v144h437v-132l-236 -538h-188l247 526h-260z" />
<glyph unicode="8" d="M32 202q0 58 27.5 102t77.5 65q-66 53 -66 125q0 82 58 135.5t147 53.5q87 0 145.5 -53.5t58.5 -132.5q0 -76 -64 -128q50 -21 77.5 -65t27.5 -102q0 -89 -71.5 -152.5t-171.5 -63.5q-101 0 -173.5 63.5t-72.5 152.5zM203 215q0 -34 21.5 -56t54.5 -22q29 0 50 22.5 t21 53.5q0 32 -21.5 54.5t-52.5 22.5t-52 -21.5t-21 -53.5zM214 481q0 -26 17.5 -43t43.5 -17t44 18.5t18 44.5q0 25 -18 42.5t-42 17.5q-26 0 -44.5 -18.5t-18.5 -44.5z" />
<glyph unicode="9" d="M14 434q0 107 74.5 178.5t186.5 71.5q116 0 190.5 -74t74.5 -189q0 -47 -10.5 -81.5t-36.5 -74.5l-171 -265h-195l151 208q-23 -7 -45 -7q-67 0 -115 31q-46 28 -75 84t-29 118zM185 444q0 -38 27 -65t64 -27q39 0 66 26.5t27 64.5q0 37 -27.5 63.5t-65.5 26.5 q-37 0 -64 -26.5t-27 -62.5z" />
<glyph unicode=":" horiz-adv-x="263" d="M54 0v154h156v-154h-156zM54 349v154h156v-154h-156z" />
<glyph unicode=";" horiz-adv-x="263" d="M54 0v154h156v-190q0 -49 -25.5 -79.5t-66.5 -30.5h-64v81h31q17 0 28 9.5t11 24.5v31h-70zM54 349v154h156v-154h-156z" />
<glyph unicode="&#x3c;" horiz-adv-x="503" d="M34 271v137l436 233v-163l-262 -139l261 -139l1 -163z" />
<glyph unicode="=" d="M42 198v107h469v-107h-469zM42 366v107h469v-107h-469z" />
<glyph unicode="&#x3e;" horiz-adv-x="503" d="M34 37v164l262 139l-261 139l-1 162l436 -233v-138z" />
<glyph unicode="?" horiz-adv-x="498" d="M13 442v17q0 97 67 160.5t171 63.5q92 0 154.5 -55.5t62.5 -136.5q0 -50 -26 -93q-18 -31 -76 -85q-40 -37 -54.5 -57.5t-15.5 -42.5h-156q-1 38 20 73.5t73 85.5q61 58 61 100q0 56 -52 56q-33 0 -47 -19.5t-15 -66.5h-167zM140 0v154h156v-154h-156z" />
<glyph unicode="@" horiz-adv-x="754" d="M40 257q0 148 103 250.5t252 102.5q137 0 228 -84.5t91 -212.5q0 -93 -51 -164t-117 -71q-27 0 -49.5 14.5t-29.5 36.5q-19 -27 -52.5 -43t-69.5 -16q-62 0 -103.5 46t-41.5 115q0 82 53.5 143t124.5 61q32 0 53 -9.5t45 -35.5l7 35l90 -1l-38 -197q-6 -31 -6 -43 q0 -30 21 -30q31 0 57 50t26 109q0 95 -66 155t-169 60q-115 0 -192.5 -78.5t-77.5 -194.5q0 -112 74 -189q70 -71 196 -71q102 0 190 35l21 -83q-96 -34 -210 -34q-158 0 -253 92q-50 47 -78 113.5t-28 138.5zM302 235q0 -33 18 -53t47 -20q34 0 59.5 32t25.5 75 q0 32 -17 52t-45 20q-35 0 -61.5 -31.5t-26.5 -74.5z" />
<glyph unicode="A" horiz-adv-x="664" d="M-3 0l269 670h135l266 -670h-185l-33 97h-232l-36 -97h-184zM263 233h141l-70 229z" />
<glyph unicode="B" horiz-adv-x="580" d="M57 0v670h207q82 0 122.5 -8t67.5 -29q29 -23 46.5 -60.5t17.5 -78.5q0 -89 -78 -134q111 -36 111 -156q0 -89 -62 -146q-37 -34 -81.5 -46t-137.5 -12h-213zM221 151h81q85 0 85 64q0 30 -23 46q-19 12 -62 12h-81v-122zM221 416h61q72 0 72 53q0 29 -23 42q-14 8 -49 8 h-61v-103z" />
<glyph unicode="C" horiz-adv-x="740" d="M29 337q0 146 101.5 246t249.5 100q169 0 272 -125q57 -71 69 -142h-179q-20 54 -64 85.5t-99 31.5q-76 0 -127.5 -56t-51.5 -139q0 -85 52 -142.5t128 -57.5q106 0 162 113h179q-28 -118 -122 -191t-217 -73q-148 0 -250.5 102t-102.5 248z" />
<glyph unicode="D" horiz-adv-x="666" d="M57 0v670h226q97 0 156 -20t107 -70q91 -94 91 -242q0 -171 -108 -265q-84 -73 -208 -73h-264zM228 151h74q66 0 102 28q29 21 45.5 62t16.5 91q0 87 -41 137t-122 50h-75v-368z" />
<glyph unicode="E" horiz-adv-x="471" d="M57 0v670h373v-151h-209v-103h202v-151h-202v-114h209v-151h-373z" />
<glyph unicode="F" horiz-adv-x="446" d="M57 0v670h366v-151h-202v-113h195v-151h-195v-255h-164z" />
<glyph unicode="G" horiz-adv-x="771" d="M29 337q0 72 29 139t80 114q46 43 114 68t136 25q115 0 210 -67.5t124 -169.5h-192q-47 87 -147 87q-78 0 -132 -56q-51 -52 -51 -132q0 -96 53 -152q25 -26 63.5 -41t78.5 -15q57 0 96.5 28.5t51.5 78.5h-199v137h398l1 -35q4 -152 -100.5 -255.5t-257.5 -103.5 q-149 0 -252.5 101.5t-103.5 248.5z" />
<glyph unicode="H" horiz-adv-x="675" d="M57 0v670h171v-251h219v251h171v-670h-171v268h-219v-268h-171z" />
<glyph unicode="I" horiz-adv-x="285" d="M57 0v670h171v-670h-171z" />
<glyph unicode="J" horiz-adv-x="507" d="M0 215h182q2 -41 14.5 -59t38.5 -18q22 0 37 17q14 18 14 67v448h171v-406q0 -77 -9 -117.5t-32 -71.5q-31 -40 -82.5 -64t-107.5 -24q-61 0 -114 26.5t-81 71.5q-31 49 -31 130z" />
<glyph unicode="K" horiz-adv-x="606" d="M57 0v670h171v-302l191 302h180l-222 -334l236 -336h-200l-185 290v-290h-171z" />
<glyph unicode="L" horiz-adv-x="440" d="M57 0v670h171v-519h198v-151h-369z" />
<glyph unicode="M" horiz-adv-x="821" d="M57 0v670h220l134 -441l132 441h221v-670h-157l5 504l-145 -504h-113l-145 504l6 -504h-158z" />
<glyph unicode="N" horiz-adv-x="680" d="M57 0v670h147l262 -421l-7 421h164v-670h-149l-259 408l6 -408h-164z" />
<glyph unicode="O" horiz-adv-x="765" d="M29 340q0 144 102.5 244t250.5 100q149 0 252 -101t103 -248q0 -146 -102.5 -247t-251.5 -101q-152 0 -253 101t-101 252zM200 339q0 -86 53 -143.5t133 -57.5q76 0 128 57t52 139q0 84 -53 141.5t-130 57.5t-130 -56t-53 -138z" />
<glyph unicode="P" horiz-adv-x="581" d="M57 0v670h219q80 0 126.5 -11.5t79.5 -38.5q79 -65 79 -178q0 -108 -71 -174q-62 -58 -195 -58h-74v-210h-164zM221 361h69q58 0 81 19q26 23 26 60q0 43 -31 63q-23 16 -82 16h-63v-158z" />
<glyph unicode="Q" horiz-adv-x="769" d="M29 331q0 148 102.5 250.5t249.5 102.5q151 0 255.5 -102t104.5 -250q0 -98 -57 -185q26 -24 74 -24q8 0 14 1v-136q-21 -2 -44 -2q-106 0 -156 53q-85 -53 -182 -53q-164 0 -269 114q-92 100 -92 231zM201 363q52 23 96 23q132 0 250 -144q23 55 23 99q0 83 -53 137.5 t-135 54.5q-71 0 -119.5 -45.5t-61.5 -124.5zM219 250q21 -50 65.5 -81.5t94.5 -31.5q37 0 72 26q-75 98 -172 98q-27 0 -60 -11z" />
<glyph unicode="R" horiz-adv-x="590" d="M57 0v670h212q84 0 128 -10t78 -38q39 -31 61 -80t22 -103q0 -105 -73 -169q-38 -32 -94 -42l182 -228h-196l-156 217v-217h-164zM221 334h61q53 0 82.5 25t29.5 70q0 43 -33 70q-27 20 -78 20h-62v-185z" />
<glyph unicode="S" horiz-adv-x="519" d="M14 221h172q0 -42 18.5 -66.5t50.5 -24.5q28 0 47 18.5t19 45.5t-20 44q-15 13 -31 20.5t-98 40.5q-71 29 -109 77t-38 109q0 83 68 141t167 58q55 0 103 -20.5t78 -56.5q40 -48 45 -132h-170q-5 34 -19 49.5t-42 15.5q-25 0 -42 -15.5t-17 -37.5q0 -24 17 -38 q12 -12 27 -20t95 -44q84 -38 120.5 -83t36.5 -110q0 -96 -62.5 -151t-171.5 -55q-183 0 -231 138q-13 35 -13 97z" />
<glyph unicode="T" horiz-adv-x="450" d="M7 519v151h436v-151h-132v-519h-171v519h-133z" />
<glyph unicode="U" horiz-adv-x="615" d="M50 265v405h171v-405q0 -66 21 -96.5t67 -30.5q42 0 64 27q21 25 21 100v405h171v-405q0 -74 -15.5 -120.5t-51.5 -84.5q-73 -73 -189 -73q-118 0 -192 72q-38 37 -52.5 82t-14.5 124z" />
<glyph unicode="V" horiz-adv-x="606" d="M-10 670h177l135 -470l137 470h177l-226 -670h-176z" />
<glyph unicode="W" horiz-adv-x="872" d="M7 670h174l90 -436l100 436h131l98 -437l92 437h174l-178 -670h-151l-101 434l-101 -434h-155z" />
<glyph unicode="X" horiz-adv-x="647" d="M-10 0l234 357l-207 313h194l115 -191l112 191h193l-205 -317l231 -353h-193l-145 237l-138 -237h-191z" />
<glyph unicode="Y" horiz-adv-x="550" d="M-10 670h186l100 -269l100 269h184l-199 -426v-244h-171v244z" />
<glyph unicode="Z" horiz-adv-x="460" d="M17 0v113l231 406h-231v151h423v-139l-214 -380h214v-151h-423z" />
<glyph unicode="[" horiz-adv-x="374" d="M60 85v333q0 73 16.5 120.5t54.5 85.5q33 34 67 49.5t99 27.5l16 3v-148q-53 -2 -76 -30.5t-23 -90.5v-367q0 -63 23 -91t76 -31v-147q-62 10 -91 20t-62 34q-53 40 -76.5 93.5t-23.5 138.5z" />
<glyph unicode="\" horiz-adv-x="424" d="M34 670h147l263 -838h-148z" />
<glyph unicode="]" horiz-adv-x="374" d="M61 -54q53 3 76 31t23 91v367q0 62 -23 90.5t-76 30.5v148q63 -10 91.5 -20t60.5 -34q54 -40 77.5 -94t23.5 -138v-333q0 -73 -16.5 -120.5t-54.5 -85.5q-33 -34 -67 -49.5t-99 -27.5q-2 -1 -16 -3v147z" />
<glyph unicode="^" horiz-adv-x="503" d="M12 348l148 326h183l148 -326h-145l-95 215l-94 -215h-145z" />
<glyph unicode="_" horiz-adv-x="503" d="M0 -54h503v-97h-503v97z" />
<glyph unicode="`" horiz-adv-x="503" d="M90 678l60 92l196 -150l-51 -74z" />
<glyph unicode="a" horiz-adv-x="631" d="M27 252q0 118 72.5 193.5t186.5 75.5q111 0 152 -71v53h142v-503h-142v54q-36 -71 -156 -71q-113 0 -184 75t-71 194zM178 253q0 -55 36 -92t90 -37q55 0 90.5 36t35.5 92q0 55 -36 91t-91 36q-53 0 -89 -36.5t-36 -89.5z" />
<glyph unicode="b" horiz-adv-x="621" d="M50 0v670h151v-207q54 57 145 57q101 0 174 -71q74 -74 74 -194t-71 -196t-183 -76q-46 0 -76.5 14.5t-71.5 56.5v-54h-142zM194 253q0 -55 35.5 -92t88.5 -37t89 37t36 91q0 53 -35.5 90t-87.5 37q-53 0 -89.5 -36.5t-36.5 -89.5z" />
<glyph unicode="c" horiz-adv-x="577" d="M27 252q0 113 76.5 190.5t188.5 77.5q99 0 173 -58.5t94 -152.5h-153q-13 33 -42 51.5t-67 18.5q-52 0 -85.5 -36.5t-33.5 -92.5q0 -55 33.5 -90.5t85.5 -35.5q67 0 111 67h152q-23 -92 -96 -150t-168 -58q-113 0 -191 78t-78 191z" />
<glyph unicode="d" horiz-adv-x="626" d="M26 252q0 116 71 192t179 76q89 0 148 -60v210h151v-670h-142v54q-32 -38 -67.5 -54.5t-87.5 -16.5q-110 0 -181 76t-71 193zM177 253q0 -56 36 -92.5t91 -36.5t92 37t37 93q0 53 -36.5 89t-90.5 36q-56 0 -92.5 -35.5t-36.5 -90.5z" />
<glyph unicode="e" horiz-adv-x="581" d="M27 250q0 112 76 191t185 79q113 0 189 -78.5t76 -196.5q0 -20 -4 -41h-376q5 -42 35.5 -68t74.5 -26q30 0 52 11t47 36h154q-35 -82 -100 -128t-146 -46q-109 0 -186 78t-77 189zM176 305h227q-7 39 -38.5 63t-75.5 24t-73.5 -23t-39.5 -64z" />
<glyph unicode="f" horiz-adv-x="296" d="M8 389v114h56v26q0 155 192 155h22v-114h-17q-22 0 -34 -12.5t-12 -34.5v-20h63v-114h-63v-389h-151v389h-56z" />
<glyph unicode="g" horiz-adv-x="623" d="M27 248q0 117 73 194.5t183 77.5q94 0 148 -64v47h142v-442q0 -77 -6 -108.5t-26 -61.5q-36 -53 -104 -84t-150 -31q-102 0 -170.5 48.5t-79.5 128.5h173q21 -50 89 -50q63 0 98 46q24 31 24 90v16q-16 -31 -59 -51.5t-92 -20.5q-101 0 -172 77.5t-71 187.5zM178 254 q0 -56 34.5 -93t86.5 -37q54 0 88.5 35t34.5 90q0 57 -34.5 93.5t-87.5 36.5q-51 0 -86.5 -36.5t-35.5 -88.5z" />
<glyph unicode="h" horiz-adv-x="563" d="M50 0v670h151v-213q37 63 131 63q85 0 137 -54q27 -29 37 -68t10 -117v-281h-151v274q0 105 -80 105q-40 0 -64 -26q-20 -21 -20 -74v-279h-151z" />
<glyph unicode="i" horiz-adv-x="251" d="M50 0v503h151v-503h-151zM50 556v114h151v-114h-151z" />
<glyph unicode="j" horiz-adv-x="251" d="M-23 -70h20q30 0 41.5 16.5t11.5 59.5v497h151v-491q0 -111 -40.5 -153.5t-146.5 -42.5h-37v114zM50 556v114h151v-114h-151z" />
<glyph unicode="k" horiz-adv-x="514" d="M50 0v670h151v-349l141 182h178l-189 -221l184 -282h-171l-143 242v-242h-151z" />
<glyph unicode="l" horiz-adv-x="251" d="M50 0v670h151v-670h-151z" />
<glyph unicode="m" horiz-adv-x="869" d="M50 0v503h142v-53q49 70 138 70q98 0 146 -90q55 90 159 90q78 0 131 -50q34 -32 44.5 -70.5t10.5 -125.5v-274h-151v267q0 61 -17 85q-19 27 -58 27q-37 0 -60 -25q-22 -25 -22 -80v-274h-151v274q0 105 -77 105q-84 0 -84 -105v-274h-151z" />
<glyph unicode="n" horiz-adv-x="563" d="M50 0v503h142v-53q28 38 59.5 54t78.5 16q83 0 136 -51q28 -27 39 -61t11 -94v-314h-151v274q0 52 -15 74q-20 31 -64 31q-47 0 -71 -35q-14 -20 -14 -63v-281h-151z" />
<glyph unicode="o" horiz-adv-x="598" d="M27 253q0 113 79 192q73 75 192 75q133 0 211 -95q61 -77 61 -173q0 -113 -79 -194q-73 -75 -194 -75q-118 0 -194 76t-76 194zM178 253q0 -55 34.5 -92t86.5 -37q51 0 85.5 36.5t34.5 91.5q0 52 -35 89.5t-85 37.5t-85.5 -37t-35.5 -89z" />
<glyph unicode="p" horiz-adv-x="627" d="M50 -168v671h142v-55q56 72 159 72q107 0 174 -73q34 -37 53 -90.5t19 -109.5q0 -112 -70.5 -188t-174.5 -76q-92 0 -151 63v-214h-151zM194 253q0 -53 37 -91t90 -38t89 37t36 91t-36.5 90.5t-89.5 36.5q-56 0 -91 -39q-35 -38 -35 -87z" />
<glyph unicode="q" horiz-adv-x="626" d="M26 242q0 121 71.5 199.5t182.5 78.5q97 0 153 -72v55h142v-671h-151v219q-61 -68 -155 -68q-104 0 -173.5 74t-69.5 185zM177 253q0 -55 36.5 -92t91.5 -37q52 0 89 37.5t37 89.5q0 54 -37 91t-91 37q-53 0 -89.5 -36.5t-36.5 -89.5z" />
<glyph unicode="r" horiz-adv-x="325" d="M50 0v503h142v-53q22 39 54 55q32 15 68 15h4v-151q-65 -1 -92 -22t-27 -69v-278h-149z" />
<glyph unicode="s" horiz-adv-x="448" d="M15 149h150q6 -46 57 -46q22 0 37 11.5t15 27.5q0 17 -13 28q-14 11 -31 16.5t-103 28.5q-47 12 -77 51t-30 88q0 70 59 118t144 48q100 0 153 -67q28 -36 33 -91h-147q-4 37 -43 37q-22 0 -35 -9t-13 -23q0 -34 78 -55q96 -26 128 -53q48 -41 48 -106q0 -73 -60 -122 t-149 -49t-149 55q-25 23 -36.5 48t-15.5 64z" />
<glyph unicode="t" horiz-adv-x="295" d="M-10 389v114h74v167h151v-167h72v-114h-72v-389h-151v389h-74z" />
<glyph unicode="u" horiz-adv-x="565" d="M47 202v301h151v-281q0 -55 21 -76q22 -22 60 -22q40 0 62.5 25.5t22.5 72.5v281h151v-503h-142v54q-38 -71 -134 -71q-91 0 -146 63q-26 31 -36 64t-10 92z" />
<glyph unicode="v" horiz-adv-x="486" d="M-10 503h156l97 -314l97 314h156l-181 -503h-145z" />
<glyph unicode="w" horiz-adv-x="757" d="M0 503h155l77 -312l83 312h127l84 -312l76 312h155l-154 -503h-140l-85 325l-85 -325h-140z" />
<glyph unicode="x" horiz-adv-x="548" d="M-10 0l191 269l-169 234h180l81 -132l81 132h178l-169 -234l195 -269h-184l-101 156l-103 -156h-180z" />
<glyph unicode="y" horiz-adv-x="499" d="M-10 503h160l102 -292l97 292h160l-252 -671h-160l80 193z" />
<glyph unicode="z" horiz-adv-x="408" d="M17 0v103l212 286h-212v114h374v-115l-197 -274h197v-114h-374z" />
<glyph unicode="{" horiz-adv-x="311" d="M0 204v94q28 9 39.5 26t11.5 49v159q0 77 34.5 108.5t120.5 31.5q2 0 5 -0.5t7 -0.5t13.5 -0.5t23.5 -0.5h33v-120h-13q-49 0 -62 -12q-10 -8 -12.5 -17.5t-2.5 -40.5v-107q0 -51 -14 -75.5t-51 -46.5l26 -28q23 -24 31 -45.5t8 -59.5v-95q0 -32 3 -43t14 -18 q15 -10 59 -10h14v-120h-34l-33 -2h-17q-84 0 -118.5 32t-34.5 110v148q0 39 -11 57t-40 27z" />
<glyph unicode="|" horiz-adv-x="503" d="M168 -168v838h166v-838h-166z" />
<glyph unicode="}" horiz-adv-x="311" d="M23 -48h13q48 0 62 12q10 8 12.5 17.5t2.5 40.5v107q0 51 14 75.5t51 46.5q-36 38 -43.5 48t-12.5 22q-9 27 -9 63v95q0 32 -3 43t-14 18q-15 10 -59 10h-14v120h34l33 2h17q84 0 118.5 -32t34.5 -110v-148q0 -39 11 -57t40 -27v-94q-28 -9 -39.5 -26t-11.5 -49v-159 q0 -77 -34.5 -108.5t-120.5 -31.5q-2 0 -5 0.5t-7 0.5t-13.5 0.5t-23.5 0.5h-33v120z" />
<glyph unicode="~" horiz-adv-x="670" d="M93 616q56 142 152 142q32 0 113 -33q57 -24 74 -24q37 0 68 60l80 -67q-31 -76 -67 -108t-91 -32q-21 0 -40.5 6t-71.5 28q-50 21 -71 21q-34 0 -67 -59z" />
<glyph unicode="&#xa1;" horiz-adv-x="297" d="M70 -168v450h156v-450h-156zM70 349v154h156v-154h-156z" />
<glyph unicode="&#xa2;" d="M53 338q0 76 44 135.5t118 83.5v95h119v-92q64 -16 112 -67.5t55 -112.5h-157q-20 36 -64 36q-32 0 -55 -22.5t-23 -54.5t22.5 -54t55.5 -22q36 0 61 31h160q-11 -62 -57.5 -111.5t-104.5 -59.5v-95h-124v95q-76 25 -119 82.5t-43 132.5z" />
<glyph unicode="&#xa3;" d="M8 257v121h44q-26 48 -26 85q0 91 71 156t170 65q65 0 118.5 -28.5t84.5 -78.5q26 -40 35 -117h-158q-7 73 -70 73q-34 0 -57 -23.5t-23 -58.5q0 -37 31 -73h142v-121h-70q30 -34 30 -61q0 -31 -36 -62h38q74 0 74 62q0 15 -6 33h145q10 -29 10 -58q0 -39 -20 -75 q-54 -96 -178 -96h-322v134h45q44 0 63.5 11.5t19.5 37.5q0 24 -17 46l-22 28h-116z" />
<glyph unicode="&#xa4;" horiz-adv-x="596" d="M37 128l76 77q-42 62 -42 132q0 71 42 129l-74 73l55 55l74 -74q59 42 130 42q72 0 131 -42l76 76l54 -54l-76 -77q41 -60 41 -128q0 -70 -41 -132l74 -74l-55 -55l-73 74q-60 -41 -132 -41t-129 41l-76 -76zM179 337q0 -53 34.5 -90.5t83.5 -37.5q50 0 85.5 37t35.5 90 q0 52 -35.5 89t-84.5 37q-48 0 -83.5 -37t-35.5 -88z" />
<glyph unicode="&#xa5;" d="M11 670h171l96 -269l96 269h169l-91 -212h59v-105h-104l-34 -80h111v-105h-124v-168h-164v168h-126v105h113l-39 90h-101v105h56z" />
<glyph unicode="&#xa6;" horiz-adv-x="503" d="M168 154h166v-322h-166v322zM168 313v357h166v-357h-166z" />
<glyph unicode="&#xa7;" d="M28 282q0 83 80 141q-27 40 -27 94q0 74 56 120t146 46q87 0 144 -48.5t60 -124.5h-138q-14 49 -75 49q-27 0 -42.5 -12t-15.5 -32q0 -16 11 -27t39 -24l154 -69q55 -25 80 -58t25 -82q0 -37 -15.5 -65.5t-56.5 -67.5q43 -59 43 -119q0 -81 -59 -132.5t-152 -51.5 q-56 0 -107 21t-82 58q-41 47 -47 120h138q12 -72 96 -72q32 0 53.5 15.5t21.5 38.5q0 20 -15.5 35t-58.5 34l-144 66q-60 28 -86 62t-26 85zM155 311q0 -33 45 -54l170 -78q31 20 31 52q0 16 -13 29t-45 27l-155 70q-33 -17 -33 -46z" />
<glyph unicode="&#xa8;" horiz-adv-x="503" d="M79 577v137h144v-137h-144zM280 577v137h144v-137h-144z" />
<glyph unicode="&#xa9;" horiz-adv-x="788" d="M46 339q0 140 103.5 242t245.5 102q143 0 245.5 -102.5t102.5 -245.5t-102.5 -245.5t-245.5 -102.5q-146 0 -247.5 102.5t-101.5 249.5zM92 338q0 -128 88.5 -218.5t214.5 -90.5q124 0 213 90t89 215q0 126 -89 216.5t-213 90.5q-123 0 -213 -90t-90 -213zM163 339 q0 87 66.5 147.5t163.5 60.5q83 0 147.5 -47t76.5 -116h-120q-14 32 -41.5 50.5t-62.5 18.5q-49 0 -82 -32.5t-33 -81.5t33 -82.5t82 -33.5q69 0 104 67h120q-19 -73 -80 -117t-143 -44q-97 0 -164 61t-67 149z" />
<glyph unicode="&#xaa;" horiz-adv-x="427" d="M23 420q0 71 47.5 116.5t123.5 45.5q66 0 97 -38v27h96v-303h-96v27q-31 -37 -100 -37q-74 0 -121 45t-47 117zM125 421q0 -32 23 -53.5t57 -21.5q35 0 57.5 21t22.5 54q0 32 -23 52.5t-58 20.5q-33 0 -56 -21t-23 -52z" />
<glyph unicode="&#xab;" horiz-adv-x="370" d="M34 202v116l117 119v-135l-47 -40l47 -43v-133zM198 202v116l117 119v-135l-47 -40l47 -43v-133z" />
<glyph unicode="&#xac;" horiz-adv-x="503" d="M34 150v144h436v-294h-160v150h-276z" />
<glyph unicode="&#xad;" horiz-adv-x="255" d="M0 194v127h255v-127h-255z" />
<glyph unicode="&#xae;" horiz-adv-x="788" d="M46 339q0 140 103.5 242t245.5 102q143 0 245.5 -102.5t102.5 -245.5t-102.5 -245.5t-245.5 -102.5q-146 0 -247.5 102.5t-101.5 249.5zM92 338q0 -128 88.5 -218.5t214.5 -90.5q124 0 213 90t89 215q0 126 -89 216.5t-213 90.5q-123 0 -213 -90t-90 -213zM240 141v402 h140q96 0 136 -29q54 -41 54 -111q0 -49 -29.5 -84t-77.5 -42l119 -136h-132l-99 125v-125h-111zM351 343h37q34 0 52.5 14t18.5 40q0 52 -70 52h-38v-106z" />
<glyph unicode="&#xaf;" horiz-adv-x="503" d="M90 596v88h322v-88h-322z" />
<glyph unicode="&#xb0;" horiz-adv-x="385" d="M42 543q0 59 44.5 102t105.5 43q63 0 107 -43t44 -104t-44 -104.5t-106 -43.5q-63 0 -107 43.5t-44 106.5zM118 542q0 -31 22 -52.5t53 -21.5q30 0 52 21.5t22 51.5t-22 51.5t-53 21.5q-30 0 -52 -21.5t-22 -50.5z" />
<glyph unicode="&#xb1;" d="M42 -34v114h469v-114h-469zM42 278v114h178v178h114v-178h177v-114h-177v-167h-114v167h-178z" />
<glyph unicode="&#xb2;" horiz-adv-x="376" d="M29 521q3 61 26 95q45 62 136 62q64 0 107 -34t43 -85q0 -49 -31.5 -94t-109.5 -107h144v-90h-311v82q78 46 112 77q81 71 81 120q0 16 -11 26.5t-28 10.5q-45 0 -48 -63h-110z" />
<glyph unicode="&#xb3;" horiz-adv-x="374" d="M21 390h117q9 -36 48 -36q20 0 33 10.5t13 26.5q0 38 -57 38h-41v79h21q53 0 53 43q0 33 -29 33q-32 0 -32 -34h-114q1 58 42.5 93t108.5 35q59 0 99 -32t40 -79q0 -55 -55 -83q79 -26 79 -97q0 -53 -48 -90t-115 -37q-46 0 -84.5 16.5t-56.5 43.5q-16 24 -22 70z" />
<glyph unicode="&#xb4;" horiz-adv-x="503" d="M157 620l196 150l60 -92l-205 -132z" />
<glyph unicode="&#xb5;" horiz-adv-x="503" d="M27 -172v655h139v-249q0 -60 15 -85q25 -43 71 -43q41 0 62.5 33.5t21.5 97.5v246h139v-483h-139v63q-28 -73 -87 -73q-52 0 -83 59v-221h-139z" />
<glyph unicode="&#xb6;" d="M20 492q0 50 21 90t58 61q48 27 141 27h280v-87h-58v-677h-90v677h-80v-677h-90v415h-12q-76 0 -123 47.5t-47 123.5z" />
<glyph unicode="&#xb7;" horiz-adv-x="263" d="M54 181v154h156v-154h-156z" />
<glyph unicode="&#xb8;" horiz-adv-x="503" d="M153 -137h63q6 -14 12.5 -19.5t18.5 -5.5q15 0 25 9.5t10 24.5q0 14 -9 22.5t-22 8.5q-14 0 -27 -13l-45 31l38 79h61l-27 -52q15 3 25 3q30 0 51.5 -22t21.5 -53q0 -43 -28 -69.5t-72 -26.5q-41 0 -66.5 22t-29.5 61z" />
<glyph unicode="&#xb9;" horiz-adv-x="376" d="M74 580v90h186v-402h-115v312h-71z" />
<glyph unicode="&#xba;" horiz-adv-x="405" d="M24 421q0 68 51 114t127 46q77 0 128 -46t51 -115q0 -70 -51 -116t-130 -46q-76 0 -126 46t-50 117zM126 421q0 -32 22 -53.5t54 -21.5q33 0 55 21t22 53q0 30 -22.5 51.5t-54.5 21.5t-54 -21t-22 -51z" />
<glyph unicode="&#xbb;" horiz-adv-x="355" d="M40 86v135l47 40l-47 42v134l117 -120v-116zM204 86v135l47 40l-47 42v134l117 -120v-116z" />
<glyph unicode="&#xbc;" horiz-adv-x="905" d="M74 580v90h186v-402h-115v312h-71zM265 0l282 670h92l-281 -670h-93zM542 70v77l195 255h107v-248h48v-84h-48v-70h-111v70h-191zM655 149h90v128z" />
<glyph unicode="&#xbd;" horiz-adv-x="905" d="M74 580v90h186v-402h-115v312h-71zM265 0l282 670h92l-281 -670h-93zM558 253q3 61 26 95q45 62 136 62q64 0 107 -34t43 -85q0 -49 -31.5 -94t-109.5 -107h144v-90h-311v82q81 49 112 77q81 71 81 120q0 16 -11 26.5t-28 10.5q-45 0 -48 -63h-110z" />
<glyph unicode="&#xbe;" horiz-adv-x="904" d="M21 390h117q9 -36 48 -36q20 0 33 10.5t13 26.5q0 38 -57 38h-41v79h21q53 0 53 43q0 33 -29 33q-32 0 -32 -34h-114q1 58 42.5 93t108.5 35q59 0 99 -32t40 -79q0 -55 -55 -83q79 -26 79 -97q0 -53 -48 -90t-115 -37q-46 0 -84.5 16.5t-56.5 43.5q-16 24 -22 70zM264 0 l282 670h92l-282 -670h-92zM540 70v77l196 255h107v-248h48v-84h-48v-70h-111v70h-192zM654 149h90v128z" />
<glyph unicode="&#xbf;" horiz-adv-x="498" d="M30 11q0 50 26 94q21 33 76 84q39 36 53.5 56.5t16.5 43.5h156q1 -38 -20 -73.5t-73 -85.5q-61 -58 -61 -100q0 -56 52 -56q33 0 47 20t15 67h166q1 -7 1 -17q0 -98 -67 -161.5t-171 -63.5q-92 0 -154.5 55.5t-62.5 136.5zM202 349v154h156v-154h-156z" />
<glyph unicode="&#xc0;" horiz-adv-x="664" d="M-3 0l269 670h135l266 -670h-185l-33 97h-232l-36 -97h-184zM126 823l51 114l241 -131l-44 -92zM263 233h141l-70 229z" />
<glyph unicode="&#xc1;" horiz-adv-x="664" d="M-3 0l269 670h135l266 -670h-185l-33 97h-232l-36 -97h-184zM256 806l241 131l51 -114l-247 -109zM263 233h141l-70 229z" />
<glyph unicode="&#xc2;" horiz-adv-x="664" d="M-3 0l269 670h135l266 -670h-185l-33 97h-232l-36 -97h-184zM134 737l133 151h148l128 -151h-158l-46 64l-45 -64h-160zM263 233h141l-70 229z" />
<glyph unicode="&#xc3;" horiz-adv-x="664" d="M-3 0l269 670h135l266 -670h-185l-33 97h-232l-36 -97h-184zM166 837q52 43 101 43q32 0 113 -25q12 -4 25 -4q29 0 80 29l47 -89q-55 -41 -108 -41q-31 0 -117 26q-12 4 -26 4q-29 0 -66 -32zM263 233h141l-70 229z" />
<glyph unicode="&#xc4;" horiz-adv-x="664" d="M-3 0l269 670h135l266 -670h-185l-33 97h-232l-36 -97h-184zM148 737v151h158v-151h-158zM263 233h141l-70 229zM365 737v151h158v-151h-158z" />
<glyph unicode="&#xc5;" horiz-adv-x="664" d="M-3 0l269 670h135l266 -670h-185l-33 97h-232l-36 -97h-184zM223 829q0 47 34.5 80.5t83.5 33.5q47 0 80.5 -34t33.5 -81t-34 -81t-82 -34t-82 34t-34 82zM263 233h141l-70 229zM297 829q0 -19 12.5 -31.5t29.5 -12.5t29.5 13t12.5 30q0 18 -12 31t-29 13 q-18 0 -30.5 -12.5t-12.5 -30.5z" />
<glyph unicode="&#xc6;" horiz-adv-x="863" d="M-27 0l466 670h382v-151h-209v-103h202v-151h-202v-114h209v-151h-373v112h-195l-73 -112h-207zM323 245h125v182z" />
<glyph unicode="&#xc7;" horiz-adv-x="740" d="M29 336q0 146 101.5 246.5t249.5 100.5q169 0 272 -125q57 -71 69 -142h-179q-20 54 -64 85.5t-99 31.5q-76 0 -127.5 -56t-51.5 -139q0 -85 52 -142.5t128 -57.5q106 0 162 113h179q-24 -110 -114.5 -184.5t-203.5 -78.5l-17 -35q12 3 18 3q34 0 56.5 -23t22.5 -57 q0 -46 -31.5 -76t-79.5 -30q-45 0 -71 24t-30 68h70q12 -26 34 -26q15 0 25 10t10 24q0 15 -10 24.5t-24 9.5q-15 0 -29 -15l-51 31l36 70q-131 19 -217 116.5t-86 229.5z" />
<glyph unicode="&#xc8;" horiz-adv-x="471" d="M40 823l51 114l241 -131l-44 -92zM57 0v670h373v-151h-209v-103h202v-151h-202v-114h209v-151h-373z" />
<glyph unicode="&#xc9;" horiz-adv-x="471" d="M57 0v670h373v-151h-209v-103h202v-151h-202v-114h209v-151h-373zM164 806l241 131l51 -114l-247 -109z" />
<glyph unicode="&#xca;" horiz-adv-x="471" d="M42 737l133 151h148l128 -151h-158l-46 64l-45 -64h-160zM57 0v670h373v-151h-209v-103h202v-151h-202v-114h209v-151h-373z" />
<glyph unicode="&#xcb;" horiz-adv-x="471" d="M57 0v670h373v-151h-209v-103h202v-151h-202v-114h209v-151h-373zM59 737v151h158v-151h-158zM276 737v151h158v-151h-158z" />
<glyph unicode="&#xcc;" horiz-adv-x="285" d="M-61 816l51 110l225 -120l-45 -92zM57 0v670h171v-670h-171z" />
<glyph unicode="&#xcd;" horiz-adv-x="285" d="M57 0v670h171v-670h-171zM77 806l224 120l51 -110l-231 -102z" />
<glyph unicode="&#xce;" horiz-adv-x="285" d="M-49 737l123 151h148l118 -151h-152l-42 71l-42 -71h-153zM57 0v670h171v-670h-171z" />
<glyph unicode="&#xcf;" horiz-adv-x="285" d="M-15 737v151h137v-151h-137zM57 0v670h171v-670h-171zM170 737v151h137v-151h-137z" />
<glyph unicode="&#xd0;" horiz-adv-x="666" d="M0 288v121h57v261h226q97 0 156 -20t107 -70q91 -94 91 -242q0 -152 -87 -245t-229 -93h-264v288h-57zM228 151h74q65 0 102 28q29 21 45.5 62t16.5 91q0 90 -42.5 138.5t-120.5 48.5h-75v-110h124v-121h-124v-137z" />
<glyph unicode="&#xd1;" horiz-adv-x="680" d="M57 0v670h147l262 -421l-7 421h164v-670h-149l-259 408l6 -408h-164zM163 837q52 43 101 43q32 0 113 -25q12 -4 25 -4q29 0 80 29l47 -89q-55 -41 -108 -41q-31 0 -117 26q-12 4 -26 4q-29 0 -66 -32z" />
<glyph unicode="&#xd2;" horiz-adv-x="765" d="M29 340q0 144 102.5 244t250.5 100q149 0 252 -101t103 -248q0 -146 -102.5 -247t-251.5 -101q-152 0 -253 101t-101 252zM166 823l51 114l241 -131l-44 -92zM200 339q0 -86 53 -143.5t133 -57.5q76 0 128 57t52 139q0 84 -53 141.5t-130 57.5t-130 -56t-53 -138z" />
<glyph unicode="&#xd3;" horiz-adv-x="765" d="M29 340q0 144 102.5 244t250.5 100q149 0 252 -101t103 -248q0 -146 -102.5 -247t-251.5 -101q-152 0 -253 101t-101 252zM200 339q0 -86 53 -143.5t133 -57.5q76 0 128 57t52 139q0 84 -53 141.5t-130 57.5t-130 -56t-53 -138zM320 806l241 131l51 -114l-247 -109z" />
<glyph unicode="&#xd4;" horiz-adv-x="765" d="M29 340q0 144 102.5 244t250.5 100q149 0 252 -101t103 -248q0 -146 -102.5 -247t-251.5 -101q-152 0 -253 101t-101 252zM182 737l133 151h148l128 -151h-158l-46 64l-45 -64h-160zM200 339q0 -86 53 -143.5t133 -57.5q76 0 128 57t52 139q0 84 -53 141.5t-130 57.5 t-130 -56t-53 -138z" />
<glyph unicode="&#xd5;" horiz-adv-x="765" d="M29 340q0 144 102.5 244t250.5 100q149 0 252 -101t103 -248q0 -146 -102.5 -247t-251.5 -101q-152 0 -253 101t-101 252zM200 339q0 -86 53 -143.5t133 -57.5q76 0 128 57t52 139q0 84 -53 141.5t-130 57.5t-130 -56t-53 -138zM220 837q52 43 101 43q32 0 113 -25 q12 -4 25 -4q29 0 80 29l47 -89q-55 -41 -108 -41q-31 0 -117 26q-12 4 -26 4q-29 0 -66 -32z" />
<glyph unicode="&#xd6;" horiz-adv-x="765" d="M29 340q0 144 102.5 244t250.5 100q149 0 252 -101t103 -248q0 -146 -102.5 -247t-251.5 -101q-152 0 -253 101t-101 252zM199 737v151h158v-151h-158zM200 339q0 -86 53 -143.5t133 -57.5q76 0 128 57t52 139q0 84 -53 141.5t-130 57.5t-130 -56t-53 -138zM416 737v151 h158v-151h-158z" />
<glyph unicode="&#xd7;" d="M59 197l138 138l-138 138l79 79l138 -138l138 138l79 -79l-138 -138l138 -138l-79 -79l-138 139l-138 -139z" />
<glyph unicode="&#xd8;" horiz-adv-x="765" d="M29 336q0 149 103 248t257 99q75 0 153 -30l58 77l97 -75l-58 -76q98 -111 98 -244q0 -140 -97 -242q-104 -107 -275 -107q-87 0 -142 33l-57 -76l-94 71l58 79q-101 85 -101 243zM198 332q0 -56 33 -108l217 296q-27 12 -61 12q-86 0 -136 -59q-53 -63 -53 -141z M321 149q27 -12 59 -12q88 0 140 65q46 57 46 132q0 55 -28 107z" />
<glyph unicode="&#xd9;" horiz-adv-x="615" d="M50 265v405h171v-405q0 -66 21 -96.5t67 -30.5q42 0 64 27q21 25 21 100v405h171v-405q0 -74 -15.5 -120.5t-51.5 -84.5q-73 -73 -189 -73q-118 0 -192 72q-38 37 -52.5 82t-14.5 124zM84 823l51 114l241 -131l-44 -92z" />
<glyph unicode="&#xda;" horiz-adv-x="615" d="M50 265v405h171v-405q0 -66 21 -96.5t67 -30.5q42 0 64 27q21 25 21 100v405h171v-405q0 -74 -15.5 -120.5t-51.5 -84.5q-73 -73 -189 -73q-118 0 -192 72q-38 37 -52.5 82t-14.5 124zM248 806l241 131l51 -114l-247 -109z" />
<glyph unicode="&#xdb;" horiz-adv-x="615" d="M50 265v405h171v-405q0 -66 21 -96.5t67 -30.5q42 0 64 27q21 25 21 100v405h171v-405q0 -74 -15.5 -120.5t-51.5 -84.5q-73 -73 -189 -73q-118 0 -192 72q-38 37 -52.5 82t-14.5 124zM106 737l133 151h148l128 -151h-158l-46 64l-45 -64h-160z" />
<glyph unicode="&#xdc;" horiz-adv-x="615" d="M50 265v405h171v-405q0 -66 21 -96.5t67 -30.5q42 0 64 27q21 25 21 100v405h171v-405q0 -74 -15.5 -120.5t-51.5 -84.5q-73 -73 -189 -73q-118 0 -192 72q-38 37 -52.5 82t-14.5 124zM126 737v151h158v-151h-158zM343 737v151h158v-151h-158z" />
<glyph unicode="&#xdd;" horiz-adv-x="550" d="M-10 670h186l100 -269l100 269h184l-199 -426v-244h-171v244zM219 806l241 131l51 -114l-247 -109z" />
<glyph unicode="&#xde;" horiz-adv-x="581" d="M57 0v670h164v-87h55q79 0 126 -11.5t80 -38.5q79 -65 79 -178q0 -108 -71 -174q-62 -58 -195 -58h-74v-123h-164zM221 274h69q50 0 74 21q26 23 26 58q0 41 -29 63q-22 16 -77 16h-63v-158z" />
<glyph unicode="&#xdf;" horiz-adv-x="621" d="M47 0v387q0 85 12 129.5t46 82.5q36 41 89.5 64.5t108.5 23.5q89 0 151 -55t62 -134q0 -74 -64 -117q62 -15 101.5 -64t39.5 -111q0 -92 -68.5 -157.5t-165.5 -65.5q-50 0 -85.5 16.5t-75.5 58.5v-58h-151zM198 189h83q19 -65 79 -65q34 0 58 24t24 58q0 39 -27 61.5 t-74 22.5h-82v113h30q35 0 55.5 19t20.5 50q0 32 -22 53t-56 21q-45 0 -70 -35q-19 -26 -19 -82v-240z" />
<glyph unicode="&#xe0;" horiz-adv-x="631" d="M27 252q0 118 72.5 193.5t186.5 75.5q111 0 152 -71v53h142v-503h-142v54q-36 -71 -156 -71q-113 0 -184 75t-71 194zM145 678l60 92l196 -150l-51 -74zM178 253q0 -55 36 -92t90 -37q55 0 90.5 36t35.5 92q0 55 -36 91t-91 36q-53 0 -89 -36.5t-36 -89.5z" />
<glyph unicode="&#xe1;" horiz-adv-x="631" d="M27 252q0 118 72.5 193.5t186.5 75.5q111 0 152 -71v53h142v-503h-142v54q-36 -71 -156 -71q-113 0 -184 75t-71 194zM178 253q0 -55 36 -92t90 -37q55 0 90.5 36t35.5 92q0 55 -36 91t-91 36q-53 0 -89 -36.5t-36 -89.5zM262 620l196 150l60 -92l-205 -132z" />
<glyph unicode="&#xe2;" horiz-adv-x="631" d="M27 252q0 118 72.5 193.5t186.5 75.5q111 0 152 -71v53h142v-503h-142v54q-36 -71 -156 -71q-113 0 -184 75t-71 194zM148 576l134 151h104l130 -151h-142l-42 58l-41 -58h-143zM178 253q0 -55 36 -92t90 -37q55 0 90.5 36t35.5 92q0 55 -36 91t-91 36q-53 0 -89 -36.5 t-36 -89.5z" />
<glyph unicode="&#xe3;" horiz-adv-x="631" d="M27 252q0 118 72.5 193.5t186.5 75.5q111 0 152 -71v53h142v-503h-142v54q-36 -71 -156 -71q-113 0 -184 75t-71 194zM169 653q48 46 98 46q24 0 101 -23q18 -6 33 -6q18 0 65 31l39 -78q-47 -46 -106 -46q-19 0 -61 16q-37 13 -61 13q-32 0 -62 -31zM178 253 q0 -55 36 -92t90 -37q55 0 90.5 36t35.5 92q0 55 -36 91t-91 36q-53 0 -89 -36.5t-36 -89.5z" />
<glyph unicode="&#xe4;" horiz-adv-x="631" d="M27 252q0 118 72.5 193.5t186.5 75.5q111 0 152 -71v53h142v-503h-142v54q-36 -71 -156 -71q-113 0 -184 75t-71 194zM161 577v137h144v-137h-144zM178 253q0 -55 36 -92t90 -37q55 0 90.5 36t35.5 92q0 55 -36 91t-91 36q-53 0 -89 -36.5t-36 -89.5zM362 577v137h144 v-137h-144z" />
<glyph unicode="&#xe5;" horiz-adv-x="631" d="M27 252q0 118 72.5 193.5t186.5 75.5q111 0 152 -71v53h142v-503h-142v54q-36 -71 -156 -71q-113 0 -184 75t-71 194zM178 253q0 -55 36 -92t90 -37q55 0 90.5 36t35.5 92q0 55 -36 91t-91 36q-53 0 -89 -36.5t-36 -89.5zM217 666q0 47 33.5 79.5t81.5 32.5q46 0 79 -33 t33 -79t-33 -79.5t-80 -33.5t-80.5 33t-33.5 80zM287 666q0 -19 13 -32t30 -13q18 0 31 13t13 32q0 18 -13 31.5t-30 13.5q-18 0 -31 -13t-13 -32z" />
<glyph unicode="&#xe6;" horiz-adv-x="985" d="M26 251q0 119 72 194t186 75q55 0 88.5 -16.5t55.5 -54.5v54h137v-53q45 70 136 70q109 0 182.5 -80.5t73.5 -199.5q0 -17 -4 -36h-378q7 -43 38 -68.5t77 -25.5q30 0 51.5 10.5t46.5 38.5h151q-36 -85 -98 -130.5t-140 -45.5q-91 0 -136 71v-54h-137v54 q-30 -71 -148 -71q-106 0 -172 63q-82 77 -82 205zM177 252q0 -55 36.5 -91.5t91.5 -36.5q52 0 87.5 36.5t35.5 90.5q0 57 -35.5 92.5t-92.5 35.5q-52 0 -87.5 -37t-35.5 -90zM578 305h230q-26 87 -113 87q-44 0 -76.5 -24.5t-40.5 -62.5z" />
<glyph unicode="&#xe7;" horiz-adv-x="577" d="M27 253q0 113 76.5 190t188.5 77q99 0 173 -58.5t94 -152.5h-153q-13 33 -42 51.5t-67 18.5q-52 0 -85.5 -36.5t-33.5 -92.5q0 -55 33.5 -90.5t85.5 -35.5q67 0 111 67h152q-23 -90 -91.5 -147t-160.5 -61l-18 -35q15 3 25 3q30 0 51.5 -22t21.5 -53q0 -43 -28 -69.5 t-72 -26.5q-41 0 -66.5 22t-29.5 61h63q9 -25 31 -25q15 0 25 9.5t10 24.5q0 14 -8.5 22.5t-22.5 8.5q-15 0 -28 -14l-44 32l32 66q-70 16 -112 46q-53 38 -82 96t-29 124z" />
<glyph unicode="&#xe8;" horiz-adv-x="581" d="M27 250q0 112 76 191t185 79q113 0 189 -78.5t76 -196.5q0 -20 -4 -41h-376q5 -42 35.5 -68t74.5 -26q30 0 52 11t47 36h154q-35 -82 -100 -128t-146 -46q-109 0 -186 78t-77 189zM112 678l60 92l196 -150l-51 -74zM176 305h227q-7 39 -38.5 63t-75.5 24t-73.5 -23 t-39.5 -64z" />
<glyph unicode="&#xe9;" horiz-adv-x="581" d="M27 250q0 112 76 191t185 79q113 0 189 -78.5t76 -196.5q0 -20 -4 -41h-376q5 -42 35.5 -68t74.5 -26q30 0 52 11t47 36h154q-35 -82 -100 -128t-146 -46q-109 0 -186 78t-77 189zM176 305h227q-7 39 -38.5 63t-75.5 24t-73.5 -23t-39.5 -64zM226 620l196 150l60 -92 l-205 -132z" />
<glyph unicode="&#xea;" horiz-adv-x="581" d="M27 250q0 112 76 191t185 79q113 0 189 -78.5t76 -196.5q0 -20 -4 -41h-376q5 -42 35.5 -68t74.5 -26q30 0 52 11t47 36h154q-35 -82 -100 -128t-146 -46q-109 0 -186 78t-77 189zM116 576l134 151h104l130 -151h-142l-42 58l-41 -58h-143zM176 305h227q-7 39 -38.5 63 t-75.5 24t-73.5 -23t-39.5 -64z" />
<glyph unicode="&#xeb;" horiz-adv-x="581" d="M27 250q0 112 76 191t185 79q113 0 189 -78.5t76 -196.5q0 -20 -4 -41h-376q5 -42 35.5 -68t74.5 -26q30 0 52 11t47 36h154q-35 -82 -100 -128t-146 -46q-109 0 -186 78t-77 189zM128 577v137h144v-137h-144zM176 305h227q-7 39 -38.5 63t-75.5 24t-73.5 -23t-39.5 -64z M329 577v137h144v-137h-144z" />
<glyph unicode="&#xec;" horiz-adv-x="251" d="M-46 668l60 91l183 -139l-52 -74zM50 0v503h151v-503h-151z" />
<glyph unicode="&#xed;" horiz-adv-x="251" d="M50 0v503h151v-503h-151zM68 620l183 139l59 -88l-191 -125z" />
<glyph unicode="&#xee;" horiz-adv-x="251" d="M-45 576l124 151h104l120 -151h-135l-39 65l-37 -65h-137zM50 0v503h151v-503h-151z" />
<glyph unicode="&#xef;" horiz-adv-x="251" d="M-18 577v137h124v-137h-124zM51 0v503h151v-503h-151zM153 577v137h124v-137h-124z" />
<glyph unicode="&#xf0;" horiz-adv-x="599" d="M27 250q0 111 70.5 183t179.5 72q42 0 88 -20q-28 61 -39 79l-63 -21l-30 59l63 21q-17 28 -40 58l96 26q21 -23 41 -51l72 22l36 -59l-68 -22q138 -213 138 -350q0 -113 -77 -188t-194 -75q-119 0 -196 75t-77 191zM178 254q0 -38 15 -67.5t42.5 -46t63.5 -16.5 q53 0 87 35t34 89q0 37 -15.5 66.5t-43.5 46t-64 16.5q-35 0 -62 -15.5t-42 -43.5t-15 -64z" />
<glyph unicode="&#xf1;" horiz-adv-x="563" d="M50 0v503h142v-53q28 38 59.5 54t78.5 16q83 0 136 -51q28 -27 39 -61t11 -94v-314h-151v274q0 52 -15 74q-20 31 -64 31q-47 0 -71 -35q-14 -20 -14 -63v-281h-151zM121 653q48 46 98 46q24 0 101 -23q18 -6 33 -6q18 0 65 31l39 -78q-47 -46 -106 -46q-19 0 -61 16 q-37 13 -61 13q-32 0 -62 -31z" />
<glyph unicode="&#xf2;" horiz-adv-x="598" d="M27 253q0 113 79 192q73 75 192 75q133 0 211 -95q61 -77 61 -173q0 -113 -79 -194q-73 -75 -194 -75q-118 0 -194 76t-76 194zM110 678l60 92l196 -150l-51 -74zM178 253q0 -55 34.5 -92t86.5 -37q51 0 85.5 36.5t34.5 91.5q0 52 -35 89.5t-85 37.5t-85.5 -37t-35.5 -89 z" />
<glyph unicode="&#xf3;" horiz-adv-x="598" d="M27 253q0 113 79 192q73 75 192 75q133 0 211 -95q61 -77 61 -173q0 -113 -79 -194q-73 -75 -194 -75q-118 0 -194 76t-76 194zM178 253q0 -55 34.5 -92t86.5 -37q51 0 85.5 36.5t34.5 91.5q0 52 -35 89.5t-85 37.5t-85.5 -37t-35.5 -89zM234 620l196 150l60 -92 l-205 -132z" />
<glyph unicode="&#xf4;" horiz-adv-x="598" d="M27 253q0 113 79 192q73 75 192 75q133 0 211 -95q61 -77 61 -173q0 -113 -79 -194q-73 -75 -194 -75q-118 0 -194 76t-76 194zM118 576l134 151h104l130 -151h-142l-42 58l-41 -58h-143zM178 253q0 -55 34.5 -92t86.5 -37q51 0 85.5 36.5t34.5 91.5q0 52 -35 89.5 t-85 37.5t-85.5 -37t-35.5 -89z" />
<glyph unicode="&#xf5;" horiz-adv-x="598" d="M27 253q0 113 79 192q73 75 192 75q133 0 211 -95q61 -77 61 -173q0 -113 -79 -194q-73 -75 -194 -75q-118 0 -194 76t-76 194zM147 653q48 46 98 46q24 0 101 -23q18 -6 33 -6q18 0 65 31l39 -78q-47 -46 -106 -46q-19 0 -61 16q-37 13 -61 13q-32 0 -62 -31zM178 253 q0 -55 34.5 -92t86.5 -37q51 0 85.5 36.5t34.5 91.5q0 52 -35 89.5t-85 37.5t-85.5 -37t-35.5 -89z" />
<glyph unicode="&#xf6;" horiz-adv-x="598" d="M27 253q0 113 79 192q73 75 192 75q133 0 211 -95q61 -77 61 -173q0 -113 -79 -194q-73 -75 -194 -75q-118 0 -194 76t-76 194zM129 577v137h144v-137h-144zM178 253q0 -55 34.5 -92t86.5 -37q51 0 85.5 36.5t34.5 91.5q0 52 -35 89.5t-85 37.5t-85.5 -37t-35.5 -89z M330 577v137h144v-137h-144z" />
<glyph unicode="&#xf7;" d="M42 278v114h469v-114h-469zM214 105v120h126v-120h-126zM214 445v120h126v-120h-126z" />
<glyph unicode="&#xf8;" horiz-adv-x="598" d="M27 251q0 113 76 191t187 78q57 0 131 -23l51 68l65 -51l-47 -65q26 -32 39 -52q41 -67 41 -146q0 -112 -76.5 -190t-185.5 -78q-56 0 -141 27l-48 -59l-65 47l47 63q-74 77 -74 190zM178 251q0 -36 24 -75l139 193q-23 10 -41 10q-52 0 -87 -36.5t-35 -91.5zM253 135 q24 -11 44 -11q53 0 87.5 36.5t34.5 92.5q0 34 -24 72z" />
<glyph unicode="&#xf9;" horiz-adv-x="565" d="M47 202v301h151v-281q0 -55 21 -76q22 -22 60 -22q40 0 62.5 25.5t22.5 72.5v281h151v-503h-142v54q-38 -71 -134 -71q-91 0 -146 63q-26 31 -36 64t-10 92zM98 678l60 92l196 -150l-51 -74z" />
<glyph unicode="&#xfa;" horiz-adv-x="565" d="M47 202v301h151v-281q0 -55 21 -76q22 -22 60 -22q40 0 62.5 25.5t22.5 72.5v281h151v-503h-142v54q-38 -71 -134 -71q-91 0 -146 63q-26 31 -36 64t-10 92zM218 620l196 150l60 -92l-205 -132z" />
<glyph unicode="&#xfb;" horiz-adv-x="565" d="M47 202v301h151v-281q0 -55 21 -76q22 -22 60 -22q40 0 62.5 25.5t22.5 72.5v281h151v-503h-142v54q-38 -71 -134 -71q-91 0 -146 63q-26 31 -36 64t-10 92zM105 576l134 151h104l130 -151h-142l-42 58l-41 -58h-143z" />
<glyph unicode="&#xfc;" horiz-adv-x="565" d="M47 202v301h151v-281q0 -55 21 -76q22 -22 60 -22q40 0 62.5 25.5t22.5 72.5v281h151v-503h-142v54q-38 -71 -134 -71q-91 0 -146 63q-26 31 -36 64t-10 92zM115 577v137h144v-137h-144zM316 577v137h144v-137h-144z" />
<glyph unicode="&#xfd;" horiz-adv-x="499" d="M-10 503h160l102 -292l97 292h160l-252 -671h-160l80 193zM195 620l196 150l60 -92l-205 -132z" />
<glyph unicode="&#xfe;" horiz-adv-x="624" d="M50 -168v838h151v-211q35 34 69 47.5t81 13.5q107 0 174 -73q34 -37 53 -90.5t19 -109.5q0 -112 -70.5 -188t-174.5 -76q-92 0 -151 63v-214h-151zM193 254q0 -55 36.5 -92.5t90.5 -37.5q53 0 89.5 37t36.5 91t-36.5 90.5t-90.5 36.5q-53 0 -89.5 -36t-36.5 -89z" />
<glyph unicode="&#xff;" horiz-adv-x="499" d="M-10 503h160l102 -292l97 292h160l-252 -671h-160l80 193zM80 577v137h144v-137h-144zM281 577v137h144v-137h-144z" />
<glyph unicode="&#x152;" horiz-adv-x="977" d="M29 334q0 148 101.5 248.5t250.5 100.5q56 0 97 -13t84 -44v44h373v-151h-208v-103h201v-151h-201v-114h208v-151h-373v44q-78 -57 -185 -57q-145 0 -246.5 101t-101.5 246zM200 337q0 -74 44 -133q51 -66 136 -66q78 0 129.5 56.5t51.5 143.5q0 85 -51 139.5t-129 54.5 t-129.5 -56t-51.5 -139z" />
<glyph unicode="&#x153;" horiz-adv-x="971" d="M27 250q0 119 75.5 194.5t194.5 75.5q129 0 192 -86q27 38 79.5 62t109.5 24q111 0 188 -79.5t77 -194.5q0 -18 -4 -42h-377q4 -42 35 -67.5t78 -25.5q54 0 97 46h154q-33 -80 -100 -127t-148 -47q-120 0 -189 90q-71 -90 -195 -90q-116 0 -191.5 75.5t-75.5 191.5z M178 253q0 -54 35.5 -91.5t86.5 -37.5q50 0 85 37.5t35 90.5q0 52 -36 89.5t-85 37.5q-50 0 -85.5 -37t-35.5 -89zM566 305h227q-9 40 -39.5 63.5t-73.5 23.5q-44 0 -75.5 -24t-38.5 -63z" />
<glyph unicode="&#x178;" horiz-adv-x="550" d="M-10 670h186l100 -269l100 269h184l-199 -426v-244h-171v244zM94 737v151h158v-151h-158zM311 737v151h158v-151h-158z" />
<glyph unicode="&#x2c6;" horiz-adv-x="503" d="M67 576l134 151h104l130 -151h-142l-42 58l-41 -58h-143z" />
<glyph unicode="&#x2dc;" horiz-adv-x="503" d="M83 653q48 46 98 46q24 0 101 -23q18 -6 33 -6q18 0 65 31l39 -78q-47 -46 -106 -46q-19 0 -61 16q-37 13 -61 13q-32 0 -62 -31z" />
<glyph unicode="&#x2000;" horiz-adv-x="471" />
<glyph unicode="&#x2001;" horiz-adv-x="943" />
<glyph unicode="&#x2002;" horiz-adv-x="471" />
<glyph unicode="&#x2003;" horiz-adv-x="943" />
<glyph unicode="&#x2004;" horiz-adv-x="314" />
<glyph unicode="&#x2005;" horiz-adv-x="235" />
<glyph unicode="&#x2006;" horiz-adv-x="157" />
<glyph unicode="&#x2007;" horiz-adv-x="157" />
<glyph unicode="&#x2008;" horiz-adv-x="117" />
<glyph unicode="&#x2009;" horiz-adv-x="188" />
<glyph unicode="&#x200a;" horiz-adv-x="52" />
<glyph unicode="&#x2010;" horiz-adv-x="255" d="M0 194v127h255v-127h-255z" />
<glyph unicode="&#x2011;" horiz-adv-x="255" d="M0 194v127h255v-127h-255z" />
<glyph unicode="&#x2012;" horiz-adv-x="255" d="M0 194v127h255v-127h-255z" />
<glyph unicode="&#x2013;" d="M44 194v127h466v-127h-466z" />
<glyph unicode="&#x2014;" horiz-adv-x="771" d="M0 194v127h771v-127h-771z" />
<glyph unicode="&#x2018;" horiz-adv-x="263" d="M54 371v190q0 49 25.5 79t66.5 30h64v-81h-31q-17 0 -28 -9.5t-11 -24.5v-30h70v-154h-156z" />
<glyph unicode="&#x2019;" horiz-adv-x="263" d="M54 370v81h31q17 0 28 9.5t11 24.5v31h-70v154h156v-190q0 -49 -25.5 -79.5t-66.5 -30.5h-64z" />
<glyph unicode="&#x201a;" horiz-adv-x="263" d="M54 0v154h156v-190q0 -49 -25.5 -79.5t-66.5 -30.5h-64v81h31q17 0 28 9.5t11 24.5v31h-70z" />
<glyph unicode="&#x201c;" horiz-adv-x="487" d="M54 371v190q0 49 25.5 79t66.5 30h64v-81h-31q-17 0 -28 -9.5t-11 -24.5v-30h70v-154h-156zM278 371v190q0 49 25.5 79t66.5 30h64v-81h-31q-17 0 -28 -9.5t-11 -24.5v-30h70v-154h-156z" />
<glyph unicode="&#x201d;" horiz-adv-x="487" d="M54 370v81h31q17 0 28 9.5t11 24.5v31h-70v154h156v-190q0 -49 -25.5 -79.5t-66.5 -30.5h-64zM278 370v81h31q17 0 28 9.5t11 24.5v31h-70v154h156v-190q0 -49 -25.5 -79.5t-66.5 -30.5h-64z" />
<glyph unicode="&#x201e;" horiz-adv-x="487" d="M54 0v154h156v-190q0 -49 -25.5 -79.5t-66.5 -30.5h-64v81h31q17 0 28 9.5t11 24.5v31h-70zM278 0v154h156v-190q0 -49 -25.5 -79.5t-66.5 -30.5h-64v81h31q17 0 28 9.5t11 24.5v31h-70z" />
<glyph unicode="&#x2022;" horiz-adv-x="670" d="M197 340q0 58 41.5 99t100.5 41q56 0 96.5 -41.5t40.5 -98.5t-41 -98t-98 -41q-58 0 -99 41t-41 98z" />
<glyph unicode="&#x2026;" horiz-adv-x="790" d="M54 0v154h156v-154h-156zM317 0v154h156v-154h-156zM581 0v154h156v-154h-156z" />
<glyph unicode="&#x202f;" horiz-adv-x="188" />
<glyph unicode="&#x2039;" horiz-adv-x="190" d="M34 202v116l117 125v-141l-47 -40l47 -43v-133z" />
<glyph unicode="&#x203a;" horiz-adv-x="190" d="M40 86v135l47 40l-47 42v134l117 -120v-116z" />
<glyph unicode="&#x205f;" horiz-adv-x="235" />
<glyph unicode="&#x20ac;" horiz-adv-x="728" d="M26 256l64 152h61q25 121 121 198.5t222 77.5q115 0 207 -65l-69 -158q-58 72 -138 72q-59 0 -103 -33t-65 -92h283l-64 -152h-216q20 -54 65 -86t101 -32q84 0 139 74v-199q-63 -26 -137 -26q-124 0 -221 75.5t-123 193.5h-127z" />
<glyph unicode="&#x2122;" horiz-adv-x="821" d="M10 579v91h282v-91h-84v-291h-114v291h-84zM315 288v382h145l82 -240l81 240h145v-382h-106l3 263l-85 -263h-76l-86 264l3 -264h-106z" />
<glyph unicode="&#xe000;" horiz-adv-x="505" d="M0 0v505h505v-505h-505z" />
</font>
</defs>
</svg>
