<?xml version="1.0" standalone="no"?>
<!DOCTYPE svg PUBLIC "-//W3C//DTD SVG 1.1//EN" "http://www.w3.org/Graphics/SVG/1.1/DTD/svg11.dtd" >
<svg xmlns="http://www.w3.org/2000/svg" xmlns:xlink="http://www.w3.org/1999/xlink" version="1.1">
<metadata>
Created by FontForge 20150824 at Mon Apr  4 11:26:57 2016
 By Everything Fonts
Copyright (c) 2015 by Schriftlabor. All rights reserved.
</metadata>
<defs>
<font id="SephoraSansBETAMedium" horiz-adv-x="0" >
  <font-face 
    font-family="SephoraSansBETAMedium"
    font-weight="500"
    font-stretch="normal"
    units-per-em="1000"
    panose-1="0 0 6 0 0 0 0 0 0 0"
    ascent="800"
    descent="-200"
    x-height="494"
    cap-height="700"
    bbox="-617 -272 1323 962"
    underline-thickness="50"
    underline-position="-150"
    unicode-range="U+0020-25CA"
  />
<missing-glyph horiz-adv-x="465" 
d="M381 720v-930h-295v930h295zM310 658h-154v-31h61v-34h-62v-31h155v31h-62v34h62v31zM248 538h-93v-97h155v32h-62v65zM217 506v-33h-31v33h31zM310 416h-155v-31h62v-34h-62v-31h93v65h62v31zM310 360h-31v-61h-124v-32h155v93zM310 247h-93v-52h31v21h31v-44h-93v75
h-31v-105h155v105zM310 86h-155v-105h155v105zM279 55v-44h-93v44h93zM310 -41h-155v-30h65l-65 -44v-31h155v31h-95l65 44h30v30z" />
    <glyph glyph-name=".notdef" horiz-adv-x="465" 
d="M381 720v-930h-295v930h295zM310 658h-154v-31h61v-34h-62v-31h155v31h-62v34h62v31zM248 538h-93v-97h155v32h-62v65zM217 506v-33h-31v33h31zM310 416h-155v-31h62v-34h-62v-31h93v65h62v31zM310 360h-31v-61h-124v-32h155v93zM310 247h-93v-52h31v21h31v-44h-93v75
h-31v-105h155v105zM310 86h-155v-105h155v105zM279 55v-44h-93v44h93zM310 -41h-155v-30h65l-65 -44v-31h155v31h-95l65 44h30v30z" />
    <glyph glyph-name=".null" 
 />
    <glyph glyph-name="nonmarkingreturn" horiz-adv-x="333" 
 />
    <glyph glyph-name="space" unicode=" " horiz-adv-x="248" 
 />
    <glyph glyph-name="exclam" unicode="!" horiz-adv-x="302" 
d="M95 230v490l112 4v-490zM150 -9q-35 0 -55 21t-20 55q0 35 20.5 56t57.5 21q35 0 54.5 -21.5t19.5 -55.5q0 -35 -20 -55.5t-57 -20.5z" />
    <glyph glyph-name="quotedbl" unicode="&#x22;" horiz-adv-x="432" 
d="M84 463l-7 257l103 4l-7 -257zM259 463l-8 257l104 4l-7 -257z" />
    <glyph glyph-name="numbersign" unicode="#" horiz-adv-x="735" 
d="M664 427h-115l-26 -145h110l-4 -87h-121l-35 -195h-92l34 195h-149l-35 -195h-92l34 195h-106l4 87h118l25 145h-112l4 88h124l33 185h92l-32 -185h149l33 185h92l-32 -185h103zM431 282l25 145h-149l-26 -145h150z" />
    <glyph glyph-name="dollar" unicode="$" horiz-adv-x="573" 
d="M499 242q0 -65 -42 -113.5t-115 -66.5v-81l-93 -4v77q-92 6 -175 54l41 85q81 -43 155 -43q49 0 76.5 22t27.5 57q0 21 -17 38t-33.5 25.5t-54.5 24.5q-1 0 -3 1q-31 13 -47.5 20t-42.5 23t-39.5 32t-24 41t-10.5 55q0 62 39 110.5t114 62.5v67l93 4v-68q67 -6 130 -36
l-33 -84q-65 31 -131 31q-46 0 -70 -21t-24 -53q0 -49 73 -82q12 -6 19 -8q7 -3 35 -14t38.5 -16t33.5 -17t33 -22.5t23.5 -25.5t18.5 -34t5 -41z" />
    <glyph glyph-name="percent" unicode="%" horiz-adv-x="1026" 
d="M261 367q-80 0 -122.5 45t-42.5 129q0 82 44 130.5t123 48.5t121.5 -46t42.5 -129q0 -84 -43.5 -131t-122.5 -47zM315 -19l-75 51l468 688l78 -47zM262 434q80 0 80 109q0 110 -80 110q-79 0 -79 -109q0 -54 20.5 -82t58.5 -28zM764 -15q-80 0 -123 45t-43 129
q0 81 44.5 130t122.5 49q79 0 122 -45.5t43 -129.5t-43.5 -131t-122.5 -47zM765 52q80 0 80 109q0 110 -80 110q-79 0 -79 -109q0 -110 79 -110z" />
    <glyph glyph-name="ampersand" unicode="&#x26;" horiz-adv-x="749" 
d="M593 170q52 -38 143 -97l-15 -22l-39 -68q-91 61 -152 105q-105 -107 -247 -107q-99 0 -159 47.5t-60 129.5q0 49 23 91t52 67t75 55q-73 97 -73 180q0 77 54.5 126.5t144.5 49.5q82 0 130.5 -40.5t48.5 -109.5q0 -35 -13 -66t-39.5 -57t-50.5 -44t-62 -42
q67 -70 168 -147q41 69 67 171l78 -35q-25 -106 -74 -187zM256 557q0 -60 49 -130q49 33 75.5 66t26.5 76q0 74 -72 74q-38 0 -58.5 -23.5t-20.5 -62.5zM301 68q86 0 160 72q-126 95 -196 171q-89 -65 -89 -133q0 -51 35 -80.5t90 -29.5z" />
    <glyph glyph-name="quotesingle" unicode="'" horiz-adv-x="257" 
d="M84 463l-7 257l103 4l-7 -257z" />
    <glyph glyph-name="parenleft" unicode="(" horiz-adv-x="400" 
d="M253 -221q-151 218 -151 478t149 474l89 -4q-115 -214 -114 -470.5t118 -468.5z" />
    <glyph glyph-name="parenright" unicode=")" horiz-adv-x="400" 
d="M147 738q151 -218 151.5 -478t-149.5 -474l-89 4q116 214 115 470.5t-119 468.5z" />
    <glyph glyph-name="asterisk" unicode="*" horiz-adv-x="430" 
d="M379 603l-114 -29l75 -91l-62 -45l-63 99l-63 -99l-62 45l75 91l-114 29l23 73l109 -43l-7 117h77l-7 -117l109 43z" />
    <glyph glyph-name="plus" unicode="+" horiz-adv-x="604" 
d="M528 402l-4 -89h-178v-184h-92v184h-183l4 89h179v184h92v-184h182z" />
    <glyph glyph-name="comma" unicode="," horiz-adv-x="272" 
d="M134 128q35 0 56 -23.5t21 -66.5q0 -50 -29.5 -100t-69.5 -71l-42 19q44 46 49 110q-61 6 -61 63q0 30 20.5 49.5t55.5 19.5z" />
    <glyph glyph-name="hyphen" unicode="-" horiz-adv-x="361" 
d="M51 301l4 79h255l-4 -79h-255z" />
    <glyph glyph-name="period" unicode="." horiz-adv-x="284" 
d="M141 -9q-35 0 -55 21t-20 55q0 35 20.5 56t57.5 21q35 0 54.5 -21.5t19.5 -55.5q0 -35 -20 -55.5t-57 -20.5z" />
    <glyph glyph-name="slash" unicode="/" horiz-adv-x="377" 
d="M117 -128l-103 -4l246 860l103 4z" />
    <glyph glyph-name="zero" unicode="0" horiz-adv-x="632" 
d="M312 -10q-127 0 -194 90t-67 262q0 174 70.5 271t199.5 97q126 0 193 -90t67 -262q0 -174 -70 -271t-199 -97zM319 88q64 0 102 67.5t38 193.5q0 263 -145 263q-65 0 -103 -67.5t-38 -193.5q0 -263 146 -263z" />
    <glyph glyph-name="one" unicode="1" horiz-adv-x="396" 
d="M207 713l118 -7v-706h-111v592l-147 -123l-60 76z" />
    <glyph glyph-name="two" unicode="2" horiz-adv-x="532" 
d="M190 94h297l-7 -94h-441l-6 81q178 157 249 242.5t71 164.5q0 125 -139 125q-66 0 -136 -29l-34 85q92 44 194 44q113 0 173 -54.5t60 -151.5q0 -93 -63 -187t-218 -226z" />
    <glyph glyph-name="three" unicode="3" horiz-adv-x="511" 
d="M323 378q66 -16 104 -60t38 -113q0 -93 -64 -154t-185 -61q-110 0 -195 41l30 86q70 -29 151 -29q69 0 106.5 31t37.5 90q0 61 -46 86t-134 25h-43l4 81h47q73 0 110.5 31.5t37.5 84.5q0 94 -117 94q-69 0 -128 -23l-33 85q91 39 181 39q97 0 153 -45t56 -124
q0 -58 -29 -101t-82 -64z" />
    <glyph glyph-name="four" unicode="4" horiz-adv-x="603" 
d="M597 247l-7 -93h-116v-154h-110v154h-332l-7 87l301 471l148 -7v-458h123zM142 247h222v356z" />
    <glyph glyph-name="five" unicode="5" horiz-adv-x="519" 
d="M191 425q140 11 212 -43t72 -160t-66 -169t-182 -63q-119 0 -203 49l30 85q77 -37 159 -37q65 0 104 35t39 97q0 155 -259 128l-13 46v307h361l-6 -97h-248v-178z" />
    <glyph glyph-name="six" unicode="6" horiz-adv-x="587" 
d="M332 449q93 0 149.5 -53t56.5 -154q0 -109 -66.5 -179.5t-176.5 -70.5q-117 0 -180.5 77.5t-63.5 227.5q0 61 9 117.5t31.5 111.5t56.5 95t89 65t125 25q75 0 138 -27l-28 -91q-58 19 -113 19q-159 0 -184 -215q70 52 157 52zM300 91q57 0 88 40.5t31 103.5
q0 126 -119 126q-72 0 -129 -46v-9q0 -109 30.5 -162t98.5 -53z" />
    <glyph glyph-name="seven" unicode="7" horiz-adv-x="472" 
d="M449 700l7 -88q-170 -256 -259 -615l-117 2q78 340 261 606h-319l7 95h420z" />
    <glyph glyph-name="eight" unicode="8" horiz-adv-x="580" 
d="M388 371q70 -37 109.5 -78.5t39.5 -107.5q0 -85 -66 -142t-182 -57q-107 0 -173 46.5t-66 134.5q0 123 144 194q-108 70 -108 170q0 84 58 133.5t156 49.5q93 0 152.5 -45t59.5 -123q0 -54 -33 -100t-91 -75zM298 630q-47 0 -74 -25t-27 -65q0 -42 29.5 -71.5t84.5 -58.5
q42 23 66.5 56.5t24.5 69.5q0 43 -27.5 68.5t-76.5 25.5zM293 73q54 0 87.5 29.5t33.5 74.5q0 24 -10.5 44t-35 38.5t-43 29.5t-55.5 30l-2 1h-2q0 1 -1 1q-95 -52 -95 -136q0 -53 35 -82.5t88 -29.5z" />
    <glyph glyph-name="nine" unicode="9" horiz-adv-x="581" 
d="M284 711q116 0 181 -85.5t65 -250.5q0 -77 -16 -142.5t-50.5 -121t-97.5 -87.5t-149 -32q-72 0 -143 23l29 90q51 -14 104 -14q98 0 144.5 59.5t56.5 171.5q-67 -57 -160 -57q-85 0 -142 53.5t-57 147.5q0 113 64.5 179t170.5 66zM168 473q0 -58 31.5 -89t83.5 -31
q70 0 128 51q-3 208 -133 208q-49 0 -79.5 -38.5t-30.5 -100.5z" />
    <glyph glyph-name="colon" unicode=":" horiz-adv-x="265" 
d="M141 361q-35 0 -55 21t-20 55q0 35 20.5 56t57.5 21q35 0 54.5 -21.5t19.5 -55.5q0 -35 -20 -55.5t-57 -20.5zM141 -9q-35 0 -55 21t-20 55q0 35 20.5 56t57.5 21q35 0 54.5 -21.5t19.5 -55.5q0 -35 -20 -55.5t-57 -20.5z" />
    <glyph glyph-name="semicolon" unicode=";" horiz-adv-x="265" 
d="M131 361q-35 0 -54.5 21t-19.5 55q0 35 20 56t57 21q35 0 54.5 -21.5t19.5 -55.5q0 -35 -20 -55.5t-57 -20.5zM134 128q35 0 56 -23.5t21 -66.5q0 -50 -29.5 -100t-69.5 -71l-42 19q44 46 49 110q-61 6 -61 63q0 30 20.5 49.5t55.5 19.5z" />
    <glyph glyph-name="less" unicode="&#x3c;" horiz-adv-x="614" 
d="M520 591v-93l-319 -154l319 -154v-93l-427 211v72z" />
    <glyph glyph-name="equal" unicode="=" horiz-adv-x="599" 
d="M75 489h453l-4 -90h-453zM75 275h453l-4 -90h-453z" />
    <glyph glyph-name="greater" unicode="&#x3e;" horiz-adv-x="614" 
d="M99 591l426 -211v-72l-426 -211v93l318 154l-318 154v93z" />
    <glyph glyph-name="question" unicode="?" horiz-adv-x="388" 
d="M207 234l-104 -4q0 41 11.5 76t23 52.5t33.5 44.5l1 1l1 1q17 21 26 33.5t17 34.5t8 45q0 105 -156 105l4 106q145 0 213.5 -45t68.5 -139q0 -44 -15 -81.5t-37 -63t-43.5 -49t-36.5 -53.5t-15 -64zM156 -9q-35 0 -54.5 21t-19.5 55q0 35 20 56t57 21q35 0 55 -21.5
t20 -55.5t-20.5 -55t-57.5 -21z" />
    <glyph glyph-name="at" unicode="@" horiz-adv-x="1056" 
d="M567 -122q198 0 336 75l32 -81q-69 -41 -174.5 -67t-220.5 -26q-224 0 -350 113.5t-126 319.5q0 218 129 352.5t361 134.5q209 0 325 -110.5t116 -299.5q0 -139 -61 -217.5t-165 -78.5q-109 0 -135 89q-51 -88 -160 -88q-65 0 -101.5 33.5t-36.5 88.5q0 84 74.5 121
t214.5 39v2q0 63 -24.5 89.5t-78.5 26.5q-68 0 -137 -36l-20 68q83 47 175 47q87 0 129 -45.5t42 -142.5v-120q0 -86 63 -86q51 0 78.5 49.5t27.5 136.5q0 160 -85 247.5t-251 87.5q-175 0 -270 -103t-95 -276q0 -92 29 -159t82 -107t122 -58.5t155 -18.5zM499 73
q59 0 92 39t34 103q-103 -1 -148.5 -20t-45.5 -63q0 -59 68 -59z" />
    <glyph glyph-name="A" unicode="A" horiz-adv-x="689" 
d="M555 -2l-67 192h-293l-67 -192l-115 2l260 701l142 5l262 -706zM226 277h232l-116 332z" />
    <glyph glyph-name="B" unicode="B" horiz-adv-x="552" 
d="M356 375q156 -32 156 -175q0 -94 -71 -151.5t-209 -57.5q-80 0 -168 9v700q82 10 150 10q115 0 177.5 -46.5t62.5 -131.5q0 -55 -26 -95.5t-72 -61.5zM220 623q-9 0 -35 -2h-3h-3v-219h26q140 0 140 113q0 108 -125 108zM248 87q143 0 143 115q0 62 -43 91t-134 29h-35
v-231q5 0 8 -1q11 0 29 -2q6 0 17 -0.5t15 -0.5z" />
    <glyph glyph-name="C" unicode="C" horiz-adv-x="673" 
d="M388 -13q-140 0 -237 93.5t-97 263.5q0 166 96.5 268t260.5 102q107 0 191 -42l-32 -92q-73 32 -153 32q-110 0 -177 -68.5t-67 -192.5q0 -122 64.5 -192t174.5 -70q85 0 169 42l33 -81q-86 -63 -226 -63z" />
    <glyph glyph-name="D" unicode="D" horiz-adv-x="695" 
d="M245 711q191 0 294.5 -90t103.5 -260q0 -176 -102.5 -274t-295.5 -98q-90 0 -181 11v700q105 11 181 11zM256 86q268 0 268 268q0 132 -71.5 196t-199.5 64q-12 0 -58 -2h-8h-8v-524q60 -2 77 -2z" />
    <glyph glyph-name="E" unicode="E" horiz-adv-x="454" 
d="M179 94h231v-94h-346v700h338v-94h-223v-199h197v-90h-197v-223z" />
    <glyph glyph-name="F" unicode="F" horiz-adv-x="437" 
d="M416 606h-237v-221h205v-94h-205v-291h-115v700h352v-94z" />
    <glyph glyph-name="G" unicode="G" horiz-adv-x="708" 
d="M543 336h110v-306q-114 -43 -241 -43q-169 0 -263.5 90.5t-94.5 251.5q0 178 100 281t268 103q129 0 214 -48l-33 -90q-74 37 -172 37q-118 0 -188 -70.5t-70 -201.5q0 -123 65 -189t183 -66q59 0 122 16v235z" />
    <glyph glyph-name="H" unicode="H" horiz-adv-x="680" 
d="M501 700h115v-700h-115v302h-322v-302h-115v700h115v-302h322v302z" />
    <glyph glyph-name="I" unicode="I" horiz-adv-x="259" 
d="M187 0h-115v700h115v-700z" />
    <glyph glyph-name="J" unicode="J" horiz-adv-x="298" 
d="M108 700h116v-606q0 -152 -71.5 -227.5t-200.5 -77.5l-9 99q87 8 126 54.5t39 154.5v603z" />
    <glyph glyph-name="K" unicode="K" horiz-adv-x="639" 
d="M491 -9l-220 286l-92 -124v-153h-115v700h115v-379l284 388l124 -9l-244 -328l286 -372z" />
    <glyph glyph-name="L" unicode="L" horiz-adv-x="455" 
d="M179 94h237v-94h-352v700h115v-606z" />
    <glyph glyph-name="M" unicode="M" horiz-adv-x="939" 
d="M894 0l-119 -2l-63 555l-185 -524h-123l-183 530l-66 -561l-111 2l88 700l156 7l185 -542l191 542l143 -7z" />
    <glyph glyph-name="N" unicode="N" horiz-adv-x="698" 
d="M532 700h102v-700h-143l-325 562v-562h-102v700l150 7l318 -555v548z" />
    <glyph glyph-name="O" unicode="O" horiz-adv-x="803" 
d="M402 -15q-161 0 -255.5 97.5t-94.5 267.5q0 167 95 266t255 99q161 0 255 -97.5t94 -267.5q0 -167 -94.5 -266t-254.5 -99zM402 86q106 0 165.5 68.5t59.5 195.5q0 129 -60 199t-165 70t-165 -70t-60 -199q0 -127 59.5 -195.5t165.5 -68.5z" />
    <glyph glyph-name="P" unicode="P" horiz-adv-x="523" 
d="M215 710q284 0 284 -224q0 -126 -80.5 -189t-215.5 -63h-24v-234h-115v700q78 10 151 10zM211 324q85 0 127.5 40.5t42.5 114.5t-39.5 106.5t-118.5 32.5q-27 0 -44 -1v-293h32z" />
    <glyph glyph-name="Q" unicode="Q" horiz-adv-x="803" 
d="M986 -111l25 -90q-181 -39 -312 9t-226 183q-35 -6 -71 -6q-161 0 -255.5 97.5t-94.5 267.5q0 167 95 266t255 99q161 0 255 -97.5t94 -267.5q0 -115 -45.5 -199t-128.5 -126q73 -95 167.5 -129t241.5 -7zM177 350q0 -127 59.5 -195.5t165.5 -68.5t165.5 68.5t59.5 195.5
q0 129 -60 199t-165 70t-165 -70t-60 -199z" />
    <glyph glyph-name="R" unicode="R" horiz-adv-x="569" 
d="M555 0l-123 -6l-148 256q-26 -5 -63 -5h-42v-245h-115v700q86 11 160 11q130 0 204 -54.5t74 -165.5q0 -136 -117 -205zM179 334h47q74 0 116 39.5t42 110.5q0 134 -153 134q-35 0 -52 -1v-283z" />
    <glyph glyph-name="S" unicode="S" horiz-adv-x="479" 
d="M223 -12q-102 0 -181 54l31 86q84 -43 147 -43q54 0 83 26t29 68q0 23 -8.5 42.5t-27.5 38t-35 30t-45 30.5l-2 2q-35 23 -54.5 37.5t-45 40.5t-37.5 57.5t-12 69.5q-2 83 53.5 134.5t156.5 51.5q78 0 147 -34l-30 -86q-57 27 -116 27q-49 0 -75.5 -23t-26.5 -61
q0 -29 19 -55.5t37.5 -40.5t58.5 -41q1 0 1 -0.5t1 -0.5q38 -24 58 -39t47 -42t39.5 -59t12.5 -72q0 -88 -63 -143t-162 -55z" />
    <glyph glyph-name="T" unicode="T" horiz-adv-x="591" 
d="M565 700v-95h-213v-605h-115v605h-215v95h543z" />
    <glyph glyph-name="U" unicode="U" horiz-adv-x="660" 
d="M491 700h115v-447q0 -130 -77.5 -197.5t-199.5 -67.5q-125 0 -200 66.5t-75 198.5v447h116v-432q0 -86 42 -130t118 -44q77 0 119 44.5t42 129.5v432z" />
    <glyph glyph-name="V" unicode="V" horiz-adv-x="629" 
d="M517 705l117 -5l-259 -703h-122l-258 703l128 5l197 -575z" />
    <glyph glyph-name="W" unicode="W" horiz-adv-x="1033" 
d="M920 704l118 -4l-276 -706h-106l-135 356l-153 -356h-96l-277 706l123 4l213 -558l140 335l-82 219h123l200 -541z" />
    <glyph glyph-name="X" unicode="X" horiz-adv-x="643" 
d="M632 0l-135 -2l-182 272l-185 -272l-119 2l246 356l-231 344l133 2l172 -254l168 254l118 -2l-228 -338z" />
    <glyph glyph-name="Y" unicode="Y" horiz-adv-x="630" 
d="M630 700l-257 -412v-288h-115v286l-258 414l130 4l190 -310l194 310z" />
    <glyph glyph-name="Z" unicode="Z" horiz-adv-x="563" 
d="M172 94h357v-94h-485l-7 82l348 524h-323v94h455l6 -82z" />
    <glyph glyph-name="bracketleft" unicode="[" horiz-adv-x="360" 
d="M300 632h-112v-748h112l-4 -88h-203v924h211z" />
    <glyph glyph-name="backslash" unicode="\" horiz-adv-x="377" 
d="M256 -132l-242 860l107 4l242 -860z" />
    <glyph glyph-name="bracketright" unicode="]" horiz-adv-x="360" 
d="M65 720h202v-924h-210l4 88h112v748h-112z" />
    <glyph glyph-name="asciicircum" unicode="^" horiz-adv-x="575" 
d="M455 253l-170 370l-170 -369h-69l208 436h65l208 -436z" />
    <glyph glyph-name="underscore" unicode="_" horiz-adv-x="588" 
d="M47 0h486l-4 -92h-486z" />
    <glyph glyph-name="grave" unicode="`" horiz-adv-x="600" 
d="M409 615l-25 -52l-202 90l38 81z" />
    <glyph glyph-name="a" unicode="a" horiz-adv-x="510" 
d="M455 0l-104 -9q-10 34 -14 87q-54 -92 -166 -92q-65 0 -102.5 35t-37.5 99q0 90 77 131t228 43v6q0 112 -117 112q-71 0 -131 -37l-27 81q77 51 183 51q199 0 199 -200v-209q0 -47 12 -98zM213 65q55 0 89 39.5t34 101.5v15q-102 -1 -148.5 -22t-46.5 -69q0 -65 72 -65z
" />
    <glyph glyph-name="b" unicode="b" horiz-adv-x="574" 
d="M343 507q83 0 135 -58t52 -171q0 -139 -67.5 -213.5t-189.5 -74.5q-113 0 -200 48v682l107 4v-307q56 90 163 90zM288 82q65 0 98 49t33 134q0 73 -28 111.5t-82 38.5q-129 0 -129 -223v-91q52 -19 108 -19z" />
    <glyph glyph-name="c" unicode="c" horiz-adv-x="502" 
d="M459 34q-68 -48 -172 -48q-111 0 -177.5 66.5t-66.5 182.5q0 126 71 199t188 73q89 0 152 -37l-30 -85q-51 28 -112 28q-71 0 -113 -42.5t-42 -122.5t41.5 -122t116.5 -42q66 0 113 28z" />
    <glyph glyph-name="d" unicode="d" horiz-adv-x="571" 
d="M392 720l108 6v-726h-108v82q-50 -94 -154 -94q-91 0 -143 65.5t-52 180.5q0 128 61 200.5t159 72.5q68 0 129 -39v252zM272 86q54 0 87 45.5t33 127.5v115q-55 41 -114 41q-58 0 -89.5 -44t-31.5 -128q0 -75 29.5 -116t85.5 -41z" />
    <glyph glyph-name="e" unicode="e" horiz-adv-x="500" 
d="M294 79q69 0 128 32l29 -74q-82 -51 -184 -51q-106 0 -165 61t-59 184q0 129 63 202.5t173 73.5q77 0 126 -39t49 -104q0 -74 -59 -107.5t-198 -33.5h-39q4 -73 36 -108.5t100 -35.5zM276 428q-51 0 -81 -38t-36 -107h44q82 0 114.5 17t32.5 61q0 30 -20 48.5t-54 18.5z
" />
    <glyph glyph-name="f" unicode="f" horiz-adv-x="340" 
d="M287 643q-43 0 -62 -33t-19 -106v-10h128l-4 -85h-124v-409h-111v409h-62v85h62v17q0 108 46 165.5t131 57.5q61 0 115 -29l-28 -78q-38 16 -72 16z" />
    <glyph glyph-name="g" unicode="g" horiz-adv-x="536" 
d="M190 130q0 -11 7.5 -18.5t25.5 -12t32.5 -7t43.5 -5.5q38 -4 60 -7.5t56 -13t52.5 -23t33 -38.5t14.5 -59q0 -80 -74 -124t-194 -44q-104 0 -161.5 34t-57.5 98q0 74 94 135q-28 21 -28 56q0 48 51 78q-86 48 -86 150q0 80 55.5 129.5t147.5 49.5q66 0 114 -25l100 80
l55 -63l-98 -64q33 -42 33 -104q0 -81 -55.5 -130.5t-149.5 -49.5q-26 0 -56 5q-15 -12 -15 -27zM262 435q-42 0 -67.5 -27t-25.5 -77t26 -78.5t69 -28.5q42 0 67 27.5t25 77.5q0 51 -25.5 78.5t-68.5 27.5zM258 -141q72 0 111.5 19.5t39.5 56.5q0 18 -10 30t-34.5 19.5
t-42 11t-53.5 8.5h-2q-4 0 -11.5 1t-11.5 2q-34 6 -50 9q-69 -40 -69 -87q0 -70 133 -70z" />
    <glyph glyph-name="h" unicode="h" horiz-adv-x="576" 
d="M350 507q76 0 116 -47.5t40 -137.5v-322h-110v293q0 62 -20.5 90t-65.5 28q-129 0 -129 -236v-175h-108v720l108 6v-322q58 103 169 103z" />
    <glyph glyph-name="i" unicode="i" horiz-adv-x="262" 
d="M129 600q-31 0 -48 19t-17 50q0 32 17.5 50.5t51.5 18.5q31 0 47.5 -18.5t16.5 -50.5t-17 -50.5t-51 -18.5zM76 494l110 7v-501h-110v494z" />
    <glyph glyph-name="j" unicode="j" horiz-adv-x="272" 
d="M139 600q-31 0 -48 19t-17 50q0 32 17.5 50.5t51.5 18.5q31 0 47.5 -18.5t16.5 -50.5t-17 -50.5t-51 -18.5zM-68 -119q35 -13 74 -13q80 0 80 140v486l110 7v-488q0 -125 -51.5 -185.5t-134.5 -60.5q-57 0 -103 23z" />
    <glyph glyph-name="k" unicode="k" horiz-adv-x="534" 
d="M382 -7l-143 222l-74 -80v-136h-110v721l110 6v-465q58 76 127 160l66 75l122 -2l-168 -195l201 -300z" />
    <glyph glyph-name="l" unicode="l" horiz-adv-x="246" 
d="M65 720l110 7v-727h-110v720z" />
    <glyph glyph-name="m" unicode="m" horiz-adv-x="877" 
d="M657 507q75 0 113 -47t38 -136v-324h-110v295q0 60 -19.5 88t-61.5 28q-58 0 -88 -50.5t-33 -157.5v-203h-110v295q0 61 -19.5 88.5t-61.5 27.5q-62 0 -91.5 -57t-29.5 -180v-174h-109v494l109 8v-94q55 99 162 99q117 0 143 -117q52 117 168 117z" />
    <glyph glyph-name="n" unicode="n" horiz-adv-x="578" 
d="M352 507q76 0 116 -47.5t40 -137.5v-322h-110v293q0 62 -20.5 90t-65.5 28q-128 0 -128 -236v-175h-109v494l109 8v-98q57 103 168 103z" />
    <glyph glyph-name="o" unicode="o" horiz-adv-x="577" 
d="M287 -14q-115 0 -179.5 67.5t-64.5 188.5q0 123 65.5 194t181.5 71q115 0 179.5 -68t64.5 -190q0 -123 -65 -193t-182 -70zM290 71q61 0 94.5 44.5t33.5 129.5q0 86 -34 132t-96 46q-61 0 -93.5 -45t-32.5 -131t33 -131t95 -45z" />
    <glyph glyph-name="p" unicode="p" horiz-adv-x="580" 
d="M353 506q89 0 136.5 -66t47.5 -179q0 -122 -59.5 -196.5t-162.5 -74.5q-67 0 -131 36v-236l-109 -7v711l109 7v-105q53 110 169 110zM304 82q59 0 89.5 45.5t30.5 129.5q0 158 -110 158q-62 0 -96 -59t-34 -173v-59q58 -42 120 -42z" />
    <glyph glyph-name="q" unicode="q" horiz-adv-x="575" 
d="M500 447v-657l-108 -7v296q-49 -91 -152 -91q-91 0 -144 64.5t-53 178.5q0 130 66.5 203t181.5 73q103 0 209 -60zM271 86q56 0 88.5 44t32.5 129v124q-56 32 -111 32q-60 0 -92 -42.5t-32 -125.5q0 -80 30 -120.5t84 -40.5z" />
    <glyph glyph-name="r" unicode="r" horiz-adv-x="362" 
d="M316 505q16 0 31 -5l-7 -117q-79 12 -117.5 -52t-38.5 -215v-116h-109v494l109 9v-138q42 140 132 140z" />
    <glyph glyph-name="s" unicode="s" horiz-adv-x="422" 
d="M368 483l-29 -79q-50 22 -100 22q-40 0 -62 -16t-22 -45q0 -20 14.5 -35t30.5 -23t47 -19q33 -12 51 -20.5t42 -26t35.5 -43t11.5 -59.5q0 -72 -51 -112t-134 -41q-80 -1 -167 42l31 78q70 -34 127 -34q39 0 62 15.5t23 43.5q0 18 -13 32.5t-26.5 21t-42.5 19.5h-1
q-1 1 -2 1q-31 12 -49 21t-41.5 27t-34.5 44t-11 60q0 71 49.5 111t130.5 40q70 0 131 -25z" />
    <glyph glyph-name="t" unicode="t" horiz-adv-x="406" 
d="M361 108l18 -82q-65 -39 -139 -39q-140 0 -140 149v273h-60v85h60v122l111 8v-130h154l-4 -85h-150v-247q0 -40 16.5 -59t51.5 -19q40 0 82 24z" />
    <glyph glyph-name="u" unicode="u" horiz-adv-x="572" 
d="M388 493l110 7v-500l-110 -4v93q-53 -99 -163 -99q-76 0 -115.5 47t-39.5 136v320l109 7v-293q0 -121 86 -121q58 0 90.5 54t32.5 144v209z" />
    <glyph glyph-name="v" unicode="v" horiz-adv-x="520" 
d="M392 497l112 -3l-167 -494h-154l-167 494l122 3l127 -405z" />
    <glyph glyph-name="w" unicode="w" horiz-adv-x="805" 
d="M687 497l102 -3l-160 -494h-146l-81 247l-91 -247h-141l-154 494l110 3l128 -405l107 283l-39 119l110 3l128 -405z" />
    <glyph glyph-name="x" unicode="x" horiz-adv-x="536" 
d="M517 0l-130 -2l-126 171l-128 -171l-114 2l183 249l-181 246l130 2l122 -166l125 166l114 -2l-180 -244z" />
    <glyph glyph-name="y" unicode="y" horiz-adv-x="520" 
d="M504 494l-167 -494l-13 -30q-36 -97 -100 -140t-164 -46l-7 98q65 2 102.5 25.5t61.5 81.5l5 11h-39l-167 494l122 3l127 -405l127 405z" />
    <glyph glyph-name="z" unicode="z" horiz-adv-x="443" 
d="M163 86h250v-86h-377l-7 74l245 335h-231v85h356l7 -76z" />
    <glyph glyph-name="braceleft" unicode="{" horiz-adv-x="395" 
d="M241 -61q0 -35 10.5 -48t36.5 -13h50l-4 -88h-95q-56 0 -78.5 25.5t-22.5 84.5v241q0 73 -63 73h-45l4 105h46q58 0 58 79v212q0 59 24 84.5t82 25.5h94l-4 -88h-49q-25 0 -34.5 -13t-9.5 -48v-196q0 -86 -54 -106q54 -23 54 -108v-222z" />
    <glyph glyph-name="bar" unicode="|" horiz-adv-x="303" 
d="M192 817v-1089h-82v1089h82z" />
    <glyph glyph-name="braceright" unicode="}" horiz-adv-x="395" 
d="M315 318h45l-4 -106h-46q-32 0 -44.5 -20t-12.5 -59v-233q0 -59 -24.5 -84.5t-82.5 -25.5h-94l4 88h49q26 0 35 12.5t9 48.5v218q0 84 54 106q-54 22 -54 108v200q0 35 -10.5 48t-36.5 13h-50l4 88h95q56 0 79 -25.5t23 -84.5v-219q0 -73 62 -73z" />
    <glyph glyph-name="asciitilde" unicode="~" horiz-adv-x="585" 
d="M46 269q4 62 42 95t89 33q48 0 128 -35q1 0 1 -0.5t1 -0.5q66 -26 92 -26q25 0 43 16t22 47l75 -14q-4 -63 -42.5 -95.5t-89.5 -32.5q-45 0 -123 34h-1q-1 1 -2 1q-64 27 -94 27q-26 0 -44 -16t-22 -47z" />
    <glyph glyph-name="uni00A0" unicode="&#xa0;" horiz-adv-x="248" 
 />
    <glyph glyph-name="exclamdown" unicode="&#xa1;" horiz-adv-x="302" 
d="M152 519q35 0 55 -21t20 -55q0 -35 -20.5 -56t-57.5 -21q-35 0 -54.5 21.5t-19.5 55.5q0 35 20 55.5t57 20.5zM208 280v-490l-113 -4v490z" />
    <glyph glyph-name="cent" unicode="&#xa2;" horiz-adv-x="502" 
d="M459 34q-52 -37 -134 -46v-80l-93 -4v87q-88 16 -138.5 80t-50.5 164q0 107 52.5 177t142.5 88v91l93 4v-89q73 -6 123 -36l-30 -85q-51 28 -112 28q-71 0 -113 -42.5t-42 -122.5t41.5 -122t116.5 -42q66 0 113 28z" />
    <glyph glyph-name="sterling" unicode="&#xa3;" horiz-adv-x="555" 
d="M257 278q-3 -100 -82 -184h309v-94h-426l-7 81q94 96 96 197h-99l7 74h85l-3 15q0 3 -1.5 9l-2.5 10q-18 82 -18 129q0 85 55.5 143t158.5 58q83 0 171 -43l-32 -89q-74 33 -129 33t-82 -33t-27 -91q0 -35 13 -98q6 -28 8 -43h190l-7 -74h-177z" />
    <glyph glyph-name="currency" unicode="&#xa4;" horiz-adv-x="658" 
d="M517 91l-70 83q-49 -42 -120 -42q-73 0 -120 39l-68 -80l-47 44l72 76q-49 61 -49 143q0 89 50 142l-72 72l46 45l68 -79q45 41 120 41q78 0 123 -41l68 79l45 -45l-72 -72q50 -53 50 -142q0 -38 -14.5 -77t-37.5 -65l75 -77zM327 502q-56 0 -94.5 -41t-38.5 -107
q0 -67 38 -107.5t96 -40.5q57 0 95.5 40.5t38.5 107.5q0 65 -38.5 106.5t-96.5 41.5z" />
    <glyph glyph-name="yen" unicode="&#xa5;" horiz-adv-x="634" 
d="M534 263h-159v-66h166l-7 -74h-159v-123h-110v123h-163l7 74h156v66h-163l7 74h130l-197 363l129 4l155 -308l157 308l115 -4l-198 -363h141z" />
    <glyph glyph-name="brokenbar" unicode="&#xa6;" horiz-adv-x="303" 
d="M192 734v-380h-82v380h82zM192 190v-380h-82v380h82z" />
    <glyph glyph-name="section" unicode="&#xa7;" horiz-adv-x="611" 
d="M479 624q-60 32 -144 32q-57 0 -93 -20.5t-36 -55.5q0 -33 34 -52.5t123 -45.5q96 -29 142.5 -66.5t46.5 -102.5q0 -74 -79 -126q22 -16 35 -42.5t13 -51.5q0 -58 -39 -96.5t-88.5 -52.5t-104.5 -14q-118 0 -193 46l25 68q74 -42 163 -42q53 0 93 21t40 61
q0 37 -33.5 58.5t-117.5 45.5q-105 29 -155 66t-50 103q0 35 23 69t68 54q-45 38 -45 92q0 75 63.5 115t160.5 40q98 0 169 -34zM154 372q0 -34 29.5 -55.5t100.5 -42.5q100 -31 131 -48q45 26 45 72q0 35 -27 58t-86 41q-88 27 -138 46q-55 -26 -55 -70v-1z" />
    <glyph glyph-name="dieresis" unicode="&#xa8;" horiz-adv-x="420" 
d="M105 584q-28 0 -44 17t-16 46t16.5 46t47.5 17q28 0 43.5 -17t15.5 -46t-16 -46t-47 -17zM306 584q-29 0 -44.5 17t-15.5 46t16 46t47 17q29 0 44.5 -17t15.5 -46t-16 -46t-47 -17z" />
    <glyph glyph-name="copyright" unicode="&#xa9;" horiz-adv-x="1003" 
d="M499 -101q-197 0 -319 125.5t-122 321.5t123 325t320 129t320.5 -125.5t123.5 -319.5q0 -197 -124 -326.5t-322 -129.5zM504 1q148 0 239.5 99.5t91.5 249.5q0 153 -93 251t-245 98q-147 0 -238 -99.5t-91 -249.5q0 -153 92 -251t244 -98zM652 183q-62 -42 -147 -42
q-92 0 -145 57.5t-53 155.5q0 101 56 160t153 59q72 0 130 -34l-32 -79q-39 18 -82 18q-117 0 -117 -121t115 -121q54 0 92 22z" />
    <glyph glyph-name="guillemotleft" unicode="&#xab;" horiz-adv-x="529" 
d="M307 414l-135 -155l135 -159l-57 -48l-179 205l188 210zM351 263l106 -122l-56 -46l-146 166l149 166l47 -52z" />
    <glyph glyph-name="logicalnot" unicode="&#xac;" horiz-adv-x="608" 
d="M526 402v-255h-93v166h-362l4 89h451z" />
    <glyph glyph-name="registered" unicode="&#xae;" horiz-adv-x="595" 
d="M299 724q114 0 182 -70.5t68 -185.5q0 -117 -69 -188.5t-184 -71.5q-114 0 -182 70t-68 185q0 118 69 189.5t184 71.5zM298 260q89 0 142 56.5t53 150.5q0 93 -53 149t-142 56t-142 -56.5t-53 -151.5q0 -93 53 -148.5t142 -55.5zM389 531q0 -46 -41 -74l64 -116h-59
l-54 99q-14 -2 -21 -2h-7v-96h-51v266q41 6 62 6q48 0 77.5 -22.5t29.5 -60.5zM271 481h8q58 0 58 48q0 43 -53 43q-9 0 -13 -1v-90z" />
    <glyph glyph-name="degree" unicode="&#xb0;" horiz-adv-x="388" 
d="M189 709q64 0 106 -44t42 -109q0 -69 -43 -110t-106 -41q-62 0 -105 41t-43 110q0 68 43 110.5t105 42.5h1zM187 663q-39 0 -64 -29t-25 -77q0 -46 26 -77t66 -31q41 0 65 29t24 76q0 48 -23.5 78.5t-67.5 30.5h-1z" />
    <glyph glyph-name="plusminus" unicode="&#xb1;" horiz-adv-x="588" 
d="M254 275v162h-161l3 79h158v163h81v-163h161l-4 -79h-157v-162h-81zM93 113l3 79h400l-4 -79h-399z" />
    <glyph glyph-name="acute" unicode="&#xb4;" horiz-adv-x="600" 
d="M182 615l189 119l38 -81l-202 -90z" />
    <glyph glyph-name="paragraph" unicode="&#xb6;" horiz-adv-x="550" 
d="M256 0v278h-14q-87 0 -151 52.5t-64 152.5q-1 109 75 173t244 64q97 0 137 -10v-710h-73v653h-80v-653h-74z" />
    <glyph glyph-name="periodcentered" unicode="&#xb7;" horiz-adv-x="285" 
d="M141 271q-35 0 -55 21t-20 55q0 35 20.5 56t57.5 21q35 0 54.5 -21.5t19.5 -55.5q0 -35 -20 -55.5t-57 -20.5z" />
    <glyph glyph-name="cedilla" unicode="&#xb8;" horiz-adv-x="519" 
d="M232 -58q44 2 67.5 -17t23.5 -56q0 -40 -29 -62.5t-79 -22.5q-42 0 -80 19l16 44q29 -13 55 -13q45 0 45 34q0 45 -82 40l-6 21l24 71h57z" />
    <glyph glyph-name="guillemotright" unicode="&#xbb;" horiz-adv-x="529" 
d="M279 467l179 -205l-188 -210l-48 53l135 155l-135 159zM128 424l146 -166l-149 -166l-47 52l100 112l-106 122z" />
    <glyph glyph-name="questiondown" unicode="&#xbf;" horiz-adv-x="388" 
d="M232 519q35 0 54.5 -21t19.5 -55q0 -35 -20 -56t-57 -21q-35 0 -55 21.5t-20 55.5t20.5 55t57.5 21zM181 276l104 4q0 -41 -11.5 -76t-23 -52.5t-33.5 -44.5l-1 -1l-1 -1q-17 -21 -26 -33.5t-17 -34.5t-8 -45q0 -105 155 -105l-4 -106q-145 0 -213 45t-68 139
q0 44 15 81.5t37 63t43.5 49t36.5 53.5t15 64z" />
    <glyph glyph-name="Agrave" unicode="&#xc0;" horiz-adv-x="689" 
d="M444 826l-24 -52l-222 82l35 83zM555 -2l-67 192h-293l-67 -192l-115 2l260 701l142 5l262 -706zM226 277h232l-116 332z" />
    <glyph glyph-name="Aacute" unicode="&#xc1;" horiz-adv-x="689" 
d="M495 857l-222 -82l-24 52l211 113zM555 -2l-67 192h-293l-67 -192l-115 2l260 701l142 5l262 -706zM226 277h232l-116 332z" />
    <glyph glyph-name="Acircumflex" unicode="&#xc2;" horiz-adv-x="689" 
d="M345 840l-142 -66l-25 49l167 107l168 -107l-25 -49zM555 -2l-67 192h-293l-67 -192l-115 2l260 701l142 5l262 -706zM226 277h232l-116 332z" />
    <glyph glyph-name="Atilde" unicode="&#xc3;" horiz-adv-x="689" 
d="M272 808q-28 0 -75 -30l-28 51q57 52 112 52q36 0 84 -22q1 0 2 -1q38 -14 52 -14q27 0 73 31l27 -51q-56 -52 -110 -52q-22 0 -47 9l-9 3q-6 2 -19.5 7.5t-21 8.5t-19 5.5t-21.5 2.5zM555 -2l-67 192h-293l-67 -192l-115 2l260 701l142 5l262 -706zM226 277h232
l-116 332z" />
    <glyph glyph-name="Adieresis" unicode="&#xc4;" horiz-adv-x="689" 
d="M243 790q-28 0 -44 17t-16 46t16.5 46t47.5 17q28 0 43.5 -17t15.5 -46t-16 -46t-47 -17zM444 790q-29 0 -44.5 17t-15.5 46t16 46t47 17q29 0 44.5 -17t15.5 -46t-16 -46t-47 -17zM555 -2l-67 192h-293l-67 -192l-115 2l260 701l142 5l262 -706zM226 277h232l-116 332z
" />
    <glyph glyph-name="Aring" unicode="&#xc5;" horiz-adv-x="689" 
d="M345 760q-49 0 -79 27.5t-30 73.5t30 73.5t79 27.5t78.5 -27.5t29.5 -73.5t-29.5 -73.5t-78.5 -27.5zM345 907q-44 0 -44 -46t44 -46q43 0 43 46t-43 46zM555 -2l-67 192h-293l-67 -192l-115 2l260 701l142 5l262 -706zM226 277h232l-116 332z" />
    <glyph glyph-name="AE" unicode="&#xc6;" horiz-adv-x="790" 
d="M513 94h231v-94h-346v190h-201l-67 -192l-115 2l260 700h461v-94h-223v-199h197v-90h-197v-223zM228 277h170v329h-55z" />
    <glyph glyph-name="Ccedilla" unicode="&#xc7;" horiz-adv-x="673" 
d="M379 -57q44 1 67.5 -18.5t23.5 -55.5q0 -40 -29 -62.5t-79 -22.5q-42 0 -80 19l16 44q29 -13 55 -13q45 0 45 34q0 45 -82 40l-6 21l21 62q-120 19 -198.5 110.5t-78.5 242.5q0 166 96.5 268t260.5 102q107 0 191 -42l-32 -92q-73 32 -153 32q-110 0 -177 -68.5
t-67 -192.5q0 -122 64.5 -192t174.5 -70q85 0 169 42l33 -81q-86 -63 -226 -63z" />
    <glyph glyph-name="Egrave" unicode="&#xc8;" horiz-adv-x="454" 
d="M338 826l-24 -52l-222 82l35 83zM179 94h231v-94h-346v700h338v-94h-223v-199h197v-90h-197v-223z" />
    <glyph glyph-name="Eacute" unicode="&#xc9;" horiz-adv-x="454" 
d="M390 857l-222 -82l-24 52l211 113zM179 94h231v-94h-346v700h338v-94h-223v-199h197v-90h-197v-223z" />
    <glyph glyph-name="Ecircumflex" unicode="&#xca;" horiz-adv-x="454" 
d="M239 840l-142 -66l-25 49l167 107l168 -107l-25 -49zM179 94h231v-94h-346v700h338v-94h-223v-199h197v-90h-197v-223z" />
    <glyph glyph-name="Edieresis" unicode="&#xcb;" horiz-adv-x="454" 
d="M137 790q-28 0 -44 17t-16 46t16.5 46t47.5 17q28 0 43.5 -17t15.5 -46t-16 -46t-47 -17zM338 790q-29 0 -44.5 17t-15.5 46t16 46t47 17q29 0 44.5 -17t15.5 -46t-16 -46t-47 -17zM179 94h231v-94h-346v700h338v-94h-223v-199h197v-90h-197v-223z" />
    <glyph glyph-name="Igrave" unicode="&#xcc;" horiz-adv-x="259" 
d="M229 826l-24 -52l-222 82l35 83zM187 0h-115v700h115v-700z" />
    <glyph glyph-name="Iacute" unicode="&#xcd;" horiz-adv-x="259" 
d="M34 827l211 113l35 -83l-222 -82zM187 0h-115v700h115v-700z" />
    <glyph glyph-name="Icircumflex" unicode="&#xce;" horiz-adv-x="259" 
d="M129 930l168 -107l-25 -49l-143 66l-142 -66l-25 49zM72 0v700h115v-700h-115z" />
    <glyph glyph-name="Idieresis" unicode="&#xcf;" horiz-adv-x="259" 
d="M27 790q-28 0 -44 17t-16 46t16.5 46t47.5 17q28 0 43.5 -17t15.5 -46t-16 -46t-47 -17zM228 790q-29 0 -44.5 17t-15.5 46t16 46t47 17q29 0 44.5 -17t15.5 -46t-16 -46t-47 -17zM187 0h-115v700h115v-700z" />
    <glyph glyph-name="Eth" unicode="&#xd0;" horiz-adv-x="695" 
d="M245 711q191 0 294.5 -90t103.5 -260q0 -176 -102.5 -274t-295.5 -98q-90 0 -181 11v314h-60l4 75h56v311q105 11 181 11zM256 86q268 0 268 268q0 132 -71.5 196t-199.5 64q-12 0 -58 -2h-8h-8v-223h158l-4 -75h-154v-226q60 -2 77 -2z" />
    <glyph glyph-name="Ntilde" unicode="&#xd1;" horiz-adv-x="698" 
d="M290 808q-28 0 -75 -30l-28 51q57 52 112 52q36 0 84 -22q1 0 2 -1q38 -14 52 -14q27 0 73 31l27 -51q-56 -52 -110 -52q-22 0 -47 9l-9 3q-6 2 -19.5 7.5t-21 8.5t-19 5.5t-21.5 2.5zM532 700h102v-700h-143l-325 562v-562h-102v700l150 7l318 -555v548z" />
    <glyph glyph-name="Ograve" unicode="&#xd2;" horiz-adv-x="803" 
d="M501 826l-24 -52l-222 82l35 83zM402 -15q-161 0 -255.5 97.5t-94.5 267.5q0 167 95 266t255 99q161 0 255 -97.5t94 -267.5q0 -167 -94.5 -266t-254.5 -99zM402 86q106 0 165.5 68.5t59.5 195.5q0 129 -60 199t-165 70t-165 -70t-60 -199q0 -127 59.5 -195.5
t165.5 -68.5z" />
    <glyph glyph-name="Oacute" unicode="&#xd3;" horiz-adv-x="803" 
d="M306 827l211 113l35 -83l-222 -82zM402 -15q-161 0 -255.5 97.5t-94.5 267.5q0 167 95 266t255 99q161 0 255 -97.5t94 -267.5q0 -167 -94.5 -266t-254.5 -99zM402 86q106 0 165.5 68.5t59.5 195.5q0 129 -60 199t-165 70t-165 -70t-60 -199q0 -127 59.5 -195.5
t165.5 -68.5z" />
    <glyph glyph-name="Ocircumflex" unicode="&#xd4;" horiz-adv-x="803" 
d="M401 840l-142 -66l-25 49l167 107l168 -107l-25 -49zM402 715q161 0 255 -97.5t94 -267.5q0 -167 -94.5 -266t-254.5 -99q-161 0 -255.5 97.5t-94.5 267.5q0 167 95 266t255 99zM402 86q106 0 165.5 68.5t59.5 195.5q0 129 -60 199t-165 70t-165 -70t-60 -199
q0 -127 59.5 -195.5t165.5 -68.5z" />
    <glyph glyph-name="Otilde" unicode="&#xd5;" horiz-adv-x="803" 
d="M466 772q-28 0 -70 18h-1q-1 1 -2 1q-40 17 -64 17q-28 0 -75 -30l-28 51q57 52 112 52q36 0 84 -22q1 0 2 -1q38 -14 52 -14q26 0 73 31l27 -51q-56 -52 -110 -52zM402 -15q-161 0 -255.5 97.5t-94.5 267.5q0 167 95 266t255 99q161 0 255 -97.5t94 -267.5
q0 -167 -94.5 -266t-254.5 -99zM402 86q106 0 165.5 68.5t59.5 195.5q0 129 -60 199t-165 70t-165 -70t-60 -199q0 -127 59.5 -195.5t165.5 -68.5z" />
    <glyph glyph-name="Odieresis" unicode="&#xd6;" horiz-adv-x="803" 
d="M300 790q-28 0 -44 17t-16 46t16.5 46t47.5 17q28 0 43.5 -17t15.5 -46t-16 -46t-47 -17zM501 790q-29 0 -44.5 17t-15.5 46t16 46t47 17q29 0 44.5 -17t15.5 -46t-16 -46t-47 -17zM402 -15q-161 0 -255.5 97.5t-94.5 267.5q0 167 95 266t255 99q161 0 255 -97.5
t94 -267.5q0 -167 -94.5 -266t-254.5 -99zM402 86q106 0 165.5 68.5t59.5 195.5q0 129 -60 199t-165 70t-165 -70t-60 -199q0 -127 59.5 -195.5t165.5 -68.5z" />
    <glyph glyph-name="multiply" unicode="&#xd7;" horiz-adv-x="615" 
d="M513 218l-65 -66l-141 141l-139 -138l-63 63l138 139l-141 141l66 65l141 -141l138 138l63 -63l-138 -138z" />
    <glyph glyph-name="Oslash" unicode="&#xd8;" horiz-adv-x="803" 
d="M666 607q85 -96 85 -257q0 -167 -94.5 -266t-254.5 -99q-115 0 -197 50l-34 -42l-67 57l34 42q-86 97 -86 258q0 167 95 266t255 99q114 0 197 -51l35 43l67 -56zM177 350q0 -99 37 -164l318 395q-53 38 -130 38q-105 0 -165 -70t-60 -199zM402 86q106 0 165.5 68.5
t59.5 195.5q0 98 -37 164l-316 -393q53 -35 128 -35z" />
    <glyph glyph-name="Ugrave" unicode="&#xd9;" horiz-adv-x="660" 
d="M426 825l-25 -52l-202 90l38 81zM491 700h115v-447q0 -130 -77.5 -197.5t-199.5 -67.5q-125 0 -200 66.5t-75 198.5v447h116v-432q0 -86 42 -130t118 -44q77 0 119 44.5t42 129.5v432z" />
    <glyph glyph-name="Uacute" unicode="&#xda;" horiz-adv-x="660" 
d="M238 827l211 113l35 -83l-222 -82zM491 700h115v-447q0 -130 -77.5 -197.5t-199.5 -67.5q-125 0 -200 66.5t-75 198.5v447h116v-432q0 -86 42 -130t118 -44q77 0 119 44.5t42 129.5v432z" />
    <glyph glyph-name="Ucircumflex" unicode="&#xdb;" horiz-adv-x="660" 
d="M333 840l-142 -66l-25 49l167 107l168 -107l-25 -49zM491 700h115v-447q0 -130 -77.5 -197.5t-199.5 -67.5q-125 0 -200 66.5t-75 198.5v447h116v-432q0 -86 42 -130t118 -44q77 0 119 44.5t42 129.5v432z" />
    <glyph glyph-name="Udieresis" unicode="&#xdc;" horiz-adv-x="660" 
d="M231 790q-28 0 -44 17t-16 46t16.5 46t47.5 17q28 0 43.5 -17t15.5 -46t-16 -46t-47 -17zM432 790q-29 0 -44.5 17t-15.5 46t16 46t47 17q29 0 44.5 -17t15.5 -46t-16 -46t-47 -17zM491 700h115v-447q0 -130 -77.5 -197.5t-199.5 -67.5q-125 0 -200 66.5t-75 198.5v447
h116v-432q0 -86 42 -130t118 -44q77 0 119 44.5t42 129.5v432z" />
    <glyph glyph-name="Yacute" unicode="&#xdd;" horiz-adv-x="630" 
d="M449 863l-202 -90l-25 52l189 119zM630 700l-257 -412v-288h-115v286l-258 414l130 4l190 -310l194 310z" />
    <glyph glyph-name="Thorn" unicode="&#xde;" horiz-adv-x="528" 
d="M204 587q297 0 297 -217q0 -118 -79 -177t-212 -59h-28v-134h-115v700h115v-113h22zM215 224q168 0 168 141q0 69 -45 99.5t-134 30.5h-22v-271h33z" />
    <glyph glyph-name="germandbls" unicode="&#xdf;" horiz-adv-x="592" 
d="M411 389q66 -17 104 -65t38 -125q0 -95 -54 -152t-154 -57q-75 0 -129 27l23 86q40 -19 89 -19q54 0 82.5 30t28.5 87q0 129 -159 129h-29l4 76h21q61 0 91.5 32t30.5 92q0 113 -108 113q-60 0 -88.5 -39.5t-28.5 -123.5v-480h-111v469q0 129 60.5 197t172.5 68
q97 0 153 -50.5t56 -136.5q0 -115 -93 -158z" />
    <glyph glyph-name="agrave" unicode="&#xe0;" horiz-adv-x="510" 
d="M347 619l-25 -52l-202 90l38 81zM455 0l-104 -9q-10 34 -14 87q-54 -92 -166 -92q-65 0 -102.5 35t-37.5 99q0 90 77 131t228 43v6q0 112 -117 112q-71 0 -131 -37l-27 81q77 51 183 51q199 0 199 -200v-209q0 -47 12 -98zM213 65q55 0 89 39.5t34 101.5v15
q-102 -1 -148.5 -22t-46.5 -69q0 -65 72 -65z" />
    <glyph glyph-name="aacute" unicode="&#xe1;" horiz-adv-x="510" 
d="M390 657l-202 -90l-25 52l189 119zM455 0l-104 -9q-10 34 -14 87q-54 -92 -166 -92q-65 0 -102.5 35t-37.5 99q0 90 77 131t228 43v6q0 112 -117 112q-71 0 -131 -37l-27 81q77 51 183 51q199 0 199 -200v-209q0 -47 12 -98zM213 65q55 0 89 39.5t34 101.5v15
q-102 -1 -148.5 -22t-46.5 -69q0 -65 72 -65z" />
    <glyph glyph-name="acircumflex" unicode="&#xe2;" horiz-adv-x="510" 
d="M255 641l-122 -72l-25 49l147 117l148 -117l-25 -49zM455 0l-104 -9q-10 34 -14 87q-54 -92 -166 -92q-65 0 -102.5 35t-37.5 99q0 90 77 131t228 43v6q0 112 -117 112q-71 0 -131 -37l-27 81q77 51 183 51q199 0 199 -200v-209q0 -47 12 -98zM213 65q55 0 89 39.5
t34 101.5v15q-102 -1 -148.5 -22t-46.5 -69q0 -65 72 -65z" />
    <glyph glyph-name="atilde" unicode="&#xe3;" horiz-adv-x="510" 
d="M200 614q-24 0 -65 -30l-28 51q52 52 103 52q34 0 74 -22q30 -15 46 -15q23 0 65 31l27 -51q-52 -52 -101 -52q-21 0 -44 9l-18 9q-36 18 -59 18zM455 0l-104 -9q-10 34 -14 87q-54 -92 -166 -92q-65 0 -102.5 35t-37.5 99q0 90 77 131t228 43v6q0 112 -117 112
q-71 0 -131 -37l-27 81q77 51 183 51q199 0 199 -200v-209q0 -47 12 -98zM213 65q55 0 89 39.5t34 101.5v15q-102 -1 -148.5 -22t-46.5 -69q0 -65 72 -65z" />
    <glyph glyph-name="adieresis" unicode="&#xe4;" horiz-adv-x="510" 
d="M153 584q-28 0 -44 17t-16 46t16.5 46t47.5 17q28 0 43.5 -17t15.5 -46t-16 -46t-47 -17zM354 584q-29 0 -44.5 17t-15.5 46t16 46t47 17q29 0 44.5 -17t15.5 -46t-16 -46t-47 -17zM455 0l-104 -9q-10 34 -14 87q-54 -92 -166 -92q-65 0 -102.5 35t-37.5 99q0 90 77 131
t228 43v6q0 112 -117 112q-71 0 -131 -37l-27 81q77 51 183 51q199 0 199 -200v-209q0 -47 12 -98zM213 65q55 0 89 39.5t34 101.5v15q-102 -1 -148.5 -22t-46.5 -69q0 -65 72 -65z" />
    <glyph glyph-name="aring" unicode="&#xe5;" horiz-adv-x="510" 
d="M255 554q-49 0 -79 27.5t-30 73.5t30 73.5t79 27.5t78.5 -27.5t29.5 -73.5t-29.5 -73.5t-78.5 -27.5zM255 701q-44 0 -44 -46t44 -46q43 0 43 46t-43 46zM455 0l-104 -9q-10 34 -14 87q-54 -92 -166 -92q-65 0 -102.5 35t-37.5 99q0 90 77 131t228 43v6q0 112 -117 112
q-71 0 -131 -37l-27 81q77 51 183 51q199 0 199 -200v-209q0 -47 12 -98zM213 65q55 0 89 39.5t34 101.5v15q-102 -1 -148.5 -22t-46.5 -69q0 -65 72 -65z" />
    <glyph glyph-name="ae" unicode="&#xe6;" horiz-adv-x="777" 
d="M572 79q68 0 129 33l27 -75q-82 -51 -179 -51q-126 0 -179 107q-65 -107 -188 -107q-70 0 -110.5 34.5t-40.5 97.5q0 85 75 124t230 42v16q0 59 -30 85.5t-90 26.5q-67 0 -128 -35l-27 79q82 51 175 51q122 0 164 -89q59 89 169 89q72 0 117.5 -39t45.5 -102
q0 -74 -59 -108.5t-191 -34.5h-47q4 -73 36 -108.5t101 -35.5zM554 428q-51 0 -81 -37.5t-36 -107.5h44q82 0 114.5 17t32.5 61q0 30 -20 48.5t-54 18.5zM208 65q56 0 92 41.5t36 107.5v12q-104 -2 -152 -24t-48 -70q0 -67 72 -67z" />
    <glyph glyph-name="ccedilla" unicode="&#xe7;" horiz-adv-x="502" 
d="M302 -57q44 1 67.5 -18.5t23.5 -55.5q0 -40 -29 -62.5t-79 -22.5q-42 0 -80 19l16 44q29 -13 55 -13q45 0 45 34q0 45 -82 40l-6 21l20 59q-97 11 -153.5 76t-56.5 171q0 126 71 199t188 73q89 0 152 -37l-30 -85q-51 28 -112 28q-71 0 -113 -42.5t-42 -122.5t41.5 -122
t116.5 -42q66 0 113 28l31 -78q-58 -41 -148 -47z" />
    <glyph glyph-name="egrave" unicode="&#xe8;" horiz-adv-x="500" 
d="M363 619l-25 -52l-202 90l38 81zM294 79q69 0 128 32l29 -74q-82 -51 -184 -51q-106 0 -165 61t-59 184q0 129 63 202.5t173 73.5q77 0 126 -39t49 -104q0 -74 -59 -107.5t-198 -33.5h-39q4 -73 36 -108.5t100 -35.5zM276 428q-51 0 -81 -38t-36 -107h44q82 0 114.5 17
t32.5 61q0 30 -20 48.5t-54 18.5z" />
    <glyph glyph-name="eacute" unicode="&#xe9;" horiz-adv-x="500" 
d="M406 657l-202 -90l-25 52l189 119zM294 79q69 0 128 32l29 -74q-82 -51 -184 -51q-106 0 -165 61t-59 184q0 129 63 202.5t173 73.5q77 0 126 -39t49 -104q0 -74 -59 -107.5t-198 -33.5h-39q4 -73 36 -108.5t100 -35.5zM276 428q-51 0 -81 -38t-36 -107h44q82 0 114.5 17
t32.5 61q0 30 -20 48.5t-54 18.5z" />
    <glyph glyph-name="ecircumflex" unicode="&#xea;" horiz-adv-x="500" 
d="M270 641l-122 -72l-25 49l147 117l148 -117l-25 -49zM294 79q69 0 128 32l29 -74q-82 -51 -184 -51q-106 0 -165 61t-59 184q0 129 63 202.5t173 73.5q77 0 126 -39t49 -104q0 -74 -59 -107.5t-198 -33.5h-39q4 -73 36 -108.5t100 -35.5zM276 428q-51 0 -81 -38t-36 -107
h44q82 0 114.5 17t32.5 61q0 30 -20 48.5t-54 18.5z" />
    <glyph glyph-name="edieresis" unicode="&#xeb;" horiz-adv-x="500" 
d="M169 584q-28 0 -44 17t-16 46t16.5 46t47.5 17q28 0 43.5 -17t15.5 -46t-16 -46t-47 -17zM370 584q-29 0 -44.5 17t-15.5 46t16 46t47 17q29 0 44.5 -17t15.5 -46t-16 -46t-47 -17zM294 79q69 0 128 32l29 -74q-82 -51 -184 -51q-106 0 -165 61t-59 184q0 129 63 202.5
t173 73.5q77 0 126 -39t49 -104q0 -74 -59 -107.5t-198 -33.5h-39q4 -73 36 -108.5t100 -35.5zM276 428q-51 0 -81 -38t-36 -107h44q82 0 114.5 17t32.5 61q0 30 -20 48.5t-54 18.5z" />
    <glyph glyph-name="igrave" unicode="&#xec;" horiz-adv-x="262" 
d="M223 619l-25 -52l-202 90l38 81zM76 494l110 7v-501h-110v494z" />
    <glyph glyph-name="iacute" unicode="&#xed;" horiz-adv-x="262" 
d="M39 619l189 119l38 -81l-202 -90zM76 494l110 7v-501h-110v494z" />
    <glyph glyph-name="icircumflex" unicode="&#xee;" horiz-adv-x="262" 
d="M131 735l148 -117l-25 -49l-123 72l-122 -72l-25 49zM76 0v494l110 7v-501h-110z" />
    <glyph glyph-name="idieresis" unicode="&#xef;" horiz-adv-x="262" 
d="M47 606q-27 0 -41.5 17t-14.5 46t15 46t44 17q26 0 40.5 -17t14.5 -46q0 -63 -58 -63zM212 606q-27 0 -41.5 17t-14.5 46t15 46t44 17q26 0 40.5 -17t14.5 -46t-15 -46t-43 -17zM76 494l110 7v-501h-110v494z" />
    <glyph glyph-name="eth" unicode="&#xf0;" horiz-adv-x="577" 
d="M374 616q157 -155 160 -367q0 -126 -65 -194.5t-182 -68.5q-115 0 -179.5 66t-64.5 183q0 120 65.5 189t169.5 69q65 0 109 -28q-35 66 -95 125l-151 -48v48l113 36q-53 44 -103 75l109 7q40 -27 75 -57l122 39l-1 -48zM290 71q61 0 94.5 43t33.5 126q0 82 -34 125.5
t-96 43.5q-61 0 -93.5 -42.5t-32.5 -124.5q0 -84 33 -127.5t95 -43.5z" />
    <glyph glyph-name="ntilde" unicode="&#xf1;" horiz-adv-x="578" 
d="M244 614q-24 0 -65 -30l-28 51q52 52 103 52q34 0 74 -22q30 -15 46 -15q23 0 65 31l27 -51q-52 -52 -101 -52q-21 0 -44 9l-18 9q-36 18 -59 18zM352 507q76 0 116 -47.5t40 -137.5v-322h-110v293q0 62 -20.5 90t-65.5 28q-128 0 -128 -236v-175h-109v494l109 8v-98
q57 103 168 103z" />
    <glyph glyph-name="ograve" unicode="&#xf2;" horiz-adv-x="577" 
d="M381 619l-25 -52l-202 90l38 81zM287 -14q-115 0 -179.5 67.5t-64.5 188.5q0 123 65.5 194t181.5 71q115 0 179.5 -68t64.5 -190q0 -123 -65 -193t-182 -70zM290 71q61 0 94.5 44.5t33.5 129.5q0 86 -34 132t-96 46q-61 0 -93.5 -45t-32.5 -131t33 -131t95 -45z" />
    <glyph glyph-name="oacute" unicode="&#xf3;" horiz-adv-x="577" 
d="M197 619l189 119l38 -81l-202 -90zM287 -14q-115 0 -179.5 67.5t-64.5 188.5q0 123 65.5 194t181.5 71q115 0 179.5 -68t64.5 -190q0 -123 -65 -193t-182 -70zM290 71q61 0 94.5 44.5t33.5 129.5q0 86 -34 132t-96 46q-61 0 -93.5 -45t-32.5 -131t33 -131t95 -45z" />
    <glyph glyph-name="ocircumflex" unicode="&#xf4;" horiz-adv-x="577" 
d="M289 641l-122 -72l-25 49l147 117l148 -117l-25 -49zM290 507q115 0 179.5 -68t64.5 -190q0 -123 -65 -193t-182 -70q-115 0 -179.5 67.5t-64.5 188.5q0 123 65.5 194t181.5 71zM290 71q61 0 94.5 44.5t33.5 129.5q0 86 -34 132t-96 46q-61 0 -93.5 -45t-32.5 -131
t33 -131t95 -45z" />
    <glyph glyph-name="otilde" unicode="&#xf5;" horiz-adv-x="577" 
d="M355 578q-30 0 -64 19q-1 1 -2 1t-2 1q-34 15 -53 15q-24 0 -65 -30l-28 51q52 52 103 52q34 0 74 -22q30 -15 46 -15q23 0 65 31l27 -51q-52 -52 -101 -52zM287 -14q-115 0 -179.5 67.5t-64.5 188.5q0 123 65.5 194t181.5 71q115 0 179.5 -68t64.5 -190q0 -123 -65 -193
t-182 -70zM290 71q61 0 94.5 44.5t33.5 129.5q0 86 -34 132t-96 46q-61 0 -93.5 -45t-32.5 -131t33 -131t95 -45z" />
    <glyph glyph-name="odieresis" unicode="&#xf6;" horiz-adv-x="577" 
d="M187 584q-28 0 -44 17t-16 46t16.5 46t47.5 17q28 0 43.5 -17t15.5 -46t-16 -46t-47 -17zM388 584q-29 0 -44.5 17t-15.5 46t16 46t47 17q29 0 44.5 -17t15.5 -46t-16 -46t-47 -17zM287 -14q-115 0 -179.5 67.5t-64.5 188.5q0 123 65.5 194t181.5 71q115 0 179.5 -68
t64.5 -190q0 -123 -65 -193t-182 -70zM290 71q61 0 94.5 44.5t33.5 129.5q0 86 -34 132t-96 46q-61 0 -93.5 -45t-32.5 -131t33 -131t95 -45z" />
    <glyph glyph-name="divide" unicode="&#xf7;" horiz-adv-x="588" 
d="M293 495q-29 0 -46 18t-17 47q0 30 17.5 47.5t48.5 17.5q30 0 46.5 -17.5t16.5 -47.5q0 -29 -17.5 -47t-48.5 -18zM47 402h499l-4 -87h-499zM293 92q-29 0 -46 18t-17 47q0 28 17.5 46t48.5 18q29 0 46 -18t17 -46q0 -30 -17 -47.5t-49 -17.5z" />
    <glyph glyph-name="oslash" unicode="&#xf8;" horiz-adv-x="577" 
d="M476 432q58 -67 58 -183q0 -123 -65 -193t-182 -70q-80 0 -137 34l-30 -38l-58 44l33 42q-52 66 -52 174q0 123 65.5 194t181.5 71q75 0 128 -29l31 39l58 -45zM162 247q0 -49 10 -82l187 237q-30 21 -71 21q-61 0 -93.5 -45t-32.5 -131zM290 71q61 0 94.5 44.5
t33.5 129.5q0 57 -15 96l-192 -243q32 -27 79 -27z" />
    <glyph glyph-name="ugrave" unicode="&#xf9;" horiz-adv-x="572" 
d="M377 619l-25 -52l-202 90l38 81zM388 493l110 7v-500l-110 -4v93q-53 -99 -163 -99q-76 0 -115.5 47t-39.5 136v320l109 7v-293q0 -121 86 -121q58 0 90.5 54t32.5 144v209z" />
    <glyph glyph-name="uacute" unicode="&#xfa;" horiz-adv-x="572" 
d="M420 657l-202 -90l-25 52l189 119zM388 493l110 7v-500l-110 -4v93q-53 -99 -163 -99q-76 0 -115.5 47t-39.5 136v320l109 7v-293q0 -121 86 -121q58 0 90.5 54t32.5 144v209z" />
    <glyph glyph-name="ucircumflex" unicode="&#xfb;" horiz-adv-x="572" 
d="M285 641l-122 -72l-25 49l147 117l148 -117l-25 -49zM388 493l110 7v-500l-110 -4v93q-53 -99 -163 -99q-76 0 -115.5 47t-39.5 136v320l109 7v-293q0 -121 86 -121q58 0 90.5 54t32.5 144v209z" />
    <glyph glyph-name="udieresis" unicode="&#xfc;" horiz-adv-x="572" 
d="M183 584q-28 0 -44 17t-16 46t16.5 46t47.5 17q28 0 43.5 -17t15.5 -46t-16 -46t-47 -17zM384 584q-29 0 -44.5 17t-15.5 46t16 46t47 17q29 0 44.5 -17t15.5 -46t-16 -46t-47 -17zM388 493l110 7v-500l-110 -4v93q-53 -99 -163 -99q-76 0 -115.5 47t-39.5 136v320l109 7
v-293q0 -121 86 -121q58 0 90.5 54t32.5 144v209z" />
    <glyph glyph-name="yacute" unicode="&#xfd;" horiz-adv-x="520" 
d="M395 657l-202 -90l-25 52l189 119zM504 494l-167 -494l-13 -30q-36 -97 -100 -140t-164 -46l-7 98q65 2 102.5 25.5t61.5 81.5l5 11h-39l-167 494l122 3l127 -405l127 405z" />
    <glyph glyph-name="thorn" unicode="&#xfe;" horiz-adv-x="580" 
d="M353 506q89 0 136.5 -66t47.5 -179q0 -122 -59.5 -196.5t-162.5 -74.5q-67 0 -131 36v-236l-109 -7v937l109 7v-331q53 110 169 110zM304 82q59 0 89.5 45.5t30.5 129.5q0 158 -110 158q-62 0 -96 -59t-34 -173v-59q58 -42 120 -42z" />
    <glyph glyph-name="ydieresis" unicode="&#xff;" horiz-adv-x="520" 
d="M158 584q-28 0 -44 17t-16 46t16.5 46t47.5 17q28 0 43.5 -17t15.5 -46t-16 -46t-47 -17zM359 584q-29 0 -44.5 17t-15.5 46t16 46t47 17q29 0 44.5 -17t15.5 -46t-16 -46t-47 -17zM504 494l-167 -494l-13 -30q-36 -97 -100 -140t-164 -46l-7 98q65 2 102.5 25.5
t61.5 81.5l5 11h-39l-167 494l122 3l127 -405l127 405z" />
    <glyph glyph-name="Amacron" unicode="&#x100;" horiz-adv-x="689" 
d="M502 892l-2 -80h-312l1 80h313zM555 -2l-67 192h-293l-67 -192l-115 2l260 701l142 5l262 -706zM226 277h232l-116 332z" />
    <glyph glyph-name="amacron" unicode="&#x101;" horiz-adv-x="510" 
d="M412 686l-2 -80h-312l1 80h313zM455 0l-104 -9q-10 34 -14 87q-54 -92 -166 -92q-65 0 -102.5 35t-37.5 99q0 90 77 131t228 43v6q0 112 -117 112q-71 0 -131 -37l-27 81q77 51 183 51q199 0 199 -200v-209q0 -47 12 -98zM213 65q55 0 89 39.5t34 101.5v15
q-102 -1 -148.5 -22t-46.5 -69q0 -65 72 -65z" />
    <glyph glyph-name="Abreve" unicode="&#x102;" horiz-adv-x="689" 
d="M345 771q-57 0 -99.5 30t-58.5 84l57 28q33 -67 101 -67t101 67l57 -28q-16 -55 -58.5 -84.5t-99.5 -29.5zM555 -2l-67 192h-293l-67 -192l-115 2l260 701l142 5l262 -706zM226 277h232l-116 332z" />
    <glyph glyph-name="abreve" unicode="&#x103;" horiz-adv-x="510" 
d="M255 581q-54 0 -92.5 32t-54.5 91l57 28q31 -75 90 -75t90 75l57 -28q-16 -59 -54.5 -91t-92.5 -32zM455 0l-104 -9q-10 34 -14 87q-54 -92 -166 -92q-65 0 -102.5 35t-37.5 99q0 90 77 131t228 43v6q0 112 -117 112q-71 0 -131 -37l-27 81q77 51 183 51q199 0 199 -200
v-209q0 -47 12 -98zM213 65q55 0 89 39.5t34 101.5v15q-102 -1 -148.5 -22t-46.5 -69q0 -65 72 -65z" />
    <glyph glyph-name="Aogonek" unicode="&#x104;" horiz-adv-x="689" 
d="M660 -119l28 -41q-45 -45 -110 -45q-40 0 -65.5 20.5t-25.5 59.5q0 64 87 123h-19l-67 192h-293l-67 -192l-115 2l260 701l142 5l261 -706h1q-97 -60 -97 -109q0 -29 30 -29q22 0 50 19zM226 277h232l-116 332z" />
    <glyph glyph-name="aogonek" unicode="&#x105;" horiz-adv-x="510" 
d="M442 -109l28 -41q-45 -45 -110 -45q-40 0 -65.5 20.5t-25.5 59.5q0 63 79 118q-8 31 -11 75q-54 -92 -166 -92q-65 0 -102.5 35t-37.5 99q0 90 77 131t228 43v6q0 112 -117 112q-71 0 -131 -37l-27 81q77 51 183 51q199 0 199 -200v-209q0 -46 10 -87l6 -1l-6 -3
q0 -1 1 -1v-2q0 -3 1 -4l-13 -1q-80 -53 -80 -98q0 -29 30 -29h3h2q20 3 45 19zM213 65q55 0 89 39.5t34 101.5v15q-102 -1 -148.5 -22t-46.5 -69q0 -65 72 -65z" />
    <glyph glyph-name="Cacute" unicode="&#x106;" horiz-adv-x="673" 
d="M291 827l211 113l35 -83l-222 -82zM388 -13q-140 0 -237 93.5t-97 263.5q0 166 96.5 268t260.5 102q107 0 191 -42l-32 -92q-73 32 -153 32q-110 0 -177 -68.5t-67 -192.5q0 -122 64.5 -192t174.5 -70q85 0 169 42l33 -81q-86 -63 -226 -63z" />
    <glyph glyph-name="cacute" unicode="&#x107;" horiz-adv-x="502" 
d="M201 619l189 119l38 -81l-202 -90zM459 34q-68 -48 -172 -48q-111 0 -177.5 66.5t-66.5 182.5q0 126 71 199t188 73q89 0 152 -37l-30 -85q-51 28 -112 28q-71 0 -113 -42.5t-42 -122.5t41.5 -122t116.5 -42q66 0 113 28z" />
    <glyph glyph-name="Cdotaccent" unicode="&#x10a;" horiz-adv-x="673" 
d="M385 806q-31 0 -48 19t-17 50q0 32 17.5 50.5t51.5 18.5q31 0 47.5 -18.5t16.5 -50.5t-17 -50.5t-51 -18.5zM388 -13q-140 0 -237 93.5t-97 263.5q0 166 96.5 268t260.5 102q107 0 191 -42l-32 -92q-73 32 -153 32q-110 0 -177 -68.5t-67 -192.5q0 -122 64.5 -192
t174.5 -70q85 0 169 42l33 -81q-86 -63 -226 -63z" />
    <glyph glyph-name="cdotaccent" unicode="&#x10b;" horiz-adv-x="502" 
d="M291 600q-31 0 -48 19t-17 50q0 32 17.5 50.5t51.5 18.5q31 0 47.5 -18.5t16.5 -50.5t-17 -50.5t-51 -18.5zM459 34q-68 -48 -172 -48q-111 0 -177.5 66.5t-66.5 182.5q0 126 71 199t188 73q89 0 152 -37l-30 -85q-51 28 -112 28q-71 0 -113 -42.5t-42 -122.5t41.5 -122
t116.5 -42q66 0 113 28z" />
    <glyph glyph-name="Ccaron" unicode="&#x10c;" horiz-adv-x="673" 
d="M554 880l-167 -106l-168 106l25 50l143 -66l142 66zM581 131l33 -81q-86 -63 -226 -63t-237 93.5t-97 263.5q0 166 96.5 268t260.5 102q107 0 191 -42l-32 -92q-73 32 -153 32q-110 0 -177 -68.5t-67 -192.5q0 -122 64.5 -192t174.5 -70q85 0 169 42z" />
    <glyph glyph-name="ccaron" unicode="&#x10d;" horiz-adv-x="502" 
d="M440 686l-147 -117l-148 117l26 49l122 -72l122 72zM428 112l31 -78q-68 -48 -172 -48q-111 0 -177.5 66.5t-66.5 182.5q0 126 71 199t188 73q89 0 152 -37l-30 -85q-51 28 -112 28q-71 0 -113 -42.5t-42 -122.5t41.5 -122t116.5 -42q66 0 113 28z" />
    <glyph glyph-name="Dcaron" unicode="&#x10e;" horiz-adv-x="695" 
d="M483 880l-167 -106l-168 106l25 50l143 -66l142 66zM245 711q191 0 294.5 -90t103.5 -260q0 -176 -102.5 -274t-295.5 -98q-90 0 -181 11v700q105 11 181 11zM256 86q268 0 268 268q0 132 -71.5 196t-199.5 64q-12 0 -58 -2h-8h-8v-524q60 -2 77 -2z" />
    <glyph glyph-name="dcaron" unicode="&#x10f;" horiz-adv-x="571" 
d="M551 729l78 4l-12 -176h-66v172zM392 468v252l108 6v-726h-108v82q-50 -94 -154 -94q-91 0 -143 65.5t-52 180.5q0 128 61 200.5t159 72.5q68 0 129 -39zM272 86q54 0 87 45.5t33 127.5v115q-55 41 -114 41q-58 0 -89.5 -44t-31.5 -128q0 -75 29.5 -116t85.5 -41z" />
    <glyph glyph-name="Dcroat" unicode="&#x110;" horiz-adv-x="695" 
d="M245 711q191 0 294.5 -90t103.5 -260q0 -176 -102.5 -274t-295.5 -98q-90 0 -181 11v314h-60l4 75h56v311q105 11 181 11zM256 86q268 0 268 268q0 132 -71.5 196t-199.5 64q-12 0 -58 -2h-8h-8v-223h158l-4 -75h-154v-226q60 -2 77 -2z" />
    <glyph glyph-name="dcroat" unicode="&#x111;" horiz-adv-x="571" 
d="M560 636l-4 -72h-56v-564h-108v82q-50 -94 -154 -94q-91 0 -143 65.5t-52 180.5q0 128 61 200.5t159 72.5q68 0 129 -39v96h-145v72h145v84l108 6v-90h60zM272 86q54 0 87 45.5t33 127.5v115q-55 41 -114 41q-58 0 -89.5 -44t-31.5 -128q0 -75 29.5 -116t85.5 -41z" />
    <glyph glyph-name="Emacron" unicode="&#x112;" horiz-adv-x="454" 
d="M396 892l-2 -80h-312l1 80h313zM179 94h231v-94h-346v700h338v-94h-223v-199h197v-90h-197v-223z" />
    <glyph glyph-name="emacron" unicode="&#x113;" horiz-adv-x="500" 
d="M428 686l-2 -80h-312l1 80h313zM294 79q69 0 128 32l29 -74q-82 -51 -184 -51q-106 0 -165 61t-59 184q0 129 63 202.5t173 73.5q77 0 126 -39t49 -104q0 -74 -59 -107.5t-198 -33.5h-39q4 -73 36 -108.5t100 -35.5zM276 428q-51 0 -81 -38t-36 -107h44q82 0 114.5 17
t32.5 61q0 30 -20 48.5t-54 18.5z" />
    <glyph glyph-name="Edotaccent" unicode="&#x116;" horiz-adv-x="454" 
d="M237 806q-31 0 -48 19t-17 50q0 32 17.5 50.5t51.5 18.5q31 0 47.5 -18.5t16.5 -50.5t-17 -50.5t-51 -18.5zM179 94h231v-94h-346v700h338v-94h-223v-199h197v-90h-197v-223z" />
    <glyph glyph-name="edotaccent" unicode="&#x117;" horiz-adv-x="500" 
d="M269 600q-31 0 -48 19t-17 50q0 32 17.5 50.5t51.5 18.5q31 0 47.5 -18.5t16.5 -50.5t-17 -50.5t-51 -18.5zM294 79q69 0 128 32l29 -74q-82 -51 -184 -51q-106 0 -165 61t-59 184q0 129 63 202.5t173 73.5q77 0 126 -39t49 -104q0 -74 -59 -107.5t-198 -33.5h-39
q4 -73 36 -108.5t100 -35.5zM276 428q-51 0 -81 -38t-36 -107h44q82 0 114.5 17t32.5 61q0 30 -20 48.5t-54 18.5z" />
    <glyph glyph-name="Eogonek" unicode="&#x118;" horiz-adv-x="454" 
d="M393 -119l28 -41q-45 -45 -110 -45q-40 0 -65.5 20.5t-25.5 59.5q0 66 89 125h-245v700h338v-94h-223v-199h197v-90h-197v-223h231v-94q-97 -60 -97 -109q0 -29 30 -29q21 0 50 19z" />
    <glyph glyph-name="eogonek" unicode="&#x119;" horiz-adv-x="500" 
d="M434 -82l28 -41q-45 -45 -110 -45q-40 0 -65.5 20.5t-25.5 59.5t31 75q-8 -1 -25 -1q-106 0 -165 61t-59 184q0 129 63 202.5t173 73.5q77 0 126 -39t49 -104q0 -74 -59 -107.5t-198 -33.5h-39q4 -73 36 -108.5t100 -35.5q69 0 128 32l29 -74q-1 -1 -5 -3l-1 -1
q-1 0 -2 -1q-89 -56 -89 -104q0 -29 30 -29h3h2q20 3 45 19zM276 428q-51 0 -81 -38t-36 -107h44q82 0 114.5 17t32.5 61q0 30 -20 48.5t-54 18.5z" />
    <glyph glyph-name="Ecaron" unicode="&#x11a;" horiz-adv-x="454" 
d="M407 880l-167 -106l-168 106l25 50l143 -66l142 66zM179 94h231v-94h-346v700h338v-94h-223v-199h197v-90h-197v-223z" />
    <glyph glyph-name="ecaron" unicode="&#x11b;" horiz-adv-x="500" 
d="M418 686l-147 -117l-148 117l26 49l122 -72l122 72zM294 79q69 0 128 32l29 -74q-82 -51 -184 -51q-106 0 -165 61t-59 184q0 129 63 202.5t173 73.5q77 0 126 -39t49 -104q0 -74 -59 -107.5t-198 -33.5h-39q4 -73 36 -108.5t100 -35.5zM276 428q-51 0 -81 -38t-36 -107
h44q82 0 114.5 17t32.5 61q0 30 -20 48.5t-54 18.5z" />
    <glyph glyph-name="Gbreve" unicode="&#x11e;" horiz-adv-x="708" 
d="M413 771q-57 0 -99.5 30t-58.5 84l57 28q33 -67 101 -67t101 67l57 -28q-16 -55 -58.5 -84.5t-99.5 -29.5zM543 336h110v-306q-114 -43 -241 -43q-169 0 -263.5 90.5t-94.5 251.5q0 178 100 281t268 103q129 0 214 -48l-33 -90q-74 37 -172 37q-118 0 -188 -70.5
t-70 -201.5q0 -123 65 -189t183 -66q59 0 122 16v235z" />
    <glyph glyph-name="gbreve" unicode="&#x11f;" horiz-adv-x="536" 
d="M268 581q-54 0 -92.5 32t-54.5 91l57 28q31 -75 90 -75t90 75l57 -28q-16 -59 -54.5 -91t-92.5 -32zM190 130q0 -11 7.5 -18.5t25.5 -12t32.5 -7t43.5 -5.5q38 -4 60 -7.5t56 -13t52.5 -23t33 -38.5t14.5 -59q0 -80 -74 -124t-194 -44q-104 0 -161.5 34t-57.5 98
q0 74 94 135q-28 21 -28 56q0 48 51 78q-86 48 -86 150q0 80 55.5 129.5t147.5 49.5q66 0 114 -25l100 80l55 -63l-98 -64q33 -42 33 -104q0 -81 -55.5 -130.5t-149.5 -49.5q-26 0 -56 5q-15 -12 -15 -27zM262 435q-42 0 -67.5 -27t-25.5 -77t26 -78.5t69 -28.5
q42 0 67 27.5t25 77.5q0 51 -25.5 78.5t-68.5 27.5zM258 -141q72 0 111.5 19.5t39.5 56.5q0 18 -10 30t-34.5 19.5t-42 11t-53.5 8.5h-2q-4 0 -11.5 1t-11.5 2q-34 6 -50 9q-69 -40 -69 -87q0 -70 133 -70z" />
    <glyph glyph-name="Gdotaccent" unicode="&#x120;" horiz-adv-x="708" 
d="M411 806q-31 0 -48 19t-17 50q0 32 17.5 50.5t51.5 18.5q31 0 47.5 -18.5t16.5 -50.5t-17 -50.5t-51 -18.5zM543 336h110v-306q-114 -43 -241 -43q-169 0 -263.5 90.5t-94.5 251.5q0 178 100 281t268 103q129 0 214 -48l-33 -90q-74 37 -172 37q-118 0 -188 -70.5
t-70 -201.5q0 -123 65 -189t183 -66q59 0 122 16v235z" />
    <glyph glyph-name="gdotaccent" unicode="&#x121;" horiz-adv-x="536" 
d="M266 600q-31 0 -48 19t-17 50q0 32 17.5 50.5t51.5 18.5q31 0 47.5 -18.5t16.5 -50.5t-17 -50.5t-51 -18.5zM190 130q0 -11 7.5 -18.5t25.5 -12t32.5 -7t43.5 -5.5q38 -4 60 -7.5t56 -13t52.5 -23t33 -38.5t14.5 -59q0 -80 -74 -124t-194 -44q-104 0 -161.5 34t-57.5 98
q0 74 94 135q-28 21 -28 56q0 48 51 78q-86 48 -86 150q0 80 55.5 129.5t147.5 49.5q66 0 114 -25l100 80l55 -63l-98 -64q33 -42 33 -104q0 -81 -55.5 -130.5t-149.5 -49.5q-26 0 -56 5q-15 -12 -15 -27zM262 435q-42 0 -67.5 -27t-25.5 -77t26 -78.5t69 -28.5
q42 0 67 27.5t25 77.5q0 51 -25.5 78.5t-68.5 27.5zM258 -141q72 0 111.5 19.5t39.5 56.5q0 18 -10 30t-34.5 19.5t-42 11t-53.5 8.5h-2q-4 0 -11.5 1t-11.5 2q-34 6 -50 9q-69 -40 -69 -87q0 -70 133 -70z" />
    <glyph glyph-name="Gcommaaccent" unicode="&#x122;" horiz-adv-x="708" 
d="M543 336h110v-306q-114 -43 -241 -43q-169 0 -263.5 90.5t-94.5 251.5q0 178 100 281t268 103q129 0 214 -48l-33 -90q-74 37 -172 37q-118 0 -188 -70.5t-70 -201.5q0 -123 65 -189t183 -66q59 0 122 16v235zM395 -63q30 0 47.5 -20.5t17.5 -57.5q0 -40 -23 -74.5
t-65 -50.5l-33 23q39 25 42 68q-21 1 -33.5 16.5t-12.5 38.5q0 26 16.5 41.5t43.5 15.5z" />
    <glyph glyph-name="gcommaaccent" unicode="&#x123;" horiz-adv-x="536" 
d="M275 579q-30 0 -47.5 20.5t-17.5 57.5q0 40 23 74.5t65 50.5l33 -23q-39 -25 -42 -68q21 -1 33.5 -16.5t12.5 -38.5q0 -26 -16.5 -41.5t-43.5 -15.5zM190 130q0 -11 7.5 -18.5t25.5 -12t32.5 -7t43.5 -5.5q38 -4 60 -7.5t56 -13t52.5 -23t33 -38.5t14.5 -59
q0 -80 -74 -124t-194 -44q-104 0 -161.5 34t-57.5 98q0 74 94 135q-28 21 -28 56q0 48 51 78q-86 48 -86 150q0 80 55.5 129.5t147.5 49.5q66 0 114 -25l100 80l55 -63l-98 -64q33 -42 33 -104q0 -81 -55.5 -130.5t-149.5 -49.5q-26 0 -56 5q-15 -12 -15 -27zM262 435
q-42 0 -67.5 -27t-25.5 -77t26 -78.5t69 -28.5q42 0 67 27.5t25 77.5q0 51 -25.5 78.5t-68.5 27.5zM258 -141q72 0 111.5 19.5t39.5 56.5q0 18 -10 30t-34.5 19.5t-42 11t-53.5 8.5h-2q-4 0 -11.5 1t-11.5 2q-34 6 -50 9q-69 -40 -69 -87q0 -70 133 -70z" />
    <glyph glyph-name="Hbar" unicode="&#x126;" horiz-adv-x="643" 
d="M632 600l-4 -71h-30v-529h-115v292h-322v-292h-115v529h-34l4 71h30v100h115v-100h322v100h115v-100h34zM483 388v141h-322v-141h322z" />
    <glyph glyph-name="hbar" unicode="&#x127;" horiz-adv-x="576" 
d="M350 507q76 0 116 -47.5t40 -137.5v-322h-110v293q0 62 -20.5 90t-65.5 28q-129 0 -129 -236v-175h-108v564h-72v72h72v84l108 6v-90h133l-4 -72h-129v-160q58 103 169 103z" />
    <glyph glyph-name="Imacron" unicode="&#x12a;" horiz-adv-x="259" 
d="M8 892h244l-2 -80h-244zM187 0h-115v700h115v-700z" />
    <glyph glyph-name="imacron" unicode="&#x12b;" horiz-adv-x="262" 
d="M10 686h244l-2 -80h-244zM76 494l110 7v-501h-110v494z" />
    <glyph glyph-name="Iogonek" unicode="&#x12e;" horiz-adv-x="259" 
d="M170 -119l28 -41q-45 -45 -110 -45q-40 0 -65.5 20.5t-25.5 59.5q0 66 89 125h-14v700h115v-700q-97 -60 -97 -109q0 -29 30 -29q22 0 50 19z" />
    <glyph glyph-name="iogonek" unicode="&#x12f;" horiz-adv-x="262" 
d="M129 600q-31 0 -48 19t-17 50q0 32 17.5 50.5t51.5 18.5q31 0 47.5 -18.5t16.5 -50.5t-17 -50.5t-51 -18.5zM119 -138q21 0 50 19l28 -41q-45 -45 -110 -45q-40 0 -65.5 20.5t-25.5 59.5q0 66 89 125h-9v494l110 7v-501q-97 -60 -97 -109q0 -29 30 -29z" />
    <glyph glyph-name="Idotaccent" unicode="&#x130;" horiz-adv-x="259" 
d="M128 806q-31 0 -48 19t-17 50q0 32 17.5 50.5t51.5 18.5q31 0 47.5 -18.5t16.5 -50.5t-17 -50.5t-51 -18.5zM187 0h-115v700h115v-700z" />
    <glyph glyph-name="dotlessi" unicode="&#x131;" horiz-adv-x="262" 
d="M76 494l110 7v-501h-110v494z" />
    <glyph glyph-name="Kcommaaccent" unicode="&#x136;" horiz-adv-x="639" 
d="M343 372l286 -372l-138 -9l-220 286l-92 -124v-153h-115v700h115v-379l284 388l124 -9zM307 -63q30 0 47.5 -20.5t17.5 -57.5q0 -40 -23 -74.5t-65 -50.5l-33 23q39 25 42 68q-21 1 -33.5 16.5t-12.5 38.5q0 26 16.5 41.5t43.5 15.5z" />
    <glyph glyph-name="kcommaaccent" unicode="&#x137;" horiz-adv-x="534" 
d="M312 299l201 -300l-131 -6l-143 222l-74 -80v-136h-110v721l110 6v-465q58 76 127 160l66 75l122 -2zM263 -63q30 0 47.5 -20.5t17.5 -57.5q0 -40 -23 -74.5t-65 -50.5l-33 23q39 25 42 68q-21 1 -33.5 16.5t-12.5 38.5q0 26 16.5 41.5t43.5 15.5z" />
    <glyph glyph-name="Lacute" unicode="&#x139;" horiz-adv-x="455" 
d="M249 940l35 -83l-222 -82l-24 52zM179 94h237v-94h-352v700h115v-606z" />
    <glyph glyph-name="lacute" unicode="&#x13a;" horiz-adv-x="246" 
d="M88 829l189 119l38 -81l-202 -90zM65 720l110 7v-727h-110v720z" />
    <glyph glyph-name="Lcommaaccent" unicode="&#x13b;" horiz-adv-x="455" 
d="M179 94h237v-94h-352v700h115v-606zM230 -63q30 0 47.5 -20.5t17.5 -57.5q0 -40 -23 -74.5t-65 -50.5l-33 23q39 25 42 68q-21 1 -33.5 16.5t-12.5 38.5q0 26 16.5 41.5t43.5 15.5z" />
    <glyph glyph-name="lcommaaccent" unicode="&#x13c;" horiz-adv-x="246" 
d="M175 727v-727h-110v720zM117 -59q30 0 47.5 -20.5t17.5 -57.5q0 -40 -23 -74.5t-65 -50.5l-33 23q39 25 42 68q-21 1 -33.5 16.5t-12.5 38.5q0 26 16.5 41.5t43.5 15.5z" />
    <glyph glyph-name="Lcaron" unicode="&#x13d;" horiz-adv-x="455" 
d="M331 728l-12 -176h-66v172zM179 94h237v-94h-352v700h115v-606z" />
    <glyph glyph-name="lcaron" unicode="&#x13e;" horiz-adv-x="246" 
d="M225 557v172l78 4l-12 -176h-66zM65 720l110 7v-727h-110v720z" />
    <glyph glyph-name="Lslash" unicode="&#x141;" horiz-adv-x="455" 
d="M179 94h237v-94h-352v285l-30 -12l-24 68l54 21v338h115v-293l145 56l22 -69l-167 -65v-235z" />
    <glyph glyph-name="lslash" unicode="&#x142;" horiz-adv-x="246" 
d="M280 458l-105 -54v-404h-110v348l-55 -28l-35 67l90 46v287l110 7v-238l71 37z" />
    <glyph glyph-name="Nacute" unicode="&#x143;" horiz-adv-x="698" 
d="M513 857l-222 -82l-24 52l211 113zM532 700h102v-700h-143l-325 562v-562h-102v700l150 7l318 -555v548z" />
    <glyph glyph-name="nacute" unicode="&#x144;" horiz-adv-x="578" 
d="M434 657l-202 -90l-25 52l189 119zM352 507q76 0 116 -47.5t40 -137.5v-322h-110v293q0 62 -20.5 90t-65.5 28q-128 0 -128 -236v-175h-109v494l109 8v-98q57 103 168 103z" />
    <glyph glyph-name="Ncommaaccent" unicode="&#x145;" horiz-adv-x="698" 
d="M532 700h102v-700h-143l-325 562v-562h-102v700l150 7l318 -555v548zM347 -63q30 0 47.5 -20.5t17.5 -57.5q0 -40 -23 -74.5t-65 -50.5l-33 23q39 25 42 68q-21 1 -33.5 16.5t-12.5 38.5q0 26 16.5 41.5t43.5 15.5z" />
    <glyph glyph-name="ncommaaccent" unicode="&#x146;" horiz-adv-x="578" 
d="M352 507q76 0 116 -47.5t40 -137.5v-322h-110v293q0 62 -20.5 90t-65.5 28q-128 0 -128 -236v-175h-109v494l109 8v-98q57 103 168 103zM286 -63q30 0 47.5 -20.5t17.5 -57.5q0 -40 -23 -74.5t-65 -50.5l-33 23q39 25 42 68q-21 1 -33.5 16.5t-12.5 38.5q0 26 16.5 41.5
t43.5 15.5z" />
    <glyph glyph-name="Ncaron" unicode="&#x147;" horiz-adv-x="698" 
d="M530 880l-167 -106l-168 106l25 50l143 -66l142 66zM532 700h102v-700h-143l-325 562v-562h-102v700l150 7l318 -555v548z" />
    <glyph glyph-name="ncaron" unicode="&#x148;" horiz-adv-x="578" 
d="M446 686l-147 -117l-148 117l26 49l122 -72l122 72zM352 507q76 0 116 -47.5t40 -137.5v-322h-110v293q0 62 -20.5 90t-65.5 28q-128 0 -128 -236v-175h-109v494l109 8v-98q57 103 168 103z" />
    <glyph glyph-name="Eng" unicode="&#x14a;" horiz-adv-x="698" 
d="M532 700h102v-700q0 -106 -62 -158.5t-172 -56.5l-9 86q72 5 105.5 33.5t33.5 89.5v6h-39l-325 562v-562h-102v700l150 7l318 -555v548z" />
    <glyph glyph-name="eng" unicode="&#x14b;" horiz-adv-x="578" 
d="M352 507q76 0 116 -47.5t40 -137.5v-322q0 -116 -51 -169t-134 -53q-60 0 -104 22l26 78q31 -12 70 -12q41 0 62 30.5t21 103.5v293q0 62 -20.5 90t-65.5 28q-128 0 -128 -236v-175h-109v494l109 8v-98q57 103 168 103z" />
    <glyph glyph-name="Omacron" unicode="&#x14c;" horiz-adv-x="803" 
d="M246 892h313l-2 -80h-312zM402 -15q-161 0 -255.5 97.5t-94.5 267.5q0 167 95 266t255 99q161 0 255 -97.5t94 -267.5q0 -167 -94.5 -266t-254.5 -99zM402 86q106 0 165.5 68.5t59.5 195.5q0 129 -60 199t-165 70t-165 -70t-60 -199q0 -127 59.5 -195.5t165.5 -68.5z" />
    <glyph glyph-name="omacron" unicode="&#x14d;" horiz-adv-x="577" 
d="M133 686h313l-2 -80h-312zM287 -14q-115 0 -179.5 67.5t-64.5 188.5q0 123 65.5 194t181.5 71q115 0 179.5 -68t64.5 -190q0 -123 -65 -193t-182 -70zM290 71q61 0 94.5 44.5t33.5 129.5q0 86 -34 132t-96 46q-61 0 -93.5 -45t-32.5 -131t33 -131t95 -45z" />
    <glyph glyph-name="Ohungarumlaut" unicode="&#x150;" horiz-adv-x="803" 
d="M299 771l32 158l82 -18l-49 -154zM427 761l55 158l83 -18l-73 -153zM402 -15q-161 0 -255.5 97.5t-94.5 267.5q0 167 95 266t255 99q161 0 255 -97.5t94 -267.5q0 -167 -94.5 -266t-254.5 -99zM402 86q106 0 165.5 68.5t59.5 195.5q0 129 -60 199t-165 70t-165 -70
t-60 -199q0 -127 59.5 -195.5t165.5 -68.5z" />
    <glyph glyph-name="ohungarumlaut" unicode="&#x151;" horiz-adv-x="577" 
d="M190 567l43 175l85 -17l-66 -174zM316 558l66 174l86 -18l-90 -172zM287 -14q-115 0 -179.5 67.5t-64.5 188.5q0 123 65.5 194t181.5 71q115 0 179.5 -68t64.5 -190q0 -123 -65 -193t-182 -70zM290 71q61 0 94.5 44.5t33.5 129.5q0 86 -34 132t-96 46q-61 0 -93.5 -45
t-32.5 -131t33 -131t95 -45z" />
    <glyph glyph-name="OE" unicode="&#x152;" horiz-adv-x="989" 
d="M712 94h231v-94h-339v102q-75 -117 -227 -117q-141 0 -230.5 98.5t-89.5 265.5q0 168 90.5 267t231.5 99q151 0 225 -116v101h331v-94h-223v-199h197v-90h-197v-223zM390 86q97 0 150 67.5t53 196.5q0 130 -53 199.5t-150 69.5q-95 0 -152 -71t-57 -198q0 -126 56.5 -195
t152.5 -69z" />
    <glyph glyph-name="oe" unicode="&#x153;" horiz-adv-x="873" 
d="M665 79q70 0 131 33l27 -75q-82 -51 -181 -51q-119 0 -173 82q-62 -82 -182 -82q-115 0 -179.5 67.5t-64.5 188.5q0 123 65.5 194t181.5 71q126 0 187 -90q59 90 176 90q76 0 125 -38.5t49 -105.5q0 -72 -55 -105.5t-179 -35.5l-62 -2q7 -141 134 -141zM648 428
q-102 0 -116 -145h44q82 0 114.5 17t32.5 60q0 31 -20 49.5t-55 18.5zM290 71q61 0 94.5 44.5t33.5 129.5q0 86 -34 132t-96 46q-61 0 -93.5 -45t-32.5 -131t33 -131t95 -45z" />
    <glyph glyph-name="Racute" unicode="&#x154;" horiz-adv-x="569" 
d="M421 857l-222 -82l-24 52l211 113zM555 0l-123 -6l-148 256q-26 -5 -63 -5h-42v-245h-115v700q86 11 160 11q130 0 204 -54.5t74 -165.5q0 -136 -117 -205zM179 334h47q74 0 116 39.5t42 110.5q0 134 -153 134q-35 0 -52 -1v-283z" />
    <glyph glyph-name="racute" unicode="&#x155;" horiz-adv-x="362" 
d="M354 657l-202 -90l-25 52l189 119zM184 365q42 140 132 140q16 0 31 -5l-7 -117q-79 12 -117.5 -52t-38.5 -215v-116h-109v494l109 9v-138z" />
    <glyph glyph-name="Rcommaaccent" unicode="&#x156;" horiz-adv-x="569" 
d="M385 286l170 -286l-123 -6l-148 256q-26 -5 -63 -5h-42v-245h-115v700q86 11 160 11q130 0 204 -54.5t74 -165.5q0 -136 -117 -205zM179 334h47q74 0 116 39.5t42 110.5q0 134 -153 134q-35 0 -52 -1v-283zM272 -63q30 0 47.5 -20.5t17.5 -57.5q0 -40 -23 -74.5
t-65 -50.5l-33 23q39 25 42 68q-21 1 -33.5 16.5t-12.5 38.5q0 26 16.5 41.5t43.5 15.5z" />
    <glyph glyph-name="rcommaaccent" unicode="&#x157;" horiz-adv-x="362" 
d="M316 505q16 0 31 -5l-7 -117q-79 12 -117.5 -52t-38.5 -215v-116h-109v494l109 9v-138q42 140 132 140zM126 -63q30 0 47.5 -20.5t17.5 -57.5q0 -40 -23 -74.5t-65 -50.5l-33 23q39 25 42 68q-21 1 -33.5 16.5t-12.5 38.5q0 26 16.5 41.5t43.5 15.5z" />
    <glyph glyph-name="Rcaron" unicode="&#x158;" horiz-adv-x="569" 
d="M438 880l-167 -106l-168 106l25 50l143 -66l142 66zM555 0l-123 -6l-148 256q-26 -5 -63 -5h-42v-245h-115v700q86 11 160 11q130 0 204 -54.5t74 -165.5q0 -136 -117 -205zM179 334h47q74 0 116 39.5t42 110.5q0 134 -153 134q-35 0 -52 -1v-283z" />
    <glyph glyph-name="rcaron" unicode="&#x159;" horiz-adv-x="362" 
d="M366 686l-147 -117l-148 117l26 49l122 -72l122 72zM184 365q42 140 132 140q16 0 31 -5l-7 -117q-79 12 -117.5 -52t-38.5 -215v-116h-109v494l109 9v-138z" />
    <glyph glyph-name="Sacute" unicode="&#x15a;" horiz-adv-x="479" 
d="M176 827l211 113l35 -83l-222 -82zM223 -12q-102 0 -181 54l31 86q84 -43 147 -43q54 0 83 26t29 68q0 23 -8.5 42.5t-27.5 38t-35 30t-45 30.5l-2 2q-35 23 -54.5 37.5t-45 40.5t-37.5 57.5t-12 69.5q-2 83 53.5 134.5t156.5 51.5q78 0 147 -34l-30 -86q-57 27 -116 27
q-49 0 -75.5 -23t-26.5 -61q0 -29 19 -55.5t37.5 -40.5t58.5 -41q1 0 1 -0.5t1 -0.5q38 -24 58 -39t47 -42t39.5 -59t12.5 -72q0 -88 -63 -143t-162 -55z" />
    <glyph glyph-name="sacute" unicode="&#x15b;" horiz-adv-x="422" 
d="M141 619l189 119l38 -81l-202 -90zM368 483l-29 -79q-50 22 -100 22q-40 0 -62 -16t-22 -45q0 -20 14.5 -35t30.5 -23t47 -19q33 -12 51 -20.5t42 -26t35.5 -43t11.5 -59.5q0 -72 -51 -112t-134 -41q-80 -1 -167 42l31 78q70 -34 127 -34q39 0 62 15.5t23 43.5
q0 18 -13 32.5t-26.5 21t-42.5 19.5h-1q-1 1 -2 1q-31 12 -49 21t-41.5 27t-34.5 44t-11 60q0 71 49.5 111t130.5 40q70 0 131 -25z" />
    <glyph glyph-name="Scedilla" unicode="&#x15e;" horiz-adv-x="479" 
d="M448 186q0 -78 -51.5 -131.5t-135.5 -64.5l-10 -47q44 1 67.5 -18.5t23.5 -55.5q0 -40 -29 -62.5t-79 -22.5q-42 0 -80 19l16 44q29 -13 55 -13q45 0 45 34q0 45 -82 40l-6 21l20 60q-90 6 -160 53l31 86q84 -43 147 -43q54 0 83 26t29 68q0 23 -8.5 42.5t-27.5 38
t-35 30t-45 30.5l-2 2q-35 23 -54.5 37.5t-45 40.5t-37.5 57.5t-12 69.5q-2 83 53.5 134.5t156.5 51.5q78 0 147 -34l-30 -86q-57 27 -116 27q-49 0 -75.5 -23t-26.5 -61q0 -55 68 -104q3 -2 9.5 -6.5t9.5 -7.5q9 -6 35 -23t38 -25.5t33.5 -25.5t32.5 -31.5t24 -34.5
t18.5 -43t5.5 -49z" />
    <glyph glyph-name="scedilla" unicode="&#x15f;" horiz-adv-x="422" 
d="M387 139q0 -65 -42 -104t-113 -47l-9 -45q44 1 67.5 -18.5t23.5 -55.5q0 -40 -29 -62.5t-79 -22.5q-42 0 -80 19l16 44q29 -13 55 -13q45 0 45 34q0 45 -82 40l-6 21l20 58q-67 6 -139 41l31 78q70 -34 127 -34q39 0 62 15.5t23 43.5q0 18 -13 32.5t-26.5 21t-42.5 19.5
h-1q-1 1 -2 1q-31 12 -49 21t-41.5 27t-34.5 44t-11 60q0 71 49.5 111t130.5 40q70 0 131 -25l-29 -79q-50 22 -100 22q-40 0 -62 -16t-22 -45q0 -39 57 -63l15 -6q4 -2 26 -10t29 -11t25.5 -12t26 -15.5t20.5 -18.5t18.5 -24t10 -29t4.5 -37z" />
    <glyph glyph-name="Scaron" unicode="&#x160;" horiz-adv-x="479" 
d="M439 880l-167 -106l-168 106l25 50l143 -66l142 66zM174 536q0 -29 19 -55.5t37.5 -40.5t58.5 -41q1 0 1 -0.5t1 -0.5q38 -24 58 -39t47 -42t39.5 -59t12.5 -72q0 -88 -63 -143t-162 -55q-102 0 -181 54l31 86q84 -43 147 -43q54 0 83 26t29 68q0 23 -8.5 42.5t-27.5 38
t-35 30t-45 30.5l-2 2q-35 23 -54.5 37.5t-45 40.5t-37.5 57.5t-12 69.5q-2 83 53.5 134.5t156.5 51.5q78 0 147 -34l-30 -86q-57 27 -116 27q-49 0 -75.5 -23t-26.5 -61z" />
    <glyph glyph-name="scaron" unicode="&#x161;" horiz-adv-x="422" 
d="M381 686l-147 -117l-148 117l26 49l122 -72l122 72zM155 365q0 -20 14.5 -35t30.5 -23t47 -19q33 -12 51 -20.5t42 -26t35.5 -43t11.5 -59.5q0 -72 -51 -112t-134 -41q-80 -1 -167 42l31 78q70 -34 127 -34q39 0 62 15.5t23 43.5q0 18 -13 32.5t-26.5 21t-42.5 19.5h-1
q-1 1 -2 1q-31 12 -49 21t-41.5 27t-34.5 44t-11 60q0 71 49.5 111t130.5 40q70 0 131 -25l-29 -79q-50 22 -100 22q-40 0 -62 -16t-22 -45z" />
    <glyph glyph-name="uni0162" unicode="&#x162;" horiz-adv-x="591" 
d="M352 0h-35l-12 -57q44 1 67.5 -18.5t23.5 -55.5q0 -40 -29 -62.5t-79 -22.5q-42 0 -80 19l16 44q29 -13 55 -13q45 0 45 34q0 45 -82 40l-6 21l24 71h-23v605h-215v95h543v-95h-213v-605z" />
    <glyph glyph-name="uni0163" unicode="&#x163;" horiz-adv-x="406" 
d="M251 -57q44 1 67.5 -18.5t23.5 -55.5q0 -40 -29 -62.5t-79 -22.5q-42 0 -80 19l16 44q29 -13 55 -13q45 0 45 34q0 45 -82 40l-6 21l21 61q-103 20 -103 146v273h-60v85h60v122l111 8v-130h154l-4 -85h-150v-247q0 -40 16.5 -59t51.5 -19q40 0 82 24l18 -82
q-56 -34 -119 -38z" />
    <glyph glyph-name="Tcaron" unicode="&#x164;" horiz-adv-x="591" 
d="M464 880l-167 -106l-168 106l25 50l143 -66l142 66zM565 700v-95h-213v-605h-115v605h-215v95h543z" />
    <glyph glyph-name="tcaron" unicode="&#x165;" horiz-adv-x="406" 
d="M371 717l-12 -176h-66v172zM361 108l18 -82q-65 -39 -139 -39q-140 0 -140 149v273h-60v85h60v122l111 8v-130h154l-4 -85h-150v-247q0 -40 16.5 -59t51.5 -19q40 0 82 24z" />
    <glyph glyph-name="Tbar" unicode="&#x166;" horiz-adv-x="591" 
d="M565 605h-213v-216h110l-4 -75h-106v-314h-115v314h-108l4 75h104v216h-215v95h543v-95z" />
    <glyph glyph-name="tbar" unicode="&#x167;" horiz-adv-x="406" 
d="M361 108l18 -82q-65 -39 -139 -39q-140 0 -140 149v91h-61v72h61v110h-60v85h60v122l111 8v-130h154l-4 -85h-150v-110h141l-4 -72h-137v-65q0 -40 16.5 -59t51.5 -19q40 0 82 24z" />
    <glyph glyph-name="Umacron" unicode="&#x16a;" horiz-adv-x="660" 
d="M178 892h313l-2 -80h-312zM491 700h115v-447q0 -130 -77.5 -197.5t-199.5 -67.5q-125 0 -200 66.5t-75 198.5v447h116v-432q0 -86 42 -130t118 -44q77 0 119 44.5t42 129.5v432z" />
    <glyph glyph-name="umacron" unicode="&#x16b;" horiz-adv-x="572" 
d="M442 686l-2 -80h-312l1 80h313zM388 493l110 7v-500l-110 -4v93q-53 -99 -163 -99q-76 0 -115.5 47t-39.5 136v320l109 7v-293q0 -121 86 -121q58 0 90.5 54t32.5 144v209z" />
    <glyph glyph-name="Uring" unicode="&#x16e;" horiz-adv-x="660" 
d="M333 760q-49 0 -79 27.5t-30 73.5t30 73.5t79 27.5t78.5 -27.5t29.5 -73.5t-29.5 -73.5t-78.5 -27.5zM333 815q43 0 43 46t-43 46q-44 0 -44 -46t44 -46zM491 700h115v-447q0 -130 -77.5 -197.5t-199.5 -67.5q-125 0 -200 66.5t-75 198.5v447h116v-432q0 -86 42 -130
t118 -44q77 0 119 44.5t42 129.5v432z" />
    <glyph glyph-name="uring" unicode="&#x16f;" horiz-adv-x="572" 
d="M285 554q-49 0 -79 27.5t-30 73.5t30 73.5t79 27.5t78.5 -27.5t29.5 -73.5t-29.5 -73.5t-78.5 -27.5zM285 701q-44 0 -44 -46t44 -46q43 0 43 46t-43 46zM388 493l110 7v-500l-110 -4v93q-53 -99 -163 -99q-76 0 -115.5 47t-39.5 136v320l109 7v-293q0 -121 86 -121
q58 0 90.5 54t32.5 144v209z" />
    <glyph glyph-name="Uhungarumlaut" unicode="&#x170;" horiz-adv-x="660" 
d="M231 771l32 158l82 -18l-49 -154zM359 761l55 158l83 -18l-73 -153zM491 700h115v-447q0 -130 -77.5 -197.5t-199.5 -67.5q-125 0 -200 66.5t-75 198.5v447h116v-432q0 -86 42 -130t118 -44q77 0 119 44.5t42 129.5v432z" />
    <glyph glyph-name="uhungarumlaut" unicode="&#x171;" horiz-adv-x="572" 
d="M314 725l-66 -174l-62 16l43 175zM374 542l-62 16l66 174l86 -18zM388 493l110 7v-500l-110 -4v93q-53 -99 -163 -99q-76 0 -115.5 47t-39.5 136v320l109 7v-293q0 -121 86 -121q58 0 90.5 54t32.5 144v209z" />
    <glyph glyph-name="Uogonek" unicode="&#x172;" horiz-adv-x="660" 
d="M491 700h115v-447q0 -162 -123 -230q-63 -44 -63 -86q0 -29 30 -29q22 0 50 19l28 -41q-45 -45 -110 -45q-40 0 -65.5 20.5t-25.5 59.5q0 34 25 68q-8 -1 -23 -1q-125 0 -200 66.5t-75 198.5v447h116v-432q0 -86 42 -130t118 -44q77 0 119 44.5t42 129.5v432z" />
    <glyph glyph-name="uogonek" unicode="&#x173;" horiz-adv-x="572" 
d="M481 -119l28 -41q-45 -45 -110 -45q-40 0 -65.5 20.5t-25.5 59.5q0 64 84 121h-4v93q-53 -99 -163 -99q-76 0 -115.5 47t-39.5 136v320l109 7v-293q0 -121 86 -121q58 0 90.5 54t32.5 144v209l110 7v-500q-97 -60 -97 -109q0 -29 30 -29q21 0 50 19z" />
    <glyph glyph-name="Wcircumflex" unicode="&#x174;" horiz-adv-x="1033" 
d="M497 840l-142 -66l-25 49l167 107l168 -107l-25 -49zM920 704l118 -4l-276 -706h-106l-135 356l-153 -356h-96l-277 706l123 4l213 -558l140 335l-82 219h123l200 -541z" />
    <glyph glyph-name="wcircumflex" unicode="&#x175;" horiz-adv-x="805" 
d="M402 641l-122 -72l-25 49l147 117l148 -117l-25 -49zM687 497l102 -3l-160 -494h-146l-81 247l-91 -247h-141l-154 494l110 3l128 -405l107 283l-39 119l110 3l128 -405z" />
    <glyph glyph-name="Ycircumflex" unicode="&#x176;" horiz-adv-x="630" 
d="M314 840l-142 -66l-25 49l167 107l168 -107l-25 -49zM630 700l-257 -412v-288h-115v286l-258 414l130 4l190 -310l194 310z" />
    <glyph glyph-name="ycircumflex" unicode="&#x177;" horiz-adv-x="520" 
d="M260 641l-122 -72l-25 49l147 117l148 -117l-25 -49zM504 494l-167 -494l-13 -30q-36 -97 -100 -140t-164 -46l-7 98q65 2 102.5 25.5t61.5 81.5l5 11h-39l-167 494l122 3l127 -405l127 405z" />
    <glyph glyph-name="Ydieresis" unicode="&#x178;" horiz-adv-x="630" 
d="M212 790q-28 0 -44 17t-16 46t16.5 46t47.5 17q28 0 43.5 -17t15.5 -46t-16 -46t-47 -17zM413 790q-29 0 -44.5 17t-15.5 46t16 46t47 17q29 0 44.5 -17t15.5 -46t-16 -46t-47 -17zM630 700l-257 -412v-288h-115v286l-258 414l130 4l190 -310l194 310z" />
    <glyph glyph-name="Zacute" unicode="&#x179;" horiz-adv-x="563" 
d="M421 863l-202 -90l-25 52l189 119zM172 94h357v-94h-485l-7 82l348 524h-323v94h455l6 -82z" />
    <glyph glyph-name="zacute" unicode="&#x17a;" horiz-adv-x="443" 
d="M366 657l-202 -90l-25 52l189 119zM163 86h250v-86h-377l-7 74l245 335h-231v85h356l7 -76z" />
    <glyph glyph-name="Zdotaccent" unicode="&#x17b;" horiz-adv-x="563" 
d="M284 806q-31 0 -48 19t-17 50q0 32 17.5 50.5t51.5 18.5q31 0 47.5 -18.5t16.5 -50.5t-17 -50.5t-51 -18.5zM172 94h357v-94h-485l-7 82l348 524h-323v94h455l6 -82z" />
    <glyph glyph-name="zdotaccent" unicode="&#x17c;" horiz-adv-x="443" 
d="M229 600q-31 0 -48 19t-17 50q0 32 17.5 50.5t51.5 18.5q31 0 47.5 -18.5t16.5 -50.5t-17 -50.5t-51 -18.5zM163 86h250v-86h-377l-7 74l245 335h-231v85h356l7 -76z" />
    <glyph glyph-name="Zcaron" unicode="&#x17d;" horiz-adv-x="563" 
d="M454 880l-167 -106l-168 106l25 50l143 -66l142 66zM172 94h357v-94h-485l-7 82l348 524h-323v94h455l6 -82z" />
    <glyph glyph-name="zcaron" unicode="&#x17e;" horiz-adv-x="443" 
d="M378 686l-147 -117l-148 117l26 49l122 -72l122 72zM163 86h250v-86h-377l-7 74l245 335h-231v85h356l7 -76z" />
    <glyph glyph-name="Scommaaccent" unicode="&#x218;" horiz-adv-x="479" 
d="M174 536q0 -29 19 -55.5t37.5 -40.5t58.5 -41q1 0 1 -0.5t1 -0.5q38 -24 58 -39t47 -42t39.5 -59t12.5 -72q0 -88 -63 -143t-162 -55q-102 0 -181 54l31 86q84 -43 147 -43q54 0 83 26t29 68q0 23 -8.5 42.5t-27.5 38t-35 30t-45 30.5l-2 2q-35 23 -54.5 37.5t-45 40.5
t-37.5 57.5t-12 69.5q-2 83 53.5 134.5t156.5 51.5q78 0 147 -34l-30 -86q-57 27 -116 27q-49 0 -75.5 -23t-26.5 -61zM239 -63q30 0 47.5 -20.5t17.5 -57.5q0 -40 -23 -74.5t-65 -50.5l-33 23q39 25 42 68q-21 1 -33.5 16.5t-12.5 38.5q0 26 16.5 41.5t43.5 15.5z" />
    <glyph glyph-name="scommaaccent" unicode="&#x219;" horiz-adv-x="422" 
d="M155 365q0 -20 14.5 -35t30.5 -23t47 -19q33 -12 51 -20.5t42 -26t35.5 -43t11.5 -59.5q0 -72 -51 -112t-134 -41q-80 -1 -167 42l31 78q70 -34 127 -34q39 0 62 15.5t23 43.5q0 18 -13 32.5t-26.5 21t-42.5 19.5h-1q-1 1 -2 1q-31 12 -49 21t-41.5 27t-34.5 44t-11 60
q0 71 49.5 111t130.5 40q70 0 131 -25l-29 -79q-50 22 -100 22q-40 0 -62 -16t-22 -45zM211 -63q30 0 47.5 -20.5t17.5 -57.5q0 -40 -23 -74.5t-65 -50.5l-33 23q39 25 42 68q-21 1 -33.5 16.5t-12.5 38.5q0 26 16.5 41.5t43.5 15.5z" />
    <glyph glyph-name="uni021A" unicode="&#x21a;" horiz-adv-x="591" 
d="M565 700v-95h-213v-605h-115v605h-215v95h543zM293 -63q30 0 47.5 -20.5t17.5 -57.5q0 -40 -23 -74.5t-65 -50.5l-33 23q39 25 42 68q-21 1 -33.5 16.5t-12.5 38.5q0 26 16.5 41.5t43.5 15.5z" />
    <glyph glyph-name="uni021B" unicode="&#x21b;" horiz-adv-x="406" 
d="M379 26q-65 -39 -139 -39q-140 0 -140 149v273h-60v85h60v122l111 8v-130h154l-4 -85h-150v-247q0 -40 16.5 -59t51.5 -19q40 0 82 24zM239 -63q30 0 47.5 -20.5t17.5 -57.5q0 -40 -23 -74.5t-65 -50.5l-33 23q39 25 42 68q-21 1 -33.5 16.5t-12.5 38.5q0 26 16.5 41.5
t43.5 15.5z" />
    <glyph glyph-name="uni0237" unicode="&#x237;" horiz-adv-x="272" 
d="M-68 -119q35 -13 74 -13q80 0 80 140v486l110 7v-488q0 -125 -51.5 -185.5t-134.5 -60.5q-57 0 -103 23z" />
    <glyph glyph-name="circumflex" unicode="&#x2c6;" horiz-adv-x="600" 
d="M419 618l-25 -49l-123 72l-122 -72l-25 49l147 117z" />
    <glyph glyph-name="dotaccent" unicode="&#x2d9;" horiz-adv-x="262" 
d="M129 600q-31 0 -48 19t-17 50q0 32 17.5 50.5t51.5 18.5q31 0 47.5 -18.5t16.5 -50.5t-17 -50.5t-51 -18.5z" />
    <glyph glyph-name="ring" unicode="&#x2da;" horiz-adv-x="600" 
d="M302 554q-49 0 -79 27.5t-30 73.5t30 73.5t79 27.5t78.5 -27.5t29.5 -73.5t-29.5 -73.5t-78.5 -27.5zM302 609q43 0 43 46t-43 46q-44 0 -44 -46t44 -46z" />
    <glyph glyph-name="tilde" unicode="&#x2dc;" horiz-adv-x="600" 
d="M317 578q-30 0 -64 19q-1 1 -2 1t-2 1q-34 15 -53 15q-24 0 -65 -30l-28 51q52 52 103 52q34 0 74 -22q30 -15 46 -15q23 0 65 31l27 -51q-52 -52 -101 -52z" />
    <glyph glyph-name="gravecomb" unicode="&#x300;" 
d="M-191 615l-25 -52l-202 90l38 81z" />
    <glyph glyph-name="acutecomb" unicode="&#x301;" 
d="M-418 615l189 119l38 -81l-202 -90z" />
    <glyph glyph-name="uni0302" unicode="&#x302;" 
d="M-181 618l-25 -49l-123 72l-122 -72l-25 49l147 117z" />
    <glyph glyph-name="tildecomb" unicode="&#x303;" 
d="M-220 578q-29 0 -63 19q-1 1 -2.5 1t-2.5 1q-32 15 -53 15q-24 0 -65 -30l-28 51q52 52 103 52q36 0 74 -22q30 -15 46 -15q23 0 65 31l27 -51q-52 -52 -101 -52z" />
    <glyph glyph-name="uni0304" unicode="&#x304;" 
d="M-419 682h313l-2 -80h-312z" />
    <glyph glyph-name="uni0306" unicode="&#x306;" 
d="M-231 653q59 0 90 75l57 -28q-16 -59 -54.5 -91t-92.5 -32t-92.5 32t-54.5 91l57 28q31 -75 90 -75z" />
    <glyph glyph-name="uni0307" unicode="&#x307;" 
d="M-133 600q-31 0 -48 19t-17 50q0 32 17.5 50.5t51.5 18.5q31 0 47.5 -18.5t16.5 -50.5t-17 -50.5t-51 -18.5z" />
    <glyph glyph-name="uni0308" unicode="&#x308;" 
d="M-315 584q-28 0 -44 17t-16 46t16.5 46t47.5 17q28 0 43.5 -17t15.5 -46t-16 -46t-47 -17zM-114 584q-29 0 -44.5 17t-15.5 46t16 46t47 17q29 0 44.5 -17t15.5 -46t-16 -46t-47 -17z" />
    <glyph glyph-name="uni030A" unicode="&#x30a;" 
d="M-298 554q-49 0 -79 27.5t-30 73.5t30 73.5t79 27.5t78.5 -27.5t29.5 -73.5t-29.5 -73.5t-78.5 -27.5zM-298 609q43 0 43 46t-43 46q-44 0 -44 -46t44 -46z" />
    <glyph glyph-name="uni030B" unicode="&#x30b;" 
d="M-380 567l43 175l85 -17l-66 -174zM-254 558l66 174l86 -18l-90 -172z" />
    <glyph glyph-name="uni030C" unicode="&#x30c;" 
d="M-153 735l25 -49l-147 -117l-148 117l26 49l122 -72z" />
    <glyph glyph-name="uni0312" unicode="&#x312;" 
d="M-152 686q21 -1 33.5 -16t12.5 -39q0 -26 -16.5 -41.5t-43.5 -15.5q-29 0 -46.5 20.5t-17.5 57.5q0 40 23 74.5t65 50.5l32 -23q-39 -25 -42 -68z" />
    <glyph glyph-name="uni0326" unicode="&#x326;" 
d="M-138 -63q30 0 47.5 -20.5t17.5 -57.5q0 -40 -23 -74.5t-65 -50.5l-33 23q39 24 42 68q-20 1 -33 16.5t-13 38.5q0 26 16.5 41.5t43.5 15.5z" />
    <glyph glyph-name="uni0327" unicode="&#x327;" 
d="M-287 -58q44 2 67.5 -17t23.5 -56q0 -40 -29 -62.5t-79 -22.5q-42 0 -80 19l16 44q29 -13 55 -13q45 0 45 34q0 45 -82 40l-6 21l24 71h57z" />
    <glyph glyph-name="uni0328" unicode="&#x328;" 
d="M-233 -119l28 -41q-45 -45 -110 -45q-40 0 -65.5 20.5t-25.5 59.5q0 72 107 136l83 -11q-97 -60 -97 -109q0 -29 30 -29q21 0 50 19z" />
    <glyph glyph-name="uni0335" unicode="&#x335;" 
d="M-541 605v72h313l-4 -72h-309z" />
    <glyph glyph-name="uni0337" unicode="&#x337;" 
d="M-431 367l271 139l34 -68l-270 -138z" />
    <glyph glyph-name="uni0338" unicode="&#x338;" 
d="M-579 26l387 491l58 -45l-387 -490z" />
    <glyph glyph-name="uni0394" unicode="&#x394;" horiz-adv-x="732" 
d="M30 62l274 649h128l269 -648v-63h-671v62zM580 82l-147 355q-15 39 -26 65q-31 75 -43 112h-4q-7 -21 -33 -87q-10 -25 -17 -46q-10 -25 -11 -28l-156 -371h437z" />
    <glyph glyph-name="uni03A9" unicode="&#x3a9;" horiz-adv-x="819" 
d="M215 85q-64 47 -106.5 121.5t-42.5 169.5q0 141 98 235t248 94q151 0 245.5 -97t94.5 -229q0 -97 -43.5 -172.5t-107.5 -121.5v-3h166v-82h-289v62q72 41 118.5 116t46.5 183q0 103 -63 182t-168 79t-171 -75.5t-66 -189.5q0 -98 48.5 -173.5t116.5 -121.5v-62h-289v82
h164v3z" />
    <glyph glyph-name="pi" unicode="&#x3c0;" horiz-adv-x="653" 
d="M539 433v-276q0 -95 15 -157h-105q-18 28 -18 147v286h-183q-4 -103 -26 -237.5t-50 -195.5h-106q29 76 51 206t24 227q-80 0 -121 -13l-14 66q46 31 171 31h458l-10 -84h-86z" />
    <glyph glyph-name="Wgrave" unicode="&#x1e80;" horiz-adv-x="1033" 
d="M589 825l-25 -52l-202 90l38 81zM920 704l118 -4l-276 -706h-106l-135 356l-153 -356h-96l-277 706l123 4l213 -558l140 335l-82 219h123l200 -541z" />
    <glyph glyph-name="wgrave" unicode="&#x1e81;" horiz-adv-x="805" 
d="M495 619l-25 -52l-202 90l38 81zM687 497l102 -3l-160 -494h-146l-81 247l-91 -247h-141l-154 494l110 3l128 -405l107 283l-39 119l110 3l128 -405z" />
    <glyph glyph-name="Wacute" unicode="&#x1e82;" horiz-adv-x="1033" 
d="M632 863l-202 -90l-25 52l189 119zM920 704l118 -4l-276 -706h-106l-135 356l-153 -356h-96l-277 706l123 4l213 -558l140 335l-82 219h123l200 -541z" />
    <glyph glyph-name="wacute" unicode="&#x1e83;" horiz-adv-x="805" 
d="M538 657l-202 -90l-25 52l189 119zM687 497l102 -3l-160 -494h-146l-81 247l-91 -247h-141l-154 494l110 3l128 -405l107 283l-39 119l110 3l128 -405z" />
    <glyph glyph-name="Wdieresis" unicode="&#x1e84;" horiz-adv-x="1033" 
d="M395 790q-28 0 -44 17t-16 46t16.5 46t47.5 17q28 0 43.5 -17t15.5 -46t-16 -46t-47 -17zM596 790q-29 0 -44.5 17t-15.5 46t16 46t47 17q29 0 44.5 -17t15.5 -46t-16 -46t-47 -17zM920 704l118 -4l-276 -706h-106l-135 356l-153 -356h-96l-277 706l123 4l213 -558
l140 335l-82 219h123l200 -541z" />
    <glyph glyph-name="wdieresis" unicode="&#x1e85;" horiz-adv-x="805" 
d="M301 584q-28 0 -44 17t-16 46t16.5 46t47.5 17q28 0 43.5 -17t15.5 -46t-16 -46t-47 -17zM502 584q-29 0 -44.5 17t-15.5 46t16 46t47 17q29 0 44.5 -17t15.5 -46t-16 -46t-47 -17zM687 497l102 -3l-160 -494h-146l-81 247l-91 -247h-141l-154 494l110 3l128 -405
l107 283l-39 119l110 3l128 -405z" />
    <glyph glyph-name="Ygrave" unicode="&#x1ef2;" horiz-adv-x="630" 
d="M406 825l-25 -52l-202 90l38 81zM630 700l-257 -412v-288h-115v286l-258 414l130 4l190 -310l194 310z" />
    <glyph glyph-name="ygrave" unicode="&#x1ef3;" horiz-adv-x="520" 
d="M352 619l-25 -52l-202 90l38 81zM504 494l-167 -494l-13 -30q-36 -97 -100 -140t-164 -46l-7 98q65 2 102.5 25.5t61.5 81.5l5 11h-39l-167 494l122 3l127 -405l127 405z" />
    <glyph glyph-name="endash" unicode="&#x2013;" horiz-adv-x="578" 
d="M47 389h486l-4 -92h-486z" />
    <glyph glyph-name="emdash" unicode="&#x2014;" horiz-adv-x="878" 
d="M47 389h786l-4 -92h-786z" />
    <glyph glyph-name="quoteleft" unicode="&#x2018;" horiz-adv-x="232" 
d="M114 622q62 -6 62 -63q0 -30 -20.5 -49.5t-55.5 -19.5t-56 23.5t-21 66.5q0 50 29.5 100t69.5 71l42 -19q-43 -45 -50 -110z" />
    <glyph glyph-name="quoteright" unicode="&#x2019;" horiz-adv-x="272" 
d="M132 768q35 0 56 -23.5t21 -66.5q0 -50 -29.5 -100t-69.5 -71l-42 19q43 45 50 110q-62 6 -62 63q0 30 20.5 49.5t55.5 19.5z" />
    <glyph glyph-name="quotesinglbase" unicode="&#x201a;" horiz-adv-x="272" 
d="M132 128q35 0 56 -23.5t21 -66.5q0 -50 -29.5 -100t-69.5 -71l-42 19q43 45 50 110q-62 6 -62 63q0 30 20.5 49.5t55.5 19.5z" />
    <glyph glyph-name="quotedblleft" unicode="&#x201c;" horiz-adv-x="450" 
d="M154 622q62 -6 62 -63q0 -30 -20.5 -49.5t-55.5 -19.5t-56 23.5t-21 66.5q0 50 29.5 100t69.5 71l42 -19q-43 -45 -50 -110zM332 622q62 -6 62 -63q0 -30 -20.5 -49.5t-55.5 -19.5t-56 23.5t-21 66.5q0 50 29.5 100t69.5 71l42 -19q-43 -45 -50 -110z" />
    <glyph glyph-name="quotedblright" unicode="&#x201d;" horiz-adv-x="450" 
d="M132 768q35 0 56 -23.5t21 -66.5q0 -50 -29.5 -100t-69.5 -71l-42 19q43 45 50 110q-62 6 -62 63q0 30 20.5 49.5t55.5 19.5zM310 768q35 0 56 -23.5t21 -66.5q0 -50 -29.5 -100t-69.5 -71l-42 19q43 45 50 110q-62 6 -62 63q0 30 20.5 49.5t55.5 19.5z" />
    <glyph glyph-name="quotedblbase" unicode="&#x201e;" horiz-adv-x="450" 
d="M132 128q35 0 56 -23.5t21 -66.5q0 -50 -29.5 -100t-69.5 -71l-42 19q43 45 50 110q-62 6 -62 63q0 30 20.5 49.5t55.5 19.5zM310 128q35 0 56 -23.5t21 -66.5q0 -50 -29.5 -100t-69.5 -71l-42 19q43 45 50 110q-62 6 -62 63q0 30 20.5 49.5t55.5 19.5z" />
    <glyph glyph-name="dagger" unicode="&#x2020;" horiz-adv-x="579" 
d="M340 718l-10 -224l205 9v-92l-205 9l10 -472h-102l10 472l-205 -9v92l205 -9l-10 224h102z" />
    <glyph glyph-name="daggerdbl" unicode="&#x2021;" horiz-adv-x="579" 
d="M338 718l-8 -207l206 9v-92l-206 9v-206l206 9v-91l-206 9l8 -210h-99l8 210l-203 -9v91l203 -9v206l-203 -9v92l203 -9l-8 207h99z" />
    <glyph glyph-name="bullet" unicode="&#x2022;" horiz-adv-x="383" 
d="M191 205q-51 0 -82.5 31.5t-31.5 83.5t31.5 83.5t82.5 31.5q52 0 83.5 -31.5t31.5 -83.5t-31.5 -83.5t-83.5 -31.5z" />
    <glyph glyph-name="ellipsis" unicode="&#x2026;" horiz-adv-x="873" 
d="M190 -9q-35 0 -54.5 21t-19.5 55q0 35 20 56t57 21q35 0 54.5 -21.5t19.5 -55.5q0 -35 -20 -55.5t-57 -20.5zM434 -9q-34 0 -54 21t-20 55q0 35 20.5 56t57.5 21q35 0 54.5 -21.5t19.5 -55.5q0 -35 -20.5 -55.5t-57.5 -20.5zM679 -9q-34 0 -54 21t-20 55q0 35 20.5 56
t57.5 21q35 0 54.5 -21.5t19.5 -55.5q0 -35 -20.5 -55.5t-57.5 -20.5z" />
    <glyph glyph-name="perthousand" unicode="&#x2030;" horiz-adv-x="1353" 
d="M261 367q-80 0 -122.5 45t-42.5 129q0 82 44 130.5t123 48.5t121.5 -46t42.5 -129q0 -84 -43.5 -131t-122.5 -47zM315 -19l-75 51l468 688l78 -47zM262 434q80 0 80 109q0 110 -80 110q-79 0 -79 -109q0 -54 20.5 -82t58.5 -28zM764 -15q-80 0 -123 45t-43 129
q0 81 44.5 130t122.5 49q79 0 122 -45.5t43 -129.5t-43.5 -131t-122.5 -47zM1157 -15q-80 0 -122.5 45t-42.5 129q0 82 44 130.5t123 48.5t121.5 -46t42.5 -129q0 -85 -43 -131.5t-123 -46.5zM765 52q80 0 80 109q0 110 -80 110q-79 0 -79 -109q0 -110 79 -110zM1158 52
q80 0 80 109q0 110 -80 110q-79 0 -79 -109q0 -110 79 -110z" />
    <glyph glyph-name="guilsinglleft" unicode="&#x2039;" horiz-adv-x="398" 
d="M317 420l-135 -155l135 -159l-57 -47l-179 204l188 210z" />
    <glyph glyph-name="guilsinglright" unicode="&#x203a;" horiz-adv-x="398" 
d="M138 467l179 -205l-188 -210l-48 53l135 156l-135 158z" />
    <glyph glyph-name="Euro" unicode="&#x20ac;" horiz-adv-x="688" 
d="M597 127l32 -81q-84 -59 -208 -59q-122 0 -204 64.5t-105 189.5h-107l7 73h92v20q0 32 3 60h-85l7 74h91q30 116 110 182t199 66q105 0 190 -44l-32 -87q-75 32 -152 32q-157 0 -201 -149h240l-7 -74h-247q-1 -14 -1 -43q0 -25 1 -37h239l-7 -73h-220q43 -156 203 -156
q84 0 162 42z" />
    <glyph glyph-name="uni2113" unicode="&#x2113;" horiz-adv-x="637" 
d="M566 178l46 -46q-38 -66 -99 -102t-128 -36q-79 0 -127.5 41t-59.5 119q-21 -12 -45 -24q-1 0 -3.5 -2t-3.5 -2q-4 -1 -8 -4l-31 67q22 12 32 18q10 5 28 15q10 6 28 16v223q0 131 53.5 192.5t133.5 61.5q79 0 124 -47.5t45 -116.5q0 -103 -61.5 -182t-191.5 -158l1 -7
q0 -122 112 -122q83 0 155 96zM298 479v-176q88 61 121 114.5t33 123.5q0 92 -71 92q-36 0 -60 -37.5t-23 -116.5z" />
    <glyph glyph-name="trademark" unicode="&#x2122;" horiz-adv-x="894" 
d="M859 327h-83l-39 273l-90 -265h-79l-88 269l-41 -277h-74l59 373l101 1l90 -275l91 275l94 -1zM348 700v-64h-114v-309h-84v309h-115v64h313z" />
    <glyph glyph-name="estimated" unicode="&#x212e;" horiz-adv-x="867" 
d="M186 340q-5 0 -5 -4v-196q0 -12 8 -22q104 -107 245 -107q152 0 258 119h57q-54 -64 -137.5 -101.5t-178.5 -37.5q-166 0 -283 105t-117 254t117 254.5t283 105.5t283 -105.5t117 -254.5v-10h-647zM686 562q0 14 -9 24q-105 102 -243 102q-140 0 -244 -106q-9 -9 -9 -24
v-193q0 -6 5 -6h496q4 0 4 6v197z" />
    <glyph glyph-name="partialdiff" unicode="&#x2202;" horiz-adv-x="621" 
d="M76 721q80 59 197 59q125 0 210.5 -101.5t85.5 -278.5q0 -175 -81.5 -290.5t-221.5 -115.5q-107 0 -166 72.5t-59 161.5q0 111 68.5 182.5t169.5 71.5q68 0 116 -33.5t67 -67.5h1q1 11 1 41q0 120 -58 198t-145 78q-82 0 -151 -48zM277 76q69 0 116 64.5t58 154.5
q-13 37 -54.5 72t-96.5 35q-63 0 -107.5 -51t-44.5 -122q0 -65 36 -109t92 -44h1z" />
    <glyph glyph-name="emptyset" unicode="&#x2205;" horiz-adv-x="723" 
d="M604 512q58 -78 58 -187q0 -133 -83.5 -216.5t-216.5 -83.5q-110 0 -187 57l-24 -24l-56 56l24 24q-58 78 -58 187q0 133 84 216.5t217 83.5q109 0 186 -58l24 24l56 -56zM141 325q0 -77 35 -130l316 316q-54 34 -130 34q-102 0 -161.5 -59.5t-59.5 -160.5zM362 104
q101 0 160.5 59.5t59.5 161.5q0 77 -35 130l-315 -316q54 -35 130 -35z" />
    <glyph glyph-name="product" unicode="&#x220f;" horiz-adv-x="786" 
d="M639 602v-697h-104v697h-284v-697h-105v697h-121v90h736v-90h-122z" />
    <glyph glyph-name="summation" unicode="&#x2211;" horiz-adv-x="621" 
d="M23 -95v61l287 330l-273 327v69h544v-87h-395v-4l245 -292l-266 -310v-3h435v-91h-577z" />
    <glyph glyph-name="minus" unicode="&#x2212;" horiz-adv-x="599" 
d="M75 402h453l-4 -89h-453z" />
    <glyph glyph-name="radical" unicode="&#x221a;" horiz-adv-x="641" 
d="M400 -148h-89l-176 450l-81 -31l-21 56l166 66l135 -363q2 -8 4 -12l3 -12q0 -2 1.5 -7t2.5 -8q4 -11 10 -33h1l16 75l201 790h78z" />
    <glyph glyph-name="infinity" unicode="&#x221e;" horiz-adv-x="879" 
d="M657 436q73 0 122.5 -50t49.5 -133t-50 -135.5t-126 -52.5q-60 0 -111 32.5t-108 89.5q-56 -58 -105 -90t-106 -32q-73 0 -123 53t-50 135t49.5 132.5t122.5 50.5q61 0 112.5 -33t107.5 -91q56 59 106.5 91.5t108.5 32.5zM235 155q58 0 145 91q-46 49 -80.5 74.5
t-68.5 25.5q-36 0 -60.5 -25.5t-24.5 -67.5q0 -43 25.5 -70.5t63.5 -27.5zM645 155q37 0 62.5 27.5t25.5 70.5t-24.5 68t-62.5 25q-62 0 -150 -92q46 -49 80 -74t69 -25z" />
    <glyph glyph-name="integral" unicode="&#x222b;" horiz-adv-x="395" 
d="M305 734q56 0 116 -29l-31 -78q-35 16 -70 16q-43 0 -62.5 -32.5t-19.5 -106.5v-515q0 -103 -46.5 -157.5t-130.5 -54.5q-58 0 -116 28l31 78q37 -16 70 -16q43 0 62.5 33t19.5 106v515q1 103 47 158t130 55z" />
    <glyph glyph-name="approxequal" unicode="&#x2248;" horiz-adv-x="585" 
d="M46 334q4 62 42 94.5t89 32.5q46 0 126 -33q1 0 1 -0.5t1 -0.5t1 -0.5t1 -0.5q66 -26 92 -26q56 0 65 63l75 -15q-4 -63 -42.5 -95t-89.5 -32q-42 0 -122 33h-1h-1q-1 1 -2 1q-64 27 -94 27q-26 0 -44 -16t-22 -47zM46 120q4 62 42 94.5t89 32.5q46 0 126 -33q1 0 1 -0.5
t1 -0.5t1 -0.5t1 -0.5q66 -26 92 -26q56 0 65 63l75 -15q-4 -63 -42.5 -95t-89.5 -32q-42 0 -122 33h-1h-1q-1 1 -2 1q-64 27 -94 27q-26 0 -44 -16t-22 -47z" />
    <glyph glyph-name="notequal" unicode="&#x2260;" horiz-adv-x="600" 
d="M373 399l-46 -124h201l-4 -90h-229l-35 -96h-103l35 96h-121l4 90h149l45 124h-198l4 90h227l37 104h104l-38 -104h123l-4 -90h-151z" />
    <glyph glyph-name="lessequal" unicode="&#x2264;" horiz-adv-x="641" 
d="M530 282v-93l-427 211v72l427 211v-93l-319 -154zM100 117h431v-90h-431v90z" />
    <glyph glyph-name="greaterequal" unicode="&#x2265;" horiz-adv-x="608" 
d="M525 472v-73l-427 -211v93l319 154l-319 154v94zM98 117h431v-90h-431v90z" />
    <glyph glyph-name="lozenge" unicode="&#x25ca;" horiz-adv-x="642" 
d="M360 -49h-83l-221 394l224 397h82l222 -397zM341 614q-15 28 -21 48h-2q-9 -26 -21 -48l-148 -267l151 -272q14 -28 19 -46h3q9 27 20 46l149 268z" />
    <glyph glyph-name="N.ss01" horiz-adv-x="703" 
d="M528 700h108v-700h-108v137l-288 316q-4 4 -10 12q-1 1 -4 5t-5 5q-37 41 -46 53v-528h-108v700l97 7l266 -293q61 -67 98 -116v402z" />
    <glyph glyph-name="Nacute.ss01" horiz-adv-x="703" 
d="M502 857l-222 -82l-24 52l211 113zM528 700h108v-700h-108v137l-288 316q-4 4 -10 12q-1 1 -4 5t-5 5q-37 41 -46 53v-528h-108v700l97 7l266 -293q61 -67 98 -116v402z" />
    <glyph glyph-name="Ncaron.ss01" horiz-adv-x="703" 
d="M519 880l-167 -106l-168 106l25 50l143 -66l142 66zM528 700h108v-700h-108v137l-288 316q-4 4 -10 12q-1 1 -4 5t-5 5q-37 41 -46 53v-528h-108v700l97 7l266 -293q61 -67 98 -116v402z" />
    <glyph glyph-name="Ncommaaccent.ss01" horiz-adv-x="703" 
d="M528 700h108v-700h-108v137l-288 316q-4 4 -10 12q-1 1 -4 5t-5 5q-37 41 -46 53v-528h-108v700l97 7l266 -293q61 -67 98 -116v402zM349 -63q30 0 47.5 -20.5t17.5 -57.5q0 -40 -23 -74.5t-65 -50.5l-33 23q39 25 42 68q-21 1 -33.5 16.5t-12.5 38.5q0 26 16.5 41.5
t43.5 15.5z" />
    <glyph glyph-name="Eng.ss01" horiz-adv-x="703" 
d="M528 700h108v-700q0 -106 -62 -158.5t-172 -56.5l-9 86q72 5 105.5 33.5t33.5 89.5v6h-4v137l-288 316q-4 4 -10 12q-1 1 -4 5t-5 5q-37 41 -46 53v-528h-108v700l97 7l266 -293q61 -67 98 -116v402z" />
    <glyph glyph-name="Ntilde.ss01" horiz-adv-x="703" 
d="M279 808q-28 0 -75 -30l-28 51q57 52 112 52q36 0 84 -22q1 0 2 -1q38 -14 52 -14q26 0 73 31l27 -51q-56 -52 -110 -52q-22 0 -47 9l-9 3q-6 2 -19.5 7.5t-21 8.5t-19 5.5t-21.5 2.5zM528 700h108v-700h-108v137l-288 316q-4 4 -10 12q-1 1 -4 5t-5 5q-37 41 -46 53
v-528h-108v700l97 7l266 -293q61 -67 98 -116v402z" />
    <glyph glyph-name="U.ss01" horiz-adv-x="699" 
d="M517 700h115v-698l-115 -6v75q-111 -83 -225 -83q-110 0 -172.5 62.5t-62.5 184.5v465h115v-437q0 -169 155 -169q99 0 190 74v532z" />
    <glyph glyph-name="Uacute.ss01" horiz-adv-x="699" 
d="M498 857l-222 -82l-24 52l211 113zM517 700h115v-698l-115 -6v75q-111 -83 -225 -83q-110 0 -172.5 62.5t-62.5 184.5v465h115v-437q0 -169 155 -169q99 0 190 74v532z" />
    <glyph glyph-name="Ucircumflex.ss01" horiz-adv-x="699" 
d="M348 840l-142 -66l-25 49l167 107l168 -107l-25 -49zM517 700h115v-698l-115 -6v75q-111 -83 -225 -83q-110 0 -172.5 62.5t-62.5 184.5v465h115v-437q0 -169 155 -169q99 0 190 74v532z" />
    <glyph glyph-name="Udieresis.ss01" horiz-adv-x="699" 
d="M246 790q-28 0 -44 17t-16 46t16.5 46t47.5 17q28 0 43.5 -17t15.5 -46t-16 -46t-47 -17zM447 790q-29 0 -44.5 17t-15.5 46t16 46t47 17q29 0 44.5 -17t15.5 -46t-16 -46t-47 -17zM517 700h115v-698l-115 -6v75q-111 -83 -225 -83q-110 0 -172.5 62.5t-62.5 184.5v465
h115v-437q0 -169 155 -169q99 0 190 74v532z" />
    <glyph glyph-name="Ugrave.ss01" horiz-adv-x="699" 
d="M440 825l-25 -52l-202 90l38 81zM517 700h115v-698l-115 -6v75q-111 -83 -225 -83q-110 0 -172.5 62.5t-62.5 184.5v465h115v-437q0 -169 155 -169q99 0 190 74v532z" />
    <glyph glyph-name="Uhungarumlaut.ss01" horiz-adv-x="699" 
d="M360 911l-49 -154l-65 14l32 158zM512 901l-73 -153l-65 13l55 158zM517 700h115v-698l-115 -6v75q-111 -83 -225 -83q-110 0 -172.5 62.5t-62.5 184.5v465h115v-437q0 -169 155 -169q99 0 190 74v532z" />
    <glyph glyph-name="Umacron.ss01" horiz-adv-x="699" 
d="M505 892l-2 -80h-312l1 80h313zM517 700h115v-698l-115 -6v75q-111 -83 -225 -83q-110 0 -172.5 62.5t-62.5 184.5v465h115v-437q0 -169 155 -169q99 0 190 74v532z" />
    <glyph glyph-name="Uogonek.ss01" horiz-adv-x="699" 
d="M610 -109l28 -41q-45 -45 -110 -45q-40 0 -65.5 20.5t-25.5 59.5q0 63 80 118v68q-111 -83 -225 -83q-110 0 -172.5 62.5t-62.5 184.5v465h115v-437q0 -169 155 -169q99 0 190 74v532h115v-698l-20 -1q-82 -54 -82 -100q0 -29 30 -29q22 0 50 19z" />
    <glyph glyph-name="Uring.ss01" horiz-adv-x="699" 
d="M348 760q-49 0 -79 27.5t-30 73.5t30 73.5t79 27.5t78.5 -27.5t29.5 -73.5t-29.5 -73.5t-78.5 -27.5zM348 907q-44 0 -44 -46t44 -46q43 0 43 46t-43 46zM517 700h115v-698l-115 -6v75q-111 -83 -225 -83q-110 0 -172.5 62.5t-62.5 184.5v465h115v-437q0 -169 155 -169
q99 0 190 74v532z" />
    <glyph glyph-name="g.ss01" horiz-adv-x="530" 
d="M188 130q0 -12 8 -19.5t26.5 -12.5t33 -7.5t44.5 -5.5q32 -4 49.5 -6.5t46.5 -9t46 -15.5t35 -23.5t26.5 -35.5t8.5 -49q0 -80 -73.5 -124t-193.5 -44q-105 0 -163 34t-58 98q0 75 95 135q-27 21 -27 56q0 48 51 78q-86 47 -86 148q0 81 55.5 131t147.5 50q64 0 110 -23
q46 32 46 94l85 -7q4 -83 -78 -127q41 -44 41 -112q0 -81 -55.5 -131t-146.5 -50q-32 0 -59 6q-15 -14 -15 -28zM260 435q-42 0 -67.5 -27t-25.5 -77q0 -51 26 -79t69 -28q42 0 67 27.5t25 77.5q0 51 -25.5 78.5t-68.5 27.5zM256 -141q71 0 110.5 19.5t39.5 55.5
q0 19 -11 31.5t-35 20.5t-44 11.5t-55 7.5q-48 6 -70 11q-70 -39 -70 -87q0 -70 135 -70z" />
    <glyph glyph-name="gbreve.ss01" horiz-adv-x="530" 
d="M257 581q-54 0 -92.5 32t-54.5 91l57 28q31 -75 90 -75t90 75l57 -28q-16 -59 -54.5 -91t-92.5 -32zM188 130q0 -12 8 -19.5t26.5 -12.5t33 -7.5t44.5 -5.5q32 -4 49.5 -6.5t46.5 -9t46 -15.5t35 -23.5t26.5 -35.5t8.5 -49q0 -80 -73.5 -124t-193.5 -44q-105 0 -163 34
t-58 98q0 75 95 135q-27 21 -27 56q0 48 51 78q-86 47 -86 148q0 81 55.5 131t147.5 50q64 0 110 -23q46 32 46 94l85 -7q4 -83 -78 -127q41 -44 41 -112q0 -81 -55.5 -131t-146.5 -50q-32 0 -59 6q-15 -14 -15 -28zM260 435q-42 0 -67.5 -27t-25.5 -77q0 -51 26 -79t69 -28
q42 0 67 27.5t25 77.5q0 51 -25.5 78.5t-68.5 27.5zM256 -141q71 0 110.5 19.5t39.5 55.5q0 19 -11 31.5t-35 20.5t-44 11.5t-55 7.5q-48 6 -70 11q-70 -39 -70 -87q0 -70 135 -70z" />
    <glyph glyph-name="gcommaaccent.ss01" horiz-adv-x="530" 
d="M264 579q-30 0 -47.5 20.5t-17.5 57.5q0 40 23 74.5t65 50.5l33 -23q-39 -25 -42 -68q21 -1 33.5 -16.5t12.5 -38.5q0 -26 -16.5 -41.5t-43.5 -15.5zM188 130q0 -12 8 -19.5t26.5 -12.5t33 -7.5t44.5 -5.5q32 -4 49.5 -6.5t46.5 -9t46 -15.5t35 -23.5t26.5 -35.5t8.5 -49
q0 -80 -73.5 -124t-193.5 -44q-105 0 -163 34t-58 98q0 75 95 135q-27 21 -27 56q0 48 51 78q-86 47 -86 148q0 81 55.5 131t147.5 50q64 0 110 -23q46 32 46 94l85 -7q4 -83 -78 -127q41 -44 41 -112q0 -81 -55.5 -131t-146.5 -50q-32 0 -59 6q-15 -14 -15 -28zM260 435
q-42 0 -67.5 -27t-25.5 -77q0 -51 26 -79t69 -28q42 0 67 27.5t25 77.5q0 51 -25.5 78.5t-68.5 27.5zM256 -141q71 0 110.5 19.5t39.5 55.5q0 19 -11 31.5t-35 20.5t-44 11.5t-55 7.5q-48 6 -70 11q-70 -39 -70 -87q0 -70 135 -70z" />
    <glyph glyph-name="gdotaccent.ss01" horiz-adv-x="530" 
d="M255 600q-31 0 -48 19t-17 50q0 32 17.5 50.5t51.5 18.5q31 0 47.5 -18.5t16.5 -50.5t-17 -50.5t-51 -18.5zM188 130q0 -12 8 -19.5t26.5 -12.5t33 -7.5t44.5 -5.5q32 -4 49.5 -6.5t46.5 -9t46 -15.5t35 -23.5t26.5 -35.5t8.5 -49q0 -80 -73.5 -124t-193.5 -44
q-105 0 -163 34t-58 98q0 75 95 135q-27 21 -27 56q0 48 51 78q-86 47 -86 148q0 81 55.5 131t147.5 50q64 0 110 -23q46 32 46 94l85 -7q4 -83 -78 -127q41 -44 41 -112q0 -81 -55.5 -131t-146.5 -50q-32 0 -59 6q-15 -14 -15 -28zM260 435q-42 0 -67.5 -27t-25.5 -77
q0 -51 26 -79t69 -28q42 0 67 27.5t25 77.5q0 51 -25.5 78.5t-68.5 27.5zM256 -141q71 0 110.5 19.5t39.5 55.5q0 19 -11 31.5t-35 20.5t-44 11.5t-55 7.5q-48 6 -70 11q-70 -39 -70 -87q0 -70 135 -70z" />
    <glyph glyph-name="iacute_j.loclNLD" horiz-adv-x="533" 
d="M39 619l189 119l38 -81l-202 -90zM311 619l189 119l38 -81l-202 -90zM76 494l110 7v-501h-110v494zM194 -119q35 -13 74 -13q80 0 80 140v486l110 7v-488q0 -125 -51.5 -185.5t-134.5 -60.5q-57 0 -103 23z" />
    <glyph glyph-name="i.loclTRK" horiz-adv-x="262" 
d="M129 600q-31 0 -48 19t-17 50q0 32 17.5 50.5t51.5 18.5q31 0 47.5 -18.5t16.5 -50.5t-17 -50.5t-51 -18.5zM76 494l110 7v-501h-110v494z" />
    <glyph glyph-name="periodcentered.loclCAT.case" horiz-adv-x="9" 
d="M-98 315q-29 0 -46 17t-17 45q0 29 17.5 46t49.5 17q29 0 46 -17t17 -46q0 -28 -17.5 -45t-49.5 -17z" />
    <glyph glyph-name="periodcentered.loclCAT" horiz-adv-x="105" 
d="M51 295q-26 0 -41.5 17t-15.5 46q0 28 16 45.5t44 17.5q26 0 41 -17.5t15 -45.5q0 -29 -15.5 -46t-43.5 -17z" />
    <glyph glyph-name="caroncomb.alt" 
d="M-175 552v172l78 4l-12 -176h-66z" />
    <glyph glyph-name="acutecomb.case" 
d="M-416 616l211 113l35 -83l-222 -82z" />
    <glyph glyph-name="uni0306.case" 
d="M-231 846q68 0 101 67l57 -28q-16 -55 -58.5 -84.5t-99.5 -29.5t-99.5 30t-58.5 84l57 28q33 -67 101 -67z" />
    <glyph glyph-name="uni030C.case" 
d="M-105 930l25 -50l-167 -106l-168 106l25 50l143 -66z" />
    <glyph glyph-name="uni0302.case" 
d="M-161 823l-25 -49l-143 66l-142 -66l-25 49l167 107z" />
    <glyph glyph-name="gravecomb.case" 
d="M-184 616l-24 -52l-222 82l35 83z" />
    <glyph glyph-name="uni030B.case" 
d="M-383 771l32 158l82 -18l-49 -154zM-255 761l55 158l83 -18l-73 -153z" />
    <glyph glyph-name="uni0338.case" 
d="M-575 52l530 657l67 -56l-530 -658z" />
    <glyph glyph-name="uni0337.case" 
d="M-403 341l314 122l22 -69l-312 -121z" />
    <glyph glyph-name="uni0336.case" 
d="M-617 560l4 71h616l-4 -71h-616z" />
    <glyph glyph-name="uni0335.case" 
d="M-475 305l4 75h329l-4 -75h-329z" />
    <glyph glyph-name="tildecomb.case" 
d="M-263 772q-28 0 -70 18h-1l-2 1q-40 17 -64 17q-28 0 -75 -30l-28 51q57 52 112 52q36 0 84 -22q1 0 2 -1q38 -14 52 -14q27 0 73 31l27 -51q-56 -52 -110 -52z" />
    <glyph glyph-name="uni0308.i" 
d="M-299 606q-27 0 -41.5 17t-14.5 46t15 46t44 17q26 0 40.5 -17t14.5 -46q0 -63 -58 -63zM-134 606q-27 0 -41.5 17t-14.5 46t15 46t44 17q26 0 40.5 -17t14.5 -46t-15 -46t-43 -17z" />
    <glyph glyph-name="uni0304.i" 
d="M-436 682h244l-2 -80h-244z" />
    </font>
</defs>
</svg>
