<?xml version="1.0" standalone="no"?>
<!DOCTYPE svg PUBLIC "-//W3C//DTD SVG 1.1//EN" "http://www.w3.org/Graphics/SVG/1.1/DTD/svg11.dtd" >
<svg xmlns="http://www.w3.org/2000/svg" xmlns:xlink="http://www.w3.org/1999/xlink" version="1.1">
<metadata>
Created by FontForge 20150824 at Thu Jul  7 10:24:59 2016
 By Everything Fonts
Copyright (c) 2015 by Schriftlabor. All rights reserved.
</metadata>
<defs>
<font id="SephoraSansBETABook" horiz-adv-x="0" >
  <font-face 
    font-family="SephoraSansBETABook"
    font-weight="400"
    font-stretch="normal"
    units-per-em="1000"
    panose-1="0 0 5 0 0 0 0 0 0 0"
    ascent="800"
    descent="-200"
    x-height="492"
    cap-height="700"
    bbox="-603 -272 1278 958"
    underline-thickness="50"
    underline-position="-150"
    unicode-range="U+0020-25CA"
  />
<missing-glyph horiz-adv-x="465" 
d="M381 720v-930h-295v930h295zM310 658h-154v-31h61v-34h-62v-31h155v31h-62v34h62v31zM248 538h-93v-97h155v32h-62v65zM217 506v-33h-31v33h31zM310 416h-155v-31h62v-34h-62v-31h93v65h62v31zM310 360h-31v-61h-124v-32h155v93zM310 247h-93v-52h31v21h31v-44h-93v75
h-31v-105h155v105zM310 86h-155v-105h155v105zM279 55v-44h-93v44h93zM310 -41h-155v-30h65l-65 -44v-31h155v31h-95l65 44h30v30z" />
    <glyph glyph-name=".notdef" horiz-adv-x="465" 
d="M381 720v-930h-295v930h295zM310 658h-154v-31h61v-34h-62v-31h155v31h-62v34h62v31zM248 538h-93v-97h155v32h-62v65zM217 506v-33h-31v33h31zM310 416h-155v-31h62v-34h-62v-31h93v65h62v31zM310 360h-31v-61h-124v-32h155v93zM310 247h-93v-52h31v21h31v-44h-93v75
h-31v-105h155v105zM310 86h-155v-105h155v105zM279 55v-44h-93v44h93zM310 -41h-155v-30h65l-65 -44v-31h155v31h-95l65 44h30v30z" />
    <glyph glyph-name=".null" 
 />
    <glyph glyph-name="nonmarkingreturn" horiz-adv-x="333" 
 />
    <glyph glyph-name="space" unicode=" " horiz-adv-x="260" 
 />
    <glyph glyph-name="exclam" unicode="!" horiz-adv-x="282" 
d="M102 209v511l79 4v-511zM141 -7q-27 0 -43 16.5t-16 43.5t16 43t44 16q27 0 43 -16.5t16 -42.5q0 -27 -16 -43.5t-44 -16.5z" />
    <glyph glyph-name="quotedbl" unicode="&#x22;" horiz-adv-x="413" 
d="M100 478l-6 242l74 4l-6 -242zM250 478l-6 242l75 4l-6 -242z" />
    <glyph glyph-name="numbersign" unicode="#" horiz-adv-x="735" 
d="M657 438h-118l-29 -163h116l-4 -63h-123l-38 -212h-68l37 212h-173l-38 -212h-68l37 212h-114l4 63h121l29 163h-119l4 63h126l36 199h68l-35 -199h173l36 199h68l-35 -199h111zM441 275l29 163h-173l-29 -163h173z" />
    <glyph glyph-name="dollar" unicode="$" horiz-adv-x="576" 
d="M483 231q0 -64 -41 -110t-111 -60v-80l-69 -4v79q-88 4 -169 55l33 60q76 -45 154 -45q54 0 84.5 24.5t30.5 68.5q0 19 -8.5 34.5t-28 29.5t-34.5 21.5t-45 21.5q-38 17 -58 28t-47.5 32t-40 48t-12.5 62q0 58 38.5 103.5t111.5 56.5v68l68 4v-70q64 -4 119 -32l-24 -60
q-55 27 -123 27q-52 0 -79.5 -24t-27.5 -62q0 -55 78 -96q15 -7 51.5 -23.5t56.5 -27.5t45 -29.5t36.5 -43.5t11.5 -56z" />
    <glyph glyph-name="percent" unicode="%" horiz-adv-x="994" 
d="M257 370q-75 0 -117 46t-42 128q0 81 43 128.5t118 47.5t116.5 -45.5t41.5 -128.5t-42 -129.5t-118 -46.5zM296 -20l-56 35l456 705l58 -33zM258 423q46 0 70.5 31.5t24.5 90.5q0 58 -25 90t-70 32t-70 -31.5t-25 -89.5q0 -59 25 -91t70 -32zM736 -15q-76 0 -117.5 45.5
t-41.5 127.5t42.5 129.5t117.5 47.5t117 -46t42 -128q0 -83 -42 -129.5t-118 -46.5zM737 38q46 0 70.5 31.5t24.5 89.5q0 59 -25 91t-71 32q-45 0 -69.5 -31.5t-24.5 -90.5t25 -90.5t70 -31.5z" />
    <glyph glyph-name="ampersand" unicode="&#x26;" horiz-adv-x="766" 
d="M582 158q2 -1 5.5 -3.5t4.5 -4.5q110 -80 147 -106l-22 -30l-19 -32q-75 53 -158 117q-103 -121 -246 -121q-91 0 -149 49t-58 132q0 71 39.5 120t111.5 98q-78 100 -78 184q0 71 49 117.5t129 46.5q72 0 115.5 -37.5t43.5 -102.5q0 -45 -25.5 -86t-54.5 -65.5t-80 -58.5
q67 -76 193 -176q47 79 68 195l59 -27q-20 -118 -75 -209zM239 566q0 -65 62 -148q58 40 88 76t30 84q0 40 -22 62.5t-63 22.5q-45 0 -70 -27t-25 -70zM306 44q103 0 183 95q-131 102 -214 193q-53 -38 -82 -75.5t-29 -85.5q0 -57 40 -92t102 -35z" />
    <glyph glyph-name="quotesingle" unicode="'" horiz-adv-x="262" 
d="M100 478l-6 242l74 4l-6 -242z" />
    <glyph glyph-name="parenleft" unicode="(" horiz-adv-x="388" 
d="M265 -222q-153 219 -153 481q0 260 150 472l66 -8q-127 -210 -127 -462q0 -259 132 -472z" />
    <glyph glyph-name="parenright" unicode=")" horiz-adv-x="388" 
d="M122 739q153 -219 153 -481q0 -261 -150 -472l-65 8q126 208 126 462q0 259 -132 472z" />
    <glyph glyph-name="asterisk" unicode="*" horiz-adv-x="426" 
d="M375 610l-124 -32l81 -99l-50 -37l-69 109l-69 -109l-50 37l81 99l-124 32l19 59l119 -47l-8 128h63l-8 -128l119 47z" />
    <glyph glyph-name="plus" unicode="+" horiz-adv-x="602" 
d="M518 393l-4 -66h-182v-187h-69v187h-187l4 66h183v188h69v-188h186z" />
    <glyph glyph-name="comma" unicode="," horiz-adv-x="272" 
d="M134 105q62 0 62 -73q0 -46 -25.5 -92.5t-63.5 -65.5l-25 19q20 18 33 47t15 57q-27 1 -41.5 15.5t-14.5 37.5q0 24 16 39.5t44 15.5z" />
    <glyph glyph-name="hyphen" unicode="-" horiz-adv-x="363" 
d="M56 317l4 62h247l-4 -62h-247z" />
    <glyph glyph-name="period" unicode="." horiz-adv-x="274" 
d="M137 -7q-27 0 -43 16.5t-16 43.5t16 43t44 16q27 0 43 -16.5t16 -42.5q0 -27 -16 -43.5t-44 -16.5z" />
    <glyph glyph-name="slash" unicode="/" horiz-adv-x="377" 
d="M88 -128l-74 -4l275 860l74 4z" />
    <glyph glyph-name="zero" unicode="0" horiz-adv-x="620" 
d="M306 -9q-121 0 -185.5 90t-64.5 260q0 172 68 270t190 98q121 0 185.5 -90t64.5 -260q0 -172 -68 -270t-190 -98zM314 62q74 0 119 75t45 213q0 141 -43.5 214.5t-127.5 73.5q-74 0 -119.5 -75.5t-45.5 -212.5q0 -141 44 -214.5t128 -73.5z" />
    <glyph glyph-name="one" unicode="1" horiz-adv-x="365" 
d="M203 711l86 -5v-706h-78v629l-161 -136l-43 55z" />
    <glyph glyph-name="two" unicode="2" horiz-adv-x="520" 
d="M149 67h324l-5 -67h-429l-6 53q192 172 265 265t73 179q0 70 -37 108t-112 38q-61 0 -141 -34l-26 60q86 43 180 43q106 0 162.5 -54t56.5 -149q0 -96 -67.5 -195t-237.5 -247z" />
    <glyph glyph-name="three" unicode="3" horiz-adv-x="500" 
d="M299 375q67 -15 107 -58.5t40 -115.5q0 -92 -61 -151.5t-176 -59.5q-102 0 -183 38l23 61q68 -30 153 -30q77 0 118 36.5t41 105.5q0 131 -195 131h-42l4 59h42q80 0 122.5 37t42.5 100q0 112 -128 112q-69 0 -129 -26l-25 61q84 36 165 36q92 0 145 -44t53 -122
q0 -61 -30.5 -105.5t-86.5 -64.5z" />
    <glyph glyph-name="four" unicode="4" horiz-adv-x="580" 
d="M574 232l-5 -69h-118v-163h-78v163h-341l-5 63l323 486l101 -5v-475h123zM113 232h260v398z" />
    <glyph glyph-name="five" unicode="5" horiz-adv-x="504" 
d="M168 416h3q32 2 45 2q121 0 181 -53.5t60 -149.5q0 -104 -63 -165t-173 -61q-109 0 -191 50l22 58q76 -40 166 -40q71 0 112.5 41t41.5 110q0 77 -47.5 115.5t-153.5 38.5q-31 0 -67 -3l-13 33v308h338l-5 -71h-256v-213z" />
    <glyph glyph-name="six" unicode="6" horiz-adv-x="572" 
d="M314 442q94 0 149 -53.5t55 -153.5q0 -106 -64 -174.5t-167 -68.5q-115 0 -173 77.5t-58 225.5q0 62 8.5 118.5t30 112t53.5 95.5t84 65t117 25q69 0 127 -23l-19 -64q-60 18 -109 18q-179 0 -204 -260q75 60 170 60zM294 63q66 0 102.5 45t36.5 120q0 148 -138 148
q-86 0 -154 -58v-18q0 -119 35.5 -178t117.5 -59z" />
    <glyph glyph-name="seven" unicode="7" horiz-adv-x="460" 
d="M441 700l6 -59q-176 -260 -281 -645l-83 3q99 371 276 632h-332l5 69h409z" />
    <glyph glyph-name="eight" unicode="8" horiz-adv-x="574" 
d="M360 371q37 -19 61 -34.5t49.5 -39t38 -53t12.5 -64.5q0 -82 -63 -138t-172 -56q-100 0 -163.5 46t-63.5 133q0 129 152 201q-114 71 -114 172q0 79 53.5 127.5t144.5 48.5q87 0 142.5 -43.5t55.5 -119.5q0 -56 -36 -104t-97 -76zM293 651q-55 0 -86.5 -28.5t-31.5 -75.5
q0 -48 32.5 -81t93.5 -65q53 25 83 62.5t30 78.5q0 50 -32.5 79.5t-88.5 29.5zM290 52q65 0 105 34.5t40 86.5q0 26 -11 48t-37 42t-45 31t-58 32l-18 9q-122 -57 -122 -156q0 -60 41.5 -93.5t104.5 -33.5z" />
    <glyph glyph-name="nine" unicode="9" horiz-adv-x="564" 
d="M275 711q113 0 173.5 -85t60.5 -244q0 -81 -15 -148t-47.5 -123t-91.5 -87.5t-140 -31.5q-61 0 -127 18l20 64q57 -13 102 -13q57 0 98 21t64.5 60.5t35.5 87.5t15 111q-74 -64 -173 -64q-84 0 -139.5 53t-55.5 143q0 110 61 174t159 64zM140 482q0 -66 35.5 -102.5
t95.5 -36.5q83 0 153 61q-5 236 -157 236q-55 0 -91 -42.5t-36 -115.5z" />
    <glyph glyph-name="colon" unicode=":" horiz-adv-x="265" 
d="M137 363q-27 0 -43 16.5t-16 43.5t16 43t44 16q27 0 43 -16.5t16 -42.5q0 -27 -16 -43.5t-44 -16.5zM137 -7q-27 0 -43 16.5t-16 43.5t16 43t44 16q27 0 43 -16.5t16 -42.5q0 -27 -16 -43.5t-44 -16.5z" />
    <glyph glyph-name="semicolon" unicode=";" horiz-adv-x="265" 
d="M132 363q-27 0 -42.5 16.5t-15.5 43.5t16 43t44 16q27 0 42.5 -16t15.5 -43t-16 -43.5t-44 -16.5zM134 105q62 0 62 -73q0 -46 -25.5 -92.5t-63.5 -65.5l-25 19q20 18 33 47t15 57q-27 1 -41.5 15.5t-14.5 37.5q0 24 16 39.5t44 15.5z" />
    <glyph glyph-name="less" unicode="&#x3c;" horiz-adv-x="611" 
d="M508 573v-70l-329 -161l329 -162v-70l-411 204v55z" />
    <glyph glyph-name="equal" unicode="=" horiz-adv-x="594" 
d="M80 484h438l-4 -67h-438zM80 274h438l-4 -66h-438z" />
    <glyph glyph-name="greater" unicode="&#x3e;" horiz-adv-x="611" 
d="M105 573l411 -204v-55l-411 -204v70l329 161l-329 162v70z" />
    <glyph glyph-name="question" unicode="?" horiz-adv-x="378" 
d="M182 213l-75 -4q0 43 13.5 80.5t26 55t38.5 48.5q22 24 33 39t21.5 41.5t10.5 56.5q0 124 -170 124l4 75q255 0 255 -185q0 -43 -14 -78.5t-35.5 -61t-43 -49.5t-39.5 -53.5t-23 -62.5q-2 -16 -2 -26zM146 -7q-27 0 -43 16.5t-16 43.5t16.5 43t43.5 16t43 -16.5t16 -42.5
q0 -27 -16 -43.5t-44 -16.5z" />
    <glyph glyph-name="at" unicode="@" horiz-adv-x="1056" 
d="M563 -151q204 0 340 83l26 -57q-67 -43 -167.5 -69.5t-218.5 -26.5q-222 0 -348 113.5t-126 317.5q0 217 128 352t356 135q206 0 321.5 -112t115.5 -301q0 -139 -59 -217t-159 -78q-111 0 -132 102q-49 -101 -168 -101q-65 0 -100.5 32.5t-35.5 85.5q0 85 75.5 121.5
t223.5 38.5v6q0 73 -27.5 105t-87.5 32q-63 0 -132 -39l-18 52q78 47 164 47q85 0 125 -45.5t40 -144.5v-127q0 -54 19 -78.5t60 -24.5q63 0 98 57t35 161q0 167 -93.5 263t-274.5 96q-187 0 -291 -111.5t-104 -297.5q0 -183 111 -276.5t304 -93.5zM487 48q69 0 108 47
t40 123q-122 -1 -175 -23t-53 -75q0 -72 80 -72z" />
    <glyph glyph-name="A" unicode="A" horiz-adv-x="665" 
d="M566 -3l-79 213h-314l-80 -213l-79 3l271 701l94 2l272 -703zM198 274h265l-132 355z" />
    <glyph glyph-name="B" unicode="B" horiz-adv-x="531" 
d="M317 371q167 -30 167 -178q0 -92 -65.5 -146.5t-193.5 -54.5q-64 0 -152 8v700q64 8 126 8q109 0 168.5 -46t59.5 -132q0 -120 -110 -159zM199 645q-14 0 -46 -2v-251h27q168 0 168 128q0 125 -149 125zM235 59q163 0 163 133q0 74 -51 107.5t-163 33.5h-31v-270
q6 0 9 -1q13 0 38.5 -1.5t34.5 -1.5z" />
    <glyph glyph-name="C" unicode="C" horiz-adv-x="682" 
d="M395 -13q-144 0 -238 97.5t-94 262.5q0 166 96.5 266t257.5 100q104 0 186 -41l-25 -65q-76 34 -159 34q-124 0 -198 -78t-74 -213q0 -133 71 -211.5t191 -78.5q92 0 178 43l25 -57q-88 -59 -217 -59z" />
    <glyph glyph-name="D" unicode="D" horiz-adv-x="688" 
d="M242 709q187 0 286 -89.5t99 -261.5q0 -176 -99 -271.5t-287 -95.5q-83 0 -168 9v700q92 9 169 9zM244 60q298 0 298 291q0 289 -300 289q-36 0 -89 -3v-574q53 -3 91 -3z" />
    <glyph glyph-name="E" unicode="E" horiz-adv-x="444" 
d="M153 68h241v-68h-321v700h313v-68h-233v-236h207v-65h-207v-263z" />
    <glyph glyph-name="F" unicode="F" horiz-adv-x="432" 
d="M406 632h-253v-257h219v-67h-219v-308h-80v700h333v-68z" />
    <glyph glyph-name="G" unicode="G" horiz-adv-x="720" 
d="M579 338h78v-308q-120 -43 -240 -43q-166 0 -260 92t-94 254q0 175 100 277.5t268 102.5q120 0 205 -48l-24 -63q-76 38 -177 38q-132 0 -210 -79.5t-78 -223.5q0 -135 71.5 -207t203.5 -72q77 0 157 24v256z" />
    <glyph glyph-name="H" unicode="H" horiz-adv-x="673" 
d="M520 700h80v-700h-80v314h-367v-314h-80v700h80v-317h367v317z" />
    <glyph glyph-name="I" unicode="I" horiz-adv-x="243" 
d="M162 0h-80v700h80v-700z" />
    <glyph glyph-name="J" unicode="J" horiz-adv-x="272" 
d="M109 700h80v-613q0 -288 -236 -299l-6 72q85 8 123.5 59.5t38.5 164.5v616z" />
    <glyph glyph-name="K" unicode="K" horiz-adv-x="602" 
d="M496 -6l-238 310l-105 -141v-163h-80v700h80v-420l312 426l88 -6l-246 -330l285 -370z" />
    <glyph glyph-name="L" unicode="L" horiz-adv-x="448" 
d="M153 68h250v-68h-330v700h80v-632z" />
    <glyph glyph-name="M" unicode="M" horiz-adv-x="921" 
d="M868 0l-84 -2l-77 612l-202 -581h-95l-201 584l-78 -615l-78 2l92 700l117 5l200 -588l203 588l110 -5z" />
    <glyph glyph-name="N" unicode="N" horiz-adv-x="692" 
d="M546 700h73v-700h-100l-372 606v-606h-74v700l107 5l366 -597v592z" />
    <glyph glyph-name="O" unicode="O" horiz-adv-x="818" 
d="M409 -15q-158 0 -252.5 99t-94.5 266q0 166 94.5 265.5t252.5 99.5t252.5 -99t94.5 -266q0 -166 -94.5 -265.5t-252.5 -99.5zM409 57q121 0 190.5 78t69.5 215q0 138 -69.5 216.5t-190.5 78.5t-190.5 -78.5t-69.5 -216.5q0 -137 69.5 -215t190.5 -78z" />
    <glyph glyph-name="P" unicode="P" horiz-adv-x="503" 
d="M208 708q262 0 262 -215q0 -120 -75.5 -183t-215.5 -63h-26v-247h-80v700q75 8 135 8zM188 315q198 0 198 173q0 82 -43 117.5t-133 35.5q-35 0 -57 -2v-324h35z" />
    <glyph glyph-name="Q" unicode="Q" horiz-adv-x="818" 
d="M1016 -135l16 -65q-76 -15 -143 -15q-241 0 -389 210q-40 -10 -91 -10q-158 0 -252.5 99t-94.5 266q0 166 94.5 265.5t252.5 99.5t252.5 -99t94.5 -266q0 -116 -48.5 -202t-134.5 -128q64 -84 142.5 -125t182.5 -41q50 0 118 11zM149 350q0 -137 69.5 -215t190.5 -78
t190.5 78t69.5 215q0 138 -69.5 216.5t-190.5 78.5t-190.5 -78.5t-69.5 -216.5z" />
    <glyph glyph-name="R" unicode="R" horiz-adv-x="552" 
d="M530 0l-89 -5l-160 267q-38 -8 -76 -8h-52v-254h-80v700q83 9 146 9q121 0 187.5 -54t66.5 -161q0 -143 -119 -206zM153 320h57q85 0 132 44t47 126q0 152 -170 152q-31 0 -66 -3v-319z" />
    <glyph glyph-name="S" unicode="S" horiz-adv-x="465" 
d="M224 -12q-95 0 -173 54l24 61q83 -45 148 -45q60 0 92.5 30.5t32.5 81.5q0 28 -9.5 51t-31.5 45t-37.5 34t-48.5 35q-35 24 -54 39t-44 40.5t-36.5 56t-11.5 67.5q-1 79 51 127t144 48q69 0 133 -31l-23 -62q-54 26 -109 26t-86.5 -27t-31.5 -73q0 -26 9 -48t30 -42
t37.5 -32.5t47.5 -33.5q37 -25 56.5 -40.5t46.5 -42.5t39 -59.5t12 -71.5q0 -83 -57.5 -135.5t-149.5 -52.5z" />
    <glyph glyph-name="T" unicode="T" horiz-adv-x="589" 
d="M558 700v-69h-224v-631h-80v631h-225v69h529z" />
    <glyph glyph-name="U" unicode="U" horiz-adv-x="653" 
d="M510 700h80v-458q0 -122 -73 -188t-192 -66t-190.5 65.5t-71.5 188.5v458h80v-444q0 -95 47.5 -144.5t135.5 -49.5t136 50.5t48 143.5v444z" />
    <glyph glyph-name="V" unicode="V" horiz-adv-x="619" 
d="M535 705l83 -5l-271 -705h-76l-270 705l89 5l223 -610z" />
    <glyph glyph-name="W" unicode="W" horiz-adv-x="1004" 
d="M921 704l82 -4l-276 -706h-70l-147 389l-168 -389h-64l-277 706l87 4l230 -603l157 374l-85 225h87l218 -589z" />
    <glyph glyph-name="X" unicode="X" horiz-adv-x="617" 
d="M606 0l-95 -3l-205 298l-209 -298l-86 3l253 356l-238 344l95 3l196 -284l195 284l85 -3l-238 -342z" />
    <glyph glyph-name="Y" unicode="Y" horiz-adv-x="627" 
d="M617 700l-262 -396v-304h-80v301l-265 399l92 4l215 -328l217 328z" />
    <glyph glyph-name="Z" unicode="Z" horiz-adv-x="546" 
d="M129 68h385v-68h-475l-6 55l373 577h-348v68h443l5 -55z" />
    <glyph glyph-name="bracketleft" unicode="[" horiz-adv-x="358" 
d="M290 656h-112v-799h112l-4 -64h-178v927h186z" />
    <glyph glyph-name="backslash" unicode="\" horiz-adv-x="377" 
d="M287 -132l-273 860l76 4l273 -860z" />
    <glyph glyph-name="bracketright" unicode="]" horiz-adv-x="358" 
d="M72 720h178v-927h-186l4 64h112v799h-112z" />
    <glyph glyph-name="asciicircum" unicode="^" horiz-adv-x="566" 
d="M460 250l-180 388l-178 -388h-54l208 438h51l209 -438h-56z" />
    <glyph glyph-name="underscore" unicode="_" horiz-adv-x="583" 
d="M47 0h486l-4 -68h-486z" />
    <glyph glyph-name="grave" unicode="`" horiz-adv-x="600" 
d="M401 601l-21 -38l-189 101l32 59z" />
    <glyph glyph-name="a" unicode="a" horiz-adv-x="494" 
d="M432 0l-74 -7q-9 34 -12 93q-52 -100 -171 -100q-65 0 -102.5 34.5t-37.5 95.5q0 88 78.5 128t232.5 42v14q0 71 -29.5 103t-91.5 32q-71 0 -134 -39l-22 58q78 49 173 49q90 0 134 -47.5t44 -148.5v-211q0 -45 12 -96zM200 45q62 0 104 47t42 123v17q-124 -1 -179 -27.5
t-55 -83.5q0 -76 88 -76z" />
    <glyph glyph-name="b" unicode="b" horiz-adv-x="572" 
d="M333 503q86 0 136.5 -59.5t50.5 -167.5q0 -136 -64 -211t-178 -75q-102 0 -193 45v685l74 4v-333q55 112 174 112zM290 55q74 0 113 55t39 156q0 83 -33.5 127.5t-97.5 44.5q-71 0 -111.5 -64.5t-40.5 -192.5v-100q65 -26 131 -26z" />
    <glyph glyph-name="c" unicode="c" horiz-adv-x="508" 
d="M457 34q-67 -47 -165 -47q-110 0 -175 66t-65 182q0 123 68.5 195.5t184.5 72.5q85 0 144 -37l-23 -61q-55 32 -119 32q-82 0 -129 -49.5t-47 -141.5t45.5 -141t130.5 -49q73 0 126 33z" />
    <glyph glyph-name="d" unicode="d" horiz-adv-x="568" 
d="M411 720l75 5v-725h-75v91q-50 -102 -162 -102q-93 0 -145 66.5t-52 181.5q0 125 60 195.5t159 70.5q72 0 140 -47v264zM270 57q66 0 103.5 52.5t37.5 149.5v124q-67 55 -139 55q-67 0 -104 -50t-37 -144q0 -89 35.5 -138t103.5 -49z" />
    <glyph glyph-name="e" unicode="e" horiz-adv-x="495" 
d="M280 55q67 0 133 33l24 -54q-80 -47 -173 -47q-101 0 -156.5 60t-55.5 181q0 128 60.5 201.5t164.5 73.5q69 0 115.5 -36t46.5 -98q0 -75 -59 -105.5t-205 -30.5h-44q2 -91 38 -134.5t111 -43.5zM273 444q-60 0 -96.5 -41.5t-43.5 -121.5h48q104 0 142.5 17.5t38.5 67.5
q0 34 -24 56t-65 22z" />
    <glyph glyph-name="f" unicode="f" horiz-adv-x="340" 
d="M277 667q-49 0 -70.5 -39t-21.5 -127v-9h138l-4 -63h-134v-429h-77v429h-65v63h65v9q0 232 166 232q52 0 104 -26l-23 -57q-39 17 -78 17z" />
    <glyph glyph-name="g" unicode="g" horiz-adv-x="528" 
d="M171 127q0 -13 8.5 -21.5t28 -14t35 -8t47.5 -5.5t49.5 -5.5t47 -9t46.5 -15.5t35 -23t26.5 -35.5t8.5 -49.5q0 -78 -69.5 -120t-184.5 -42q-102 0 -157 33.5t-55 95.5q0 78 101 141q-34 21 -34 59q0 45 47 74q-81 48 -81 149q0 78 51.5 126.5t136.5 48.5q70 0 119 -33
l97 69l39 -49l-97 -58q31 -43 31 -104q0 -78 -51.5 -126.5t-136.5 -48.5q-36 0 -66 9q-22 -16 -22 -37zM258 448q-51 0 -81.5 -31.5t-30.5 -86.5t31 -87.5t83 -32.5q51 0 81.5 31.5t30.5 87.5t-31 87.5t-83 31.5zM256 -162q82 0 127.5 24.5t45.5 70.5q0 16 -5.5 28t-19 20.5
t-25 14t-34 10t-36.5 6.5t-41 5q-50 6 -73 11q-89 -49 -89 -109q0 -81 150 -81z" />
    <glyph glyph-name="h" unicode="h" horiz-adv-x="572" 
d="M338 503q153 0 153 -184v-319h-76v302q0 70 -24.5 102t-77.5 32q-153 0 -153 -263v-173h-75v720l75 5v-335q56 113 178 113z" />
    <glyph glyph-name="i" unicode="i" horiz-adv-x="255" 
d="M126 616q-23 0 -36 14.5t-13 38.5t13.5 38.5t38.5 14.5q24 0 36.5 -14.5t12.5 -38.5q0 -53 -52 -53zM89 492l77 5v-497h-77v492z" />
    <glyph glyph-name="j" unicode="j" horiz-adv-x="261" 
d="M132 616q-23 0 -36 14.5t-13 38.5t13.5 38.5t38.5 14.5q24 0 36.5 -14.5t12.5 -38.5q0 -53 -52 -53zM-59 -154q31 -13 70 -13q84 0 84 166v493l77 5v-492q0 -122 -43.5 -182.5t-121.5 -60.5q-49 0 -87 19z" />
    <glyph glyph-name="k" unicode="k" horiz-adv-x="527" 
d="M403 -5l-168 242l-89 -99v-139h-77v721l77 5v-500q70 86 141 170l88 99l85 -2l-175 -199l209 -294z" />
    <glyph glyph-name="l" unicode="l" horiz-adv-x="232" 
d="M74 720l76 5v-725h-76v720z" />
    <glyph glyph-name="m" unicode="m" horiz-adv-x="875" 
d="M648 503q146 0 146 -181v-322h-75v305q0 68 -23.5 99.5t-72.5 31.5q-141 0 -145 -245v-191h-76v305q0 69 -23 100t-72 31q-146 0 -146 -265v-171h-75v492l75 7v-104q55 108 170 108q120 0 141 -121q55 121 176 121z" />
    <glyph glyph-name="n" unicode="n" horiz-adv-x="573" 
d="M339 503q153 0 153 -184v-319h-76v302q0 70 -24.5 102t-77.5 32q-153 0 -153 -263v-173h-75v492l75 7v-109q57 113 178 113z" />
    <glyph glyph-name="o" unicode="o" horiz-adv-x="575" 
d="M286 -13q-110 0 -172 67.5t-62 187.5q0 122 63 191.5t174 69.5q110 0 172 -68t62 -188q0 -122 -62.5 -191t-174.5 -69zM289 47q74 0 114 51t40 145q0 95 -41 147.5t-115 52.5q-73 0 -113.5 -51.5t-40.5 -146.5t41 -146.5t115 -51.5z" />
    <glyph glyph-name="p" unicode="p" horiz-adv-x="577" 
d="M339 503q89 0 138 -66.5t49 -180.5q0 -122 -56.5 -194t-156.5 -72q-77 0 -152 50v-250l-75 -5v707l75 5v-117q53 123 178 123zM312 55q66 0 100.5 50t34.5 144q0 91 -33 140t-98 49q-74 0 -114.5 -66.5t-40.5 -195.5v-61q73 -60 151 -60z" />
    <glyph glyph-name="q" unicode="q" horiz-adv-x="572" 
d="M486 440v-650l-75 -5v304q-50 -100 -161 -100q-93 0 -145.5 66t-52.5 180q0 127 63 197.5t172 70.5q93 0 199 -63zM269 57q67 0 104.5 51t37.5 151v139q-68 40 -135 40q-70 0 -107.5 -48.5t-37.5 -142.5q0 -92 36 -141t102 -49z" />
    <glyph glyph-name="r" unicode="r" horiz-adv-x="345" 
d="M302 501q16 0 25 -3l-6 -82q-7 1 -20 1q-69 0 -104.5 -72t-35.5 -210v-135h-75v492l75 8v-149q44 150 141 150z" />
    <glyph glyph-name="s" unicode="s" horiz-adv-x="424" 
d="M357 481l-23 -58q-43 21 -96 21q-48 0 -74.5 -20t-26.5 -55q0 -19 7.5 -33.5t25.5 -26t31.5 -18t40.5 -17.5q34 -13 51 -21.5t41 -25.5t35 -41.5t11 -56.5q0 -67 -48 -105t-127 -39q-79 0 -161 44l25 57q68 -37 132 -37q48 0 75.5 19.5t27.5 53.5q0 18 -7 31.5t-24 24.5
t-30 17.5t-39 17.5q-33 14 -50.5 23t-41 26.5t-34.5 42t-11 57.5q0 67 46.5 105t124.5 38q63 0 119 -24z" />
    <glyph glyph-name="t" unicode="t" horiz-adv-x="403" 
d="M346 85l18 -57q-59 -40 -129 -40q-60 0 -92.5 34t-32.5 101v306h-61v63h61v119l77 6v-125h166l-4 -63h-162v-290q0 -43 17.5 -62.5t54.5 -19.5q42 0 87 28z" />
    <glyph glyph-name="u" unicode="u" horiz-adv-x="565" 
d="M404 490l75 6v-496l-75 -4v106q-51 -112 -168 -112q-76 0 -115.5 47t-39.5 136v317l75 6v-303q0 -136 100 -136q70 0 109 64t39 171v198z" />
    <glyph glyph-name="v" unicode="v" horiz-adv-x="501" 
d="M399 495l81 -3l-177 -492h-105l-177 492l85 3l147 -430z" />
    <glyph glyph-name="w" unicode="w" horiz-adv-x="787" 
d="M690 495l76 -3l-171 -492h-102l-96 273l-108 -273h-100l-168 492l78 3l148 -432l120 298l-46 131l78 3l147 -429z" />
    <glyph glyph-name="x" unicode="x" horiz-adv-x="527" 
d="M497 0l-90 -3l-149 197l-146 -197l-82 3l185 251l-182 241l89 3l144 -190l144 190l83 -3l-184 -244z" />
    <glyph glyph-name="y" unicode="y" horiz-adv-x="501" 
d="M480 492l-177 -492l-17 -39q-36 -92 -86.5 -131t-135.5 -44l-6 71q60 4 94.5 30.5t62.5 92.5l9 20h-26l-177 492l85 3l147 -430l146 430z" />
    <glyph glyph-name="z" unicode="z" horiz-adv-x="442" 
d="M131 63h277v-63h-369l-6 51l270 378h-253v63h344l5 -55z" />
    <glyph glyph-name="braceleft" unicode="{" horiz-adv-x="385" 
d="M220 -78q0 -39 11 -53.5t40 -14.5h50l-4 -64h-78q-52 0 -73 25.5t-21 84.5v248q0 83 -70 83h-45l4 71h46q36 0 50.5 22.5t14.5 66.5v219q0 59 22 84.5t77 25.5h77l-4 -64h-49q-28 0 -38 -14t-10 -54v-213q0 -85 -50 -106q50 -24 50 -108v-239z" />
    <glyph glyph-name="bar" unicode="|" horiz-adv-x="282" 
d="M171 819v-1091h-61v1091h61z" />
    <glyph glyph-name="braceright" unicode="}" horiz-adv-x="385" 
d="M308 302h45l-4 -72h-46q-36 0 -50.5 -22.5t-14.5 -66.5v-241q0 -59 -22 -84.5t-77 -25.5h-77l4 64h49q29 0 39 14t10 54v235q0 85 49 107q-49 22 -49 107v217q0 39 -11 53.5t-41 14.5h-50l4 64h78q52 0 73 -25.5t21 -84.5v-225q0 -83 70 -83z" />
    <glyph glyph-name="asciitilde" unicode="~" horiz-adv-x="567" 
d="M48 278q7 55 42.5 82.5t80.5 27.5q46 0 126 -35q68 -29 96 -29q24 0 43.5 15.5t25.5 47.5l57 -12q-7 -55 -43 -82.5t-80 -27.5t-120 34q-70 30 -101 30q-26 0 -45.5 -15.5t-24.5 -47.5z" />
    <glyph glyph-name="uni00A0" unicode="&#xa0;" horiz-adv-x="260" 
 />
    <glyph glyph-name="exclamdown" unicode="&#xa1;" horiz-adv-x="282" 
d="M141 517q27 0 43 -16.5t16 -43.5t-16 -43t-44 -16q-27 0 -43 16.5t-16 42.5q0 27 16 43.5t44 16.5zM180 301v-511l-79 -4v511z" />
    <glyph glyph-name="cent" unicode="&#xa2;" horiz-adv-x="508" 
d="M457 34q-59 -41 -142 -47v-79l-69 -4v86q-91 14 -142.5 78t-51.5 167q0 109 54.5 179t148.5 85v90l68 4v-90q75 -5 126 -37l-23 -61q-55 32 -119 32q-82 0 -129 -49.5t-47 -141.5t45.5 -141t130.5 -49q73 0 126 33z" />
    <glyph glyph-name="sterling" unicode="&#xa3;" horiz-adv-x="519" 
d="M226 277q0 -110 -81 -209h306v-68h-391l-5 53q96 112 93 224h-102l5 59h91q-4 28 -12 57q-18 84 -18 129q0 78 48.5 135t141.5 57q73 0 155 -41l-24 -64q-76 34 -127 34q-57 0 -85.5 -37t-28.5 -99q0 -34 16 -108q7 -27 13 -63h194l-5 -59h-184z" />
    <glyph glyph-name="currency" unicode="&#xa4;" horiz-adv-x="652" 
d="M514 103l-70 80q-51 -44 -121 -44q-74 0 -120 41l-68 -77l-38 35l72 74q-51 62 -51 143q0 39 14 78.5t38 63.5l-72 72l37 35l68 -78q47 44 121 44q77 0 124 -44l67 78l36 -35l-71 -71q24 -25 37.5 -64.5t13.5 -78.5q0 -37 -15 -76.5t-39 -66.5l75 -74zM323 516
q-60 0 -102 -44.5t-42 -116.5t41.5 -116.5t103.5 -44.5t104.5 44.5t42.5 116.5q0 70 -42.5 115.5t-105.5 45.5z" />
    <glyph glyph-name="yen" unicode="&#xa5;" horiz-adv-x="629" 
d="M523 270h-164v-74h170l-6 -60h-164v-136h-78v136h-170l5 60h165v74h-170l5 59h151l-208 371l92 4l172 -323l172 323l83 -4l-207 -371h158z" />
    <glyph glyph-name="brokenbar" unicode="&#xa6;" horiz-adv-x="282" 
d="M171 736v-381h-61v381h61zM171 191v-381h-61v381h61z" />
    <glyph glyph-name="section" unicode="&#xa7;" horiz-adv-x="590" 
d="M459 639q-56 33 -142 33q-57 0 -97.5 -24t-40.5 -65q0 -39 36.5 -61t130.5 -49q90 -27 135 -64t45 -99q0 -71 -76 -125q45 -33 45 -91q0 -42 -20 -74t-53 -49.5t-69.5 -26t-75.5 -8.5q-109 0 -179 45l21 50q68 -41 156 -41q58 0 102 25t44 71q0 42 -36 67t-124 51
q-102 29 -149 64.5t-47 98.5q0 33 22 66t65 55q-44 35 -44 88q0 72 59.5 110.5t150.5 38.5q92 0 160 -35zM133 376q0 -38 31.5 -61.5t110.5 -47.5q90 -26 132 -51q51 31 51 84q0 40 -29.5 65.5t-95.5 45.5q-79 22 -137 47q-63 -31 -63 -81v-1z" />
    <glyph glyph-name="dieresis" unicode="&#xa8;" horiz-adv-x="404" 
d="M99 587q-22 0 -34.5 13.5t-12.5 36.5q0 51 50 51q22 0 34.5 -13.5t12.5 -37.5q0 -50 -50 -50zM294 587q-22 0 -34.5 13.5t-12.5 36.5q0 51 50 51q22 0 34.5 -13.5t12.5 -37.5q0 -50 -50 -50z" />
    <glyph glyph-name="copyright" unicode="&#xa9;" horiz-adv-x="1003" 
d="M500 -96q-192 0 -311 125t-119 316t120 320.5t311 129.5t311.5 -125t120.5 -315q0 -191 -121 -321t-312 -130zM505 -25q153 0 252 109.5t99 265.5q0 160 -100 267.5t-260 107.5q-154 0 -251.5 -109.5t-97.5 -265.5q0 -161 99 -268t259 -107zM650 185q-58 -42 -142 -42
q-92 0 -145 57.5t-53 155.5q0 101 56 160t153 59q71 0 125 -35l-27 -56q-44 23 -93 23q-138 0 -138 -148t136 -148q60 0 103 27z" />
    <glyph glyph-name="guillemotleft" unicode="&#xab;" horiz-adv-x="520" 
d="M293 411l-132 -155l132 -159l-47 -36l-165 193l174 199zM332 258l106 -122l-46 -36l-137 156l140 156l37 -42z" />
    <glyph glyph-name="logicalnot" unicode="&#xac;" horiz-adv-x="608" 
d="M516 393v-241h-69v175h-371l4 66h436z" />
    <glyph glyph-name="registered" unicode="&#xae;" horiz-adv-x="587" 
d="M295 724q109 0 175 -68.5t66 -179.5q0 -114 -67 -184t-177 -70q-109 0 -175 68.5t-66 180.5q0 114 67 183.5t177 69.5zM294 266q88 0 141 57t53 152q0 93 -53 149.5t-141 56.5t-141.5 -57t-53.5 -152q0 -93 53.5 -149.5t141.5 -56.5zM381 539q0 -47 -41 -73l65 -115h-51
l-57 100q-14 -2 -21 -2h-14v-97h-43v262q43 5 59 5q47 0 75 -21.5t28 -58.5zM275 487q61 0 61 50q0 45 -57 45q-11 0 -17 -1v-94h13z" />
    <glyph glyph-name="degree" unicode="&#xb0;" horiz-adv-x="378" 
d="M183 706q62 0 102 -43t40 -105q0 -67 -41 -106.5t-102 -39.5q-60 0 -101 39.5t-41 106.5q0 65 41.5 106.5t100.5 41.5h1zM180 668q-41 0 -66.5 -29.5t-25.5 -79.5q0 -47 26.5 -78.5t68.5 -31.5q43 0 68.5 29t25.5 78t-24.5 80.5t-71.5 31.5h-1z" />
    <glyph glyph-name="plusminus" unicode="&#xb1;" horiz-adv-x="578" 
d="M259 276v167h-168l4 60h164v167h62v-167h166l-3 -60h-163v-167h-62zM91 127l4 59h392l-3 -59h-393z" />
    <glyph glyph-name="acute" unicode="&#xb4;" horiz-adv-x="600" 
d="M191 601l178 122l32 -59l-189 -101z" />
    <glyph glyph-name="paragraph" unicode="&#xb6;" horiz-adv-x="534" 
d="M267 0v280h-11q-93 0 -157.5 53t-64.5 155q0 106 71 169t231 63q85 0 124 -9v-711h-56v669h-80v-669h-57z" />
    <glyph glyph-name="periodcentered" unicode="&#xb7;" horiz-adv-x="275" 
d="M137 273q-27 0 -43 16.5t-16 43.5t16 43t44 16q27 0 43 -16.5t16 -42.5q0 -27 -16 -43.5t-44 -16.5z" />
    <glyph glyph-name="cedilla" unicode="&#xb8;" horiz-adv-x="504" 
d="M205 -60q94 1 94 -74q0 -38 -27.5 -59.5t-74.5 -21.5q-43 0 -78 20l17 36q26 -14 56 -14q49 0 49 37q0 43 -67 43q-6 0 -9 -1h-9l-9 20l26 74h47z" />
    <glyph glyph-name="guillemotright" unicode="&#xbb;" horiz-adv-x="520" 
d="M274 453l165 -193l-174 -199l-38 42l132 155l-132 159zM128 414l137 -156l-140 -156l-37 42l100 112l-106 122z" />
    <glyph glyph-name="questiondown" unicode="&#xbf;" horiz-adv-x="378" 
d="M232 517q27 0 43 -16.5t16 -43.5t-16.5 -43t-43.5 -16t-43 16.5t-16 42.5q0 27 16 43.5t44 16.5zM196 297l75 4q0 -43 -13 -80.5t-26.5 -56t-38.5 -47.5q-22 -25 -32.5 -39.5t-21 -41.5t-10.5 -56q0 -124 169 -124l-4 -75q-255 0 -255 185q0 43 14.5 79t35.5 61.5t43 49
t39.5 53.5t22.5 63q2 16 2 25z" />
    <glyph glyph-name="Agrave" unicode="&#xc0;" horiz-adv-x="665" 
d="M426 813l-19 -39l-210 89l28 62zM566 -3l-79 213h-314l-80 -213l-79 3l271 701l94 2l272 -703zM198 274h265l-132 355z" />
    <glyph glyph-name="Aacute" unicode="&#xc1;" horiz-adv-x="665" 
d="M474 865l-210 -89l-19 39l201 112zM566 -3l-79 213h-314l-80 -213l-79 3l271 701l94 2l272 -703zM198 274h265l-132 355z" />
    <glyph glyph-name="Acircumflex" unicode="&#xc2;" horiz-adv-x="665" 
d="M332 850l-139 -71l-21 35l160 107l161 -107l-21 -35zM566 -3l-79 213h-314l-80 -213l-79 3l271 701l94 2l272 -703zM198 274h265l-132 355z" />
    <glyph glyph-name="Atilde" unicode="&#xc3;" horiz-adv-x="665" 
d="M261 812q-28 0 -69 -32l-25 37q48 52 100 52q35 0 85 -22q37 -15 54 -15q26 0 67 33l25 -37q-48 -52 -98 -52q-23 0 -45 8q-8 3 -29 11.5t-36 12.5t-29 4zM566 -3l-79 213h-314l-80 -213l-79 3l271 701l94 2l272 -703zM198 274h265l-132 355z" />
    <glyph glyph-name="Adieresis" unicode="&#xc4;" horiz-adv-x="665" 
d="M234 795q-22 0 -34.5 13.5t-12.5 36.5q0 51 50 51q22 0 34.5 -13.5t12.5 -37.5q0 -50 -50 -50zM429 795q-22 0 -34.5 13.5t-12.5 36.5q0 51 50 51q22 0 34.5 -13.5t12.5 -37.5q0 -50 -50 -50zM566 -3l-79 213h-314l-80 -213l-79 3l271 701l94 2l272 -703zM198 274h265
l-132 355z" />
    <glyph glyph-name="Aring" unicode="&#xc5;" horiz-adv-x="665" 
d="M333 763q-47 0 -75 27t-28 71t28.5 70.5t74.5 26.5t74 -26.5t28 -70.5t-28 -71t-74 -27zM333 915q-25 0 -39 -14.5t-14 -39.5q0 -26 14 -40.5t39 -14.5q24 0 38 14.5t14 40.5q0 25 -14 39.5t-38 14.5zM566 -3l-79 213h-314l-80 -213l-79 3l271 701l94 2l272 -703z
M198 274h265l-132 355z" />
    <glyph glyph-name="AE" unicode="&#xc6;" horiz-adv-x="766" 
d="M473 68h242v-68h-322v210h-219l-80 -213l-79 3l271 700h421v-68h-234v-236h208v-65h-208v-263zM199 274h194v358h-60z" />
    <glyph glyph-name="Ccedilla" unicode="&#xc7;" horiz-adv-x="682" 
d="M371 -60q46 1 70 -19t24 -55q0 -38 -27.5 -59.5t-74.5 -21.5q-43 0 -78 20l17 36q26 -14 56 -14q49 0 49 37q0 43 -67 43q-6 0 -9 -1h-9l-9 20l23 66q-121 19 -197 113.5t-76 241.5q0 166 96.5 266t257.5 100q104 0 186 -41l-25 -65q-76 34 -159 34q-124 0 -198 -78
t-74 -213q0 -133 71 -211.5t191 -78.5q92 0 178 43l25 -57q-88 -59 -217 -59q-8 0 -12 1z" />
    <glyph glyph-name="Egrave" unicode="&#xc8;" horiz-adv-x="444" 
d="M326 813l-19 -39l-210 89l28 62zM153 68h241v-68h-321v700h313v-68h-233v-236h207v-65h-207v-263z" />
    <glyph glyph-name="Eacute" unicode="&#xc9;" horiz-adv-x="444" 
d="M374 865l-210 -89l-19 39l201 112zM153 68h241v-68h-321v700h313v-68h-233v-236h207v-65h-207v-263z" />
    <glyph glyph-name="Ecircumflex" unicode="&#xca;" horiz-adv-x="444" 
d="M233 850l-139 -71l-21 35l160 107l161 -107l-21 -35zM153 68h241v-68h-321v700h313v-68h-233v-236h207v-65h-207v-263z" />
    <glyph glyph-name="Edieresis" unicode="&#xcb;" horiz-adv-x="444" 
d="M134 795q-22 0 -34.5 13.5t-12.5 36.5q0 51 50 51q22 0 34.5 -13.5t12.5 -37.5q0 -50 -50 -50zM329 795q-22 0 -34.5 13.5t-12.5 36.5q0 51 50 51q22 0 34.5 -13.5t12.5 -37.5q0 -50 -50 -50zM153 68h241v-68h-321v700h313v-68h-233v-236h207v-65h-207v-263z" />
    <glyph glyph-name="Igrave" unicode="&#xcc;" horiz-adv-x="243" 
d="M215 813l-19 -39l-210 89l28 62zM162 0h-80v700h80v-700z" />
    <glyph glyph-name="Iacute" unicode="&#xcd;" horiz-adv-x="243" 
d="M34 815l201 112l28 -62l-210 -89zM162 0h-80v700h80v-700z" />
    <glyph glyph-name="Icircumflex" unicode="&#xce;" horiz-adv-x="243" 
d="M121 921l161 -107l-21 -35l-140 71l-139 -71l-21 35zM82 0v700h80v-700h-80z" />
    <glyph glyph-name="Idieresis" unicode="&#xcf;" horiz-adv-x="243" 
d="M23 795q-22 0 -34.5 13.5t-12.5 36.5q0 51 50 51q22 0 34.5 -13.5t12.5 -37.5q0 -50 -50 -50zM218 795q-22 0 -34.5 13.5t-12.5 36.5q0 51 50 51q22 0 34.5 -13.5t12.5 -37.5q0 -50 -50 -50zM162 0h-80v700h80v-700z" />
    <glyph glyph-name="Eth" unicode="&#xd0;" horiz-adv-x="688" 
d="M242 709q187 0 286 -89.5t99 -261.5q0 -176 -99 -271.5t-287 -95.5q-83 0 -168 9v324h-69l4 57h65v319q92 9 169 9zM244 60q298 0 298 291q0 289 -300 289q-36 0 -89 -3v-256h174l-4 -57h-170v-261q53 -3 91 -3z" />
    <glyph glyph-name="Ntilde" unicode="&#xd1;" horiz-adv-x="692" 
d="M281 812q-28 0 -69 -32l-25 37q48 52 100 52q35 0 85 -22q37 -15 54 -15q26 0 67 33l25 -37q-48 -52 -98 -52q-23 0 -45 8q-8 3 -29 11.5t-36 12.5t-29 4zM546 700h73v-700h-100l-372 606v-606h-74v700l107 5l366 -597v592z" />
    <glyph glyph-name="Ograve" unicode="&#xd2;" horiz-adv-x="818" 
d="M502 813l-19 -39l-210 89l28 62zM409 -15q-158 0 -252.5 99t-94.5 266q0 166 94.5 265.5t252.5 99.5t252.5 -99t94.5 -266q0 -166 -94.5 -265.5t-252.5 -99.5zM409 57q121 0 190.5 78t69.5 215q0 138 -69.5 216.5t-190.5 78.5t-190.5 -78.5t-69.5 -216.5
q0 -137 69.5 -215t190.5 -78z" />
    <glyph glyph-name="Oacute" unicode="&#xd3;" horiz-adv-x="818" 
d="M321 815l201 112l28 -62l-210 -89zM409 -15q-158 0 -252.5 99t-94.5 266q0 166 94.5 265.5t252.5 99.5t252.5 -99t94.5 -266q0 -166 -94.5 -265.5t-252.5 -99.5zM409 57q121 0 190.5 78t69.5 215q0 138 -69.5 216.5t-190.5 78.5t-190.5 -78.5t-69.5 -216.5
q0 -137 69.5 -215t190.5 -78z" />
    <glyph glyph-name="Ocircumflex" unicode="&#xd4;" horiz-adv-x="818" 
d="M408 850l-139 -71l-21 35l160 107l161 -107l-21 -35zM409 715q158 0 252.5 -99t94.5 -266q0 -166 -94.5 -265.5t-252.5 -99.5t-252.5 99t-94.5 266q0 166 94.5 265.5t252.5 99.5zM409 57q121 0 190.5 78t69.5 215q0 138 -69.5 216.5t-190.5 78.5t-190.5 -78.5
t-69.5 -216.5q0 -137 69.5 -215t190.5 -78z" />
    <glyph glyph-name="Otilde" unicode="&#xd5;" horiz-adv-x="818" 
d="M476 776q-29 0 -73 19q-47 17 -66 17q-28 0 -69 -32l-25 37q48 52 100 52q35 0 85 -22q38 -15 54 -15q26 0 67 33l25 -37q-48 -52 -98 -52zM409 -15q-158 0 -252.5 99t-94.5 266q0 166 94.5 265.5t252.5 99.5t252.5 -99t94.5 -266q0 -166 -94.5 -265.5t-252.5 -99.5z
M409 57q121 0 190.5 78t69.5 215q0 138 -69.5 216.5t-190.5 78.5t-190.5 -78.5t-69.5 -216.5q0 -137 69.5 -215t190.5 -78z" />
    <glyph glyph-name="Odieresis" unicode="&#xd6;" horiz-adv-x="818" 
d="M310 795q-22 0 -34.5 13.5t-12.5 36.5q0 51 50 51q22 0 34.5 -13.5t12.5 -37.5q0 -50 -50 -50zM505 795q-22 0 -34.5 13.5t-12.5 36.5q0 51 50 51q22 0 34.5 -13.5t12.5 -37.5q0 -50 -50 -50zM409 -15q-158 0 -252.5 99t-94.5 266q0 166 94.5 265.5t252.5 99.5t252.5 -99
t94.5 -266q0 -166 -94.5 -265.5t-252.5 -99.5zM409 57q121 0 190.5 78t69.5 215q0 138 -69.5 216.5t-190.5 78.5t-190.5 -78.5t-69.5 -216.5q0 -137 69.5 -215t190.5 -78z" />
    <glyph glyph-name="multiply" unicode="&#xd7;" horiz-adv-x="609" 
d="M497 217l-48 -49l-145 145l-144 -144l-46 47l143 144l-145 145l49 48l145 -145l143 143l47 -46l-143 -144z" />
    <glyph glyph-name="Oslash" unicode="&#xd8;" horiz-adv-x="818" 
d="M662 615q94 -100 94 -265q0 -166 -94.5 -265.5t-252.5 -99.5q-119 0 -206 59l-39 -49l-49 40l40 50q-93 99 -93 265t94.5 265.5t252.5 99.5q120 0 205 -59l40 50l49 -41zM149 350q0 -126 58 -201l359 448q-63 48 -157 48q-121 0 -190.5 -78.5t-69.5 -216.5zM409 57
q121 0 190.5 78t69.5 215q0 123 -58 201l-359 -447q64 -47 157 -47z" />
    <glyph glyph-name="Ugrave" unicode="&#xd9;" horiz-adv-x="653" 
d="M414 811l-21 -38l-189 101l32 59zM510 700h80v-458q0 -122 -73 -188t-192 -66t-190.5 65.5t-71.5 188.5v458h80v-444q0 -95 47.5 -144.5t135.5 -49.5t136 50.5t48 143.5v444z" />
    <glyph glyph-name="Uacute" unicode="&#xda;" horiz-adv-x="653" 
d="M243 815l201 112l28 -62l-210 -89zM510 700h80v-458q0 -122 -73 -188t-192 -66t-190.5 65.5t-71.5 188.5v458h80v-444q0 -95 47.5 -144.5t135.5 -49.5t136 50.5t48 143.5v444z" />
    <glyph glyph-name="Ucircumflex" unicode="&#xdb;" horiz-adv-x="653" 
d="M331 850l-139 -71l-21 35l160 107l161 -107l-21 -35zM510 700h80v-458q0 -122 -73 -188t-192 -66t-190.5 65.5t-71.5 188.5v458h80v-444q0 -95 47.5 -144.5t135.5 -49.5t136 50.5t48 143.5v444z" />
    <glyph glyph-name="Udieresis" unicode="&#xdc;" horiz-adv-x="653" 
d="M232 795q-22 0 -34.5 13.5t-12.5 36.5q0 51 50 51q22 0 34.5 -13.5t12.5 -37.5q0 -50 -50 -50zM427 795q-22 0 -34.5 13.5t-12.5 36.5q0 51 50 51q22 0 34.5 -13.5t12.5 -37.5q0 -50 -50 -50zM510 700h80v-458q0 -122 -73 -188t-192 -66t-190.5 65.5t-71.5 188.5v458h80
v-444q0 -95 47.5 -144.5t135.5 -49.5t136 50.5t48 143.5v444z" />
    <glyph glyph-name="Yacute" unicode="&#xdd;" horiz-adv-x="627" 
d="M440 874l-189 -101l-21 38l178 122zM617 700l-262 -396v-304h-80v301l-265 399l92 4l215 -328l217 328z" />
    <glyph glyph-name="Thorn" unicode="&#xde;" horiz-adv-x="505" 
d="M174 582q147 0 222 -51t75 -162q0 -113 -75 -172.5t-214 -59.5h-28v-137h-80v700h80v-118h20zM190 204q197 0 197 162q0 79 -52 113.5t-161 34.5h-20v-310h36z" />
    <glyph glyph-name="germandbls" unicode="&#xdf;" horiz-adv-x="564" 
d="M376 386q69 -16 110.5 -64t41.5 -129q0 -90 -51.5 -146.5t-147.5 -56.5q-75 0 -132 31l20 60q46 -24 102 -24q63 0 95.5 34.5t32.5 99.5q0 151 -190 151h-25l4 57h19q73 0 110.5 36t37.5 104q0 62 -31.5 95t-91.5 33q-69 0 -100.5 -45.5t-31.5 -142.5v-479h-77v471
q0 128 55 195t159 67q90 0 142 -49t52 -134q0 -123 -103 -164z" />
    <glyph glyph-name="agrave" unicode="&#xe0;" horiz-adv-x="494" 
d="M325 603l-21 -38l-189 101l32 59zM432 0l-74 -7q-9 34 -12 93q-52 -100 -171 -100q-65 0 -102.5 34.5t-37.5 95.5q0 88 78.5 128t232.5 42v14q0 71 -29.5 103t-91.5 32q-71 0 -134 -39l-22 58q78 49 173 49q90 0 134 -47.5t44 -148.5v-211q0 -45 12 -96zM200 45
q62 0 104 47t42 123v17q-124 -1 -179 -27.5t-55 -83.5q0 -76 88 -76z" />
    <glyph glyph-name="aacute" unicode="&#xe1;" horiz-adv-x="494" 
d="M369 666l-189 -101l-21 38l178 122zM432 0l-74 -7q-9 34 -12 93q-52 -100 -171 -100q-65 0 -102.5 34.5t-37.5 95.5q0 88 78.5 128t232.5 42v14q0 71 -29.5 103t-91.5 32q-71 0 -134 -39l-22 58q78 49 173 49q90 0 134 -47.5t44 -148.5v-211q0 -45 12 -96zM200 45
q62 0 104 47t42 123v17q-124 -1 -179 -27.5t-55 -83.5q0 -76 88 -76z" />
    <glyph glyph-name="acircumflex" unicode="&#xe2;" horiz-adv-x="494" 
d="M242 652l-119 -81l-21 35l140 123l141 -123l-21 -35zM432 0l-74 -7q-9 34 -12 93q-52 -100 -171 -100q-65 0 -102.5 34.5t-37.5 95.5q0 88 78.5 128t232.5 42v14q0 71 -29.5 103t-91.5 32q-71 0 -134 -39l-22 58q78 49 173 49q90 0 134 -47.5t44 -148.5v-211
q0 -45 12 -96zM200 45q62 0 104 47t42 123v17q-124 -1 -179 -27.5t-55 -83.5q0 -76 88 -76z" />
    <glyph glyph-name="atilde" unicode="&#xe3;" horiz-adv-x="494" 
d="M192 621q-26 0 -64 -32l-26 37q47 52 96 52q35 0 71 -22q28 -15 44 -15q25 0 63 32l25 -37q-45 -52 -94 -52q-19 0 -41 9q-6 3 -21 11.5t-27 12.5t-26 4zM432 0l-74 -7q-9 34 -12 93q-52 -100 -171 -100q-65 0 -102.5 34.5t-37.5 95.5q0 88 78.5 128t232.5 42v14
q0 71 -29.5 103t-91.5 32q-71 0 -134 -39l-22 58q78 49 173 49q90 0 134 -47.5t44 -148.5v-211q0 -45 12 -96zM200 45q62 0 104 47t42 123v17q-124 -1 -179 -27.5t-55 -83.5q0 -76 88 -76z" />
    <glyph glyph-name="adieresis" unicode="&#xe4;" horiz-adv-x="494" 
d="M143 587q-22 0 -34.5 13.5t-12.5 36.5q0 51 50 51q22 0 34.5 -13.5t12.5 -37.5q0 -50 -50 -50zM338 587q-22 0 -34.5 13.5t-12.5 36.5q0 51 50 51q22 0 34.5 -13.5t12.5 -37.5q0 -50 -50 -50zM432 0l-74 -7q-9 34 -12 93q-52 -100 -171 -100q-65 0 -102.5 34.5
t-37.5 95.5q0 88 78.5 128t232.5 42v14q0 71 -29.5 103t-91.5 32q-71 0 -134 -39l-22 58q78 49 173 49q90 0 134 -47.5t44 -148.5v-211q0 -45 12 -96zM200 45q62 0 104 47t42 123v17q-124 -1 -179 -27.5t-55 -83.5q0 -76 88 -76z" />
    <glyph glyph-name="aring" unicode="&#xe5;" horiz-adv-x="494" 
d="M242 555q-47 0 -75 27t-28 71t28.5 70.5t74.5 26.5t74 -26.5t28 -70.5t-28 -71t-74 -27zM242 707q-25 0 -39 -14.5t-14 -39.5q0 -26 14 -40.5t39 -14.5q24 0 38 14.5t14 40.5q0 25 -14 39.5t-38 14.5zM432 0l-74 -7q-9 34 -12 93q-52 -100 -171 -100q-65 0 -102.5 34.5
t-37.5 95.5q0 88 78.5 128t232.5 42v14q0 71 -29.5 103t-91.5 32q-71 0 -134 -39l-22 58q78 49 173 49q90 0 134 -47.5t44 -148.5v-211q0 -45 12 -96zM200 45q62 0 104 47t42 123v17q-124 -1 -179 -27.5t-55 -83.5q0 -76 88 -76z" />
    <glyph glyph-name="ae" unicode="&#xe6;" horiz-adv-x="782" 
d="M567 55q66 0 133 34l22 -55q-77 -47 -169 -47q-132 0 -183 120q-29 -58 -78 -89.5t-110 -31.5q-70 0 -108.5 34t-38.5 95q0 86 77.5 125.5t233.5 41.5v18q0 71 -31 103t-96 32q-67 0 -128 -38l-22 57q77 49 164 49q125 0 162 -98q59 98 175 98q67 0 111.5 -36t44.5 -97
q0 -75 -59 -106t-202 -31h-47q2 -90 37.5 -134t111.5 -44zM561 444q-60 0 -96.5 -41.5t-44.5 -121.5h48q104 0 142.5 17.5t38.5 67.5q0 34 -24 56t-64 22zM196 45q68 0 109 48.5t41 125.5v15q-125 -1 -180.5 -27.5t-55.5 -83.5q0 -78 86 -78z" />
    <glyph glyph-name="ccedilla" unicode="&#xe7;" horiz-adv-x="508" 
d="M299 -60q46 1 70 -19t24 -55q0 -38 -27.5 -59.5t-74.5 -21.5q-43 0 -78 20l17 36q26 -14 56 -14q49 0 49 37q0 43 -67 43q-6 0 -9 -1h-9l-9 20l22 62q-98 9 -154.5 74t-56.5 173q0 123 68.5 195.5t184.5 72.5q85 0 144 -37l-23 -61q-55 32 -119 32q-82 0 -129 -49.5
t-47 -141.5t45.5 -141t130.5 -49q73 0 126 33l24 -55q-63 -43 -146 -47z" />
    <glyph glyph-name="egrave" unicode="&#xe8;" horiz-adv-x="495" 
d="M352 603l-21 -38l-189 101l32 59zM280 55q67 0 133 33l24 -54q-80 -47 -173 -47q-101 0 -156.5 60t-55.5 181q0 128 60.5 201.5t164.5 73.5q69 0 115.5 -36t46.5 -98q0 -75 -59 -105.5t-205 -30.5h-44q2 -91 38 -134.5t111 -43.5zM273 444q-60 0 -96.5 -41.5
t-43.5 -121.5h48q104 0 142.5 17.5t38.5 67.5q0 34 -24 56t-65 22z" />
    <glyph glyph-name="eacute" unicode="&#xe9;" horiz-adv-x="495" 
d="M396 666l-189 -101l-21 38l178 122zM280 55q67 0 133 33l24 -54q-80 -47 -173 -47q-101 0 -156.5 60t-55.5 181q0 128 60.5 201.5t164.5 73.5q69 0 115.5 -36t46.5 -98q0 -75 -59 -105.5t-205 -30.5h-44q2 -91 38 -134.5t111 -43.5zM273 444q-60 0 -96.5 -41.5
t-43.5 -121.5h48q104 0 142.5 17.5t38.5 67.5q0 34 -24 56t-65 22z" />
    <glyph glyph-name="ecircumflex" unicode="&#xea;" horiz-adv-x="495" 
d="M268 652l-119 -81l-21 35l140 123l141 -123l-21 -35zM280 55q67 0 133 33l24 -54q-80 -47 -173 -47q-101 0 -156.5 60t-55.5 181q0 128 60.5 201.5t164.5 73.5q69 0 115.5 -36t46.5 -98q0 -75 -59 -105.5t-205 -30.5h-44q2 -91 38 -134.5t111 -43.5zM273 444
q-60 0 -96.5 -41.5t-43.5 -121.5h48q104 0 142.5 17.5t38.5 67.5q0 34 -24 56t-65 22z" />
    <glyph glyph-name="edieresis" unicode="&#xeb;" horiz-adv-x="495" 
d="M170 587q-22 0 -34.5 13.5t-12.5 36.5q0 51 50 51q22 0 34.5 -13.5t12.5 -37.5q0 -50 -50 -50zM365 587q-22 0 -34.5 13.5t-12.5 36.5q0 51 50 51q22 0 34.5 -13.5t12.5 -37.5q0 -50 -50 -50zM280 55q67 0 133 33l24 -54q-80 -47 -173 -47q-101 0 -156.5 60t-55.5 181
q0 128 60.5 201.5t164.5 73.5q69 0 115.5 -36t46.5 -98q0 -75 -59 -105.5t-205 -30.5h-44q2 -91 38 -134.5t111 -43.5zM273 444q-60 0 -96.5 -41.5t-43.5 -121.5h48q104 0 142.5 17.5t38.5 67.5q0 34 -24 56t-65 22z" />
    <glyph glyph-name="igrave" unicode="&#xec;" horiz-adv-x="255" 
d="M211 603l-21 -38l-189 101l32 59zM89 492l77 5v-497h-77v492z" />
    <glyph glyph-name="iacute" unicode="&#xed;" horiz-adv-x="255" 
d="M45 603l178 122l32 -59l-189 -101zM89 492l77 5v-497h-77v492z" />
    <glyph glyph-name="icircumflex" unicode="&#xee;" horiz-adv-x="255" 
d="M127 729l141 -123l-21 -35l-120 81l-119 -81l-21 35zM89 0v492l77 5v-497h-77z" />
    <glyph glyph-name="idieresis" unicode="&#xef;" horiz-adv-x="255" 
d="M48 618q-21 0 -33 13.5t-12 37.5q0 51 48 51q21 0 33 -13.5t12 -37.5q0 -51 -48 -51zM205 618q-21 0 -33 13.5t-12 37.5q0 51 48 51q21 0 32.5 -13.5t11.5 -37.5q0 -51 -47 -51zM89 492l77 5v-497h-77v492z" />
    <glyph glyph-name="eth" unicode="&#xf0;" horiz-adv-x="575" 
d="M356 619q162 -152 167 -372q0 -123 -62.5 -191.5t-173.5 -68.5t-173 66.5t-62 184.5q0 120 63 189.5t163 69.5q86 0 138 -51q-41 84 -118 154l-150 -47v39l116 37q-41 36 -102 73l75 8q41 -26 86 -62l124 39v-39zM289 47q74 0 114 50.5t40 143.5t-41 144.5t-115 51.5
q-73 0 -113.5 -50.5t-40.5 -143.5q0 -94 41 -145t115 -51z" />
    <glyph glyph-name="ntilde" unicode="&#xf1;" horiz-adv-x="573" 
d="M246 621q-26 0 -64 -32l-26 37q47 52 96 52q35 0 71 -22q28 -15 44 -15q25 0 63 32l25 -37q-45 -52 -94 -52q-19 0 -41 9q-6 3 -21 11.5t-27 12.5t-26 4zM339 503q153 0 153 -184v-319h-76v302q0 70 -24.5 102t-77.5 32q-153 0 -153 -263v-173h-75v492l75 7v-109
q57 113 178 113z" />
    <glyph glyph-name="ograve" unicode="&#xf2;" horiz-adv-x="575" 
d="M371 603l-21 -38l-189 101l32 59zM286 -13q-110 0 -172 67.5t-62 187.5q0 122 63 191.5t174 69.5q110 0 172 -68t62 -188q0 -122 -62.5 -191t-174.5 -69zM289 47q74 0 114 51t40 145q0 95 -41 147.5t-115 52.5q-73 0 -113.5 -51.5t-40.5 -146.5t41 -146.5t115 -51.5z" />
    <glyph glyph-name="oacute" unicode="&#xf3;" horiz-adv-x="575" 
d="M205 603l178 122l32 -59l-189 -101zM286 -13q-110 0 -172 67.5t-62 187.5q0 122 63 191.5t174 69.5q110 0 172 -68t62 -188q0 -122 -62.5 -191t-174.5 -69zM289 47q74 0 114 51t40 145q0 95 -41 147.5t-115 52.5q-73 0 -113.5 -51.5t-40.5 -146.5t41 -146.5t115 -51.5z
" />
    <glyph glyph-name="ocircumflex" unicode="&#xf4;" horiz-adv-x="575" 
d="M288 652l-119 -81l-21 35l140 123l141 -123l-21 -35zM289 503q110 0 172 -68t62 -188q0 -122 -62.5 -191t-174.5 -69q-110 0 -172 67.5t-62 187.5q0 122 63 191.5t174 69.5zM289 47q74 0 114 51t40 145q0 95 -41 147.5t-115 52.5q-73 0 -113.5 -51.5t-40.5 -146.5
t41 -146.5t115 -51.5z" />
    <glyph glyph-name="otilde" unicode="&#xf5;" horiz-adv-x="575" 
d="M353 584q-25 0 -59 19q-34 18 -56 18q-26 0 -64 -32l-26 37q47 52 96 52q35 0 71 -22q28 -15 44 -15q25 0 63 32l25 -37q-45 -52 -94 -52zM286 -13q-110 0 -172 67.5t-62 187.5q0 122 63 191.5t174 69.5q110 0 172 -68t62 -188q0 -122 -62.5 -191t-174.5 -69zM289 47
q74 0 114 51t40 145q0 95 -41 147.5t-115 52.5q-73 0 -113.5 -51.5t-40.5 -146.5t41 -146.5t115 -51.5z" />
    <glyph glyph-name="odieresis" unicode="&#xf6;" horiz-adv-x="575" 
d="M189 587q-22 0 -34.5 13.5t-12.5 36.5q0 51 50 51q22 0 34.5 -13.5t12.5 -37.5q0 -50 -50 -50zM384 587q-22 0 -34.5 13.5t-12.5 36.5q0 51 50 51q22 0 34.5 -13.5t12.5 -37.5q0 -50 -50 -50zM286 -13q-110 0 -172 67.5t-62 187.5q0 122 63 191.5t174 69.5q110 0 172 -68
t62 -188q0 -122 -62.5 -191t-174.5 -69zM289 47q74 0 114 51t40 145q0 95 -41 147.5t-115 52.5q-73 0 -113.5 -51.5t-40.5 -146.5t41 -146.5t115 -51.5z" />
    <glyph glyph-name="divide" unicode="&#xf7;" horiz-adv-x="583" 
d="M290 501q-24 0 -38 15t-14 39t14.5 38.5t39.5 14.5q24 0 38.5 -14.5t14.5 -38.5t-15 -39t-40 -15zM47 395h492l-4 -66h-492zM290 116q-24 0 -38 14.5t-14 39.5q0 24 14.5 38.5t39.5 14.5q24 0 38.5 -15t14.5 -38q0 -25 -15 -39.5t-40 -14.5z" />
    <glyph glyph-name="oslash" unicode="&#xf8;" horiz-adv-x="575" 
d="M467 428q56 -65 56 -181q0 -122 -62.5 -191t-174.5 -69q-85 0 -140 39l-29 -36l-45 34l33 41q-53 65 -53 177q0 122 63 191.5t174 69.5q80 0 134 -36l32 40l46 -36zM133 245q0 -67 22 -116l225 284q-38 30 -93 30q-73 0 -113.5 -51.5t-40.5 -146.5zM289 47q74 0 114 51
t40 145q0 74 -26 123l-227 -284q40 -35 99 -35z" />
    <glyph glyph-name="ugrave" unicode="&#xf9;" horiz-adv-x="565" 
d="M364 603l-21 -38l-189 101l32 59zM404 490l75 6v-496l-75 -4v106q-51 -112 -168 -112q-76 0 -115.5 47t-39.5 136v317l75 6v-303q0 -136 100 -136q70 0 109 64t39 171v198z" />
    <glyph glyph-name="uacute" unicode="&#xfa;" horiz-adv-x="565" 
d="M408 666l-189 -101l-21 38l178 122zM404 490l75 6v-496l-75 -4v106q-51 -112 -168 -112q-76 0 -115.5 47t-39.5 136v317l75 6v-303q0 -136 100 -136q70 0 109 64t39 171v198z" />
    <glyph glyph-name="ucircumflex" unicode="&#xfb;" horiz-adv-x="565" 
d="M280 652l-119 -81l-21 35l140 123l141 -123l-21 -35zM404 490l75 6v-496l-75 -4v106q-51 -112 -168 -112q-76 0 -115.5 47t-39.5 136v317l75 6v-303q0 -136 100 -136q70 0 109 64t39 171v198z" />
    <glyph glyph-name="udieresis" unicode="&#xfc;" horiz-adv-x="565" 
d="M182 587q-22 0 -34.5 13.5t-12.5 36.5q0 51 50 51q22 0 34.5 -13.5t12.5 -37.5q0 -50 -50 -50zM377 587q-22 0 -34.5 13.5t-12.5 36.5q0 51 50 51q22 0 34.5 -13.5t12.5 -37.5q0 -50 -50 -50zM404 490l75 6v-496l-75 -4v106q-51 -112 -168 -112q-76 0 -115.5 47
t-39.5 136v317l75 6v-303q0 -136 100 -136q70 0 109 64t39 171v198z" />
    <glyph glyph-name="yacute" unicode="&#xfd;" horiz-adv-x="501" 
d="M377 666l-189 -101l-21 38l178 122zM480 492l-177 -492l-17 -39q-36 -92 -86.5 -131t-135.5 -44l-6 71q60 4 94.5 30.5t62.5 92.5l9 20h-26l-177 492l85 3l147 -430l146 430z" />
    <glyph glyph-name="thorn" unicode="&#xfe;" horiz-adv-x="577" 
d="M339 503q89 0 138 -66.5t49 -180.5q0 -122 -56.5 -194t-156.5 -72q-77 0 -152 50v-250l-75 -5v935l75 5v-345q53 123 178 123zM312 55q66 0 100.5 50t34.5 144q0 91 -33 140t-98 49q-74 0 -114.5 -66.5t-40.5 -195.5v-61q73 -60 151 -60z" />
    <glyph glyph-name="ydieresis" unicode="&#xff;" horiz-adv-x="501" 
d="M151 587q-22 0 -34.5 13.5t-12.5 36.5q0 51 50 51q22 0 34.5 -13.5t12.5 -37.5q0 -50 -50 -50zM346 587q-22 0 -34.5 13.5t-12.5 36.5q0 51 50 51q22 0 34.5 -13.5t12.5 -37.5q0 -50 -50 -50zM480 492l-177 -492l-17 -39q-36 -92 -86.5 -131t-135.5 -44l-6 71
q60 4 94.5 30.5t62.5 92.5l9 20h-26l-177 492l85 3l147 -430l146 430z" />
    <glyph glyph-name="Amacron" unicode="&#x100;" horiz-adv-x="665" 
d="M482 880l-1 -59h-298l1 59h298zM566 -3l-79 213h-314l-80 -213l-79 3l271 701l94 2l272 -703zM198 274h265l-132 355z" />
    <glyph glyph-name="amacron" unicode="&#x101;" horiz-adv-x="494" 
d="M392 672l-1 -59h-298l1 59h298zM432 0l-74 -7q-9 34 -12 93q-52 -100 -171 -100q-65 0 -102.5 34.5t-37.5 95.5q0 88 78.5 128t232.5 42v14q0 71 -29.5 103t-91.5 32q-71 0 -134 -39l-22 58q78 49 173 49q90 0 134 -47.5t44 -148.5v-211q0 -45 12 -96zM200 45
q62 0 104 47t42 123v17q-124 -1 -179 -27.5t-55 -83.5q0 -76 88 -76z" />
    <glyph glyph-name="Abreve" unicode="&#x102;" horiz-adv-x="665" 
d="M333 771q-52 0 -91.5 27t-57.5 79l43 22q15 -31 43.5 -50.5t62.5 -19.5q35 0 63 19.5t43 50.5l43 -22q-18 -52 -57.5 -79t-91.5 -27zM566 -3l-79 213h-314l-80 -213l-79 3l271 701l94 2l272 -703zM198 274h265l-132 355z" />
    <glyph glyph-name="abreve" unicode="&#x103;" horiz-adv-x="494" 
d="M242 587q-103 0 -138 115l42 22q34 -79 96 -79t96 79l42 -22q-35 -115 -138 -115zM432 0l-74 -7q-9 34 -12 93q-52 -100 -171 -100q-65 0 -102.5 34.5t-37.5 95.5q0 88 78.5 128t232.5 42v14q0 71 -29.5 103t-91.5 32q-71 0 -134 -39l-22 58q78 49 173 49q90 0 134 -47.5
t44 -148.5v-211q0 -45 12 -96zM200 45q62 0 104 47t42 123v17q-124 -1 -179 -27.5t-55 -83.5q0 -76 88 -76z" />
    <glyph glyph-name="Aogonek" unicode="&#x104;" horiz-adv-x="665" 
d="M634 -125l23 -33q-42 -39 -93 -39q-33 0 -56 18t-23 54q0 59 86 122h-5l-79 213h-314l-80 -213l-79 3l271 701l94 2l272 -703q-56 -37 -77.5 -63t-21.5 -51q0 -30 32 -30q22 0 50 19zM198 274h265l-132 355z" />
    <glyph glyph-name="aogonek" unicode="&#x105;" horiz-adv-x="494" 
d="M417 -120l23 -33q-42 -39 -93 -39q-33 0 -56 18t-23 54q0 60 88 123q-9 38 -10 83q-52 -100 -171 -100q-65 0 -102.5 34.5t-37.5 95.5q0 88 78.5 128t232.5 42v14q0 71 -29.5 103t-91.5 32q-71 0 -134 -39l-22 58q78 49 173 49q90 0 134 -47.5t44 -148.5v-211
q0 -41 11 -90l3 -1l-1 -1q-1 0 -1 -1v-3l-6 -1q-51 -34 -71 -58.5t-20 -49.5q0 -30 32 -30h3q21 2 47 19zM200 45q62 0 104 47t42 123v17q-124 -1 -179 -27.5t-55 -83.5q0 -76 88 -76z" />
    <glyph glyph-name="Cacute" unicode="&#x106;" horiz-adv-x="682" 
d="M303 815l201 112l28 -62l-210 -89zM395 -13q-144 0 -238 97.5t-94 262.5q0 166 96.5 266t257.5 100q104 0 186 -41l-25 -65q-76 34 -159 34q-124 0 -198 -78t-74 -213q0 -133 71 -211.5t191 -78.5q92 0 178 43l25 -57q-88 -59 -217 -59z" />
    <glyph glyph-name="cacute" unicode="&#x107;" horiz-adv-x="508" 
d="M212 603l178 122l32 -59l-189 -101zM457 34q-67 -47 -165 -47q-110 0 -175 66t-65 182q0 123 68.5 195.5t184.5 72.5q85 0 144 -37l-23 -61q-55 32 -119 32q-82 0 -129 -49.5t-47 -141.5t45.5 -141t130.5 -49q73 0 126 33z" />
    <glyph glyph-name="Cdotaccent" unicode="&#x10a;" horiz-adv-x="682" 
d="M389 824q-23 0 -36 14.5t-13 38.5t13.5 38.5t38.5 14.5q24 0 36.5 -14.5t12.5 -38.5q0 -53 -52 -53zM395 -13q-144 0 -238 97.5t-94 262.5q0 166 96.5 266t257.5 100q104 0 186 -41l-25 -65q-76 34 -159 34q-124 0 -198 -78t-74 -213q0 -133 71 -211.5t191 -78.5
q92 0 178 43l25 -57q-88 -59 -217 -59z" />
    <glyph glyph-name="cdotaccent" unicode="&#x10b;" horiz-adv-x="508" 
d="M293 616q-23 0 -36 14.5t-13 38.5t13.5 38.5t38.5 14.5q24 0 36.5 -14.5t12.5 -38.5q0 -53 -52 -53zM457 34q-67 -47 -165 -47q-110 0 -175 66t-65 182q0 123 68.5 195.5t184.5 72.5q85 0 144 -37l-23 -61q-55 32 -119 32q-82 0 -129 -49.5t-47 -141.5t45.5 -141
t130.5 -49q73 0 126 33z" />
    <glyph glyph-name="Ccaron" unicode="&#x10c;" horiz-adv-x="682" 
d="M552 886l-161 -107l-161 107l21 35l140 -71l139 71zM587 103l25 -57q-88 -59 -217 -59q-144 0 -238 97.5t-94 262.5q0 166 96.5 266t257.5 100q104 0 186 -41l-25 -65q-76 34 -159 34q-124 0 -198 -78t-74 -213q0 -133 71 -211.5t191 -78.5q92 0 178 43z" />
    <glyph glyph-name="ccaron" unicode="&#x10d;" horiz-adv-x="508" 
d="M436 694l-141 -123l-141 123l22 35l119 -81l120 81zM433 89l24 -55q-67 -47 -165 -47q-110 0 -175 66t-65 182q0 123 68.5 195.5t184.5 72.5q85 0 144 -37l-23 -61q-55 32 -119 32q-82 0 -129 -49.5t-47 -141.5t45.5 -141t130.5 -49q73 0 126 33z" />
    <glyph glyph-name="Dcaron" unicode="&#x10e;" horiz-adv-x="688" 
d="M469 886l-161 -107l-161 107l21 35l140 -71l139 71zM242 709q187 0 286 -89.5t99 -261.5q0 -176 -99 -271.5t-287 -95.5q-83 0 -168 9v700q92 9 169 9zM244 60q298 0 298 291q0 289 -300 289q-36 0 -89 -3v-574q53 -3 91 -3z" />
    <glyph glyph-name="dcaron" unicode="&#x10f;" horiz-adv-x="568" 
d="M537 729l61 4l-9 -174h-52v170zM411 456v264l75 5v-725h-75v91q-50 -102 -162 -102q-93 0 -145 66.5t-52 181.5q0 125 60 195.5t159 70.5q72 0 140 -47zM270 57q66 0 103.5 52.5t37.5 149.5v124q-67 55 -139 55q-67 0 -104 -50t-37 -144q0 -89 35.5 -138t103.5 -49z" />
    <glyph glyph-name="Dcroat" unicode="&#x110;" horiz-adv-x="688" 
d="M242 709q187 0 286 -89.5t99 -261.5q0 -176 -99 -271.5t-287 -95.5q-83 0 -168 9v324h-69l4 57h65v319q92 9 169 9zM244 60q298 0 298 291q0 289 -300 289q-36 0 -89 -3v-256h174l-4 -57h-170v-261q53 -3 91 -3z" />
    <glyph glyph-name="dcroat" unicode="&#x111;" horiz-adv-x="568" 
d="M551 627l-4 -54h-61v-573h-75v91q-50 -102 -162 -102q-93 0 -145 66.5t-52 181.5q0 125 60 195.5t159 70.5q72 0 140 -47v117h-152v54h152v93l75 5v-98h65zM270 57q66 0 103.5 52.5t37.5 149.5v124q-67 55 -139 55q-67 0 -104 -50t-37 -144q0 -89 35.5 -138t103.5 -49z
" />
    <glyph glyph-name="Emacron" unicode="&#x112;" horiz-adv-x="444" 
d="M383 880l-1 -59h-298l1 59h298zM153 68h241v-68h-321v700h313v-68h-233v-236h207v-65h-207v-263z" />
    <glyph glyph-name="emacron" unicode="&#x113;" horiz-adv-x="495" 
d="M418 672l-1 -59h-298l1 59h298zM280 55q67 0 133 33l24 -54q-80 -47 -173 -47q-101 0 -156.5 60t-55.5 181q0 128 60.5 201.5t164.5 73.5q69 0 115.5 -36t46.5 -98q0 -75 -59 -105.5t-205 -30.5h-44q2 -91 38 -134.5t111 -43.5zM273 444q-60 0 -96.5 -41.5t-43.5 -121.5
h48q104 0 142.5 17.5t38.5 67.5q0 34 -24 56t-65 22z" />
    <glyph glyph-name="Edotaccent" unicode="&#x116;" horiz-adv-x="444" 
d="M231 824q-23 0 -36 14.5t-13 38.5t13.5 38.5t38.5 14.5q24 0 36.5 -14.5t12.5 -38.5q0 -53 -52 -53zM153 68h241v-68h-321v700h313v-68h-233v-236h207v-65h-207v-263z" />
    <glyph glyph-name="edotaccent" unicode="&#x117;" horiz-adv-x="495" 
d="M267 616q-23 0 -36 14.5t-13 38.5t13.5 38.5t38.5 14.5q24 0 36.5 -14.5t12.5 -38.5q0 -53 -52 -53zM280 55q67 0 133 33l24 -54q-80 -47 -173 -47q-101 0 -156.5 60t-55.5 181q0 128 60.5 201.5t164.5 73.5q69 0 115.5 -36t46.5 -98q0 -75 -59 -105.5t-205 -30.5h-44
q2 -91 38 -134.5t111 -43.5zM273 444q-60 0 -96.5 -41.5t-43.5 -121.5h48q104 0 142.5 17.5t38.5 67.5q0 34 -24 56t-65 22z" />
    <glyph glyph-name="Eogonek" unicode="&#x118;" horiz-adv-x="444" 
d="M377 -125l23 -33q-42 -39 -93 -39q-33 0 -56 18t-23 54q0 61 90 125h-245v700h313v-68h-233v-236h207v-65h-207v-263h241v-68q-56 -37 -77.5 -63t-21.5 -51q0 -30 32 -30q21 0 50 19z" />
    <glyph glyph-name="eogonek" unicode="&#x119;" horiz-adv-x="495" 
d="M420 -91l23 -33q-42 -39 -93 -39q-33 0 -56 18t-23 54q0 41 38 81q-23 -3 -45 -3q-101 0 -156.5 60t-55.5 181q0 128 60.5 201.5t164.5 73.5q69 0 115.5 -36t46.5 -98q0 -75 -59 -105.5t-205 -30.5h-44q2 -91 38 -134.5t111 -43.5q67 0 133 33l23 -54h1l-1 -1
q-55 -37 -76.5 -62.5t-21.5 -50.5q0 -30 32 -30q22 0 50 19zM273 444q-60 0 -96.5 -41.5t-43.5 -121.5h48q104 0 142.5 17.5t38.5 67.5q0 34 -24 56t-65 22z" />
    <glyph glyph-name="Ecaron" unicode="&#x11a;" horiz-adv-x="444" 
d="M394 886l-161 -107l-161 107l21 35l140 -71l139 71zM153 68h241v-68h-321v700h313v-68h-233v-236h207v-65h-207v-263z" />
    <glyph glyph-name="ecaron" unicode="&#x11b;" horiz-adv-x="495" 
d="M409 694l-141 -123l-141 123l22 35l119 -81l120 81zM280 55q67 0 133 33l24 -54q-80 -47 -173 -47q-101 0 -156.5 60t-55.5 181q0 128 60.5 201.5t164.5 73.5q69 0 115.5 -36t46.5 -98q0 -75 -59 -105.5t-205 -30.5h-44q2 -91 38 -134.5t111 -43.5zM273 444
q-60 0 -96.5 -41.5t-43.5 -121.5h48q104 0 142.5 17.5t38.5 67.5q0 34 -24 56t-65 22z" />
    <glyph glyph-name="Gbreve" unicode="&#x11e;" horiz-adv-x="720" 
d="M414 771q-52 0 -91.5 27t-57.5 79l43 22q15 -31 43.5 -50.5t62.5 -19.5q35 0 63 19.5t43 50.5l43 -22q-18 -52 -57.5 -79t-91.5 -27zM579 338h78v-308q-120 -43 -240 -43q-166 0 -260 92t-94 254q0 175 100 277.5t268 102.5q120 0 205 -48l-24 -63q-76 38 -177 38
q-132 0 -210 -79.5t-78 -223.5q0 -135 71.5 -207t203.5 -72q77 0 157 24v256z" />
    <glyph glyph-name="gbreve" unicode="&#x11f;" horiz-adv-x="528" 
d="M264 587q-103 0 -138 115l42 22q34 -79 96 -79t96 79l42 -22q-35 -115 -138 -115zM171 127q0 -13 8.5 -21.5t28 -14t35 -8t47.5 -5.5t49.5 -5.5t47 -9t46.5 -15.5t35 -23t26.5 -35.5t8.5 -49.5q0 -78 -69.5 -120t-184.5 -42q-102 0 -157 33.5t-55 95.5q0 78 101 141
q-34 21 -34 59q0 45 47 74q-81 48 -81 149q0 78 51.5 126.5t136.5 48.5q70 0 119 -33l97 69l39 -49l-97 -58q31 -43 31 -104q0 -78 -51.5 -126.5t-136.5 -48.5q-36 0 -66 9q-22 -16 -22 -37zM258 448q-51 0 -81.5 -31.5t-30.5 -86.5t31 -87.5t83 -32.5q51 0 81.5 31.5
t30.5 87.5t-31 87.5t-83 31.5zM256 -162q82 0 127.5 24.5t45.5 70.5q0 16 -5.5 28t-19 20.5t-25 14t-34 10t-36.5 6.5t-41 5q-50 6 -73 11q-89 -49 -89 -109q0 -81 150 -81z" />
    <glyph glyph-name="Gdotaccent" unicode="&#x120;" horiz-adv-x="720" 
d="M412 824q-23 0 -36 14.5t-13 38.5t13.5 38.5t38.5 14.5q24 0 36.5 -14.5t12.5 -38.5q0 -53 -52 -53zM579 338h78v-308q-120 -43 -240 -43q-166 0 -260 92t-94 254q0 175 100 277.5t268 102.5q120 0 205 -48l-24 -63q-76 38 -177 38q-132 0 -210 -79.5t-78 -223.5
q0 -135 71.5 -207t203.5 -72q77 0 157 24v256z" />
    <glyph glyph-name="gdotaccent" unicode="&#x121;" horiz-adv-x="528" 
d="M262 616q-23 0 -36 14.5t-13 38.5t13.5 38.5t38.5 14.5q24 0 36.5 -14.5t12.5 -38.5q0 -53 -52 -53zM171 127q0 -13 8.5 -21.5t28 -14t35 -8t47.5 -5.5t49.5 -5.5t47 -9t46.5 -15.5t35 -23t26.5 -35.5t8.5 -49.5q0 -78 -69.5 -120t-184.5 -42q-102 0 -157 33.5t-55 95.5
q0 78 101 141q-34 21 -34 59q0 45 47 74q-81 48 -81 149q0 78 51.5 126.5t136.5 48.5q70 0 119 -33l97 69l39 -49l-97 -58q31 -43 31 -104q0 -78 -51.5 -126.5t-136.5 -48.5q-36 0 -66 9q-22 -16 -22 -37zM258 448q-51 0 -81.5 -31.5t-30.5 -86.5t31 -87.5t83 -32.5
q51 0 81.5 31.5t30.5 87.5t-31 87.5t-83 31.5zM256 -162q82 0 127.5 24.5t45.5 70.5q0 16 -5.5 28t-19 20.5t-25 14t-34 10t-36.5 6.5t-41 5q-50 6 -73 11q-89 -49 -89 -109q0 -81 150 -81z" />
    <glyph glyph-name="Gcommaaccent" unicode="&#x122;" horiz-adv-x="720" 
d="M579 338h78v-308q-120 -43 -240 -43q-166 0 -260 92t-94 254q0 175 100 277.5t268 102.5q120 0 205 -48l-24 -63q-76 38 -177 38q-132 0 -210 -79.5t-78 -223.5q0 -135 71.5 -207t203.5 -72q77 0 157 24v256zM399 -65q23 0 37 -17t14 -49q0 -35 -20.5 -65t-59.5 -43
l-21 21q42 22 44 64q-18 -1 -29.5 11t-11.5 33t13 33t34 12z" />
    <glyph glyph-name="gcommaaccent" unicode="&#x123;" horiz-adv-x="528" 
d="M270 579q-23 0 -37 17t-14 49q0 35 20.5 65t59.5 43l21 -21q-42 -22 -44 -64q18 1 29.5 -11t11.5 -33t-13 -33t-34 -12zM171 127q0 -13 8.5 -21.5t28 -14t35 -8t47.5 -5.5t49.5 -5.5t47 -9t46.5 -15.5t35 -23t26.5 -35.5t8.5 -49.5q0 -78 -69.5 -120t-184.5 -42
q-102 0 -157 33.5t-55 95.5q0 78 101 141q-34 21 -34 59q0 45 47 74q-81 48 -81 149q0 78 51.5 126.5t136.5 48.5q70 0 119 -33l97 69l39 -49l-97 -58q31 -43 31 -104q0 -78 -51.5 -126.5t-136.5 -48.5q-36 0 -66 9q-22 -16 -22 -37zM258 448q-51 0 -81.5 -31.5t-30.5 -86.5
t31 -87.5t83 -32.5q51 0 81.5 31.5t30.5 87.5t-31 87.5t-83 31.5zM256 -162q82 0 127.5 24.5t45.5 70.5q0 16 -5.5 28t-19 20.5t-25 14t-34 10t-36.5 6.5t-41 5q-50 6 -73 11q-89 -49 -89 -109q0 -81 150 -81z" />
    <glyph glyph-name="Hbar" unicode="&#x126;" horiz-adv-x="620" 
d="M608 591l-4 -55h-30v-536h-80v310h-367v-310h-80v536h-35l4 55h31v109h80v-109h367v109h80v-109h34zM494 379v157h-367v-157h367z" />
    <glyph glyph-name="hbar" unicode="&#x127;" horiz-adv-x="572" 
d="M338 503q153 0 153 -184v-319h-76v302q0 70 -24.5 102t-77.5 32q-153 0 -153 -263v-173h-75v573h-76v54h76v93l75 5v-98h141l-4 -54h-137v-183q56 113 178 113z" />
    <glyph glyph-name="Imacron" unicode="&#x12a;" horiz-adv-x="243" 
d="M5 880h234l-1 -59h-234zM162 0h-80v700h80v-700z" />
    <glyph glyph-name="imacron" unicode="&#x12b;" horiz-adv-x="255" 
d="M11 672h234l-1 -59h-234zM89 492l77 5v-497h-77v492z" />
    <glyph glyph-name="Iogonek" unicode="&#x12e;" horiz-adv-x="243" 
d="M145 -125l23 -33q-42 -39 -93 -39q-33 0 -56 18t-23 54q0 61 90 125h-4v700h80v-700q-56 -37 -77.5 -63t-21.5 -51q0 -30 32 -30q21 0 50 19z" />
    <glyph glyph-name="iogonek" unicode="&#x12f;" horiz-adv-x="255" 
d="M126 616q-23 0 -36 14.5t-13 38.5t13.5 38.5t38.5 14.5q24 0 36.5 -14.5t12.5 -38.5q0 -53 -52 -53zM99 -144q21 0 50 19l23 -33q-42 -39 -93 -39q-33 0 -56 18t-23 54q0 61 90 125h-1v492l77 5v-497q-56 -37 -77.5 -63t-21.5 -51q0 -30 32 -30z" />
    <glyph glyph-name="Idotaccent" unicode="&#x130;" horiz-adv-x="243" 
d="M120 824q-23 0 -36 14.5t-13 38.5t13.5 38.5t38.5 14.5q24 0 36.5 -14.5t12.5 -38.5q0 -53 -52 -53zM162 0h-80v700h80v-700z" />
    <glyph glyph-name="dotlessi" unicode="&#x131;" horiz-adv-x="255" 
d="M89 492l77 5v-497h-77v492z" />
    <glyph glyph-name="Kcommaaccent" unicode="&#x136;" horiz-adv-x="602" 
d="M307 370l285 -370l-96 -6l-238 310l-105 -141v-163h-80v700h80v-420l312 426l88 -6zM295 -65q23 0 37 -17t14 -49q0 -35 -20.5 -65t-59.5 -43l-21 21q42 22 44 64q-18 -1 -29.5 11t-11.5 33t13 33t34 12z" />
    <glyph glyph-name="kcommaaccent" unicode="&#x137;" horiz-adv-x="527" 
d="M285 293l209 -294l-91 -4l-168 242l-89 -99v-139h-77v721l77 5v-500q70 86 141 170l88 99l85 -2zM263 -65q23 0 37 -17t14 -49q0 -35 -20.5 -65t-59.5 -43l-21 21q42 22 44 64q-18 -1 -29.5 11t-11.5 33t13 33t34 12z" />
    <glyph glyph-name="Lacute" unicode="&#x139;" horiz-adv-x="448" 
d="M242 927l28 -62l-210 -89l-19 39zM153 68h250v-68h-330v700h80v-632z" />
    <glyph glyph-name="lacute" unicode="&#x13a;" horiz-adv-x="232" 
d="M85 813l178 122l32 -59l-189 -101zM74 720l76 5v-725h-76v720z" />
    <glyph glyph-name="Lcommaaccent" unicode="&#x13b;" horiz-adv-x="448" 
d="M153 68h250v-68h-330v700h80v-632zM229 -65q23 0 37 -17t14 -49q0 -35 -20.5 -65t-59.5 -43l-21 21q42 22 44 64q-18 -1 -29.5 11t-11.5 33t13 33t34 12z" />
    <glyph glyph-name="lcommaaccent" unicode="&#x13c;" horiz-adv-x="232" 
d="M150 725v-725h-76v720zM109 -63q23 0 37 -17t14 -49q0 -35 -20.5 -65t-59.5 -43l-21 21q42 22 44 64q-18 -1 -29.5 11t-11.5 33t13 33t34 12z" />
    <glyph glyph-name="Lcaron" unicode="&#x13d;" horiz-adv-x="448" 
d="M301 726l-9 -174h-52v170zM153 68h250v-68h-330v700h80v-632z" />
    <glyph glyph-name="lcaron" unicode="&#x13e;" horiz-adv-x="232" 
d="M200 559v170l61 4l-9 -174h-52zM74 720l76 5v-725h-76v720z" />
    <glyph glyph-name="Lslash" unicode="&#x141;" horiz-adv-x="448" 
d="M153 68h250v-68h-330v297l-33 -14l-19 48l52 22v347h80v-313l151 64l18 -49l-169 -71v-263z" />
    <glyph glyph-name="lslash" unicode="&#x142;" horiz-adv-x="232" 
d="M260 465l-110 -57v-408h-76v368l-67 -34l-25 48l92 48v290l76 5v-255l85 44z" />
    <glyph glyph-name="Nacute" unicode="&#x143;" horiz-adv-x="692" 
d="M494 865l-210 -89l-19 39l201 112zM546 700h73v-700h-100l-372 606v-606h-74v700l107 5l366 -597v592z" />
    <glyph glyph-name="nacute" unicode="&#x144;" horiz-adv-x="573" 
d="M423 666l-189 -101l-21 38l178 122zM339 503q153 0 153 -184v-319h-76v302q0 70 -24.5 102t-77.5 32q-153 0 -153 -263v-173h-75v492l75 7v-109q57 113 178 113z" />
    <glyph glyph-name="Ncommaaccent" unicode="&#x145;" horiz-adv-x="692" 
d="M546 700h73v-700h-100l-372 606v-606h-74v700l107 5l366 -597v592zM344 -65q23 0 37 -17t14 -49q0 -35 -20.5 -65t-59.5 -43l-21 21q42 22 44 64q-18 -1 -29.5 11t-11.5 33t13 33t34 12z" />
    <glyph glyph-name="ncommaaccent" unicode="&#x146;" horiz-adv-x="573" 
d="M339 503q153 0 153 -184v-319h-76v302q0 70 -24.5 102t-77.5 32q-153 0 -153 -263v-173h-75v492l75 7v-109q57 113 178 113zM284 -65q23 0 37 -17t14 -49q0 -35 -20.5 -65t-59.5 -43l-21 21q42 22 44 64q-18 -1 -29.5 11t-11.5 33t13 33t34 12z" />
    <glyph glyph-name="Ncaron" unicode="&#x147;" horiz-adv-x="692" 
d="M514 886l-161 -107l-161 107l21 35l140 -71l139 71zM546 700h73v-700h-100l-372 606v-606h-74v700l107 5l366 -597v592z" />
    <glyph glyph-name="ncaron" unicode="&#x148;" horiz-adv-x="573" 
d="M437 694l-141 -123l-141 123l22 35l119 -81l120 81zM339 503q153 0 153 -184v-319h-76v302q0 70 -24.5 102t-77.5 32q-153 0 -153 -263v-173h-75v492l75 7v-109q57 113 178 113z" />
    <glyph glyph-name="Eng" unicode="&#x14a;" horiz-adv-x="692" 
d="M546 700h73v-700q0 -204 -218 -213l-7 65q78 5 114.5 38t36.5 102v8h-26l-372 606v-606h-74v700l107 5l366 -597v592z" />
    <glyph glyph-name="eng" unicode="&#x14b;" horiz-adv-x="573" 
d="M492 0q0 -222 -164 -222q-49 0 -87 18l21 59q27 -12 68 -12q44 0 65 35.5t21 121.5v302q0 70 -24.5 102t-77.5 32q-153 0 -153 -263v-173h-75v492l75 7v-109q57 113 178 113q153 0 153 -184v-319z" />
    <glyph glyph-name="Omacron" unicode="&#x14c;" horiz-adv-x="818" 
d="M260 880h298l-1 -59h-298zM409 -15q-158 0 -252.5 99t-94.5 266q0 166 94.5 265.5t252.5 99.5t252.5 -99t94.5 -266q0 -166 -94.5 -265.5t-252.5 -99.5zM409 57q121 0 190.5 78t69.5 215q0 138 -69.5 216.5t-190.5 78.5t-190.5 -78.5t-69.5 -216.5q0 -137 69.5 -215
t190.5 -78z" />
    <glyph glyph-name="omacron" unicode="&#x14d;" horiz-adv-x="575" 
d="M139 672h298l-1 -59h-298zM286 -13q-110 0 -172 67.5t-62 187.5q0 122 63 191.5t174 69.5q110 0 172 -68t62 -188q0 -122 -62.5 -191t-174.5 -69zM289 47q74 0 114 51t40 145q0 95 -41 147.5t-115 52.5q-73 0 -113.5 -51.5t-40.5 -146.5t41 -146.5t115 -51.5z" />
    <glyph glyph-name="Ohungarumlaut" unicode="&#x150;" horiz-adv-x="818" 
d="M324 769l37 154l60 -14l-49 -150zM439 760l58 154l60 -14l-70 -150zM409 -15q-158 0 -252.5 99t-94.5 266q0 166 94.5 265.5t252.5 99.5t252.5 -99t94.5 -266q0 -166 -94.5 -265.5t-252.5 -99.5zM409 57q121 0 190.5 78t69.5 215q0 138 -69.5 216.5t-190.5 78.5
t-190.5 -78.5t-69.5 -216.5q0 -137 69.5 -215t190.5 -78z" />
    <glyph glyph-name="ohungarumlaut" unicode="&#x151;" horiz-adv-x="575" 
d="M204 562l50 173l67 -13l-70 -171zM319 553l70 173l67 -14l-91 -170zM286 -13q-110 0 -172 67.5t-62 187.5q0 122 63 191.5t174 69.5q110 0 172 -68t62 -188q0 -122 -62.5 -191t-174.5 -69zM289 47q74 0 114 51t40 145q0 95 -41 147.5t-115 52.5q-73 0 -113.5 -51.5
t-40.5 -146.5t41 -146.5t115 -51.5z" />
    <glyph glyph-name="OE" unicode="&#x152;" horiz-adv-x="1004" 
d="M711 68h242v-68h-316v124q-79 -139 -249 -139q-143 0 -233.5 100t-90.5 265t91 265t234 100q169 0 248 -139v124h308v-68h-234v-236h208v-65h-208v-263zM395 57q110 0 172 77t62 216t-62 217t-172 78q-111 0 -177.5 -79t-66.5 -216q0 -136 66.5 -214.5t177.5 -78.5z" />
    <glyph glyph-name="oe" unicode="&#x153;" horiz-adv-x="892" 
d="M676 55q67 0 134 34l22 -55q-78 -47 -170 -47q-133 0 -181 104q-59 -104 -195 -104q-110 0 -172 67.5t-62 187.5q0 122 63 191.5t174 69.5q143 0 199 -115q56 115 187 115q69 0 115 -36.5t46 -98.5q0 -73 -57.5 -103.5t-195.5 -32.5l-55 -1q3 -176 148 -176zM670 444
q-59 0 -95.5 -41.5t-43.5 -121.5h47q104 0 142.5 17.5t38.5 67.5q0 34 -24 56t-65 22zM289 47q74 0 114 51t40 145q0 95 -41 147.5t-115 52.5q-73 0 -113.5 -51.5t-40.5 -146.5t41 -146.5t115 -51.5z" />
    <glyph glyph-name="Racute" unicode="&#x154;" horiz-adv-x="552" 
d="M400 865l-210 -89l-19 39l201 112zM530 0l-89 -5l-160 267q-38 -8 -76 -8h-52v-254h-80v700q83 9 146 9q121 0 187.5 -54t66.5 -161q0 -143 -119 -206zM153 320h57q85 0 132 44t47 126q0 152 -170 152q-31 0 -66 -3v-319z" />
    <glyph glyph-name="racute" unicode="&#x155;" horiz-adv-x="345" 
d="M340 666l-189 -101l-21 38l178 122zM161 351q44 150 141 150q16 0 25 -3l-6 -82q-7 1 -20 1q-69 0 -104.5 -72t-35.5 -210v-135h-75v492l75 8v-149z" />
    <glyph glyph-name="Rcommaaccent" unicode="&#x156;" horiz-adv-x="552" 
d="M354 288l176 -288l-89 -5l-160 267q-38 -8 -76 -8h-52v-254h-80v700q83 9 146 9q121 0 187.5 -54t66.5 -161q0 -143 -119 -206zM153 320h57q85 0 132 44t47 126q0 152 -170 152q-31 0 -66 -3v-319zM264 -65q23 0 37 -17t14 -49q0 -35 -20.5 -65t-59.5 -43l-21 21
q42 22 44 64q-18 -1 -29.5 11t-11.5 33t13 33t34 12z" />
    <glyph glyph-name="rcommaaccent" unicode="&#x157;" horiz-adv-x="345" 
d="M302 501q16 0 25 -3l-6 -82q-7 1 -20 1q-69 0 -104.5 -72t-35.5 -210v-135h-75v492l75 8v-149q44 150 141 150zM121 -65q23 0 37 -17t14 -49q0 -35 -20.5 -65t-59.5 -43l-21 21q42 22 44 64q-18 -1 -29.5 11t-11.5 33t13 33t34 12z" />
    <glyph glyph-name="Rcaron" unicode="&#x158;" horiz-adv-x="552" 
d="M420 886l-161 -107l-161 107l21 35l140 -71l139 71zM530 0l-89 -5l-160 267q-38 -8 -76 -8h-52v-254h-80v700q83 9 146 9q121 0 187.5 -54t66.5 -161q0 -143 -119 -206zM153 320h57q85 0 132 44t47 126q0 152 -170 152q-31 0 -66 -3v-319z" />
    <glyph glyph-name="rcaron" unicode="&#x159;" horiz-adv-x="345" 
d="M354 694l-141 -123l-141 123l22 35l119 -81l120 81zM161 351q44 150 141 150q16 0 25 -3l-6 -82q-7 1 -20 1q-69 0 -104.5 -72t-35.5 -210v-135h-75v492l75 8v-149z" />
    <glyph glyph-name="Sacute" unicode="&#x15a;" horiz-adv-x="465" 
d="M175 815l201 112l28 -62l-210 -89zM224 -12q-95 0 -173 54l24 61q83 -45 148 -45q60 0 92.5 30.5t32.5 81.5q0 28 -9.5 51t-31.5 45t-37.5 34t-48.5 35q-35 24 -54 39t-44 40.5t-36.5 56t-11.5 67.5q-1 79 51 127t144 48q69 0 133 -31l-23 -62q-54 26 -109 26t-86.5 -27
t-31.5 -73q0 -26 9 -48t30 -42t37.5 -32.5t47.5 -33.5q37 -25 56.5 -40.5t46.5 -42.5t39 -59.5t12 -71.5q0 -83 -57.5 -135.5t-149.5 -52.5z" />
    <glyph glyph-name="sacute" unicode="&#x15b;" horiz-adv-x="424" 
d="M150 603l178 122l32 -59l-189 -101zM357 481l-23 -58q-43 21 -96 21q-48 0 -74.5 -20t-26.5 -55q0 -19 7.5 -33.5t25.5 -26t31.5 -18t40.5 -17.5q34 -13 51 -21.5t41 -25.5t35 -41.5t11 -56.5q0 -67 -48 -105t-127 -39q-79 0 -161 44l25 57q68 -37 132 -37
q48 0 75.5 19.5t27.5 53.5q0 18 -7 31.5t-24 24.5t-30 17.5t-39 17.5q-33 14 -50.5 23t-41 26.5t-34.5 42t-11 57.5q0 67 46.5 105t124.5 38q63 0 119 -24z" />
    <glyph glyph-name="Scedilla" unicode="&#x15e;" horiz-adv-x="465" 
d="M431 176q0 -76 -50 -127.5t-132 -59.5l-12 -49q46 1 70 -19t24 -55q0 -38 -27.5 -59.5t-74.5 -21.5q-43 0 -78 20l17 36q26 -14 56 -14q49 0 49 37q0 43 -67 43q-6 0 -9 -1h-9l-9 20l22 63q-81 6 -150 53l24 61q83 -45 148 -45q60 0 92.5 30.5t32.5 81.5q0 28 -9.5 51
t-31.5 45t-37.5 34t-48.5 35q-35 24 -54 39t-44 40.5t-36.5 56t-11.5 67.5q-1 79 51 127t144 48q69 0 133 -31l-23 -62q-54 26 -109 26t-86.5 -27t-31.5 -73q0 -65 75 -121q15 -12 51 -36t57 -41t46 -43t37 -58t12 -71z" />
    <glyph glyph-name="scedilla" unicode="&#x15f;" horiz-adv-x="424" 
d="M380 129q0 -62 -41 -99.5t-110 -43.5l-12 -46q46 1 70 -19t24 -55q0 -38 -27.5 -59.5t-74.5 -21.5q-43 0 -78 20l17 36q26 -14 56 -14q49 0 49 37q0 43 -67 43q-6 0 -9 -1h-9l-9 20l21 60q-68 6 -136 43l25 57q68 -37 132 -37q48 0 75.5 19.5t27.5 53.5q0 18 -7 31.5
t-24 24.5t-30 17.5t-39 17.5q-33 14 -50.5 23t-41 26.5t-34.5 42t-11 57.5q0 67 46.5 105t124.5 38q63 0 119 -24l-23 -58q-43 21 -96 21q-48 0 -74.5 -20t-26.5 -55q0 -48 66 -78q12 -6 44.5 -18.5t50 -22t39.5 -26t32.5 -40.5t10.5 -55z" />
    <glyph glyph-name="Scaron" unicode="&#x160;" horiz-adv-x="465" 
d="M424 886l-161 -107l-161 107l21 35l140 -71l139 71zM153 546q0 -26 9 -48t30 -42t37.5 -32.5t47.5 -33.5q37 -25 56.5 -40.5t46.5 -42.5t39 -59.5t12 -71.5q0 -83 -57.5 -135.5t-149.5 -52.5q-95 0 -173 54l24 61q83 -45 148 -45q60 0 92.5 30.5t32.5 81.5q0 28 -9.5 51
t-31.5 45t-37.5 34t-48.5 35q-35 24 -54 39t-44 40.5t-36.5 56t-11.5 67.5q-1 79 51 127t144 48q69 0 133 -31l-23 -62q-54 26 -109 26t-86.5 -27t-31.5 -73z" />
    <glyph glyph-name="scaron" unicode="&#x161;" horiz-adv-x="424" 
d="M374 694l-141 -123l-141 123l22 35l119 -81l120 81zM137 369q0 -19 7.5 -33.5t25.5 -26t31.5 -18t40.5 -17.5q34 -13 51 -21.5t41 -25.5t35 -41.5t11 -56.5q0 -67 -48 -105t-127 -39q-79 0 -161 44l25 57q68 -37 132 -37q48 0 75.5 19.5t27.5 53.5q0 18 -7 31.5t-24 24.5
t-30 17.5t-39 17.5q-33 14 -50.5 23t-41 26.5t-34.5 42t-11 57.5q0 67 46.5 105t124.5 38q63 0 119 -24l-23 -58q-43 21 -96 21q-48 0 -74.5 -20t-26.5 -55z" />
    <glyph glyph-name="uni0162" unicode="&#x162;" horiz-adv-x="589" 
d="M334 0h-20l-15 -60q46 1 70 -19t24 -55q0 -38 -27.5 -59.5t-74.5 -21.5q-43 0 -78 20l17 36q26 -14 56 -14q49 0 49 37q0 43 -67 43q-6 0 -9 -1h-9l-9 20l26 74h-13v631h-225v69h529v-69h-224v-631z" />
    <glyph glyph-name="uni0163" unicode="&#x163;" horiz-adv-x="403" 
d="M239 -60q46 1 70 -19t24 -55q0 -38 -27.5 -59.5t-74.5 -21.5q-43 0 -78 20l17 36q26 -14 56 -14q49 0 49 37q0 43 -67 43q-6 0 -9 -1h-9l-9 20l23 65q-94 16 -94 132v306h-61v63h61v119l77 6v-125h166l-4 -63h-162v-290q0 -43 17.5 -62.5t54.5 -19.5q42 0 87 28l18 -57
q-52 -34 -113 -39z" />
    <glyph glyph-name="Tcaron" unicode="&#x164;" horiz-adv-x="589" 
d="M456 886l-161 -107l-161 107l21 35l140 -71l139 71zM558 700v-69h-224v-631h-80v631h-225v69h529z" />
    <glyph glyph-name="tcaron" unicode="&#x165;" horiz-adv-x="403" 
d="M347 715l-9 -174h-52v170zM346 85l18 -57q-59 -40 -129 -40q-60 0 -92.5 34t-32.5 101v306h-61v63h61v119l77 6v-125h166l-4 -63h-162v-290q0 -43 17.5 -62.5t54.5 -19.5q42 0 87 28z" />
    <glyph glyph-name="Tbar" unicode="&#x166;" horiz-adv-x="589" 
d="M558 631h-224v-250h122l-4 -57h-118v-324h-80v324h-121l4 57h117v250h-225v69h529v-69z" />
    <glyph glyph-name="tbar" unicode="&#x167;" horiz-adv-x="403" 
d="M346 85l18 -57q-59 -40 -129 -40q-60 0 -92.5 34t-32.5 101v114h-64v54h64v138h-61v63h61v119l77 6v-125h166l-4 -63h-162v-138h151l-4 -54h-147v-98q0 -43 17.5 -62.5t54.5 -19.5q42 0 87 28z" />
    <glyph glyph-name="Umacron" unicode="&#x16a;" horiz-adv-x="653" 
d="M183 880h298l-1 -59h-298zM510 700h80v-458q0 -122 -73 -188t-192 -66t-190.5 65.5t-71.5 188.5v458h80v-444q0 -95 47.5 -144.5t135.5 -49.5t136 50.5t48 143.5v444z" />
    <glyph glyph-name="umacron" unicode="&#x16b;" horiz-adv-x="565" 
d="M430 672l-1 -59h-298l1 59h298zM404 490l75 6v-496l-75 -4v106q-51 -112 -168 -112q-76 0 -115.5 47t-39.5 136v317l75 6v-303q0 -136 100 -136q70 0 109 64t39 171v198z" />
    <glyph glyph-name="Uring" unicode="&#x16e;" horiz-adv-x="653" 
d="M331 763q-47 0 -75 27t-28 71t28.5 70.5t74.5 26.5t74 -26.5t28 -70.5t-28 -71t-74 -27zM331 806q24 0 38 14.5t14 40.5q0 25 -14 39.5t-38 14.5q-25 0 -39 -14.5t-14 -39.5q0 -26 14 -40.5t39 -14.5zM510 700h80v-458q0 -122 -73 -188t-192 -66t-190.5 65.5t-71.5 188.5
v458h80v-444q0 -95 47.5 -144.5t135.5 -49.5t136 50.5t48 143.5v444z" />
    <glyph glyph-name="uring" unicode="&#x16f;" horiz-adv-x="565" 
d="M281 555q-47 0 -75 27t-28 71t28.5 70.5t74.5 26.5t74 -26.5t28 -70.5t-28 -71t-74 -27zM281 707q-25 0 -39 -14.5t-14 -39.5q0 -26 14 -40.5t39 -14.5q24 0 38 14.5t14 40.5q0 25 -14 39.5t-38 14.5zM404 490l75 6v-496l-75 -4v106q-51 -112 -168 -112q-76 0 -115.5 47
t-39.5 136v317l75 6v-303q0 -136 100 -136q70 0 109 64t39 171v198z" />
    <glyph glyph-name="Uhungarumlaut" unicode="&#x170;" horiz-adv-x="653" 
d="M246 769l37 154l60 -14l-49 -150zM361 760l58 154l60 -14l-70 -150zM510 700h80v-458q0 -122 -73 -188t-192 -66t-190.5 65.5t-71.5 188.5v458h80v-444q0 -95 47.5 -144.5t135.5 -49.5t136 50.5t48 143.5v444z" />
    <glyph glyph-name="uhungarumlaut" unicode="&#x171;" horiz-adv-x="565" 
d="M314 722l-70 -171l-47 11l50 173zM358 542l-46 11l70 173l67 -14zM404 490l75 6v-496l-75 -4v106q-51 -112 -168 -112q-76 0 -115.5 47t-39.5 136v317l75 6v-303q0 -136 100 -136q70 0 109 64t39 171v198z" />
    <glyph glyph-name="Uogonek" unicode="&#x172;" horiz-adv-x="653" 
d="M510 700h80v-458q0 -153 -115 -218q-62 -47 -62 -88q0 -30 32 -30q21 0 50 19l23 -33q-42 -39 -93 -39q-33 0 -56 18t-23 54q0 33 25 66q-23 -3 -46 -3q-119 0 -190.5 65.5t-71.5 188.5v458h80v-444q0 -95 47.5 -144.5t135.5 -49.5t136 50.5t48 143.5v444z" />
    <glyph glyph-name="uogonek" unicode="&#x173;" horiz-adv-x="565" 
d="M462 -125l23 -33q-42 -39 -93 -39q-33 0 -56 18t-23 54q0 60 91 126v101q-51 -112 -168 -112q-76 0 -115.5 47t-39.5 136v317l75 6v-303q0 -136 100 -136q70 0 109 64t39 171v198l75 6v-496q-56 -37 -77.5 -63t-21.5 -51q0 -30 32 -30q22 0 50 19z" />
    <glyph glyph-name="Wcircumflex" unicode="&#x174;" horiz-adv-x="1004" 
d="M482 850l-139 -71l-21 35l160 107l161 -107l-21 -35zM921 704l82 -4l-276 -706h-70l-147 389l-168 -389h-64l-277 706l87 4l230 -603l157 374l-85 225h87l218 -589z" />
    <glyph glyph-name="wcircumflex" unicode="&#x175;" horiz-adv-x="787" 
d="M393 652l-119 -81l-21 35l140 123l141 -123l-21 -35zM690 495l76 -3l-171 -492h-102l-96 273l-108 -273h-100l-168 492l78 3l148 -432l120 298l-46 131l78 3l147 -429z" />
    <glyph glyph-name="Ycircumflex" unicode="&#x176;" horiz-adv-x="627" 
d="M313 850l-139 -71l-21 35l160 107l161 -107l-21 -35zM617 700l-262 -396v-304h-80v301l-265 399l92 4l215 -328l217 328z" />
    <glyph glyph-name="ycircumflex" unicode="&#x177;" horiz-adv-x="501" 
d="M250 652l-119 -81l-21 35l140 123l141 -123l-21 -35zM480 492l-177 -492l-17 -39q-36 -92 -86.5 -131t-135.5 -44l-6 71q60 4 94.5 30.5t62.5 92.5l9 20h-26l-177 492l85 3l147 -430l146 430z" />
    <glyph glyph-name="Ydieresis" unicode="&#x178;" horiz-adv-x="627" 
d="M215 795q-22 0 -34.5 13.5t-12.5 36.5q0 51 50 51q22 0 34.5 -13.5t12.5 -37.5q0 -50 -50 -50zM410 795q-22 0 -34.5 13.5t-12.5 36.5q0 51 50 51q22 0 34.5 -13.5t12.5 -37.5q0 -50 -50 -50zM617 700l-262 -396v-304h-80v301l-265 399l92 4l215 -328l217 328z" />
    <glyph glyph-name="Zacute" unicode="&#x179;" horiz-adv-x="546" 
d="M402 874l-189 -101l-21 38l178 122zM129 68h385v-68h-475l-6 55l373 577h-348v68h443l5 -55z" />
    <glyph glyph-name="zacute" unicode="&#x17a;" horiz-adv-x="442" 
d="M358 666l-189 -101l-21 38l178 122zM131 63h277v-63h-369l-6 51l270 378h-253v63h344l5 -55z" />
    <glyph glyph-name="Zdotaccent" unicode="&#x17b;" horiz-adv-x="546" 
d="M274 824q-23 0 -36 14.5t-13 38.5t13.5 38.5t38.5 14.5q24 0 36.5 -14.5t12.5 -38.5q0 -53 -52 -53zM129 68h385v-68h-475l-6 55l373 577h-348v68h443l5 -55z" />
    <glyph glyph-name="zdotaccent" unicode="&#x17c;" horiz-adv-x="442" 
d="M229 616q-23 0 -36 14.5t-13 38.5t13.5 38.5t38.5 14.5q24 0 36.5 -14.5t12.5 -38.5q0 -53 -52 -53zM131 63h277v-63h-369l-6 51l270 378h-253v63h344l5 -55z" />
    <glyph glyph-name="Zcaron" unicode="&#x17d;" horiz-adv-x="546" 
d="M437 886l-161 -107l-161 107l21 35l140 -71l139 71zM129 68h385v-68h-475l-6 55l373 577h-348v68h443l5 -55z" />
    <glyph glyph-name="zcaron" unicode="&#x17e;" horiz-adv-x="442" 
d="M372 694l-141 -123l-141 123l22 35l119 -81l120 81zM131 63h277v-63h-369l-6 51l270 378h-253v63h344l5 -55z" />
    <glyph glyph-name="Scommaaccent" unicode="&#x218;" horiz-adv-x="465" 
d="M153 546q0 -26 9 -48t30 -42t37.5 -32.5t47.5 -33.5q37 -25 56.5 -40.5t46.5 -42.5t39 -59.5t12 -71.5q0 -83 -57.5 -135.5t-149.5 -52.5q-95 0 -173 54l24 61q83 -45 148 -45q60 0 92.5 30.5t32.5 81.5q0 28 -9.5 51t-31.5 45t-37.5 34t-48.5 35q-35 24 -54 39t-44 40.5
t-36.5 56t-11.5 67.5q-1 79 51 127t144 48q69 0 133 -31l-23 -62q-54 26 -109 26t-86.5 -27t-31.5 -73zM231 -65q23 0 37 -17t14 -49q0 -35 -20.5 -65t-59.5 -43l-21 21q42 22 44 64q-18 -1 -29.5 11t-11.5 33t13 33t34 12z" />
    <glyph glyph-name="scommaaccent" unicode="&#x219;" horiz-adv-x="424" 
d="M137 369q0 -19 7.5 -33.5t25.5 -26t31.5 -18t40.5 -17.5q34 -13 51 -21.5t41 -25.5t35 -41.5t11 -56.5q0 -67 -48 -105t-127 -39q-79 0 -161 44l25 57q68 -37 132 -37q48 0 75.5 19.5t27.5 53.5q0 18 -7 31.5t-24 24.5t-30 17.5t-39 17.5q-33 14 -50.5 23t-41 26.5
t-34.5 42t-11 57.5q0 67 46.5 105t124.5 38q63 0 119 -24l-23 -58q-43 21 -96 21q-48 0 -74.5 -20t-26.5 -55zM211 -65q23 0 37 -17t14 -49q0 -35 -20.5 -65t-59.5 -43l-21 21q42 22 44 64q-18 -1 -29.5 11t-11.5 33t13 33t34 12z" />
    <glyph glyph-name="uni021A" unicode="&#x21a;" horiz-adv-x="589" 
d="M558 700v-69h-224v-631h-80v631h-225v69h529zM292 -65q23 0 37 -17t14 -49q0 -35 -20.5 -65t-59.5 -43l-21 21q42 22 44 64q-18 -1 -29.5 11t-11.5 33t13 33t34 12z" />
    <glyph glyph-name="uni021B" unicode="&#x21b;" horiz-adv-x="403" 
d="M364 28q-59 -40 -129 -40q-60 0 -92.5 34t-32.5 101v306h-61v63h61v119l77 6v-125h166l-4 -63h-162v-290q0 -43 17.5 -62.5t54.5 -19.5q42 0 87 28zM233 -65q23 0 37 -17t14 -49q0 -35 -20.5 -65t-59.5 -43l-21 21q42 22 44 64q-18 -1 -29.5 11t-11.5 33t13 33t34 12z
" />
    <glyph glyph-name="uni0237" unicode="&#x237;" horiz-adv-x="261" 
d="M-59 -154q31 -13 70 -13q84 0 84 166v493l77 5v-492q0 -122 -43.5 -182.5t-121.5 -60.5q-49 0 -87 19z" />
    <glyph glyph-name="circumflex" unicode="&#x2c6;" horiz-adv-x="600" 
d="M410 606l-21 -35l-120 81l-119 -81l-21 35l140 123z" />
    <glyph glyph-name="dotaccent" unicode="&#x2d9;" horiz-adv-x="255" 
d="M126 616q-23 0 -36 14.5t-13 38.5t13.5 38.5t38.5 14.5q24 0 36.5 -14.5t12.5 -38.5q0 -53 -52 -53z" />
    <glyph glyph-name="ring" unicode="&#x2da;" horiz-adv-x="600" 
d="M302 555q-47 0 -75 27t-28 71t28.5 70.5t74.5 26.5t74 -26.5t28 -70.5t-28 -71t-74 -27zM302 598q24 0 38 14.5t14 40.5q0 25 -14 39.5t-38 14.5q-25 0 -39 -14.5t-14 -39.5q0 -26 14 -40.5t39 -14.5z" />
    <glyph glyph-name="tilde" unicode="&#x2dc;" horiz-adv-x="600" 
d="M306 584q-25 0 -59 19q-34 18 -56 18q-26 0 -64 -32l-26 37q47 52 96 52q35 0 71 -22q28 -15 44 -15q25 0 63 32l25 -37q-45 -52 -94 -52z" />
    <glyph glyph-name="gravecomb" unicode="&#x300;" 
d="M-199 601l-21 -38l-189 101l32 59z" />
    <glyph glyph-name="acutecomb" unicode="&#x301;" 
d="M-409 601l178 122l32 -59l-189 -101z" />
    <glyph glyph-name="uni0302" unicode="&#x302;" 
d="M-190 606l-21 -35l-120 81l-119 -81l-21 35l140 123z" />
    <glyph glyph-name="tildecomb" unicode="&#x303;" 
d="M-203 584q-23 0 -59 19q-34 18 -56 18q-26 0 -64 -32l-26 37q47 52 96 52q35 0 71 -22q28 -15 44 -15q25 0 63 32l25 -37q-45 -52 -94 -52z" />
    <glyph glyph-name="uni0304" unicode="&#x304;" 
d="M-406 670h298l-1 -59h-298z" />
    <glyph glyph-name="uni0306" unicode="&#x306;" 
d="M-231 643q62 0 96 79l42 -22q-35 -115 -138 -115t-138 115l42 22q34 -79 96 -79z" />
    <glyph glyph-name="uni0307" unicode="&#x307;" 
d="M-129 616q-23 0 -36 14.5t-13 38.5t13.5 38.5t38.5 14.5q24 0 36.5 -14.5t12.5 -38.5q0 -53 -52 -53z" />
    <glyph glyph-name="uni0308" unicode="&#x308;" 
d="M-305 587q-22 0 -34.5 13.5t-12.5 36.5q0 51 50 51q22 0 34.5 -13.5t12.5 -37.5q0 -50 -50 -50zM-110 587q-22 0 -34.5 13.5t-12.5 36.5q0 51 50 51q22 0 34.5 -13.5t12.5 -37.5q0 -50 -50 -50z" />
    <glyph glyph-name="uni030A" unicode="&#x30a;" 
d="M-298 555q-47 0 -75 27t-28 71t28.5 70.5t74.5 26.5t74 -26.5t28 -70.5t-28 -71t-74 -27zM-298 598q24 0 38 14.5t14 40.5q0 25 -14 39.5t-38 14.5q-25 0 -39 -14.5t-14 -39.5q0 -26 14 -40.5t39 -14.5z" />
    <glyph glyph-name="uni030B" unicode="&#x30b;" 
d="M-353 562l50 173l67 -13l-70 -171zM-238 553l70 173l67 -14l-91 -170z" />
    <glyph glyph-name="uni030C" unicode="&#x30c;" 
d="M-134 729l21 -35l-141 -123l-141 123l22 35l119 -81z" />
    <glyph glyph-name="uni0312" unicode="&#x312;" 
d="M-149 665q18 1 29.5 -11t11.5 -33t-13 -33t-34 -12q-23 0 -37 17t-14 49q0 35 20.5 65t59.5 43l21 -21q-42 -22 -44 -64z" />
    <glyph glyph-name="uni0326" unicode="&#x326;" 
d="M-137 -65q23 0 37 -17t14 -49q0 -35 -20.5 -65t-59.5 -43l-21 21q42 23 44 64q-17 -1 -29 11.5t-12 32.5q0 21 13 33t34 12z" />
    <glyph glyph-name="uni0327" unicode="&#x327;" 
d="M-299 -60q94 1 94 -74q0 -38 -27.5 -59.5t-74.5 -21.5q-43 0 -78 20l17 36q26 -14 56 -14q49 0 49 37q0 43 -67 43q-6 0 -9 -1h-9l-9 20l26 74h47z" />
    <glyph glyph-name="uni0328" unicode="&#x328;" 
d="M-171 -125l23 -33q-42 -39 -93 -39q-33 0 -56 18t-23 54q0 65 107 137l59 -12q-56 -37 -77.5 -63t-21.5 -51q0 -30 32 -30q21 0 50 19z" />
    <glyph glyph-name="uni0335" unicode="&#x335;" 
d="M-529 621v54h292l-4 -54h-288z" />
    <glyph glyph-name="uni0337" unicode="&#x337;" 
d="M-353 371l253 132l25 -49l-253 -131z" />
    <glyph glyph-name="uni0338" unicode="&#x338;" 
d="M-569 24l383 483l46 -36l-384 -481z" />
    <glyph glyph-name="uni0394" unicode="&#x394;" horiz-adv-x="717" 
d="M33 51l282 660h90l279 -660v-51h-651v51zM598 59l-165 392q-15 40 -36 88q-36 88 -39 98h-4q-1 -3 -40 -103q-20 -46 -27 -65l-175 -410h486z" />
    <glyph glyph-name="uni03A9" unicode="&#x3a9;" horiz-adv-x="810" 
d="M224 62q-66 50 -109.5 129t-43.5 178q0 145 96.5 239.5t240.5 94.5q145 0 237.5 -98t92.5 -233q0 -102 -45 -183.5t-110 -126.5v-3h170v-59h-268v45q75 42 125 123t50 193q0 68 -28 131t-87.5 106.5t-136.5 43.5q-115 0 -187 -82t-72 -203q0 -104 51.5 -186.5
t123.5 -125.5v-45h-268v59h168v3z" />
    <glyph glyph-name="pi" unicode="&#x3c0;" horiz-adv-x="627" 
d="M507 452v-299q0 -91 16 -153h-74q-19 26 -19 144v308h-206q-5 -107 -28.5 -248.5t-51.5 -203.5h-76q30 74 53 209.5t27 242.5q-85 0 -127 -14l-12 48q47 27 157 27h440l-7 -61h-92z" />
    <glyph glyph-name="Wgrave" unicode="&#x1e80;" horiz-adv-x="1004" 
d="M565 811l-21 -38l-189 101l32 59zM921 704l82 -4l-276 -706h-70l-147 389l-168 -389h-64l-277 706l87 4l230 -603l157 374l-85 225h87l218 -589z" />
    <glyph glyph-name="wgrave" unicode="&#x1e81;" horiz-adv-x="787" 
d="M477 603l-21 -38l-189 101l32 59zM690 495l76 -3l-171 -492h-102l-96 273l-108 -273h-100l-168 492l78 3l148 -432l120 298l-46 131l78 3l147 -429z" />
    <glyph glyph-name="Wacute" unicode="&#x1e82;" horiz-adv-x="1004" 
d="M609 874l-189 -101l-21 38l178 122zM921 704l82 -4l-276 -706h-70l-147 389l-168 -389h-64l-277 706l87 4l230 -603l157 374l-85 225h87l218 -589z" />
    <glyph glyph-name="wacute" unicode="&#x1e83;" horiz-adv-x="787" 
d="M521 666l-189 -101l-21 38l178 122zM690 495l76 -3l-171 -492h-102l-96 273l-108 -273h-100l-168 492l78 3l148 -432l120 298l-46 131l78 3l147 -429z" />
    <glyph glyph-name="Wdieresis" unicode="&#x1e84;" horiz-adv-x="1004" 
d="M384 795q-22 0 -34.5 13.5t-12.5 36.5q0 51 50 51q22 0 34.5 -13.5t12.5 -37.5q0 -50 -50 -50zM579 795q-22 0 -34.5 13.5t-12.5 36.5q0 51 50 51q22 0 34.5 -13.5t12.5 -37.5q0 -50 -50 -50zM921 704l82 -4l-276 -706h-70l-147 389l-168 -389h-64l-277 706l87 4
l230 -603l157 374l-85 225h87l218 -589z" />
    <glyph glyph-name="wdieresis" unicode="&#x1e85;" horiz-adv-x="787" 
d="M295 587q-22 0 -34.5 13.5t-12.5 36.5q0 51 50 51q22 0 34.5 -13.5t12.5 -37.5q0 -50 -50 -50zM490 587q-22 0 -34.5 13.5t-12.5 36.5q0 51 50 51q22 0 34.5 -13.5t12.5 -37.5q0 -50 -50 -50zM690 495l76 -3l-171 -492h-102l-96 273l-108 -273h-100l-168 492l78 3
l148 -432l120 298l-46 131l78 3l147 -429z" />
    <glyph glyph-name="Ygrave" unicode="&#x1ef2;" horiz-adv-x="627" 
d="M396 811l-21 -38l-189 101l32 59zM617 700l-262 -396v-304h-80v301l-265 399l92 4l215 -328l217 328z" />
    <glyph glyph-name="ygrave" unicode="&#x1ef3;" horiz-adv-x="501" 
d="M333 603l-21 -38l-189 101l32 59zM480 492l-177 -492l-17 -39q-36 -92 -86.5 -131t-135.5 -44l-6 71q60 4 94.5 30.5t62.5 92.5l9 20h-26l-177 492l85 3l147 -430l146 430z" />
    <glyph glyph-name="endash" unicode="&#x2013;" horiz-adv-x="578" 
d="M47 389h486l-4 -68h-486z" />
    <glyph glyph-name="emdash" unicode="&#x2014;" horiz-adv-x="878" 
d="M47 389h786l-4 -68h-786z" />
    <glyph glyph-name="quoteleft" unicode="&#x2018;" horiz-adv-x="232" 
d="M113 620q57 -2 57 -52q0 -24 -16 -39.5t-44 -15.5q-62 0 -62 73q0 46 25.5 92.5t63.5 65.5l25 -19q-20 -17 -33.5 -46.5t-15.5 -58.5z" />
    <glyph glyph-name="quoteright" unicode="&#x2019;" horiz-adv-x="251" 
d="M122 745q62 0 62 -73q0 -46 -25.5 -92.5t-63.5 -65.5l-25 19q20 17 33.5 46.5t15.5 58.5q-57 2 -57 52q0 24 16 39.5t44 15.5z" />
    <glyph glyph-name="quotesinglbase" unicode="&#x201a;" horiz-adv-x="251" 
d="M123 105q62 0 62 -73q0 -45 -26 -92t-63 -66l-26 19q45 39 49 105q-28 1 -42 15t-14 37q0 24 16 39.5t44 15.5z" />
    <glyph glyph-name="quotedblleft" unicode="&#x201c;" horiz-adv-x="399" 
d="M131 620q57 -2 57 -52q0 -24 -16 -39.5t-44 -15.5q-62 0 -62 73q0 46 25.5 92.5t63.5 65.5l25 -19q-20 -17 -33.5 -46.5t-15.5 -58.5zM280 620q57 -2 57 -52q0 -24 -16 -39.5t-44 -15.5q-62 0 -62 73q0 46 25.5 92.5t63.5 65.5l25 -19q-20 -17 -33.5 -46.5t-15.5 -58.5z
" />
    <glyph glyph-name="quotedblright" unicode="&#x201d;" horiz-adv-x="399" 
d="M122 745q62 0 62 -73q0 -46 -25.5 -92.5t-63.5 -65.5l-25 19q20 17 33.5 46.5t15.5 58.5q-57 2 -57 52q0 24 16 39.5t44 15.5zM271 745q62 0 62 -73q0 -46 -25.5 -92.5t-63.5 -65.5l-25 19q20 17 33.5 46.5t15.5 58.5q-57 2 -57 52q0 24 16 39.5t44 15.5z" />
    <glyph glyph-name="quotedblbase" unicode="&#x201e;" horiz-adv-x="399" 
d="M122 105q62 0 62 -73q0 -46 -25.5 -92.5t-63.5 -65.5l-25 19q20 17 33.5 46.5t15.5 58.5q-57 2 -57 52q0 24 16 39.5t44 15.5zM271 105q62 0 62 -73q0 -46 -25.5 -92.5t-63.5 -65.5l-25 19q20 17 33.5 46.5t15.5 58.5q-57 2 -57 52q0 24 16 39.5t44 15.5z" />
    <glyph glyph-name="dagger" unicode="&#x2020;" horiz-adv-x="563" 
d="M318 716l-8 -229l206 6v-68l-206 7l8 -484h-74l7 484l-205 -7v68l205 -6l-7 229h74z" />
    <glyph glyph-name="daggerdbl" unicode="&#x2021;" horiz-adv-x="563" 
d="M317 716l-6 -216l206 7v-68l-206 7v-227l206 7v-67l-206 7l6 -218h-73l6 218l-204 -7v67l205 -7v227l-205 -7v68l205 -7l-7 216h73z" />
    <glyph glyph-name="bullet" unicode="&#x2022;" horiz-adv-x="368" 
d="M184 219q-46 0 -73.5 27.5t-27.5 73.5t27.5 73.5t73.5 27.5t74 -27.5t28 -73.5t-28 -73.5t-74 -27.5z" />
    <glyph glyph-name="ellipsis" unicode="&#x2026;" horiz-adv-x="796" 
d="M176 -7q-27 0 -42.5 16.5t-15.5 43.5t16 43t44 16q27 0 42.5 -16t15.5 -43t-16 -43.5t-44 -16.5zM397 -7q-27 0 -42.5 16.5t-15.5 43.5t16 43t44 16q27 0 42.5 -16t15.5 -43t-16 -43.5t-44 -16.5zM618 -7q-27 0 -43 16.5t-16 43.5t16.5 43t43.5 16t43 -16t16 -43
t-16 -43.5t-44 -16.5z" />
    <glyph glyph-name="perthousand" unicode="&#x2030;" horiz-adv-x="1308" 
d="M257 370q-75 0 -117 46t-42 128q0 81 43 128.5t118 47.5t116.5 -45.5t41.5 -128.5t-42 -129.5t-118 -46.5zM296 -20l-56 35l456 705l58 -33zM258 423q46 0 70.5 31.5t24.5 90.5q0 58 -25 90t-70 32t-70 -31.5t-25 -89.5q0 -59 25 -91t70 -32zM736 -15q-76 0 -117.5 45.5
t-41.5 127.5t42.5 129.5t117.5 47.5t117 -46t42 -128q0 -83 -42 -129.5t-118 -46.5zM1119 -15q-76 0 -117.5 45.5t-41.5 127.5t42.5 129.5t117.5 47.5t116.5 -46t41.5 -128q0 -83 -42 -129.5t-117 -46.5zM737 38q46 0 70.5 31.5t24.5 89.5q0 59 -25 91t-71 32
q-45 0 -69.5 -31.5t-24.5 -90.5t25 -90.5t70 -31.5zM1120 38q45 0 70 31.5t25 89.5q0 59 -25 91t-71 32q-45 0 -69.5 -31.5t-24.5 -90.5t25 -90.5t70 -31.5z" />
    <glyph glyph-name="guilsinglleft" unicode="&#x2039;" horiz-adv-x="383" 
d="M298 420l-133 -155l133 -159l-47 -36l-165 193l174 199z" />
    <glyph glyph-name="guilsinglright" unicode="&#x203a;" horiz-adv-x="383" 
d="M133 453l165 -193l-174 -199l-38 42l132 155l-132 159z" />
    <glyph glyph-name="Euro" unicode="&#x20ac;" horiz-adv-x="693" 
d="M598 101l24 -57q-86 -57 -203 -57q-125 0 -202.5 67t-98.5 194h-116l6 59h103v18q-1 5 -1 17q0 30 3 57h-93l6 59h97q27 120 106.5 188t199.5 68q103 0 185 -42l-25 -63q-76 34 -158 34q-87 0 -145.5 -48t-80.5 -137h261l-5 -59h-266q-2 -32 -2 -49q0 -29 1 -43h257
l-5 -59h-243q20 -92 77 -141t148 -49q21 0 30 1q71 7 140 42z" />
    <glyph glyph-name="uni2113" unicode="&#x2113;" horiz-adv-x="614" 
d="M553 158l36 -32q-37 -62 -92.5 -96t-117.5 -34q-80 0 -126 44t-53 129q-25 -15 -62 -33l-24 48q49 27 85 49v238q0 127 49.5 184.5t119.5 57.5q71 0 111.5 -46.5t40.5 -113.5q0 -105 -60 -184.5t-187 -157.5v-9q0 -145 123 -145q87 0 157 101zM273 483v-204
q98 66 136 125t38 141q0 109 -81 109q-40 0 -67 -41.5t-26 -129.5z" />
    <glyph glyph-name="trademark" unicode="&#x2122;" horiz-adv-x="862" 
d="M819 328h-61l-41 297l-97 -286h-62l-95 288l-43 -299h-54l55 372l74 2l98 -294l99 294l71 -2zM337 700v-47h-117v-325h-59v325h-118v47h294z" />
    <glyph glyph-name="estimated" unicode="&#x212e;" horiz-adv-x="865" 
d="M185 340q-5 0 -5 -4v-195q0 -13 8 -23q103 -106 245 -106q153 0 257 119h57q-54 -64 -137.5 -101.5t-177.5 -37.5q-165 0 -282 105t-117 253t117 253.5t282 105.5t282 -105.5t117 -253.5v-10h-646zM684 562q0 14 -9 23q-104 102 -242 102q-141 0 -244 -105q-9 -9 -9 -25
v-192q0 -6 5 -6h495q4 0 4 6v197z" />
    <glyph glyph-name="partialdiff" unicode="&#x2202;" horiz-adv-x="598" 
d="M83 719q73 58 183 58q115 0 196 -100t81 -277q0 -110 -31.5 -200.5t-97.5 -147.5t-157 -57q-102 0 -157 70.5t-55 159.5q0 110 68 180t164 70q70 0 119.5 -36t69.5 -72h1q1 13 1 48q0 135 -61 218.5t-149 83.5q-83 0 -148 -48zM264 55q77 0 128.5 70.5t64.5 172.5
q-16 42 -61.5 80t-106.5 38q-69 0 -118.5 -55t-49.5 -134q0 -74 39.5 -123t102.5 -49h1z" />
    <glyph glyph-name="emptyset" unicode="&#x2205;" horiz-adv-x="711" 
d="M583 509q62 -78 62 -188q0 -128 -80.5 -208.5t-209.5 -80.5q-110 0 -187 61l-24 -24l-41 41l24 24q-61 77 -61 187q0 128 80.5 208.5t208.5 80.5q111 0 188 -61l24 24l41 -40zM127 321q0 -86 42 -145l331 331q-57 43 -145 43q-105 0 -166.5 -61.5t-61.5 -167.5zM355 92
q106 0 167.5 61.5t61.5 167.5q0 88 -43 146l-331 -332q58 -43 145 -43z" />
    <glyph glyph-name="product" unicode="&#x220f;" horiz-adv-x="767" 
d="M616 625v-720h-75v720h-316v-720h-75v720h-123v65h713v-65h-124z" />
    <glyph glyph-name="summation" unicode="&#x2211;" horiz-adv-x="609" 
d="M23 -95v46l299 345l-285 344v50h532v-63h-423v-4l264 -319l-284 -329v-3h459v-67h-562z" />
    <glyph glyph-name="minus" unicode="&#x2212;" horiz-adv-x="594" 
d="M80 393h438l-4 -66h-438z" />
    <glyph glyph-name="radical" unicode="&#x221a;" horiz-adv-x="620" 
d="M379 -150h-68l-178 461l-81 -30l-17 43l145 57l145 -386l9 -30q2 -7 5.5 -20t4.5 -16h1q4 25 13 61q0 1 0.5 2.5t0.5 2.5l207 823h58z" />
    <glyph glyph-name="infinity" unicode="&#x221e;" horiz-adv-x="867" 
d="M650 423q67 0 112.5 -47.5t45.5 -122.5q0 -76 -46 -125.5t-116 -49.5q-58 0 -108.5 33.5t-107.5 92.5q-59 -61 -107.5 -93.5t-103.5 -32.5q-68 0 -114 50t-46 125t45 122.5t113 47.5q58 0 109 -34t109 -95q59 61 108.5 95t106.5 34zM226 142q39 0 77 26.5t87 77.5
q-52 55 -90.5 84t-77.5 29q-41 0 -68 -29.5t-27 -76.5q0 -49 28 -80t71 -31zM642 142q42 0 70 31.5t28 79.5t-27 77t-70 29q-41 0 -80.5 -28t-87.5 -79q51 -54 89 -82t78 -28z" />
    <glyph glyph-name="integral" unicode="&#x222b;" horiz-adv-x="365" 
d="M289 733q49 0 104 -26l-23 -57q-39 17 -78 17q-49 0 -70.5 -39t-21.5 -127v-506q0 -107 -43 -162.5t-123 -55.5q-49 0 -104 26l23 57q39 -17 77 -17q49 0 71 39t22 126v506q5 219 166 219z" />
    <glyph glyph-name="approxequal" unicode="&#x2248;" horiz-adv-x="567" 
d="M48 334q7 56 42.5 83.5t80.5 27.5q46 0 126 -35q68 -29 96 -29q24 0 43.5 15.5t25.5 47.5l57 -12q-7 -56 -43 -83.5t-80 -27.5t-120 34q-70 30 -101 30q-26 0 -45.5 -15.5t-24.5 -47.5zM48 136q7 56 42.5 83.5t80.5 27.5q46 0 126 -35q68 -29 96 -29q24 0 43.5 15.5
t25.5 47.5l57 -12q-7 -56 -43 -83.5t-80 -27.5t-120 34q-70 30 -101 30q-26 0 -45.5 -15.5t-24.5 -47.5z" />
    <glyph glyph-name="notequal" unicode="&#x2260;" horiz-adv-x="600" 
d="M361 417l-55 -143h212l-4 -66h-234l-39 -101h-74l39 101h-130l4 66h152l55 143h-211l4 67h233l40 105h74l-40 -105h131l-4 -67h-153z" />
    <glyph glyph-name="lessequal" unicode="&#x2264;" horiz-adv-x="627" 
d="M516 260v-70l-411 204v55l411 204v-70l-329 -161zM100 106h417v-67h-417v67z" />
    <glyph glyph-name="greaterequal" unicode="&#x2265;" horiz-adv-x="612" 
d="M516 449v-55l-411 -204v70l329 162l-329 161v70zM105 106h416v-67h-416v67z" />
    <glyph glyph-name="lozenge" unicode="&#x25ca;" horiz-adv-x="621" 
d="M339 -49h-60l-220 394l221 395h61l220 -395zM331 633q-14 27 -21 47h-2q-9 -26 -21 -47l-160 -287l163 -291q15 -32 19 -45h3q9 24 20 45l161 288z" />
    <glyph glyph-name="N.ss01" horiz-adv-x="694" 
d="M544 700h76v-700h-76v146l-321 348q-49 54 -72 84v-578h-77v700l64 5l298 -324q72 -80 108 -126v445z" />
    <glyph glyph-name="Nacute.ss01" horiz-adv-x="694" 
d="M489 865l-210 -89l-19 39l201 112zM544 700h76v-700h-76v146l-321 348q-49 54 -72 84v-578h-77v700l64 5l298 -324q72 -80 108 -126v445z" />
    <glyph glyph-name="Ncaron.ss01" horiz-adv-x="694" 
d="M509 886l-161 -107l-161 107l21 35l140 -71l139 71zM544 700h76v-700h-76v146l-321 348q-49 54 -72 84v-578h-77v700l64 5l298 -324q72 -80 108 -126v445z" />
    <glyph glyph-name="Ncommaaccent.ss01" horiz-adv-x="694" 
d="M544 700h76v-700h-76v146l-321 348q-49 54 -72 84v-578h-77v700l64 5l298 -324q72 -80 108 -126v445zM345 -65q23 0 37 -17t14 -49q0 -35 -20.5 -65t-59.5 -43l-21 21q42 22 44 64q-18 -1 -29.5 11t-11.5 33t13 33t34 12z" />
    <glyph glyph-name="Eng.ss01" horiz-adv-x="694" 
d="M544 700h76v-700q0 -204 -218 -213l-7 65q78 5 114.5 38t36.5 102v8h-2v146l-321 348q-49 54 -72 84v-578h-77v700l64 5l298 -324q72 -80 108 -126v445z" />
    <glyph glyph-name="Ntilde.ss01" horiz-adv-x="694" 
d="M276 812q-28 0 -69 -32l-25 37q48 52 100 52q35 0 85 -22q37 -15 54 -15q27 0 67 33l25 -37q-48 -52 -98 -52q-23 0 -45 8q-8 3 -29 11.5t-36 12.5t-29 4zM544 700h76v-700h-76v146l-321 348q-49 54 -72 84v-578h-77v700l64 5l298 -324q72 -80 108 -126v445z" />
    <glyph glyph-name="U.ss01" horiz-adv-x="688" 
d="M534 700h80v-698l-80 -4v75q-117 -85 -235 -85q-112 0 -173.5 64t-61.5 188v460h80v-446q0 -192 173 -192q111 0 217 82v556z" />
    <glyph glyph-name="Uacute.ss01" horiz-adv-x="688" 
d="M484 865l-210 -89l-19 39l201 112zM534 700h80v-698l-80 -4v75q-117 -85 -235 -85q-112 0 -173.5 64t-61.5 188v460h80v-446q0 -192 173 -192q111 0 217 82v556z" />
    <glyph glyph-name="Ucircumflex.ss01" horiz-adv-x="688" 
d="M343 850l-139 -71l-21 35l160 107l161 -107l-21 -35zM534 700h80v-698l-80 -4v75q-117 -85 -235 -85q-112 0 -173.5 64t-61.5 188v460h80v-446q0 -192 173 -192q111 0 217 82v556z" />
    <glyph glyph-name="Udieresis.ss01" horiz-adv-x="688" 
d="M244 795q-22 0 -34.5 13.5t-12.5 36.5q0 51 50 51q22 0 34.5 -13.5t12.5 -37.5q0 -50 -50 -50zM439 795q-22 0 -34.5 13.5t-12.5 36.5q0 51 50 51q22 0 34.5 -13.5t12.5 -37.5q0 -50 -50 -50zM534 700h80v-698l-80 -4v75q-117 -85 -235 -85q-112 0 -173.5 64t-61.5 188
v460h80v-446q0 -192 173 -192q111 0 217 82v556z" />
    <glyph glyph-name="Ugrave.ss01" horiz-adv-x="688" 
d="M426 811l-21 -38l-189 101l32 59zM534 700h80v-698l-80 -4v75q-117 -85 -235 -85q-112 0 -173.5 64t-61.5 188v460h80v-446q0 -192 173 -192q111 0 217 82v556z" />
    <glyph glyph-name="Uhungarumlaut.ss01" horiz-adv-x="688" 
d="M355 909l-49 -150l-48 10l37 154zM491 900l-70 -150l-48 10l58 154zM534 700h80v-698l-80 -4v75q-117 -85 -235 -85q-112 0 -173.5 64t-61.5 188v460h80v-446q0 -192 173 -192q111 0 217 82v556z" />
    <glyph glyph-name="Umacron.ss01" horiz-adv-x="688" 
d="M493 880l-1 -59h-298l1 59h298zM534 700h80v-698l-80 -4v75q-117 -85 -235 -85q-112 0 -173.5 64t-61.5 188v460h80v-446q0 -192 173 -192q111 0 217 82v556z" />
    <glyph glyph-name="Uogonek.ss01" horiz-adv-x="688" 
d="M605 -115l23 -33q-42 -39 -93 -39q-33 0 -56 18t-23 54q0 57 78 116v72q-117 -85 -235 -85q-112 0 -173.5 64t-61.5 188v460h80v-446q0 -192 173 -192q111 0 217 82v556h80v-688l8 -2q-6 -4 -8 -6v-2h-3q-88 -60 -88 -106q0 -30 32 -30q21 0 50 19z" />
    <glyph glyph-name="Uring.ss01" horiz-adv-x="688" 
d="M343 763q-47 0 -75 27t-28 71t28.5 70.5t74.5 26.5t74 -26.5t28 -70.5t-28 -71t-74 -27zM343 915q-25 0 -39 -14.5t-14 -39.5q0 -26 14 -40.5t39 -14.5q24 0 38 14.5t14 40.5q0 25 -14 39.5t-38 14.5zM534 700h80v-698l-80 -4v75q-117 -85 -235 -85q-112 0 -173.5 64
t-61.5 188v460h80v-446q0 -192 173 -192q111 0 217 82v556z" />
    <glyph glyph-name="g.ss01" horiz-adv-x="525" 
d="M170 127q0 -13 8.5 -22t28.5 -14.5t35.5 -8t47.5 -5.5q40 -5 59.5 -7.5t54 -12.5t52 -23t31.5 -37t14 -57q0 -78 -69 -120t-184 -42q-102 0 -157.5 33.5t-55.5 95.5q0 77 102 142q-34 19 -34 58q0 45 47 74q-81 48 -81 148q0 79 51.5 127.5t136.5 48.5q70 0 117 -32
q56 39 56 94l63 -5q1 -78 -82 -122q35 -44 35 -109q0 -79 -51.5 -127.5t-135.5 -48.5q-35 0 -67 9q-22 -16 -22 -37zM257 448q-51 0 -81.5 -31t-30.5 -86q0 -57 31 -89t83 -32q51 0 81.5 31.5t30.5 87.5t-31 87.5t-83 31.5zM255 -162q82 0 127 24.5t45 69.5q0 20 -10 34.5
t-22.5 22.5t-38.5 14.5t-41 9t-49 6.5q-48 6 -70 10q-92 -49 -92 -110q0 -81 151 -81z" />
    <glyph glyph-name="gbreve.ss01" horiz-adv-x="525" 
d="M259 587q-103 0 -138 115l42 22q34 -79 96 -79t96 79l42 -22q-35 -115 -138 -115zM170 127q0 -13 8.5 -22t28.5 -14.5t35.5 -8t47.5 -5.5q40 -5 59.5 -7.5t54 -12.5t52 -23t31.5 -37t14 -57q0 -78 -69 -120t-184 -42q-102 0 -157.5 33.5t-55.5 95.5q0 77 102 142
q-34 19 -34 58q0 45 47 74q-81 48 -81 148q0 79 51.5 127.5t136.5 48.5q70 0 117 -32q56 39 56 94l63 -5q1 -78 -82 -122q35 -44 35 -109q0 -79 -51.5 -127.5t-135.5 -48.5q-35 0 -67 9q-22 -16 -22 -37zM257 448q-51 0 -81.5 -31t-30.5 -86q0 -57 31 -89t83 -32
q51 0 81.5 31.5t30.5 87.5t-31 87.5t-83 31.5zM255 -162q82 0 127 24.5t45 69.5q0 20 -10 34.5t-22.5 22.5t-38.5 14.5t-41 9t-49 6.5q-48 6 -70 10q-92 -49 -92 -110q0 -81 151 -81z" />
    <glyph glyph-name="gcommaaccent.ss01" horiz-adv-x="525" 
d="M264 579q-23 0 -37 17t-14 49q0 35 20.5 65t59.5 43l21 -21q-42 -22 -44 -64q18 1 29.5 -11t11.5 -33t-13 -33t-34 -12zM170 127q0 -13 8.5 -22t28.5 -14.5t35.5 -8t47.5 -5.5q40 -5 59.5 -7.5t54 -12.5t52 -23t31.5 -37t14 -57q0 -78 -69 -120t-184 -42
q-102 0 -157.5 33.5t-55.5 95.5q0 77 102 142q-34 19 -34 58q0 45 47 74q-81 48 -81 148q0 79 51.5 127.5t136.5 48.5q70 0 117 -32q56 39 56 94l63 -5q1 -78 -82 -122q35 -44 35 -109q0 -79 -51.5 -127.5t-135.5 -48.5q-35 0 -67 9q-22 -16 -22 -37zM257 448
q-51 0 -81.5 -31t-30.5 -86q0 -57 31 -89t83 -32q51 0 81.5 31.5t30.5 87.5t-31 87.5t-83 31.5zM255 -162q82 0 127 24.5t45 69.5q0 20 -10 34.5t-22.5 22.5t-38.5 14.5t-41 9t-49 6.5q-48 6 -70 10q-92 -49 -92 -110q0 -81 151 -81z" />
    <glyph glyph-name="gdotaccent.ss01" horiz-adv-x="525" 
d="M257 616q-23 0 -36 14.5t-13 38.5t13.5 38.5t38.5 14.5q24 0 36.5 -14.5t12.5 -38.5q0 -53 -52 -53zM170 127q0 -13 8.5 -22t28.5 -14.5t35.5 -8t47.5 -5.5q40 -5 59.5 -7.5t54 -12.5t52 -23t31.5 -37t14 -57q0 -78 -69 -120t-184 -42q-102 0 -157.5 33.5t-55.5 95.5
q0 77 102 142q-34 19 -34 58q0 45 47 74q-81 48 -81 148q0 79 51.5 127.5t136.5 48.5q70 0 117 -32q56 39 56 94l63 -5q1 -78 -82 -122q35 -44 35 -109q0 -79 -51.5 -127.5t-135.5 -48.5q-35 0 -67 9q-22 -16 -22 -37zM257 448q-51 0 -81.5 -31t-30.5 -86q0 -57 31 -89
t83 -32q51 0 81.5 31.5t30.5 87.5t-31 87.5t-83 31.5zM255 -162q82 0 127 24.5t45 69.5q0 20 -10 34.5t-22.5 22.5t-38.5 14.5t-41 9t-49 6.5q-48 6 -70 10q-92 -49 -92 -110q0 -81 151 -81z" />
    <glyph glyph-name="iacute_j.loclNLD" horiz-adv-x="516" 
d="M45 603l178 122l32 -59l-189 -101zM306 603l178 122l32 -59l-189 -101zM89 492l77 5v-497h-77v492zM196 -154q31 -13 70 -13q84 0 84 166v493l77 5v-492q0 -122 -43.5 -182.5t-121.5 -60.5q-49 0 -87 19z" />
    <glyph glyph-name="i.loclTRK" horiz-adv-x="255" 
d="M126 616q-23 0 -36 14.5t-13 38.5t13.5 38.5t38.5 14.5q24 0 36.5 -14.5t12.5 -38.5q0 -53 -52 -53zM89 492l77 5v-497h-77v492z" />
    <glyph glyph-name="periodcentered.loclCAT.case" horiz-adv-x="13" 
d="M-98 317q-25 0 -39.5 14.5t-14.5 38.5t15 38.5t40 14.5t39.5 -14.5t14.5 -38.5t-15 -38.5t-40 -14.5z" />
    <glyph glyph-name="periodcentered.loclCAT" horiz-adv-x="95" 
d="M47 303q-23 0 -37 14.5t-14 38.5t14 39t38 15q23 0 36.5 -15t13.5 -39t-13.5 -38.5t-37.5 -14.5z" />
    <glyph glyph-name="caroncomb.alt" 
d="M-160 552v170l61 4l-9 -174h-52z" />
    <glyph glyph-name="acutecomb.case" 
d="M-406 603l201 112l28 -62l-210 -89z" />
    <glyph glyph-name="uni0306.case" 
d="M-231 829q35 0 63 19.5t43 50.5l43 -22q-18 -52 -57.5 -79t-91.5 -27t-91.5 27t-57.5 79l43 22q15 -31 43.5 -50.5t62.5 -19.5z" />
    <glyph glyph-name="uni030C.case" 
d="M-102 921l22 -35l-161 -107l-161 107l21 35l140 -70z" />
    <glyph glyph-name="uni0302.case" 
d="M-170 814l-21 -35l-140 71l-139 -71l-21 35l160 107z" />
    <glyph glyph-name="gravecomb.case" 
d="M-189 603l-19 -39l-210 89l28 62z" />
    <glyph glyph-name="uni030B.case" 
d="M-354 769l37 154l60 -14l-49 -150zM-239 760l58 154l60 -14l-70 -150z" />
    <glyph glyph-name="uni0338.case" 
d="M-567 36l539 671l49 -41l-539 -670z" />
    <glyph glyph-name="uni0337.case" 
d="M-317 331l283 120l18 -49l-282 -119z" />
    <glyph glyph-name="uni0336.case" 
d="M-603 553l4 55h592l-4 -55h-592z" />
    <glyph glyph-name="uni0335.case" 
d="M-510 322l4 57h319l-4 -57h-319z" />
    <glyph glyph-name="tildecomb.case" 
d="M-265 776q-29 0 -73 19q-47 17 -66 17q-28 0 -69 -32l-25 37q48 52 100 52q35 0 85 -22q37 -15 54 -15q27 0 67 33l25 -37q-48 -52 -98 -52z" />
    <glyph glyph-name="uni0308.i" 
d="M-287 618q-21 0 -33 13.5t-12 37.5q0 51 48 51q21 0 33 -13.5t12 -37.5q0 -51 -48 -51zM-130 618q-21 0 -33 13.5t-12 37.5q0 51 48 51q21 0 32.5 -13.5t11.5 -37.5q0 -51 -47 -51z" />
    <glyph glyph-name="uni0304.i" 
d="M-449 670h234l-1 -59h-234z" />
    </font>
</defs>
</svg>
