<?xml version="1.0" standalone="no"?>
<!DOCTYPE svg PUBLIC "-//W3C//DTD SVG 1.1//EN" "http://www.w3.org/Graphics/SVG/1.1/DTD/svg11.dtd" >
<svg xmlns="http://www.w3.org/2000/svg" xmlns:xlink="http://www.w3.org/1999/xlink" version="1.1">
<metadata>
Created by FontForge 20150824 at Tue Apr  5 12:47:19 2016
 By Everything Fonts
Copyright (c) 2015 by Schriftlabor. All rights reserved.
</metadata>
<defs>
<font id="SephoraSerifJune26Book" horiz-adv-x="0" >
  <font-face 
    font-family="SephoraSerifJune26Book"
    font-weight="400"
    font-stretch="normal"
    units-per-em="1000"
    panose-1="0 0 5 0 0 0 0 0 0 0"
    ascent="800"
    descent="-200"
    x-height="490"
    cap-height="700"
    bbox="-640 -272 1265 958"
    underline-thickness="50"
    underline-position="-150"
    unicode-range="U+0020-25CA"
  />
<missing-glyph horiz-adv-x="472" 
d="M387 734v-944h-299v944h299zM314 671h-155v-31h61v-35h-62v-31h156v31h-62v35h62v31zM252 549h-94v-98h156v32h-62v66zM220 517v-34h-31v34h31zM314 425h-156v-31h62v-35h-62v-31h94v66h62v31zM314 369h-31v-63h-125v-32h156v95zM314 254h-94v-53h32v21h31v-44h-94v76
h-31v-107h156v107zM314 90h-156v-106h156v106zM283 59v-44h-94v44h94zM314 -38h-156v-31h66l-66 -45v-31h156v31h-96l66 45h30v31z" />
    <glyph glyph-name=".notdef" horiz-adv-x="472" 
d="M387 734v-944h-299v944h299zM314 671h-155v-31h61v-35h-62v-31h156v31h-62v35h62v31zM252 549h-94v-98h156v32h-62v66zM220 517v-34h-31v34h31zM314 425h-156v-31h62v-35h-62v-31h94v66h62v31zM314 369h-31v-63h-125v-32h156v95zM314 254h-94v-53h32v21h31v-44h-94v76
h-31v-107h156v107zM314 90h-156v-106h156v106zM283 59v-44h-94v44h94zM314 -38h-156v-31h66l-66 -45v-31h156v31h-96l66 45h30v31z" />
    <glyph glyph-name=".null" 
 />
    <glyph glyph-name="nonmarkingreturn" horiz-adv-x="333" 
 />
    <glyph glyph-name="space" unicode=" " horiz-adv-x="196" 
 />
    <glyph glyph-name="exclam" unicode="!" horiz-adv-x="288" 
d="M140 211q-3 135 -23 271.5t-20 176.5q0 61 47 61t47 -61q0 -39 -20 -175t-23 -273h-8zM144 -6q-28 0 -45.5 17t-17.5 46t17.5 46t45.5 17t45.5 -17t17.5 -46t-17.5 -46t-45.5 -17z" />
    <glyph glyph-name="quotedbl" unicode="&#x22;" horiz-adv-x="415" 
d="M119 472l-17 248l68 4l-32 -248zM263 472l-18 248l68 4l-32 -248z" />
    <glyph glyph-name="numbersign" unicode="#" horiz-adv-x="724" 
d="M666 463h-118l-39 -222h126l-4 -21h-126l-39 -220h-78l39 220h-176l-39 -220h-78l39 220h-117l4 21h117l39 222h-125l4 21h125l38 216h78l-38 -216h176l38 216h78l-38 -216h118zM431 241l39 222h-176l-39 -222h176z" />
    <glyph glyph-name="dollar" unicode="$" horiz-adv-x="477" 
d="M438 211q0 -71 -53.5 -115.5t-139.5 -49.5v-65h-15v64h-7q-87 0 -135.5 42t-48.5 89q0 26 14.5 41.5t38.5 15.5q34 0 50 -28q-15 -12 -20.5 -36t0.5 -48.5t34 -43.5t74 -19v262q-35 17 -51 25t-44 26.5t-41 34t-24 40.5t-11 53q0 67 49.5 107.5t124.5 46.5v57h15v-56h7
q73 0 115.5 -29t42.5 -72q0 -23 -12.5 -36t-35.5 -13q-39 0 -51 28q14 16 16.5 40t-17.5 45.5t-65 23.5v-239q6 -3 36.5 -18t40 -20.5t33.5 -20t33.5 -25.5t23 -28t18.5 -36.5t5 -42.5zM129 543q0 -46 27 -76.5t77 -56.5v231q-51 -1 -77.5 -27.5t-26.5 -70.5zM245 58
q54 4 90.5 33.5t36.5 80.5q0 48 -32.5 78.5t-94.5 62.5v-255z" />
    <glyph glyph-name="percent" unicode="%" horiz-adv-x="802" 
d="M194 -9l-19 12l431 709l20 -12zM180 354q-72 0 -115 46t-43 123t44.5 123.5t117.5 46.5q72 0 114 -45t42 -120q0 -79 -43.5 -126.5t-116.5 -47.5zM190 366q80 0 80 138q0 87 -26.5 133t-72.5 46q-80 0 -80 -142q0 -84 26.5 -129.5t72.5 -45.5zM619 -13q-72 0 -115 46
t-43 123t44.5 123.5t118.5 46.5q71 0 113 -45t42 -120q0 -79 -43.5 -126.5t-116.5 -47.5zM629 -1q80 0 80 138q0 87 -26.5 133t-72.5 46q-80 0 -80 -142q0 -84 27 -129.5t72 -45.5z" />
    <glyph glyph-name="ampersand" unicode="&#x26;" horiz-adv-x="821" 
d="M773 92l8 -8q-39 -98 -117 -98q-76 0 -192 101q-74 -104 -197 -104q-98 0 -154 46.5t-56 126.5q0 138 175 214q-72 123 -72 198q0 63 48 106t128 43q72 0 118.5 -36t46.5 -101q0 -35 -14 -63.5t-42.5 -50.5t-55 -36.5t-68.5 -33.5q75 -125 177 -230q12 24 30 68.5
t30.5 71t31 55.5t43 43t55.5 14q61 0 61 -52q0 -40 -33 -52q-21 23 -55 23q-19 0 -36.5 -8t-29 -17.5t-25.5 -31.5t-21 -35t-22 -43.5t-21 -42.5q113 -111 179 -111q48 0 80 44zM336 702q-45 0 -66 -30t-21 -71q0 -70 73 -194q59 31 83 72t24 100t-24.5 91t-68.5 32zM316 22
q89 0 147 73q-126 113 -216 263q-43 -28 -69.5 -73t-26.5 -102q0 -73 42.5 -117t122.5 -44z" />
    <glyph glyph-name="quotesingle" unicode="'" horiz-adv-x="272" 
d="M119 472l-17 248l68 4l-32 -248z" />
    <glyph glyph-name="parenleft" unicode="(" horiz-adv-x="407" 
d="M316 -217q-105 70 -161 200.5t-55.5 269t57 272t160.5 210.5l5 -4q-71 -75 -100.5 -173t-29.5 -298q0 -205 29.5 -303.5t98.5 -167.5z" />
    <glyph glyph-name="parenright" unicode=")" horiz-adv-x="407" 
d="M91 734q105 -70 161 -200.5t55.5 -269t-57 -272t-160.5 -210.5l-5 4q71 75 100.5 173t29.5 298q0 206 -29 304t-99 167z" />
    <glyph glyph-name="asterisk" unicode="*" horiz-adv-x="416" 
d="M350 635q11 -35 -22 -47q-10 -3 -22 -3.5t-39 1.5t-49 2q18 -13 39.5 -27t32 -22t16.5 -16q9 -12 6 -26.5t-16 -24.5q-15 -10 -28.5 -7.5t-22.5 14.5q-6 8 -10.5 19t-11.5 38.5t-13 46.5q-6 -20 -13 -46t-11 -37.5t-10 -20.5q-9 -12 -23.5 -13.5t-28.5 7.5q-30 22 -10 51
q5 7 13 14t16 12t26 17t32 21q-21 0 -46.5 -1.5t-38 -1t-22.5 3.5q-33 12 -22 48q5 16 17.5 22.5t27.5 1.5q10 -3 19.5 -9.5t31.5 -24t37 -28.5q-7 21 -15.5 44t-12.5 35.5t-4 23.5q0 15 10.5 25t27.5 10t27.5 -10t10.5 -25q0 -8 -2.5 -18.5t-6 -20t-11.5 -30t-14 -37.5
q15 11 31 24l24 19.5t17.5 12.5t17.5 8q15 5 27.5 -2t17.5 -23z" />
    <glyph glyph-name="plus" unicode="+" horiz-adv-x="547" 
d="M453 365v-22h-184v-184h-22v184h-183v22h183v183h22v-183h184z" />
    <glyph glyph-name="comma" unicode="," horiz-adv-x="250" 
d="M121 114q66 0 66 -80q0 -102 -124 -169l-3 5q45 34 63 64t20 68q-13 -6 -28 -6q-27 0 -43 16t-16 41q0 26 17.5 43.5t47.5 17.5z" />
    <glyph glyph-name="hyphen" unicode="-" horiz-adv-x="362" 
d="M53 286l4 20h251l-4 -20h-251z" />
    <glyph glyph-name="period" unicode="." horiz-adv-x="279" 
d="M140 -6q-28 0 -45.5 17t-17.5 46t17.5 46t45.5 17t45.5 -17.5t17.5 -45.5t-17.5 -45.5t-45.5 -17.5z" />
    <glyph glyph-name="slash" unicode="/" horiz-adv-x="282" 
d="M2 -136l-22 5l300 860l22 -5z" />
    <glyph glyph-name="zero" unicode="0" horiz-adv-x="602" 
d="M301 -6q-118 0 -187.5 92.5t-69.5 257.5q0 168 72 264.5t192 96.5q118 0 184.5 -94t66.5 -258q0 -168 -69 -263.5t-189 -95.5zM318 9q141 0 141 300q0 186 -47 283.5t-126 97.5q-142 0 -142 -306q0 -184 47 -279.5t127 -95.5z" />
    <glyph glyph-name="one" unicode="1" horiz-adv-x="363" 
d="M235 86q0 -45 18 -61.5t67 -16.5v-8h-264v8q50 0 69 15t19 58v484q-46 -46 -111 -68l-2 8q48 25 85 68t78 127v-1l41 1v-614z" />
    <glyph glyph-name="two" unicode="2" horiz-adv-x="511" 
d="M450 116q31 -44 10 -83t-73 -39q-44 0 -90.5 22t-90.5 44t-82 22q-32 0 -53 -13q-8 -34 -8 -70h-11q0 58 16 105.5t42.5 80.5t58.5 62.5t64.5 57.5t59 59t43 75t16.5 98q0 66 -31.5 111t-88.5 45q-43 0 -66 -27.5t-22.5 -64t19.5 -68.5q-12 -30 -50 -30q-23 0 -37.5 14
t-14.5 38q0 63 51.5 107t131.5 44q95 0 149 -49t54 -129q0 -56 -22 -101t-57 -73t-78.5 -57t-83.5 -54t-76 -64.5t-52 -87.5q37 37 92 37q38 0 108 -22t110 -22q46 0 57 32h5z" />
    <glyph glyph-name="three" unicode="3" horiz-adv-x="521" 
d="M285 391q174 -29 174 -193q0 -91 -58 -147.5t-162 -56.5q-98 0 -147 45.5t-49 100.5q0 27 14.5 42.5t39.5 15.5q37 0 52 -28q-15 -20 -17 -57.5t25.5 -72t87.5 -34.5q119 0 119 164q0 88 -43 140t-129 48v9q76 21 112 61.5t36 114.5q0 71 -29 111.5t-85 40.5
q-38 0 -56 -23t-15 -53.5t22 -56.5q-15 -30 -51 -30q-23 0 -37 14t-14 39q0 50 50 85.5t127 35.5q82 0 132.5 -42t50.5 -108q0 -60 -39 -102.5t-111 -62.5z" />
    <glyph glyph-name="four" unicode="4" horiz-adv-x="511" 
d="M473 204h-84v-118q0 -45 15.5 -61.5t57.5 -16.5v-8h-245v8q47 0 64.5 15t17.5 58v123h-274v12q252 408 162 447q3 20 20.5 32t42.5 12q27 0 44 -16t17 -43q0 -53 -56.5 -147t-213.5 -285h258v136l84 62l6 -4v-194h84v-12z" />
    <glyph glyph-name="five" unicode="5" horiz-adv-x="510" 
d="M253 424q105 0 154.5 -54.5t49.5 -145.5q0 -115 -62 -172.5t-163 -57.5q-89 0 -137 40.5t-48 91.5q0 26 14.5 41t39.5 15q34 0 50 -29q-13 -13 -16 -37.5t4.5 -49t33.5 -43t66 -18.5q65 0 92 41.5t27 147.5q0 214 -138 214q-76 0 -121 -61l-7 5l21 346h11l-2 -37
q33 45 95 45q26 0 81.5 -19t82.5 -19t40.5 9.5t15.5 21.5h6q25 -45 6.5 -81t-66.5 -36q-34 0 -93 24.5t-89 24.5q-52 0 -83 -30l-12 -211q70 34 147 34z" />
    <glyph glyph-name="six" unicode="6" horiz-adv-x="578" 
d="M350 444q82 0 130 -55t48 -149q0 -113 -62.5 -179.5t-174.5 -66.5q-117 0 -175.5 92.5t-58.5 264.5q0 92 29 170.5t94 131.5t154 53q72 0 117 -33.5t45 -79.5q0 -25 -13.5 -38.5t-37.5 -13.5q-40 0 -53 28q13 15 16 36t-4 41t-30 33.5t-58 13.5q-85 0 -122.5 -76
t-37.5 -228q0 -60 1 -87q23 66 73.5 104t119.5 38zM306 9q62 0 95 46.5t33 129.5q0 218 -131 218q-68 0 -106.5 -46t-32.5 -137h-1q12 -107 45.5 -159t97.5 -52z" />
    <glyph glyph-name="seven" unicode="7" horiz-adv-x="463" 
d="M231 106q0 -52 30 -70q-12 -44 -66 -44q-32 0 -53 20.5t-21 67.5q0 52 24.5 108.5t62 109t76.5 103.5t74.5 110.5t49.5 111.5q-34 -45 -100 -45q-31 0 -96 18.5t-102 18.5q-49 0 -61 -27h-6q-28 51 -5.5 84.5t75.5 33.5q43 0 124 -38.5t117 -38.5q35 0 60 20q5 31 4 54
h11q1 -14 1 -33q0 -53 -20.5 -113.5t-50 -116t-58.5 -110.5t-49.5 -114t-20.5 -110z" />
    <glyph glyph-name="eight" unicode="8" horiz-adv-x="586" 
d="M345 404q44 -26 67 -42.5t54 -45t45 -62t14 -74.5q0 -83 -59.5 -134.5t-174.5 -51.5q-61 0 -111.5 15.5t-85.5 54t-35 95.5q0 70 50 121.5t129 78.5q-63 39 -97 80.5t-34 102.5q0 74 51 119t142 45q84 0 137.5 -38t53.5 -105q0 -104 -146 -159zM293 695q-48 0 -75 -29
t-27 -80q0 -39 22.5 -73.5t48.5 -54t73 -48.5q78 55 78 135q0 67 -33 108.5t-87 41.5zM306 6q63 0 97.5 33t34.5 93q0 19 -3 35.5t-11 32t-14 27t-21.5 26t-23 22t-28 21.5t-27.5 18.5t-31.5 19.5t-29.5 18q-47 -30 -76 -78.5t-29 -104.5q0 -80 45 -121.5t117 -41.5z" />
    <glyph glyph-name="nine" unicode="9" horiz-adv-x="585" 
d="M294 706q118 0 176 -92.5t58 -263.5q0 -93 -29 -171.5t-94 -131.5t-154 -53q-72 0 -117 33.5t-45 79.5q0 25 14 38.5t38 13.5q40 0 52 -28q-13 -15 -16 -36t4.5 -41t30.5 -33.5t58 -13.5q85 0 122.5 76t37.5 228q0 32 -2 88q-23 -67 -73 -104.5t-119 -37.5
q-82 0 -130 54.5t-48 148.5q0 113 62.5 179.5t173.5 66.5zM282 297q68 0 107 46t33 137h1q-12 107 -46 159t-97 52q-62 0 -95 -46.5t-33 -129.5q0 -218 130 -218z" />
    <glyph glyph-name="colon" unicode=":" horiz-adv-x="280" 
d="M140 364q-28 0 -45.5 17t-17.5 46t17.5 46t45.5 17t45.5 -17.5t17.5 -45.5t-17.5 -45.5t-45.5 -17.5zM140 -6q-28 0 -45.5 17t-17.5 46t17.5 46t45.5 17t45.5 -17.5t17.5 -45.5t-17.5 -45.5t-45.5 -17.5z" />
    <glyph glyph-name="semicolon" unicode=";" horiz-adv-x="280" 
d="M140 364q-28 0 -45.5 17t-17.5 46t17.5 46t45.5 17t45.5 -17.5t17.5 -45.5t-17.5 -45.5t-45.5 -17.5zM121 114q66 0 66 -80q0 -102 -124 -169l-3 5q45 34 63 64t20 68q-13 -6 -28 -6q-27 0 -43 16t-16 41q0 26 17.5 43.5t47.5 17.5z" />
    <glyph glyph-name="less" unicode="&#x3c;" horiz-adv-x="585" 
d="M521 578l-303 -218l303 -217l-6 -12l-383 222v15l383 220z" />
    <glyph glyph-name="equal" unicode="=" horiz-adv-x="547" 
d="M64 424h389v-22h-389v22zM64 305h389v-22h-389v22z" />
    <glyph glyph-name="greater" unicode="&#x3e;" horiz-adv-x="544" 
d="M83 589l383 -221v-15l-383 -222l-6 12l303 217l-303 218z" />
    <glyph glyph-name="question" unicode="?" horiz-adv-x="410" 
d="M197 709q80 0 129.5 -38.5t49.5 -117.5q0 -47 -17.5 -84t-43 -58.5t-54 -44t-51.5 -41t-34.5 -48.5t-4.5 -68h-9q-14 54 -7.5 85t28 63t44.5 56.5t41 66t18 89.5q0 58 -27 94t-81 36q-56 0 -71.5 -38.5t17.5 -66.5q-9 -40 -54 -40q-24 0 -38 14.5t-14 36.5
q0 47 51.5 75.5t127.5 28.5zM169 -6q-28 0 -45.5 17.5t-17.5 45.5t17.5 45.5t45.5 17.5q29 0 46 -17t17 -46t-17 -46t-46 -17z" />
    <glyph glyph-name="at" unicode="@" horiz-adv-x="1047" 
d="M576 -182q191 0 331 110l6 -8q-166 -141 -378 -141q-215 0 -341 114.5t-126 315.5q0 214 129.5 345t355.5 131q208 0 324 -110t116 -287q0 -126 -75 -208t-181 -82q-105 0 -114 95q-39 -94 -149 -94q-60 0 -93.5 27.5t-33.5 78.5q0 141 275 149v13q0 95 -24.5 141
t-79.5 46q-33 0 -50 -17t-15.5 -39.5t18.5 -39.5q-5 -14 -19 -23.5t-32 -9.5q-22 0 -34 11.5t-12 31.5q0 41 48 68.5t117 27.5q80 0 120 -44t40 -152v-167q0 -48 17 -66.5t61 -18.5q68 2 108 70t40 187q0 180 -104.5 288t-294.5 108q-185 0 -285.5 -117t-100.5 -312
q0 -200 117 -311t319 -111zM518 32q104 0 104 151v44q-104 19 -148.5 -5.5t-44.5 -87.5q0 -48 23.5 -75t65.5 -27z" />
    <glyph glyph-name="A" unicode="A" horiz-adv-x="693" 
d="M611 80q18 -45 34 -58.5t54 -13.5v-8h-260v8q54 0 71 15.5t3 53.5l-55 150h-312l-38 -97q-29 -74 -18.5 -98t71.5 -24v-8h-167v8q33 0 53.5 24t46.5 93l227 577l51 4zM151 238h303l-146 396z" />
    <glyph glyph-name="B" unicode="B" horiz-adv-x="548" 
d="M326 367q102 -8 151 -52t49 -133q0 -186 -276 -186q-25 0 -57 0.5t-66.5 2t-48.5 1.5h-52v8q40 0 55 15t15 58v533q0 45 -15 61.5t-57 16.5v8h58q22 0 85 2t99 2q224 0 224 -166q0 -142 -164 -171zM396 535q0 83 -35.5 121t-110.5 38q-20 0 -60 -7v-318h63l11 1h3
q68 3 98.5 43.5t30.5 121.5zM266 7q81 0 121.5 39.5t40.5 126.5q0 104 -41.5 145t-144.5 41h-52v-283q0 -38 15 -53.5t61 -15.5z" />
    <glyph glyph-name="C" unicode="C" horiz-adv-x="634" 
d="M344 -8q-136 0 -220.5 95.5t-84.5 253.5q0 159 94.5 263.5t256.5 104.5q88 0 145.5 -37t57.5 -94q0 -31 -21.5 -47t-47.5 -11t-38 28q17 17 17 48q0 43 -35.5 70.5t-94.5 27.5q-110 0 -174 -79.5t-64 -229.5q0 -164 66 -247.5t188 -83.5q58 0 106.5 20.5t102.5 69.5l5 -6
q-107 -146 -259 -146z" />
    <glyph glyph-name="D" unicode="D" horiz-adv-x="697" 
d="M289 704q369 2 369 -352q0 -86 -23 -151t-58.5 -103t-86 -62t-98 -32t-101.5 -8q-51 0 -111.5 2t-80.5 2h-73v8q40 0 55 15t15 58v533q0 45 -15 61.5t-57 16.5v8h62q8 0 84.5 2t118.5 2zM297 7q261 0 261 338q0 177 -68.5 262.5t-209.5 85.5q-32 0 -90 -8v-609
q0 -39 22 -54t85 -15z" />
    <glyph glyph-name="E" unicode="E" horiz-adv-x="534" 
d="M481 187l8 -1l-25 -186h-438v8q40 0 55 15t15 58v533q0 45 -15 61.5t-57 16.5v8h442l-1 -169h-8q-34 98 -66 128t-108 30h-93v-322h79q51 0 70.5 22.5t37.5 93.5h8v-242h-8q-18 72 -37.5 94t-70.5 22h-79v-346h80q86 0 127 34.5t84 141.5z" />
    <glyph glyph-name="F" unicode="F" horiz-adv-x="498" 
d="M454 700l2 -170h-8q-27 98 -52.5 128.5t-82.5 30.5h-123v-339h79q51 0 70.5 22t37.5 93h8v-243h-8q-18 72 -37.5 94t-70.5 22h-79v-252q0 -45 17.5 -61.5t66.5 -16.5v-8h-248v8q40 0 55 15t15 58v533q0 45 -16.5 61.5t-62.5 16.5v8h437z" />
    <glyph glyph-name="G" unicode="G" horiz-adv-x="691" 
d="M451 337h227v-8q-40 0 -55 -14.5t-15 -55.5v-237q-39 6 -117 -12t-130 -18q-144 0 -233 90t-89 254q0 172 96.5 272.5t263.5 100.5q95 0 155.5 -36t60.5 -92q0 -32 -20.5 -48.5t-46 -12t-39.5 27.5q17 20 17 47q0 40 -38.5 69.5t-107.5 29.5q-114 0 -176 -83.5
t-62 -249.5q0 -168 65 -259.5t188 -91.5q77 0 128 43v201q0 44 -15 59.5t-57 15.5v8z" />
    <glyph glyph-name="H" unicode="H" horiz-adv-x="730" 
d="M634 86q0 -45 15.5 -61.5t57.5 -16.5v-8h-237v8q40 0 55 15t15 58v264h-350v-259q0 -45 15.5 -61.5t57.5 -16.5v-8h-237v8q40 0 55 15t15 58v533q0 45 -15 61.5t-57 16.5v8h236v-8q-40 0 -55 -15t-15 -58v-263h350v258q0 45 -15 61.5t-57 16.5v8h236v-8q-40 0 -55 -15
t-15 -58v-533z" />
    <glyph glyph-name="I" unicode="I" horiz-adv-x="346" 
d="M56 0v8q40 0 55 15t15 58v533q0 45 -15 61.5t-57 16.5v8h236v-8q-40 0 -55 -15t-15 -58v-533q0 -45 15.5 -61.5t57.5 -16.5v-8h-237z" />
    <glyph glyph-name="J" unicode="J" horiz-adv-x="324" 
d="M17 -217q-61 0 -94 27t-33 65q0 26 15.5 42.5t39.5 16.5q43 0 56 -38q-16 -10 -22 -35t5 -46.5t38 -21.5q48 0 71.5 51.5t23.5 163.5v606q0 45 -15.5 61.5t-57.5 16.5v8h237v-8q-40 0 -55 -15t-15 -58v-565q0 -271 -194 -271z" />
    <glyph glyph-name="K" unicode="K" horiz-adv-x="652" 
d="M554 76q23 -41 43.5 -54.5t50.5 -13.5v-8h-239v8q44 0 57.5 14t-3.5 48l-164 285l-109 -146v-123q0 -45 15.5 -61.5t57.5 -16.5v-8h-237v8q40 0 55 15t15 58v533q0 45 -15 61.5t-57 16.5v8h236v-8q-40 0 -55 -15t-15 -58v-391l281 379q32 49 19.5 67t-65.5 18v8h173v-8
q-30 0 -52.5 -17.5t-64.5 -73.5l-128 -173z" />
    <glyph glyph-name="L" unicode="L" horiz-adv-x="492" 
d="M190 622v-556q0 -34 16.5 -44.5t67.5 -10.5q65 0 103.5 41t88.5 159h8l-29 -211h-419v8q40 0 55 14.5t15 55.5v539q0 44 -15 59.5t-57 15.5v8h236v-8q-40 0 -55 -14.5t-15 -55.5z" />
    <glyph glyph-name="M" unicode="M" horiz-adv-x="928" 
d="M833 85q9 -46 25 -61.5t57 -15.5v-8h-240v8q42 0 57.5 15.5t6.5 56.5l-105 515l-208 -595h-21l-223 599l-78 -479q-11 -68 3 -90t58 -22v-8h-152v8q40 0 54.5 19t25.5 88l81 499q7 44 -8 61t-58 17v8h136l213 -579l202 579h131v-8q-42 0 -57 -15.5t-7 -56.5z" />
    <glyph glyph-name="N" unicode="N" horiz-adv-x="647" 
d="M470 701h153v-8q-40 0 -55 -26.5t-15 -95.5v-571h-18l-429 620v-487q0 -65 16 -95t57 -30v-8h-153v8q39 0 54.5 28t15.5 92v486q0 45 -15 61.5t-57 16.5v8h128l391 -566v432q0 72 -15.5 99.5t-57.5 27.5v8z" />
    <glyph glyph-name="O" unicode="O" horiz-adv-x="776" 
d="M388 -13q-159 0 -254 98t-95 267q0 162 98 261.5t257 99.5q158 0 251 -98t93 -260q0 -171 -95 -269.5t-255 -98.5zM402 2q114 0 171.5 84t57.5 238q0 173 -71.5 273.5t-185.5 100.5q-111 0 -170 -86.5t-59 -240.5q0 -173 71 -271t186 -98z" />
    <glyph glyph-name="P" unicode="P" horiz-adv-x="559" 
d="M261 261q-51 0 -71 1v-176q0 -45 19 -61.5t71 -16.5v-8h-254v8q40 0 55 15t15 58v533q0 45 -15 61.5t-57 16.5v8h38q32 0 96.5 2t101.5 2q138 0 207.5 -55.5t69.5 -160.5q0 -111 -71.5 -169t-204.5 -58zM439 479q0 111 -46 163t-145 52q-26 0 -58 -8v-390q35 -25 79 -25
q84 0 127 50t43 158z" />
    <glyph glyph-name="Q" unicode="Q" horiz-adv-x="776" 
d="M1000 -163l3 -7q-78 -41 -156.5 -51t-145 10.5t-118 75.5t-75.5 139q-56 -17 -120 -17q-159 0 -254 98t-95 267q0 162 98 261.5t257 99.5q158 0 251 -98t93 -260q0 -133 -58 -223t-161 -125q75 -104 215 -156.5t266 -13.5zM145 371q0 -173 71 -271t186 -98
q114 0 171.5 84t57.5 238q0 173 -71.5 273.5t-185.5 100.5q-111 0 -170 -86.5t-59 -240.5z" />
    <glyph glyph-name="R" unicode="R" horiz-adv-x="635" 
d="M620 4v-7q-29 -5 -52.5 -5.5t-41 5t-31 11t-24 20t-17 24.5t-13.5 31.5t-10 34.5l-9 39q-7 32 -13 50.5t-20.5 46t-33.5 42t-52 26t-76 11.5h-37v-247q0 -45 15.5 -61.5t57.5 -16.5v-8h-237v8q40 0 55 15t15 58v533q0 45 -15 61.5t-57 16.5v8h42q26 0 93.5 2t103.5 2
q258 0 258 -194q0 -76 -50 -118.5t-156 -54.5q94 -8 141 -44t62 -112q1 -5 6 -28.5t7.5 -34t9 -31.5t13 -32.5t16 -24.5t22.5 -19t28 -7zM190 343h42q101 0 145 37t44 116q0 106 -43 152t-128 46q-20 0 -60 -9v-342z" />
    <glyph glyph-name="S" unicode="S" horiz-adv-x="492" 
d="M135 581q0 -40 17.5 -71.5t45.5 -53.5t62 -42t68.5 -41t62.5 -45.5t45.5 -61.5t17.5 -83q0 -86 -62.5 -138t-160.5 -52q-93 0 -142.5 42.5t-49.5 92.5q0 28 15 44.5t40 16.5q33 0 52 -30q-21 -17 -24 -53t27.5 -68t94.5 -32t103.5 32t39.5 93q0 53 -33 93.5t-80 68.5
t-94.5 57t-80.5 74t-33 104q0 81 58.5 130t148.5 49q70 0 113 -30.5t43 -75.5q0 -25 -14 -39t-38 -14q-40 0 -51 29q16 18 18.5 45t-20 50t-70.5 23q-59 0 -89 -31t-30 -83z" />
    <glyph glyph-name="T" unicode="T" horiz-adv-x="583" 
d="M558 700l2 -181h-8q-28 104 -53.5 138t-78.5 34h-81v-605q0 -45 15.5 -61.5t57.5 -16.5v-8h-237v8q40 0 55 15t15 58v610h-82q-53 0 -78 -33.5t-54 -138.5h-8l2 181h1h532z" />
    <glyph glyph-name="U" unicode="U" horiz-adv-x="711" 
d="M687 700v-8q-40 0 -55.5 -28.5t-15.5 -108.5v-307q0 -259 -259 -259q-132 0 -201.5 63t-69.5 186v376q0 45 -15 61.5t-57 16.5v8h236v-8q-40 0 -55 -15t-15 -58v-369q0 -123 45 -178.5t152 -55.5q228 0 228 242v292q0 83 -16 112.5t-60 29.5v8h158z" />
    <glyph glyph-name="V" unicode="V" horiz-adv-x="691" 
d="M520 700h176v-8q-35 0 -55.5 -28t-57.5 -124l-208 -540h-39l-252 620q-18 44 -35 58t-54 14v8h255v-8q-51 0 -66.5 -16t-1.5 -52l211 -541l176 454q34 95 23 125t-72 30v8z" />
    <glyph glyph-name="W" unicode="W" horiz-adv-x="1062" 
d="M879 700h187v-8q-33 0 -56 -31t-61 -127l-209 -534h-22l-184 484l-191 -484h-21l-213 558q-31 81 -54.5 107t-59.5 26v9h256v-9q-56 0 -67.5 -25t15.5 -102l172 -456l157 392l-21 58q-32 82 -55 108t-59 26v8h249v-8q-53 0 -63 -25.5t18 -102.5l171 -461l169 432
q38 96 27 126.5t-85 30.5v8z" />
    <glyph glyph-name="X" unicode="X" horiz-adv-x="677" 
d="M578 76q29 -43 46 -55.5t48 -12.5v-8h-248v8q97 0 55 62l-174 254l-153 -210q-42 -59 -33 -82.5t67 -23.5v-8h-176v8q29 1 55 23.5t73 87.5l160 216l-198 289q-29 43 -46 55.5t-49 12.5v8h246v-8q-97 0 -54 -62l170 -248l143 207q38 59 28.5 81t-67.5 22v8h175v-8
q-28 0 -53.5 -21.5t-69.5 -84.5l-149 -214z" />
    <glyph glyph-name="Y" unicode="Y" horiz-adv-x="654" 
d="M495 700h152v-8q-29 0 -51.5 -25t-66.5 -108l-144 -267v-209q0 -43 15.5 -59t59.5 -16v-8h-244v8q43 0 59 14.5t16 55.5v200l-189 346q-23 41 -43 54.5t-53 13.5v8h253v-8q-45 0 -59 -13.5t5 -52.5l174 -320l136 252q43 86 37 110t-57 24v8z" />
    <glyph glyph-name="Z" unicode="Z" horiz-adv-x="558" 
d="M61 700h454l3 -18l-391 -671h186q88 0 127.5 40t67.5 152h8l8 -203h-491l-3 17l390 672h-186q-68 0 -100 -33.5t-58 -131.5h-8z" />
    <glyph glyph-name="bracketleft" unicode="[" horiz-adv-x="386" 
d="M294 707h-112v-890h112l-4 -13h-188v916h196z" />
    <glyph glyph-name="backslash" unicode="\" horiz-adv-x="280" 
d="M312 -136l-300 860l22 5l300 -860z" />
    <glyph glyph-name="bracketright" unicode="]" horiz-adv-x="386" 
d="M96 720h188v-916h-196l4 13h112v890h-112z" />
    <glyph glyph-name="asciicircum" unicode="^" horiz-adv-x="600" 
d="M488 253l-207 352l-202 -352h-9l203 436h18l206 -436h-9z" />
    <glyph glyph-name="underscore" unicode="_" horiz-adv-x="579" 
d="M47 0h486l-1 -21h-486z" />
    <glyph glyph-name="grave" unicode="`" horiz-adv-x="461" 
d="M136 711l161 -138l-6 -8l-204 95l-1 4z" />
    <glyph glyph-name="a" unicode="a" horiz-adv-x="508" 
d="M490 45l4 -5q-40 -47 -84 -47q-72 0 -72 77v25q-43 -101 -163 -101q-66 0 -102.5 29.5t-36.5 85.5q0 152 302 160v14q0 103 -27.5 153t-88.5 50q-35 0 -53.5 -18.5t-17 -42.5t19.5 -42q-5 -17 -20 -27t-35 -10q-24 0 -37.5 12.5t-13.5 33.5q0 45 52.5 74.5t125.5 29.5
q89 0 134.5 -47t45.5 -164v-204q0 -28 7 -39t23 -11q20 0 37 14zM224 30q114 0 114 162v49q-114 20 -163.5 -7t-49.5 -95q0 -51 26.5 -80t72.5 -29z" />
    <glyph glyph-name="b" unicode="b" horiz-adv-x="607" 
d="M375 496q83 0 132 -62.5t49 -173.5q0 -124 -64.5 -195t-182.5 -71q-109 0 -209 54v448q0 46 -0.5 71.5t-3.5 48t-7 32t-13 15.5t-19.5 5t-28.5 -5l-2 7l158 51l4 -3v-215v-174q20 78 69 122.5t118 44.5zM331 11q68 0 99 49.5t31 157.5q0 232 -134 232q-64 0 -101.5 -55.5
t-37.5 -162.5v-128q63 -93 143 -93z" />
    <glyph glyph-name="c" unicode="c" horiz-adv-x="497" 
d="M296 496q66 0 104.5 -25.5t38.5 -63.5q0 -24 -14 -38t-38 -14q-40 0 -52 33q19 21 19 48q0 22 -17.5 35.5t-52.5 13.5q-67 0 -107 -51t-40 -153q0 -111 46.5 -171t132.5 -60q82 0 143 54l5 -5q-80 -105 -195 -105q-101 0 -159.5 66t-58.5 175q0 117 67 189t178 72z" />
    <glyph glyph-name="d" unicode="d" horiz-adv-x="612" 
d="M507 86q0 -45 15.5 -61.5t57.5 -16.5v-8h-90q-36 0 -63 -3l-4 4l-3 163q-20 -79 -69 -124.5t-118 -45.5q-83 0 -132.5 63t-49.5 173q0 124 64.5 195t177.5 71q66 0 126 -24v41q0 109 -12 135t-70 12l-3 7l170 54l3 -3v-632zM280 40q65 0 102 55.5t37 162.5v130
q-61 92 -143 92q-68 0 -99 -50t-31 -158q0 -232 134 -232z" />
    <glyph glyph-name="e" unicode="e" horiz-adv-x="511" 
d="M465 105l4 -5q-80 -106 -198 -106q-104 0 -162 66t-58 174q0 116 65 189t175 73q75 0 121 -31.5t46 -91.5q0 -71 -87 -108t-232 -26q8 -94 55.5 -143t128.5 -49q79 0 142 58zM267 482q-61 0 -95.5 -52t-34.5 -149v-15q236 -52 236 108q0 49 -29.5 78.5t-76.5 29.5z" />
    <glyph glyph-name="f" unicode="f" horiz-adv-x="352" 
d="M350 598q-37 0 -49 31q21 21 14.5 51.5t-43.5 30.5q-40 0 -56 -35.5t-16 -137.5v-56l148 10l3 -2l-9 -34h-142v-370q0 -45 18 -61.5t68 -16.5v-8h-244v8q40 0 55 15t15 58v375h-86v11l86 7v7q0 114 47 178.5t131 64.5q49 0 78 -24t29 -55q0 -20 -13 -33.5t-34 -13.5z" />
    <glyph glyph-name="g" unicode="g" horiz-adv-x="527" 
d="M531 499q0 -25 -16.5 -38t-37.5 -9.5t-32 20.5q5 10 5 23q0 21 -24 17q-28 -5 -55 -40q76 -43 76 -131q0 -77 -55.5 -123.5t-148.5 -46.5q-40 0 -76 11q-29 -24 -29 -45q0 -25 38 -36t92.5 -15t109 -12t92.5 -38t38 -84q0 -77 -74.5 -122.5t-203.5 -45.5q-96 0 -150 27
t-54 77q0 81 142 133q-89 17 -89 78q0 53 79 86q-95 35 -95 138q0 79 55 126t148 47q53 0 96 -19q42 73 111 73q26 0 42 -14t16 -37zM266 184q97 0 97 132q0 78 -31.5 123t-88.5 45q-97 0 -97 -134q0 -77 31.5 -121.5t88.5 -44.5zM433 -90q0 30 -15 50t-45 29.5t-56.5 14
t-69.5 8t-65 7.5q-86 -48 -86 -114q0 -52 45 -80t123 -28q80 0 124.5 30t44.5 83z" />
    <glyph glyph-name="h" unicode="h" horiz-adv-x="633" 
d="M531 86q0 -45 15.5 -61.5t57.5 -16.5v-8h-231v8q40 0 55 15t15 58v205q0 93 -24 129.5t-81 36.5q-70 0 -110 -58.5t-40 -174.5v-133q0 -45 15.5 -61.5t57.5 -16.5v-8h-231v8q40 0 55 15t15 58v449q0 100 -13 122.5t-59 10.5l-2 7l158 51l4 -3v-215v-179q23 84 77 129
t126 45q140 0 140 -182v-230z" />
    <glyph glyph-name="i" unicode="i" horiz-adv-x="322" 
d="M160 579q-26 0 -40.5 14.5t-14.5 40.5q0 27 16 42.5t44 15.5q26 0 41 -14.5t15 -40.5q0 -27 -16.5 -42.5t-44.5 -15.5zM119 81v216q0 106 -12 131.5t-60 12.5l-2 8l158 51l4 -3v-216v-195q0 -45 15.5 -61.5t57.5 -16.5v-8h-231v8q40 0 55 15t15 58z" />
    <glyph glyph-name="j" unicode="j" horiz-adv-x="270" 
d="M134 579q-26 0 -40.5 14.5t-14.5 40.5q0 27 16 42.5t44 15.5q26 0 41 -14.5t15 -40.5q0 -27 -16.5 -42.5t-44.5 -15.5zM106 295q0 97 -13 127.5t-64 18.5l-3 8l164 51l4 -3v-451q0 -132 -42 -197t-130 -65q-49 0 -82.5 23.5t-33.5 61.5q0 24 15 39.5t38 15.5q38 0 52 -32
q-15 -13 -20 -36t6 -42t38 -19q39 0 55 42t16 150v308z" />
    <glyph glyph-name="k" unicode="k" horiz-adv-x="568" 
d="M468 76q22 -39 41.5 -53.5t53.5 -14.5v-8h-237v8q44 0 57.5 14t-3.5 48l-104 187l-87 -99v-72q0 -45 15.5 -61.5t57.5 -16.5v-8h-231v8q40 0 55 15t15 58v449q0 70 -5 98t-21 37t-45 -2l-3 7l159 51l3 -3v-215v-328l200 231q32 36 18.5 56t-69.5 20v8h190v-8
q-34 0 -60.5 -17.5t-65.5 -62.5l-72 -83z" />
    <glyph glyph-name="l" unicode="l" horiz-adv-x="292" 
d="M99 530q0 100 -13 122.5t-59 10.5l-2 7l158 51l4 -3v-215v-417q0 -45 15.5 -61.5t57.5 -16.5v-8h-231v8q40 0 55 15t15 58v449z" />
    <glyph glyph-name="m" unicode="m" horiz-adv-x="945" 
d="M842 86q0 -45 15.5 -61.5t57.5 -16.5v-8h-226v8q38 0 51.5 15t13.5 58v213q0 87 -21 122t-72 35q-67 0 -104 -58.5t-37 -173.5v-133q0 -45 15 -61.5t57 -16.5v-8h-225v8q37 0 51 15t14 58v213q0 87 -21.5 122t-72.5 35q-66 0 -103.5 -59t-37.5 -173v-133
q0 -45 15.5 -61.5t57.5 -16.5v-8h-231v8q40 0 55 15t15 58v214q0 107 -12.5 133t-59.5 13l-2 8l158 51l4 -3v-171q21 83 71.5 128t120.5 45q67 0 98 -41.5t33 -130.5q21 83 71.5 127.5t120.5 44.5q67 0 98.5 -42.5t31.5 -134.5v-236z" />
    <glyph glyph-name="n" unicode="n" horiz-adv-x="642" 
d="M540 86q0 -45 15.5 -61.5t57.5 -16.5v-8h-231v8q40 0 55 15t15 58v205q0 93 -23 129.5t-79 36.5q-73 0 -113 -58t-40 -175v-133q0 -45 15.5 -61.5t57.5 -16.5v-8h-231v8q40 0 55 15t15 58v214q0 107 -12.5 133t-59.5 13l-2 8l158 51l4 -3v-173q22 84 76.5 129t126.5 45
q140 0 140 -182v-230z" />
    <glyph glyph-name="o" unicode="o" horiz-adv-x="598" 
d="M286 -6q-109 0 -172 64.5t-63 172.5q0 119 72.5 192t188.5 73q111 0 173 -67.5t62 -174.5q0 -118 -73 -189t-188 -71zM316 10q64 0 99 52t35 154q0 118 -44.5 190.5t-121.5 72.5q-69 0 -102.5 -50.5t-33.5 -157.5q0 -117 45.5 -189t122.5 -72z" />
    <glyph glyph-name="p" unicode="p" horiz-adv-x="616" 
d="M383 496q83 0 132.5 -62.5t49.5 -173.5q0 -124 -64.5 -195t-177.5 -71q-65 0 -127 24v-142q0 -45 17.5 -61.5t65.5 -16.5v-8h-241v8q40 0 55 15t15 58v424q0 110 -12 134.5t-59 11.5l-2 8l157 51l4 -3v-168q20 78 69 122.5t118 44.5zM340 12q68 0 98.5 49.5t30.5 156.5
q0 232 -133 232q-65 0 -102.5 -55.5t-37.5 -162.5v-131q62 -89 144 -89z" />
    <glyph glyph-name="q" unicode="q" horiz-adv-x="584" 
d="M507 -124q0 -45 15.5 -61.5t57.5 -16.5v-8h-249v8q51 0 69.5 15t18.5 58v290q-20 -77 -69 -122t-117 -45q-83 0 -132.5 62.5t-49.5 173.5q0 123 64.5 194.5t177.5 71.5q85 0 175 -46l36 6l3 -3v-577zM280 40q65 0 102 55.5t37 162.5v130q-62 91 -143 91q-68 0 -99 -50
t-31 -157q0 -232 134 -232z" />
    <glyph glyph-name="r" unicode="r" horiz-adv-x="377" 
d="M319 496q31 0 55 -10l-22 -95q-84 47 -123.5 -8t-39.5 -211v-86q0 -45 19.5 -61.5t71.5 -16.5v-8h-249v8q40 0 55 15t15 58v214q0 107 -12.5 133t-61.5 13l-3 8l159 51l4 -3q2 -160 2 -215q13 113 43.5 163.5t86.5 50.5z" />
    <glyph glyph-name="s" unicode="s" horiz-adv-x="422" 
d="M121 402q0 -38 26.5 -63t64.5 -40t75.5 -31.5t64 -47t26.5 -76.5q0 -67 -50 -108.5t-131 -41.5q-66 0 -109.5 27.5t-43.5 64.5q0 20 13 33t34 13q34 0 46 -26q-16 -15 -18 -38.5t19.5 -43t66.5 -19.5q48 0 78 22.5t30 66.5q0 39 -25.5 65.5t-61.5 41.5t-72.5 31t-62 47
t-25.5 77q0 62 46 101t115 39q57 0 94.5 -26t37.5 -59q0 -18 -12 -28.5t-32 -10.5q-33 0 -42 25q14 14 14.5 34.5t-18 37.5t-55.5 17q-43 0 -68 -23t-25 -61z" />
    <glyph glyph-name="t" unicode="t" horiz-adv-x="375" 
d="M365 82l5 -6q-72 -86 -147 -86q-57 0 -87.5 34t-30.5 97v335h-80v11l80 7v91q49 10 84 35l4 -2v-117l158 11l3 -2l-9 -34h-152v-298q0 -66 18.5 -94t59.5 -28q45 0 94 46z" />
    <glyph glyph-name="u" unicode="u" horiz-adv-x="618" 
d="M522 86q0 -45 14 -61.5t52 -16.5v-8h-79q-39 0 -69 -3l-4 4l-2 165q-22 -81 -73.5 -126.5t-120.5 -45.5q-75 0 -110.5 42t-35.5 130v152q0 89 -12.5 111.5t-54.5 11.5l-2 7l153 51l4 -4v-299q0 -88 22.5 -123t77.5 -35q74 0 113 58.5t39 169.5v30q0 103 -13 129t-59 13
l-2 7l158 54l4 -4v-409z" />
    <glyph glyph-name="v" unicode="v" horiz-adv-x="533" 
d="M354 490h182v-8q-31 0 -49.5 -24.5t-56.5 -110.5l-152 -349h-12l-155 350q-36 81 -58.5 107.5t-55.5 26.5v8h253v-8q-37 0 -54.5 -10t-17.5 -38.5t23 -79.5l110 -254l107 248q30 73 15.5 103.5t-79.5 30.5v8z" />
    <glyph glyph-name="w" unicode="w" horiz-adv-x="833" 
d="M654 490h182v-8q-31 0 -49.5 -24.5t-56.5 -110.5l-152 -349h-12l-144 325l-142 -325h-13l-156 350q-37 82 -59 108t-55 26v8h249v-8q-57 0 -67 -25t22 -103l111 -259l104 241l-5 12q-36 81 -58.5 107.5t-55.5 26.5v8h253v-8q-37 0 -54.5 -10t-17.5 -38.5t23 -79.5
l110 -253l107 247q31 72 16 103t-80 31v8z" />
    <glyph glyph-name="x" unicode="x" horiz-adv-x="513" 
d="M419 76q27 -40 46 -54t48 -14v-8h-239v8q45 0 60 15t-5 47l-100 151l-94 -130q-31 -46 -20 -64.5t62 -18.5v-8h-170v8q30 1 55.5 19t62.5 69l97 135l-122 183q-26 40 -45 54t-49 14v8h238v-8q-46 0 -61 -15t5 -47l94 -139l86 123q28 44 15.5 61t-64.5 17v8h169v-8
q-29 0 -52 -16.5t-58 -66.5l-90 -127z" />
    <glyph glyph-name="y" unicode="y" horiz-adv-x="530" 
d="M340 490h182v-8q-31 0 -50 -25t-56 -110l-152 -349l-22 -52q-36 -83 -70 -122t-90 -39q-43 0 -70 23.5t-27 61.5q0 25 16 40t38 15q37 0 51 -32q-24 -23 -20.5 -56.5t35.5 -33.5q64 0 125 146l21 49l-155 350q-35 81 -57.5 107.5t-55.5 26.5v8h253v-8q-37 0 -54.5 -10
t-17.5 -38.5t23 -79.5l110 -253l107 247q31 72 16 103t-80 31v8z" />
    <glyph glyph-name="z" unicode="z" horiz-adv-x="451" 
d="M403 159l7 -159h-369l-5 19l32 -9h9l-41 9l287 460h-140q-46 0 -68.5 -28t-36.5 -102h-6l-7 141h342l1 -19l-32 8h-5l37 -8l-285 -461h144q61 0 88.5 30t41.5 119h6z" />
    <glyph glyph-name="braceleft" unicode="{" horiz-adv-x="402" 
d="M228 -80q0 -68 13 -92.5t46 -24.5h41l-4 -13h-76q-56 0 -81 33t-25 104v218q0 115 -73 115h-39l4 13h40q68 0 68 140v135q0 89 27 130.5t87 41.5h72l-4 -12h-40q-33 0 -44.5 -32t-11.5 -121v-134q0 -127 -72 -146q72 -17 72 -135v-220z" />
    <glyph glyph-name="bar" unicode="|" horiz-adv-x="236" 
d="M123 818v-1090h-9v1090h9z" />
    <glyph glyph-name="braceright" unicode="}" horiz-adv-x="402" 
d="M333 251h39l-4 -13h-40q-68 0 -68 -140v-135q0 -89 -27 -130.5t-87 -41.5h-72l4 12h40q33 0 44.5 31.5t11.5 121.5v134q0 126 71 146q-71 19 -71 135v220q0 68 -13 92.5t-46 24.5h-41l4 13h76q56 0 81 -33t25 -104v-218q0 -115 73 -115z" />
    <glyph glyph-name="asciitilde" unicode="~" horiz-adv-x="545" 
d="M78 292q-11 63 13.5 95.5t74.5 32.5q42 0 116.5 -31.5t106.5 -31.5q29 0 51 14.5t25 45.5l9 -1q10 -66 -14.5 -96t-72.5 -30q-41 0 -112.5 31.5t-105.5 31.5q-76 0 -82 -62z" />
    <glyph glyph-name="uni00A0" unicode="&#xa0;" horiz-adv-x="239" 
 />
    <glyph glyph-name="exclamdown" unicode="&#xa1;" horiz-adv-x="283" 
d="M139 516q29 0 46 -17t17 -46t-17 -46t-46 -17t-46 17t-17 46t17 46t46 17zM143 299q3 -135 23 -271.5t20 -176.5q0 -60 -47 -60t-47 60q0 39 20 175.5t23 272.5h8z" />
    <glyph glyph-name="cent" unicode="&#xa2;" horiz-adv-x="537" 
d="M464 99q-73 -98 -180 -105l3 -48l-12 -41l-5 74l5 15h-6q-101 0 -159.5 66t-58.5 175q0 110 59.5 181t160.5 79v94l16 -1v-92h9q66 0 104.5 -25.5t38.5 -63.5q0 -24 -14 -38t-38 -14q-40 0 -52 33q19 21 19 48q0 22 -17.5 35.5t-52.5 13.5q-67 0 -107 -51t-40 -153
q0 -111 46.5 -171t132.5 -60q82 0 143 54z" />
    <glyph glyph-name="sterling" unicode="&#xa3;" horiz-adv-x="495" 
d="M247 11q80 0 117 36.5t91 163.5h8l-29 -211h-404v8q111 0 111 193q0 31 -6 83h-89v12l86 6q-4 25 -12 66t-13 73t-5 61q1 94 58.5 148.5t146.5 54.5q73 0 116 -30t43 -74q0 -25 -13.5 -39t-37.5 -14q-41 0 -52 29q16 18 19 44.5t-19.5 49.5t-70.5 23q-109 0 -109 -157
q0 -38 5.5 -75.5t16 -84.5t14.5 -69l178 13l3 -3l-9 -34h-168q5 -35 5 -67q0 -62 -25 -116t-72 -83q43 -7 116 -7z" />
    <glyph glyph-name="currency" unicode="&#xa4;" horiz-adv-x="600" 
d="M516 98l-70 81q-50 -42 -121 -42q-76 0 -121 39l-68 -78l-41 39l72 74q-50 63 -50 144q0 39 13.5 78t37.5 64l-72 72l40 39l68 -79q48 43 121 43q78 0 124 -43l68 79l39 -39l-72 -72q23 -24 37 -63.5t14 -78.5q0 -37 -15 -77t-38 -66l75 -75zM325 511q-59 0 -99.5 -43
t-40.5 -113q0 -71 40 -114t101 -43q59 0 100.5 43.5t41.5 113.5q0 68 -41 112t-102 44z" />
    <glyph glyph-name="yen" unicode="&#xa5;" horiz-adv-x="625" 
d="M474 700h152v-8q-30 0 -53.5 -25.5t-64.5 -107.5l-131 -254l128 8l-3 -14l-127 -21h-5v-67l112 7l-3 -14l-109 -17v-104q0 -43 16 -59t60 -16v-8h-245v8q44 0 60 14.5t16 55.5v109l-128 2l118 15l10 1v73l-1 1l-127 2l117 17l-172 326q-22 41 -42 54.5t-53 13.5v8h253v-8
q-46 0 -59 -13t5 -53l167 -320l129 252q41 86 35.5 110t-55.5 24v8z" />
    <glyph glyph-name="brokenbar" unicode="&#xa6;" horiz-adv-x="289" 
d="M172 736v-381h-54v381h54zM172 190v-380h-54v380h54z" />
    <glyph glyph-name="section" unicode="&#xa7;" horiz-adv-x="619" 
d="M528 315q0 -76 -105 -125q70 -46 70 -109q0 -66 -60 -109t-154 -43q-87 0 -137.5 36t-50.5 80q0 24 14 40t39 16q33 0 50 -30q-11 -9 -16 -25t-0.5 -34t16.5 -34t39 -26.5t63 -10.5q58 0 94.5 27t36.5 75q0 41 -37.5 71t-90.5 50t-106.5 41t-91 55.5t-37.5 81.5
q0 83 114 124q-61 44 -61 109q0 66 56.5 105t143.5 39q72 0 114 -26t42 -64q0 -21 -12.5 -35t-35.5 -14q-38 0 -51 30q17 17 18 39t-21.5 40.5t-68.5 18.5q-59 0 -87.5 -28t-28.5 -71t35 -73.5t85.5 -48.5t101 -37.5t85.5 -53t35 -81.5zM415 195q46 26 46 86q0 34 -30 61
t-68.5 41t-92 35.5t-83.5 41.5q-56 -27 -56 -78q0 -35 31 -63.5t70 -44t95.5 -38t87.5 -41.5z" />
    <glyph glyph-name="dieresis" unicode="&#xa8;" horiz-adv-x="460" 
d="M108 580q-24 0 -37.5 14.5t-13.5 39.5q0 54 56 54q24 0 37.5 -14.5t13.5 -39.5q0 -54 -56 -54zM308 580q-24 0 -37.5 14.5t-13.5 39.5q0 54 56 54q24 0 37.5 -14.5t13.5 -39.5q0 -54 -56 -54z" />
    <glyph glyph-name="copyright" unicode="&#xa9;" horiz-adv-x="1003" 
d="M498 -61q-185 0 -301.5 116t-116.5 290t117.5 294.5t304.5 120.5q185 0 303 -116t118 -289q0 -174 -119 -295t-306 -121zM509 -45q163 0 268.5 112t105.5 277q0 171 -111 285.5t-280 114.5q-163 0 -267 -110.5t-104 -276.5q0 -172 110 -287t278 -115zM490 142
q-81 0 -129 55t-48 146q0 104 60 168.5t161 64.5q62 0 97.5 -24.5t35.5 -60.5q0 -22 -13.5 -35t-35.5 -13q-39 0 -49 31q17 19 17 45q0 20 -16.5 33t-47.5 13q-59 0 -95 -45.5t-36 -134.5q0 -92 38.5 -139.5t110.5 -47.5q75 0 127 48l5 -4q-72 -100 -182 -100z" />
    <glyph glyph-name="guillemotleft" unicode="&#xab;" horiz-adv-x="465" 
d="M297 437l-110 -180l110 -182l-8 -8l-191 188l191 189zM417 404l-88 -147l86 -150l-8 -7l-160 157l162 155z" />
    <glyph glyph-name="logicalnot" unicode="&#xac;" horiz-adv-x="529" 
d="M459 365v-193h-22v171h-367v22h389z" />
    <glyph glyph-name="registered" unicode="&#xae;" horiz-adv-x="584" 
d="M293 221q-106 0 -175 69.5t-69 177.5q0 109 70 180.5t177 71.5q106 0 175.5 -70t69.5 -177q0 -110 -70 -181t-178 -71zM295 240q97 0 160 65.5t63 166.5q0 100 -63 164.5t-160 64.5t-160 -66t-63 -167q0 -99 63 -163.5t160 -64.5zM280 612q92 0 92 -68q0 -60 -72 -67
q62 -7 72 -58q1 -4 3.5 -15t4.5 -18t6 -15.5t9.5 -13t13.5 -5.5v-3q-36 -5 -50 10t-23 51q-4 16 -7 23.5t-10.5 19t-20 16.5t-31.5 5h-10v-91q0 -16 6 -22t23 -6v-5h-89v5q15 0 20.5 5t5.5 21v197q0 16 -5.5 22t-21.5 6v5h16q9 0 32.5 0.5t35.5 0.5zM257 481h11q36 0 51 14
t15 46q0 34 -13 49t-41 15q-10 0 -23 -3v-121z" />
    <glyph glyph-name="macron" unicode="&#xaf;" horiz-adv-x="460" 
d="M58 641h304v-29h-304v29z" />
    <glyph glyph-name="degree" unicode="&#xb0;" horiz-adv-x="428" 
d="M184 419q-60 0 -102 37.5t-42 100.5q0 61 41.5 100.5t103.5 39.5q63 0 103.5 -40.5t40.5 -99.5q0 -63 -41.5 -100.5t-103.5 -37.5zM191 433q36 0 57 32.5t21 87.5q0 59 -24 94.5t-67 35.5q-37 0 -58.5 -32.5t-21.5 -88.5q0 -59 25 -94t68 -35z" />
    <glyph glyph-name="plusminus" unicode="&#xb1;" horiz-adv-x="600" 
d="M266 404h163v-20h-163v-164h-20v164h-163v20h163v163h20v-163zM83 134v20h346v-20h-346z" />
    <glyph glyph-name="acute" unicode="&#xb4;" horiz-adv-x="460" 
d="M290 652l-189 -93l-5 8l169 151h4z" />
    <glyph glyph-name="paragraph" unicode="&#xb6;" horiz-adv-x="502" 
d="M317 0v279h-72q-35 0 -69.5 12.5t-64.5 36.5t-48.5 66.5t-18.5 96.5q0 97 65 153t195 56h22h136v-8q-40 0 -55 -15t-15 -58v-619h-11v688h-53v-688h-11z" />
    <glyph glyph-name="periodcentered" unicode="&#xb7;" horiz-adv-x="279" 
d="M140 274q-28 0 -45.5 17t-17.5 46t17.5 46t45.5 17t45.5 -17.5t17.5 -45.5t-17.5 -45.5t-45.5 -17.5z" />
    <glyph glyph-name="cedilla" unicode="&#xb8;" horiz-adv-x="460" 
d="M164 -63q58 7 86 -13.5t28 -56.5q0 -37 -26 -60t-63 -23q-51 0 -86 50l4 8q33 -15 59 -15q49 0 49 44q0 52 -84 47l-5 7l28 75h21z" />
    <glyph glyph-name="guillemotright" unicode="&#xbb;" horiz-adv-x="444" 
d="M207 449l191 -188l-191 -189l-8 7l110 180l-110 182zM89 416l160 -156l-162 -156l-8 8l88 146l-86 151z" />
    <glyph glyph-name="questiondown" unicode="&#xbf;" horiz-adv-x="410" 
d="M241 514q28 0 45.5 -17.5t17.5 -45.5t-17.5 -45.5t-45.5 -17.5q-29 0 -46 17t-17 46t17 46t46 17zM213 -201q-80 0 -129.5 38.5t-49.5 117.5q0 47 17.5 84t43 58.5t54 44t51.5 41t34.5 48.5t4.5 68h9q14 -54 7.5 -85t-28 -63t-44.5 -56.5t-41 -66t-18 -89.5q0 -58 27 -94
t81 -36q56 0 71.5 38.5t-17.5 66.5q9 40 54 40q24 0 38 -14.5t14 -36.5q0 -47 -51.5 -75.5t-127.5 -28.5z" />
    <glyph glyph-name="Agrave" unicode="&#xc0;" horiz-adv-x="693" 
d="M434 775l-204 95l-1 4l50 47l161 -138zM611 80q18 -45 34 -58.5t54 -13.5v-8h-260v8q54 0 71 15.5t3 53.5l-55 150h-312l-38 -97q-29 -74 -18.5 -98t71.5 -24v-8h-167v8q33 0 53.5 24t46.5 93l227 577l51 4zM151 238h303l-146 396z" />
    <glyph glyph-name="Aacute" unicode="&#xc1;" horiz-adv-x="693" 
d="M471 862l-189 -93l-5 8l169 151h4zM611 80q18 -45 34 -58.5t54 -13.5v-8h-260v8q54 0 71 15.5t3 53.5l-55 150h-312l-38 -97q-29 -74 -18.5 -98t71.5 -24v-8h-167v8q33 0 53.5 24t46.5 93l227 577l51 4zM151 238h303l-146 396z" />
    <glyph glyph-name="Acircumflex" unicode="&#xc2;" horiz-adv-x="693" 
d="M348 854l-139 -66l-5 7l143 140l144 -140l-5 -7zM611 80q18 -45 34 -58.5t54 -13.5v-8h-260v8q54 0 71 15.5t3 53.5l-55 150h-312l-38 -97q-29 -74 -18.5 -98t71.5 -24v-8h-167v8q33 0 53.5 24t46.5 93l227 577l51 4zM151 238h303l-146 396z" />
    <glyph glyph-name="Atilde" unicode="&#xc3;" horiz-adv-x="693" 
d="M267 832q-60 0 -70 -39l-7 2q6 48 32 72t65 24q26 0 72 -16t71 -16q53 0 64 37l7 -2q-4 -49 -28 -71.5t-60 -22.5q-27 0 -72 16t-74 16zM611 80q18 -45 34 -58.5t54 -13.5v-8h-260v8q54 0 71 15.5t3 53.5l-55 150h-312l-38 -97q-29 -74 -18.5 -98t71.5 -24v-8h-167v8
q33 0 53.5 24t46.5 93l227 577l51 4zM151 238h303l-146 396z" />
    <glyph glyph-name="Adieresis" unicode="&#xc4;" horiz-adv-x="693" 
d="M243 790q-24 0 -37.5 14.5t-13.5 38.5q0 55 56 55q24 0 37.5 -14.5t13.5 -40.5q0 -25 -14.5 -39t-41.5 -14zM443 790q-24 0 -37.5 14.5t-13.5 38.5q0 55 56 55q24 0 37.5 -14.5t13.5 -40.5q0 -25 -14.5 -39t-41.5 -14zM611 80q18 -45 34 -58.5t54 -13.5v-8h-260v8
q54 0 71 15.5t3 53.5l-55 150h-312l-38 -97q-29 -74 -18.5 -98t71.5 -24v-8h-167v8q33 0 53.5 24t46.5 93l227 577l51 4zM151 238h303l-146 396z" />
    <glyph glyph-name="Aring" unicode="&#xc5;" horiz-adv-x="693" 
d="M347 779q-51 0 -80 22t-29 64q0 41 29 62.5t80 21.5q50 0 79 -21.5t29 -62.5q0 -42 -29 -64t-79 -22zM341 937q-48 0 -48 -68q0 -78 59 -78q48 0 48 69q0 77 -59 77zM611 80q18 -45 34 -58.5t54 -13.5v-8h-260v8q54 0 71 15.5t3 53.5l-55 150h-312l-38 -97
q-29 -74 -18.5 -98t71.5 -24v-8h-167v8q33 0 53.5 24t46.5 93l227 577l51 4zM151 238h303l-146 396z" />
    <glyph glyph-name="AE" unicode="&#xc6;" horiz-adv-x="1252" 
d="M611 80q18 -45 34 -58.5t54 -13.5v-8h-260v8q54 0 71 15.5t3 53.5l-55 150h-312l-38 -97q-29 -74 -18.5 -98t71.5 -24v-8h-167v8q33 0 53.5 24t46.5 93l227 577l51 4zM1199 187l8 -1l-25 -186h-438v8q40 0 55 15t15 58v533q0 45 -15.5 61.5t-57.5 16.5v8h443l-1 -169h-8
q-34 98 -66 128t-108 30h-93v-322h79q51 0 70.5 22t37.5 93h8v-241h-8q-18 71 -37.5 93.5t-70.5 22.5h-79v-346h80q86 0 127 34.5t84 141.5zM151 238h303l-146 396z" />
    <glyph glyph-name="Ccedilla" unicode="&#xc7;" horiz-adv-x="634" 
d="M344 -8q-18 0 -27 1l-9 -56q58 7 85.5 -13t27.5 -56q0 -38 -26 -61t-63 -23q-51 0 -86 50l4 8q33 -15 59 -15q49 0 49 44q0 52 -84 47l-5 7l26 71q-116 17 -186 109.5t-70 235.5q0 159 94.5 263.5t256.5 104.5q88 0 145.5 -37t57.5 -94q0 -31 -21.5 -47t-47.5 -11t-38 28
q17 17 17 48q0 43 -35.5 70.5t-94.5 27.5q-110 0 -174 -79.5t-64 -229.5q0 -164 66 -247.5t188 -83.5q58 0 106.5 20.5t102.5 69.5l5 -6q-107 -146 -259 -146z" />
    <glyph glyph-name="Egrave" unicode="&#xc8;" horiz-adv-x="534" 
d="M360 775l-204 95l-1 4l50 47l161 -138zM481 187l8 -1l-25 -186h-438v8q40 0 55 15t15 58v533q0 45 -15 61.5t-57 16.5v8h442l-1 -169h-8q-34 98 -66 128t-108 30h-93v-322h79q51 0 70.5 22.5t37.5 93.5h8v-242h-8q-18 72 -37.5 94t-70.5 22h-79v-346h80q86 0 127 34.5
t84 141.5z" />
    <glyph glyph-name="Eacute" unicode="&#xc9;" horiz-adv-x="534" 
d="M397 862l-189 -93l-5 8l169 151h4zM481 187l8 -1l-25 -186h-438v8q40 0 55 15t15 58v533q0 45 -15 61.5t-57 16.5v8h442l-1 -169h-8q-34 98 -66 128t-108 30h-93v-322h79q51 0 70.5 22.5t37.5 93.5h8v-242h-8q-18 72 -37.5 94t-70.5 22h-79v-346h80q86 0 127 34.5
t84 141.5z" />
    <glyph glyph-name="Ecircumflex" unicode="&#xca;" horiz-adv-x="534" 
d="M274 854l-139 -66l-5 7l143 140l144 -140l-5 -7zM481 187l8 -1l-25 -186h-438v8q40 0 55 15t15 58v533q0 45 -15 61.5t-57 16.5v8h442l-1 -169h-8q-34 98 -66 128t-108 30h-93v-322h79q51 0 70.5 22.5t37.5 93.5h8v-242h-8q-18 72 -37.5 94t-70.5 22h-79v-346h80
q86 0 127 34.5t84 141.5z" />
    <glyph glyph-name="Edieresis" unicode="&#xcb;" horiz-adv-x="534" 
d="M169 790q-24 0 -37.5 14.5t-13.5 38.5q0 55 56 55q24 0 37.5 -14.5t13.5 -40.5q0 -25 -14.5 -39t-41.5 -14zM369 790q-24 0 -37.5 14.5t-13.5 38.5q0 55 56 55q24 0 37.5 -14.5t13.5 -40.5q0 -25 -14.5 -39t-41.5 -14zM481 187l8 -1l-25 -186h-438v8q40 0 55 15t15 58
v533q0 45 -15 61.5t-57 16.5v8h442l-1 -169h-8q-34 98 -66 128t-108 30h-93v-322h79q51 0 70.5 22.5t37.5 93.5h8v-242h-8q-18 72 -37.5 94t-70.5 22h-79v-346h80q86 0 127 34.5t84 141.5z" />
    <glyph glyph-name="Igrave" unicode="&#xcc;" horiz-adv-x="346" 
d="M105 921l161 -138l-6 -8l-204 95l-1 4zM56 0v8q40 0 55 15t15 58v533q0 45 -15 61.5t-57 16.5v8h236v-8q-40 0 -55 -15t-15 -58v-533q0 -45 15.5 -61.5t57.5 -16.5v-8h-237z" />
    <glyph glyph-name="Iacute" unicode="&#xcd;" horiz-adv-x="346" 
d="M297 862l-189 -93l-5 8l169 151h4zM56 0v8q40 0 55 15t15 58v533q0 45 -15 61.5t-57 16.5v8h236v-8q-40 0 -55 -15t-15 -58v-533q0 -45 15.5 -61.5t57.5 -16.5v-8h-237z" />
    <glyph glyph-name="Icircumflex" unicode="&#xce;" horiz-adv-x="346" 
d="M172 935l144 -140l-5 -7l-138 66l-139 -66l-5 7zM220 86q0 -45 15.5 -61.5t57.5 -16.5v-8h-237v8q40 0 55 15t15 58v533q0 45 -15 61.5t-57 16.5v8h236v-8q-40 0 -55 -15t-15 -58v-533z" />
    <glyph glyph-name="Idieresis" unicode="&#xcf;" horiz-adv-x="346" 
d="M69 790q-24 0 -37.5 14.5t-13.5 38.5q0 55 56 55q24 0 37.5 -14.5t13.5 -40.5q0 -25 -14.5 -39t-41.5 -14zM269 790q-24 0 -37.5 14.5t-13.5 38.5q0 55 56 55q24 0 37.5 -14.5t13.5 -40.5q0 -25 -14.5 -39t-41.5 -14zM56 0v8q40 0 55 15t15 58v533q0 45 -15 61.5
t-57 16.5v8h236v-8q-40 0 -55 -15t-15 -58v-533q0 -45 15.5 -61.5t57.5 -16.5v-8h-237z" />
    <glyph glyph-name="Eth" unicode="&#xd0;" horiz-adv-x="697" 
d="M289 704q369 2 369 -352q0 -86 -23 -151t-58.5 -103t-86 -62t-98 -32t-101.5 -8q-51 0 -111.5 2t-80.5 2h-73v8q40 0 55 15t15 58v266h-72v11h72v256q0 45 -15 61.5t-57 16.5v8h62q8 0 84.5 2t118.5 2zM297 7q261 0 261 338q0 177 -68.5 262.5t-209.5 85.5q-32 0 -90 -8
v-327h160v-11h-160v-271q0 -39 22 -54t85 -15z" />
    <glyph glyph-name="Ntilde" unicode="&#xd1;" horiz-adv-x="647" 
d="M243 832q-60 0 -70 -39l-7 2q6 48 32 72t65 24q26 0 72 -16t71 -16q53 0 64 37l7 -2q-4 -49 -28 -71.5t-60 -22.5q-27 0 -72 16t-74 16zM470 701h153v-8q-40 0 -55 -26.5t-15 -95.5v-571h-18l-429 620v-487q0 -65 16 -95t57 -30v-8h-153v8q39 0 54.5 28t15.5 92v486
q0 45 -15 61.5t-57 16.5v8h128l391 -566v432q0 72 -15.5 99.5t-57.5 27.5v8z" />
    <glyph glyph-name="Ograve" unicode="&#xd2;" horiz-adv-x="776" 
d="M320 921l161 -138l-6 -8l-204 95l-1 4zM388 -13q-159 0 -254 98t-95 267q0 162 98 261.5t257 99.5q158 0 251 -98t93 -260q0 -171 -95 -269.5t-255 -98.5zM402 2q114 0 171.5 84t57.5 238q0 173 -71.5 273.5t-185.5 100.5q-111 0 -170 -86.5t-59 -240.5q0 -173 71 -271
t186 -98z" />
    <glyph glyph-name="Oacute" unicode="&#xd3;" horiz-adv-x="776" 
d="M512 862l-189 -93l-5 8l169 151h4zM388 -13q-159 0 -254 98t-95 267q0 162 98 261.5t257 99.5q158 0 251 -98t93 -260q0 -171 -95 -269.5t-255 -98.5zM402 2q114 0 171.5 84t57.5 238q0 173 -71.5 273.5t-185.5 100.5q-111 0 -170 -86.5t-59 -240.5q0 -173 71 -271
t186 -98z" />
    <glyph glyph-name="Ocircumflex" unicode="&#xd4;" horiz-adv-x="776" 
d="M389 854l-139 -66l-5 7l143 140l144 -140l-5 -7zM394 713q158 0 251 -98t93 -260q0 -171 -95 -269.5t-255 -98.5q-159 0 -254 98t-95 267q0 162 98 261.5t257 99.5zM402 2q114 0 171.5 84t57.5 238q0 173 -71.5 273.5t-185.5 100.5q-111 0 -170 -86.5t-59 -240.5
q0 -173 71 -271t186 -98z" />
    <glyph glyph-name="Otilde" unicode="&#xd5;" horiz-adv-x="776" 
d="M453 800q-27 0 -72 16t-74 16q-60 0 -70 -39l-7 2q6 48 32 72t65 24q26 0 72 -16t71 -16q53 0 64 37l7 -2q-4 -49 -28 -71.5t-60 -22.5zM388 -13q-159 0 -254 98t-95 267q0 162 98 261.5t257 99.5q158 0 251 -98t93 -260q0 -171 -95 -269.5t-255 -98.5zM402 2
q114 0 171.5 84t57.5 238q0 173 -71.5 273.5t-185.5 100.5q-111 0 -170 -86.5t-59 -240.5q0 -173 71 -271t186 -98z" />
    <glyph glyph-name="Odieresis" unicode="&#xd6;" horiz-adv-x="776" 
d="M284 790q-24 0 -37.5 14.5t-13.5 38.5q0 55 56 55q24 0 37.5 -14.5t13.5 -40.5q0 -25 -14.5 -39t-41.5 -14zM484 790q-24 0 -37.5 14.5t-13.5 38.5q0 55 56 55q24 0 37.5 -14.5t13.5 -40.5q0 -25 -14.5 -39t-41.5 -14zM388 -13q-159 0 -254 98t-95 267q0 162 98 261.5
t257 99.5q158 0 251 -98t93 -260q0 -171 -95 -269.5t-255 -98.5zM402 2q114 0 171.5 84t57.5 238q0 173 -71.5 273.5t-185.5 100.5q-111 0 -170 -86.5t-59 -240.5q0 -173 71 -271t186 -98z" />
    <glyph glyph-name="multiply" unicode="&#xd7;" horiz-adv-x="458" 
d="M284 384l-49 -49l49 -49l-6 -6l-49 49l-49 -49l-6 6l48 49l-49 49l7 7l49 -50l49 49z" />
    <glyph glyph-name="Oslash" unicode="&#xd8;" horiz-adv-x="776" 
d="M394 713q158 0 251 -98t93 -260q0 -171 -95 -269.5t-255 -98.5q-159 0 -254 98t-95 267q0 162 98 261.5t257 99.5zM374 698q-111 0 -170 -86.5t-59 -240.5q0 -164 64 -261l348 492q-71 96 -183 96zM402 2q114 0 171.5 84t57.5 238q0 164 -65 265l-349 -491
q69 -96 185 -96z" />
    <glyph glyph-name="Ugrave" unicode="&#xd9;" horiz-adv-x="711" 
d="M302 921l161 -138l-6 -8l-204 95l-1 4zM687 700v-8q-40 0 -55.5 -28.5t-15.5 -108.5v-307q0 -259 -259 -259q-132 0 -201.5 63t-69.5 186v376q0 45 -15 61.5t-57 16.5v8h236v-8q-40 0 -55 -15t-15 -58v-369q0 -123 45 -178.5t152 -55.5q228 0 228 242v292q0 83 -16 112.5
t-60 29.5v8h158z" />
    <glyph glyph-name="Uacute" unicode="&#xda;" horiz-adv-x="711" 
d="M495 862l-189 -93l-5 8l169 151h4zM687 700v-8q-40 0 -55.5 -28.5t-15.5 -108.5v-307q0 -259 -259 -259q-132 0 -201.5 63t-69.5 186v376q0 45 -15 61.5t-57 16.5v8h236v-8q-40 0 -55 -15t-15 -58v-369q0 -123 45 -178.5t152 -55.5q228 0 228 242v292q0 83 -16 112.5
t-60 29.5v8h158z" />
    <glyph glyph-name="Ucircumflex" unicode="&#xdb;" horiz-adv-x="711" 
d="M371 854l-139 -66l-5 7l143 140l144 -140l-5 -7zM529 700h158v-8q-40 0 -55.5 -28.5t-15.5 -108.5v-307q0 -259 -259 -259q-132 0 -201.5 63t-69.5 186v376q0 45 -15 61.5t-57 16.5v8h236v-8q-40 0 -55 -15t-15 -58v-369q0 -123 45 -178.5t152 -55.5q228 0 228 242v292
q0 83 -16 112.5t-60 29.5v8z" />
    <glyph glyph-name="Udieresis" unicode="&#xdc;" horiz-adv-x="711" 
d="M267 790q-24 0 -37.5 14.5t-13.5 38.5q0 55 56 55q24 0 37.5 -14.5t13.5 -40.5q0 -25 -14.5 -39t-41.5 -14zM467 790q-24 0 -37.5 14.5t-13.5 38.5q0 55 56 55q24 0 37.5 -14.5t13.5 -40.5q0 -25 -14.5 -39t-41.5 -14zM687 700v-8q-40 0 -55.5 -28.5t-15.5 -108.5v-307
q0 -259 -259 -259q-132 0 -201.5 63t-69.5 186v376q0 45 -15 61.5t-57 16.5v8h236v-8q-40 0 -55 -15t-15 -58v-369q0 -123 45 -178.5t152 -55.5q228 0 228 242v292q0 83 -16 112.5t-60 29.5v8h158z" />
    <glyph glyph-name="Yacute" unicode="&#xdd;" horiz-adv-x="654" 
d="M472 862l-189 -93l-5 8l169 151h4zM495 700h152v-8q-29 0 -51.5 -25t-66.5 -108l-144 -267v-209q0 -43 15.5 -59t59.5 -16v-8h-244v8q43 0 59 14.5t16 55.5v200l-189 346q-23 41 -43 54.5t-53 13.5v8h253v-8q-45 0 -59 -13.5t5 -52.5l174 -320l136 252q43 86 37 110
t-57 24v8z" />
    <glyph glyph-name="Thorn" unicode="&#xde;" horiz-adv-x="559" 
d="M261 139q-31 0 -71 2v-55q0 -45 17.5 -61.5t65.5 -16.5v-8h-247v8q40 0 55 15t15 58v533q0 45 -15 61.5t-57 16.5v8h236v-8q-40 0 -55 -15t-15 -58v-39q46 2 70 2q138 0 207.5 -55.5t69.5 -159.5q0 -112 -72 -170t-204 -58zM248 573q-18 0 -58 -8v-391q33 -24 79 -24
q84 0 127 50t43 158q0 111 -46 163t-145 52z" />
    <glyph glyph-name="germandbls" unicode="&#xdf;" horiz-adv-x="611" 
d="M354 -10q-76 0 -136 36l7 10q45 -19 103 -19q57 0 88 43t31 111q0 45 -16 78t-39.5 50t-46.5 30t-39 27t-16 31q0 23 16.5 43.5t36 34.5t36 42t16.5 64q0 66 -30 104t-87 38q-59 0 -83.5 -43t-24.5 -146v-524h-158v8q40 0 55 15t15 58v379q0 127 53.5 195.5t162.5 68.5
q78 0 126 -37t48 -105q0 -44 -22 -73t-48.5 -39.5t-48.5 -21.5t-22 -23q0 -13 22 -23t53 -23t62 -33t53 -62.5t22 -101.5q0 -85 -49 -138.5t-140 -53.5z" />
    <glyph glyph-name="agrave" unicode="&#xe0;" horiz-adv-x="508" 
d="M341 565l-204 95l-1 4l50 47l161 -138zM490 45l4 -5q-40 -47 -84 -47q-72 0 -72 77v25q-43 -101 -163 -101q-66 0 -102.5 29.5t-36.5 85.5q0 152 302 160v14q0 103 -27.5 153t-88.5 50q-35 0 -53.5 -18.5t-17 -42.5t19.5 -42q-5 -17 -20 -27t-35 -10q-24 0 -37.5 12.5
t-13.5 33.5q0 45 52.5 74.5t125.5 29.5q89 0 134.5 -47t45.5 -164v-204q0 -28 7 -39t23 -11q20 0 37 14zM224 30q114 0 114 162v49q-114 20 -163.5 -7t-49.5 -95q0 -51 26.5 -80t72.5 -29z" />
    <glyph glyph-name="aacute" unicode="&#xe1;" horiz-adv-x="508" 
d="M378 652l-189 -93l-5 8l169 151h4zM490 45l4 -5q-40 -47 -84 -47q-72 0 -72 77v25q-43 -101 -163 -101q-66 0 -102.5 29.5t-36.5 85.5q0 152 302 160v14q0 103 -27.5 153t-88.5 50q-35 0 -53.5 -18.5t-17 -42.5t19.5 -42q-5 -17 -20 -27t-35 -10q-24 0 -37.5 12.5
t-13.5 33.5q0 45 52.5 74.5t125.5 29.5q89 0 134.5 -47t45.5 -164v-204q0 -28 7 -39t23 -11q20 0 37 14zM224 30q114 0 114 162v49q-114 20 -163.5 -7t-49.5 -95q0 -51 26.5 -80t72.5 -29z" />
    <glyph glyph-name="acircumflex" unicode="&#xe2;" horiz-adv-x="508" 
d="M255 644l-139 -66l-5 7l143 140l144 -140l-5 -7zM490 45l4 -5q-40 -47 -84 -47q-72 0 -72 77v25q-43 -101 -163 -101q-66 0 -102.5 29.5t-36.5 85.5q0 152 302 160v14q0 103 -27.5 153t-88.5 50q-35 0 -53.5 -18.5t-17 -42.5t19.5 -42q-5 -17 -20 -27t-35 -10
q-24 0 -37.5 12.5t-13.5 33.5q0 45 52.5 74.5t125.5 29.5q89 0 134.5 -47t45.5 -164v-204q0 -28 7 -39t23 -11q20 0 37 14zM224 30q114 0 114 162v49q-114 20 -163.5 -7t-49.5 -95q0 -51 26.5 -80t72.5 -29z" />
    <glyph glyph-name="atilde" unicode="&#xe3;" horiz-adv-x="508" 
d="M174 622q-60 0 -70 -39l-7 2q6 48 32 72t65 24q26 0 72 -16t71 -16q53 0 64 37l7 -2q-4 -49 -28 -71.5t-60 -22.5q-27 0 -72 16t-74 16zM490 45l4 -5q-40 -47 -84 -47q-72 0 -72 77v25q-43 -101 -163 -101q-66 0 -102.5 29.5t-36.5 85.5q0 152 302 160v14
q0 103 -27.5 153t-88.5 50q-35 0 -53.5 -18.5t-17 -42.5t19.5 -42q-5 -17 -20 -27t-35 -10q-24 0 -37.5 12.5t-13.5 33.5q0 45 52.5 74.5t125.5 29.5q89 0 134.5 -47t45.5 -164v-204q0 -28 7 -39t23 -11q20 0 37 14zM224 30q114 0 114 162v49q-114 20 -163.5 -7t-49.5 -95
q0 -51 26.5 -80t72.5 -29z" />
    <glyph glyph-name="adieresis" unicode="&#xe4;" horiz-adv-x="508" 
d="M150 580q-24 0 -37.5 14.5t-13.5 38.5q0 55 56 55q24 0 37.5 -14.5t13.5 -40.5q0 -25 -14.5 -39t-41.5 -14zM350 580q-24 0 -37.5 14.5t-13.5 38.5q0 55 56 55q24 0 37.5 -14.5t13.5 -40.5q0 -25 -14.5 -39t-41.5 -14zM490 45l4 -5q-40 -47 -84 -47q-72 0 -72 77v25
q-43 -101 -163 -101q-66 0 -102.5 29.5t-36.5 85.5q0 152 302 160v14q0 103 -27.5 153t-88.5 50q-35 0 -53.5 -18.5t-17 -42.5t19.5 -42q-5 -17 -20 -27t-35 -10q-24 0 -37.5 12.5t-13.5 33.5q0 45 52.5 74.5t125.5 29.5q89 0 134.5 -47t45.5 -164v-204q0 -28 7 -39t23 -11
q20 0 37 14zM224 30q114 0 114 162v49q-114 20 -163.5 -7t-49.5 -95q0 -51 26.5 -80t72.5 -29z" />
    <glyph glyph-name="aring" unicode="&#xe5;" horiz-adv-x="508" 
d="M254 569q-51 0 -80 22t-29 64q0 41 29 62.5t80 21.5q50 0 79 -21.5t29 -62.5q0 -42 -29 -64t-79 -22zM248 727q-48 0 -48 -68q0 -78 59 -78q48 0 48 69q0 77 -59 77zM490 45l4 -5q-40 -47 -84 -47q-72 0 -72 77v25q-43 -101 -163 -101q-66 0 -102.5 29.5t-36.5 85.5
q0 152 302 160v14q0 103 -27.5 153t-88.5 50q-35 0 -53.5 -18.5t-17 -42.5t19.5 -42q-5 -17 -20 -27t-35 -10q-24 0 -37.5 12.5t-13.5 33.5q0 45 52.5 74.5t125.5 29.5q89 0 134.5 -47t45.5 -164v-204q0 -28 7 -39t23 -11q20 0 37 14zM224 30q114 0 114 162v49
q-114 20 -163.5 -7t-49.5 -95q0 -51 26.5 -80t72.5 -29z" />
    <glyph glyph-name="ae" unicode="&#xe6;" horiz-adv-x="793" 
d="M752 105l4 -5q-80 -106 -198 -106q-139 0 -194 114q-24 -54 -73 -84t-113 -30q-68 0 -105 29.5t-37 85.5q0 152 302 160v14q0 103 -27.5 153t-88.5 50q-35 0 -53.5 -18.5t-17 -42.5t19.5 -42q-5 -17 -20 -27t-35 -10q-24 0 -37.5 12.5t-13.5 33.5q0 45 52.5 74.5
t125.5 29.5q110 0 146 -91q65 91 189 91q75 0 121 -31.5t46 -91.5q0 -71 -87 -108t-232 -26q8 -94 55.5 -143t128.5 -49q79 0 142 58zM554 482q-61 0 -95.5 -52t-34.5 -150v-14q236 -51 236 108q0 49 -29.5 78.5t-76.5 29.5zM224 24q114 0 114 178v39q-114 20 -163.5 -7
t-49.5 -95q0 -54 26.5 -84.5t72.5 -30.5z" />
    <glyph glyph-name="ccedilla" unicode="&#xe7;" horiz-adv-x="497" 
d="M269 -6h-18l-9 -57q58 7 85.5 -13t27.5 -56q0 -38 -26 -61t-63 -23q-51 0 -86 50l4 8q32 -15 59 -15q49 0 49 44q0 52 -84 47l-5 7l27 72q-84 13 -131.5 76.5t-47.5 161.5q0 117 67 189t178 72q66 0 104.5 -25.5t38.5 -63.5q0 -24 -14 -38t-38 -14q-40 0 -52 33
q19 21 19 48q0 22 -17.5 35.5t-52.5 13.5q-67 0 -107 -51t-40 -153q0 -111 46.5 -171t132.5 -60q82 0 143 54l5 -5q-80 -105 -195 -105z" />
    <glyph glyph-name="egrave" unicode="&#xe8;" horiz-adv-x="511" 
d="M343 565l-204 95l-1 4l50 47l161 -138zM465 105l4 -5q-80 -106 -198 -106q-104 0 -162 66t-58 174q0 116 65 189t175 73q75 0 121 -31.5t46 -91.5q0 -71 -87 -108t-232 -26q8 -94 55.5 -143t128.5 -49q79 0 142 58zM267 482q-61 0 -95.5 -52t-34.5 -149v-15
q236 -52 236 108q0 49 -29.5 78.5t-76.5 29.5z" />
    <glyph glyph-name="eacute" unicode="&#xe9;" horiz-adv-x="511" 
d="M380 652l-189 -93l-5 8l169 151h4zM465 105l4 -5q-80 -106 -198 -106q-104 0 -162 66t-58 174q0 116 65 189t175 73q75 0 121 -31.5t46 -91.5q0 -71 -87 -108t-232 -26q8 -94 55.5 -143t128.5 -49q79 0 142 58zM267 482q-61 0 -95.5 -52t-34.5 -149v-15q236 -52 236 108
q0 49 -29.5 78.5t-76.5 29.5z" />
    <glyph glyph-name="ecircumflex" unicode="&#xea;" horiz-adv-x="511" 
d="M256 644l-139 -66l-5 7l143 140l144 -140l-5 -7zM465 105l4 -5q-80 -106 -198 -106q-104 0 -162 66t-58 174q0 116 65 189t175 73q75 0 121 -31.5t46 -91.5q0 -71 -87 -108t-232 -26q8 -94 55.5 -143t128.5 -49q79 0 142 58zM267 482q-61 0 -95.5 -52t-34.5 -149v-15
q236 -52 236 108q0 49 -29.5 78.5t-76.5 29.5z" />
    <glyph glyph-name="edieresis" unicode="&#xeb;" horiz-adv-x="511" 
d="M152 580q-24 0 -37.5 14.5t-13.5 38.5q0 55 56 55q24 0 37.5 -14.5t13.5 -40.5q0 -25 -14.5 -39t-41.5 -14zM352 580q-24 0 -37.5 14.5t-13.5 38.5q0 55 56 55q24 0 37.5 -14.5t13.5 -40.5q0 -25 -14.5 -39t-41.5 -14zM465 105l4 -5q-80 -106 -198 -106q-104 0 -162 66
t-58 174q0 116 65 189t175 73q75 0 121 -31.5t46 -91.5q0 -71 -87 -108t-232 -26q8 -94 55.5 -143t128.5 -49q79 0 142 58zM267 482q-61 0 -95.5 -52t-34.5 -149v-15q236 -52 236 108q0 49 -29.5 78.5t-76.5 29.5z" />
    <glyph glyph-name="igrave" unicode="&#xec;" horiz-adv-x="322" 
d="M93 711l161 -138l-6 -8l-204 95l-1 4zM119 81v216q0 106 -12 131.5t-60 12.5l-2 8l158 51l4 -3v-216v-195q0 -45 15.5 -61.5t57.5 -16.5v-8h-231v8q40 0 55 15t15 58z" />
    <glyph glyph-name="iacute" unicode="&#xed;" horiz-adv-x="322" 
d="M285 652l-189 -93l-5 8l169 151h4zM119 81v216q0 106 -12 131.5t-60 12.5l-2 8l158 51l4 -3v-216v-195q0 -45 15.5 -61.5t57.5 -16.5v-8h-231v8q40 0 55 15t15 58z" />
    <glyph glyph-name="icircumflex" unicode="&#xee;" horiz-adv-x="322" 
d="M161 725l144 -140l-5 -7l-138 66l-139 -66l-5 7zM207 86q0 -45 15.5 -61.5t57.5 -16.5v-8h-231v8q40 0 55 15t15 58v216q0 106 -12 131.5t-60 12.5l-2 8l158 51l4 -3v-216v-195z" />
    <glyph glyph-name="idieresis" unicode="&#xef;" horiz-adv-x="322" 
d="M57 580q-24 0 -37.5 14.5t-13.5 38.5q0 55 56 55q24 0 37.5 -14.5t13.5 -40.5q0 -25 -14.5 -39t-41.5 -14zM257 580q-24 0 -37.5 14.5t-13.5 38.5q0 55 56 55q24 0 37.5 -14.5t13.5 -40.5q0 -25 -14.5 -39t-41.5 -14zM119 81v216q0 106 -12 131.5t-60 12.5l-2 8l158 51
l4 -3v-216v-195q0 -45 15.5 -61.5t57.5 -16.5v-8h-231v8q40 0 55 15t15 58z" />
    <glyph glyph-name="eth" unicode="&#xf0;" horiz-adv-x="572" 
d="M382 639q147 -127 147 -346q0 -150 -69.5 -224.5t-179.5 -75.5q-108 -1 -165.5 65.5t-57.5 175.5q0 119 66 190.5t177 71.5q51 0 99 -18q-29 76 -80 130l-122 -61l-6 10l119 59q-47 47 -121 84l84 7q55 -24 99 -60l107 55l7 -10zM309 13q66 0 95.5 56.5t28.5 185.5
q-2 86 -15 155q-59 70 -136 70q-68 0 -99 -49.5t-31 -155.5q0 -128 40 -195t117 -67z" />
    <glyph glyph-name="ntilde" unicode="&#xf1;" horiz-adv-x="642" 
d="M250 622q-60 0 -70 -39l-7 2q6 48 32 72t65 24q26 0 72 -16t71 -16q53 0 64 37l7 -2q-4 -49 -28 -71.5t-60 -22.5q-27 0 -72 16t-74 16zM540 86q0 -45 15.5 -61.5t57.5 -16.5v-8h-231v8q40 0 55 15t15 58v205q0 93 -23 129.5t-79 36.5q-73 0 -113 -58t-40 -175v-133
q0 -45 15.5 -61.5t57.5 -16.5v-8h-231v8q40 0 55 15t15 58v214q0 107 -12.5 133t-59.5 13l-2 8l158 51l4 -3v-173q22 84 76.5 129t126.5 45q140 0 140 -182v-230z" />
    <glyph glyph-name="ograve" unicode="&#xf2;" horiz-adv-x="598" 
d="M231 711l161 -138l-6 -8l-204 95l-1 4zM286 -6q-109 0 -172 64.5t-63 172.5q0 119 72.5 192t188.5 73q111 0 173 -67.5t62 -174.5q0 -118 -73 -189t-188 -71zM316 10q64 0 99 52t35 154q0 118 -44.5 190.5t-121.5 72.5q-69 0 -102.5 -50.5t-33.5 -157.5q0 -117 45.5 -189
t122.5 -72z" />
    <glyph glyph-name="oacute" unicode="&#xf3;" horiz-adv-x="598" 
d="M424 652l-189 -93l-5 8l169 151h4zM286 -6q-109 0 -172 64.5t-63 172.5q0 119 72.5 192t188.5 73q111 0 173 -67.5t62 -174.5q0 -118 -73 -189t-188 -71zM316 10q64 0 99 52t35 154q0 118 -44.5 190.5t-121.5 72.5q-69 0 -102.5 -50.5t-33.5 -157.5q0 -117 45.5 -189
t122.5 -72z" />
    <glyph glyph-name="ocircumflex" unicode="&#xf4;" horiz-adv-x="598" 
d="M300 644l-139 -66l-5 7l143 140l144 -140l-5 -7zM312 496q111 0 173 -67.5t62 -174.5q0 -118 -73 -189t-188 -71q-109 0 -172 64.5t-63 172.5q0 119 72.5 192t188.5 73zM316 10q64 0 99 52t35 154q0 118 -44.5 190.5t-121.5 72.5q-69 0 -102.5 -50.5t-33.5 -157.5
q0 -117 45.5 -189t122.5 -72z" />
    <glyph glyph-name="otilde" unicode="&#xf5;" horiz-adv-x="598" 
d="M365 590q-27 0 -72 16t-74 16q-60 0 -70 -39l-7 2q6 48 32 72t65 24q26 0 72 -16t71 -16q53 0 64 37l7 -2q-4 -49 -28 -71.5t-60 -22.5zM286 -6q-109 0 -172 64.5t-63 172.5q0 119 72.5 192t188.5 73q111 0 173 -67.5t62 -174.5q0 -118 -73 -189t-188 -71zM316 10
q64 0 99 52t35 154q0 118 -44.5 190.5t-121.5 72.5q-69 0 -102.5 -50.5t-33.5 -157.5q0 -117 45.5 -189t122.5 -72z" />
    <glyph glyph-name="odieresis" unicode="&#xf6;" horiz-adv-x="598" 
d="M196 580q-24 0 -37.5 14.5t-13.5 38.5q0 55 56 55q24 0 37.5 -14.5t13.5 -40.5q0 -25 -14.5 -39t-41.5 -14zM396 580q-24 0 -37.5 14.5t-13.5 38.5q0 55 56 55q24 0 37.5 -14.5t13.5 -40.5q0 -25 -14.5 -39t-41.5 -14zM286 -6q-109 0 -172 64.5t-63 172.5q0 119 72.5 192
t188.5 73q111 0 173 -67.5t62 -174.5q0 -118 -73 -189t-188 -71zM316 10q64 0 99 52t35 154q0 118 -44.5 190.5t-121.5 72.5q-69 0 -102.5 -50.5t-33.5 -157.5q0 -117 45.5 -189t122.5 -72z" />
    <glyph glyph-name="divide" unicode="&#xf7;" horiz-adv-x="517" 
d="M258 481q-26 0 -41.5 16t-15.5 42t15.5 42t42.5 16q26 0 41.5 -16t15.5 -42t-15.5 -42t-42.5 -16zM64 366h389v-22h-389v22zM258 119q-26 0 -41.5 16t-15.5 42t15.5 42t42.5 16q26 0 41.5 -16t15.5 -42t-15.5 -42t-42.5 -16z" />
    <glyph glyph-name="oslash" unicode="&#xf8;" horiz-adv-x="598" 
d="M457 454q90 -66 90 -200q0 -118 -73 -189t-188 -71q-77 0 -133 34l-58 -82l-10 8l57 81q-91 63 -91 196q0 119 72.5 192t188.5 73q78 0 132 -34l54 76l13 -8zM148 271q0 -106 37 -175l220 311q-45 72 -121 72q-69 0 -102.5 -50.5t-33.5 -157.5zM316 10q64 0 99 52t35 154
q0 106 -37 177l-220 -310q46 -73 123 -73z" />
    <glyph glyph-name="ugrave" unicode="&#xf9;" horiz-adv-x="617" 
d="M396 565l-204 95l-1 4l50 47l161 -138zM522 86q0 -45 14 -61.5t52 -16.5v-8h-79q-39 0 -69 -3l-4 4l-2 165q-22 -81 -73.5 -126.5t-120.5 -45.5q-75 0 -110.5 42t-35.5 130v152q0 89 -12.5 111.5t-54.5 11.5l-2 7l153 51l4 -4v-299q0 -88 22.5 -123t77.5 -35
q74 0 113 58.5t39 169.5v30q0 103 -13 129t-59 13l-2 7l158 54l4 -4v-409z" />
    <glyph glyph-name="uacute" unicode="&#xfa;" horiz-adv-x="617" 
d="M433 652l-189 -93l-5 8l169 151h4zM522 86q0 -45 14 -61.5t52 -16.5v-8h-79q-39 0 -69 -3l-4 4l-2 165q-22 -81 -73.5 -126.5t-120.5 -45.5q-75 0 -110.5 42t-35.5 130v152q0 89 -12.5 111.5t-54.5 11.5l-2 7l153 51l4 -4v-299q0 -88 22.5 -123t77.5 -35q74 0 113 58.5
t39 169.5v30q0 103 -13 129t-59 13l-2 7l158 54l4 -4v-409z" />
    <glyph glyph-name="ucircumflex" unicode="&#xfb;" horiz-adv-x="617" 
d="M309 644l-139 -66l-5 7l143 140l144 -140l-5 -7zM522 86q0 -45 14 -61.5t52 -16.5v-8h-79q-39 0 -69 -3l-4 4l-2 165q-22 -81 -73.5 -126.5t-120.5 -45.5q-75 0 -110.5 42t-35.5 130v152q0 89 -12.5 111.5t-54.5 11.5l-2 7l153 51l4 -4v-299q0 -88 22.5 -123t77.5 -35
q74 0 113 58.5t39 169.5v30q0 103 -13 129t-59 13l-2 7l158 54l4 -4v-409z" />
    <glyph glyph-name="udieresis" unicode="&#xfc;" horiz-adv-x="617" 
d="M205 580q-24 0 -37.5 14.5t-13.5 38.5q0 55 56 55q24 0 37.5 -14.5t13.5 -40.5q0 -25 -14.5 -39t-41.5 -14zM405 580q-24 0 -37.5 14.5t-13.5 38.5q0 55 56 55q24 0 37.5 -14.5t13.5 -40.5q0 -25 -14.5 -39t-41.5 -14zM522 86q0 -45 14 -61.5t52 -16.5v-8h-79
q-39 0 -69 -3l-4 4l-2 165q-22 -81 -73.5 -126.5t-120.5 -45.5q-75 0 -110.5 42t-35.5 130v152q0 89 -12.5 111.5t-54.5 11.5l-2 7l153 51l4 -4v-299q0 -88 22.5 -123t77.5 -35q74 0 113 58.5t39 169.5v30q0 103 -13 129t-59 13l-2 7l158 54l4 -4v-409z" />
    <glyph glyph-name="yacute" unicode="&#xfd;" horiz-adv-x="530" 
d="M399 652l-189 -93l-5 8l169 151h4zM340 490h182v-8q-31 0 -50 -25t-56 -110l-152 -349l-22 -52q-36 -83 -70 -122t-90 -39q-43 0 -70 23.5t-27 61.5q0 25 16 40t38 15q37 0 51 -32q-24 -23 -20.5 -56.5t35.5 -33.5q64 0 125 146l21 49l-155 350q-35 81 -57.5 107.5
t-55.5 26.5v8h253v-8q-37 0 -54.5 -10t-17.5 -38.5t23 -79.5l110 -253l107 247q31 72 16 103t-80 31v8z" />
    <glyph glyph-name="thorn" unicode="&#xfe;" horiz-adv-x="616" 
d="M383 496q83 0 132.5 -62.5t49.5 -173.5q0 -124 -64.5 -195t-177.5 -71q-65 0 -127 24v-142q0 -45 17.5 -61.5t65.5 -16.5v-8h-241v8q40 0 55 15t15 58v645q0 110 -12 134.5t-59 12.5l-2 7l157 51l4 -3v-216v-173q20 78 69 122.5t118 44.5zM340 12q68 0 98.5 49.5
t30.5 156.5q0 232 -133 232q-65 0 -102.5 -55.5t-37.5 -162.5v-131q62 -89 144 -89z" />
    <glyph glyph-name="ydieresis" unicode="&#xff;" horiz-adv-x="530" 
d="M171 580q-24 0 -37.5 14.5t-13.5 38.5q0 55 56 55q24 0 37.5 -14.5t13.5 -40.5q0 -25 -14.5 -39t-41.5 -14zM371 580q-24 0 -37.5 14.5t-13.5 38.5q0 55 56 55q24 0 37.5 -14.5t13.5 -40.5q0 -25 -14.5 -39t-41.5 -14zM340 490h182v-8q-31 0 -50 -25t-56 -110l-152 -349
l-22 -52q-36 -83 -70 -122t-90 -39q-43 0 -70 23.5t-27 61.5q0 25 16 40t38 15q37 0 51 -32q-24 -23 -20.5 -56.5t35.5 -33.5q64 0 125 146l21 49l-155 350q-35 81 -57.5 107.5t-55.5 26.5v8h253v-8q-37 0 -54.5 -10t-17.5 -38.5t23 -79.5l110 -253l107 247q31 72 16 103
t-80 31v8z" />
    <glyph glyph-name="Amacron" unicode="&#x100;" horiz-adv-x="693" 
d="M499 851v-29h-304v29h304zM611 80q18 -45 34 -58.5t54 -13.5v-8h-260v8q54 0 71 15.5t3 53.5l-55 150h-312l-38 -97q-29 -74 -18.5 -98t71.5 -24v-8h-167v8q33 0 53.5 24t46.5 93l227 577l51 4zM151 238h303l-146 396z" />
    <glyph glyph-name="amacron" unicode="&#x101;" horiz-adv-x="508" 
d="M406 641v-29h-304v29h304zM490 45l4 -5q-40 -47 -84 -47q-72 0 -72 77v25q-43 -101 -163 -101q-66 0 -102.5 29.5t-36.5 85.5q0 152 302 160v14q0 103 -27.5 153t-88.5 50q-35 0 -53.5 -18.5t-17 -42.5t19.5 -42q-5 -17 -20 -27t-35 -10q-24 0 -37.5 12.5t-13.5 33.5
q0 45 52.5 74.5t125.5 29.5q89 0 134.5 -47t45.5 -164v-204q0 -28 7 -39t23 -11q20 0 37 14zM224 30q114 0 114 162v49q-114 20 -163.5 -7t-49.5 -95q0 -51 26.5 -80t72.5 -29z" />
    <glyph glyph-name="Abreve" unicode="&#x102;" horiz-adv-x="693" 
d="M347 794q-115 0 -123 123l8 4q21 -64 121 -64q90 0 109 64l7 -4q-6 -123 -122 -123zM611 80q18 -45 34 -58.5t54 -13.5v-8h-260v8q54 0 71 15.5t3 53.5l-55 150h-312l-38 -97q-29 -74 -18.5 -98t71.5 -24v-8h-167v8q33 0 53.5 24t46.5 93l227 577l51 4zM151 238h303
l-146 396z" />
    <glyph glyph-name="abreve" unicode="&#x103;" horiz-adv-x="508" 
d="M254 584q-115 0 -123 123l8 4q11 -34 40 -49t81 -15q90 0 109 64l7 -4q-6 -123 -122 -123zM490 45l4 -5q-40 -47 -84 -47q-72 0 -72 77v25q-43 -101 -163 -101q-66 0 -102.5 29.5t-36.5 85.5q0 152 302 160v14q0 103 -27.5 153t-88.5 50q-35 0 -53.5 -18.5t-17 -42.5
t19.5 -42q-5 -17 -20 -27t-35 -10q-24 0 -37.5 12.5t-13.5 33.5q0 45 52.5 74.5t125.5 29.5q89 0 134.5 -47t45.5 -164v-204q0 -28 7 -39t23 -11q20 0 37 14zM224 30q114 0 114 162v49q-114 20 -163.5 -7t-49.5 -95q0 -51 26.5 -80t72.5 -29z" />
    <glyph glyph-name="Aogonek" unicode="&#x104;" horiz-adv-x="693" 
d="M633 0q-89 -51 -89 -104q0 -23 12.5 -35.5t33.5 -12.5q26 0 45 15l6 -6q-31 -49 -100 -49q-33 0 -54 17t-21 50q0 40 35 69t108 56h-170v8q54 0 71 15.5t3 53.5l-55 150h-312l-38 -97q-29 -74 -18.5 -98t71.5 -24v-8h-167v8q33 0 53.5 24t46.5 93l227 577l51 4l239 -626
q18 -45 34 -58.5t54 -13.5v-8h-66zM151 238h303l-146 396z" />
    <glyph glyph-name="aogonek" unicode="&#x105;" horiz-adv-x="508" 
d="M438 -2q-81 -50 -81 -99q0 -23 13 -35.5t34 -12.5q26 0 45 15l6 -6q-31 -49 -100 -49q-33 0 -54 17t-21 50q0 36 29 63.5t90 52.5q-61 6 -61 76v25q-43 -101 -163 -101q-66 0 -102.5 29.5t-36.5 85.5q0 152 302 160v14q0 103 -27.5 153t-88.5 50q-35 0 -53.5 -18.5
t-17 -42.5t19.5 -42q-5 -17 -20 -27t-35 -10q-24 0 -37.5 12.5t-13.5 33.5q0 45 52.5 74.5t125.5 29.5q89 0 134.5 -47t45.5 -164v-204q0 -28 7 -39t23 -11q20 0 37 14l4 -5q-28 -33 -56 -42zM224 30q114 0 114 162v49q-114 20 -163.5 -7t-49.5 -95q0 -51 26.5 -80t72.5 -29
z" />
    <glyph glyph-name="Cacute" unicode="&#x106;" horiz-adv-x="634" 
d="M448 862l-189 -93l-5 8l169 151h4zM344 -8q-136 0 -220.5 95.5t-84.5 253.5q0 159 94.5 263.5t256.5 104.5q88 0 145.5 -37t57.5 -94q0 -31 -21.5 -47t-47.5 -11t-38 28q17 17 17 48q0 43 -35.5 70.5t-94.5 27.5q-110 0 -174 -79.5t-64 -229.5q0 -164 66 -247.5
t188 -83.5q58 0 106.5 20.5t102.5 69.5l5 -6q-107 -146 -259 -146z" />
    <glyph glyph-name="cacute" unicode="&#x107;" horiz-adv-x="497" 
d="M388 652l-189 -93l-5 8l169 151h4zM296 496q66 0 104.5 -25.5t38.5 -63.5q0 -24 -14 -38t-38 -14q-40 0 -52 33q19 21 19 48q0 22 -17.5 35.5t-52.5 13.5q-67 0 -107 -51t-40 -153q0 -111 46.5 -171t132.5 -60q82 0 143 54l5 -5q-80 -105 -195 -105q-101 0 -159.5 66
t-58.5 175q0 117 67 189t178 72z" />
    <glyph glyph-name="Cdotaccent" unicode="&#x10a;" horiz-adv-x="634" 
d="M323 789q-26 0 -40.5 14.5t-14.5 40.5q0 27 16 42.5t44 15.5q26 0 41 -14.5t15 -40.5q0 -27 -16.5 -42.5t-44.5 -15.5zM344 -8q-136 0 -220.5 95.5t-84.5 253.5q0 159 94.5 263.5t256.5 104.5q88 0 145.5 -37t57.5 -94q0 -31 -21.5 -47t-47.5 -11t-38 28q17 17 17 48
q0 43 -35.5 70.5t-94.5 27.5q-110 0 -174 -79.5t-64 -229.5q0 -164 66 -247.5t188 -83.5q58 0 106.5 20.5t102.5 69.5l5 -6q-107 -146 -259 -146z" />
    <glyph glyph-name="cdotaccent" unicode="&#x10b;" horiz-adv-x="497" 
d="M263 579q-26 0 -40.5 14.5t-14.5 40.5q0 27 16 42.5t44 15.5q26 0 41 -14.5t15 -40.5q0 -27 -16.5 -42.5t-44.5 -15.5zM296 496q66 0 104.5 -25.5t38.5 -63.5q0 -24 -14 -38t-38 -14q-40 0 -52 33q19 21 19 48q0 22 -17.5 35.5t-52.5 13.5q-67 0 -107 -51t-40 -153
q0 -111 46.5 -171t132.5 -60q82 0 143 54l5 -5q-80 -105 -195 -105q-101 0 -159.5 66t-58.5 175q0 117 67 189t178 72z" />
    <glyph glyph-name="Ccaron" unicode="&#x10c;" horiz-adv-x="634" 
d="M467 915l-144 -139l-143 139l5 7l138 -66l138 66zM598 144l5 -6q-107 -146 -259 -146q-136 0 -220.5 95.5t-84.5 253.5q0 159 94.5 263.5t256.5 104.5q88 0 145.5 -37t57.5 -94q0 -31 -21.5 -47t-47.5 -11t-38 28q17 17 17 48q0 43 -35.5 70.5t-94.5 27.5
q-110 0 -174 -79.5t-64 -229.5q0 -164 66 -247.5t188 -83.5q58 0 106.5 20.5t102.5 69.5z" />
    <glyph glyph-name="ccaron" unicode="&#x10d;" horiz-adv-x="497" 
d="M407 705l-144 -139l-143 139l5 7l138 -66l138 66zM459 104l5 -5q-80 -105 -195 -105q-101 0 -159.5 66t-58.5 175q0 117 67 189t178 72q66 0 104.5 -25.5t38.5 -63.5q0 -24 -14 -38t-38 -14q-40 0 -52 33q19 21 19 48q0 22 -17.5 35.5t-52.5 13.5q-67 0 -107 -51
t-40 -153q0 -111 46.5 -171t132.5 -60q82 0 143 54z" />
    <glyph glyph-name="Dcaron" unicode="&#x10e;" horiz-adv-x="697" 
d="M492 915l-144 -139l-143 139l5 7l138 -66l138 66zM289 704q369 2 369 -352q0 -86 -23 -151t-58.5 -103t-86 -62t-98 -32t-101.5 -8q-51 0 -111.5 2t-80.5 2h-73v8q40 0 55 15t15 58v533q0 45 -15 61.5t-57 16.5v8h62q8 0 84.5 2t118.5 2zM297 7q261 0 261 338
q0 177 -68.5 262.5t-209.5 85.5q-32 0 -90 -8v-609q0 -39 22 -54t85 -15z" />
    <glyph glyph-name="dcaron" unicode="&#x10f;" horiz-adv-x="612" 
d="M507 86q0 -45 15.5 -61.5t57.5 -16.5v-8h-90q-36 0 -63 -3l-4 4l-3 163q-20 -79 -69 -124.5t-118 -45.5q-83 0 -132.5 63t-49.5 173q0 124 64.5 195t177.5 71q66 0 126 -24v41q0 109 -12 135t-70 12l-3 7l170 54l3 -3v-632zM580 528h-10l-9 193l70 -3l3 -5zM280 40
q65 0 102 55.5t37 162.5v130q-61 92 -143 92q-68 0 -99 -50t-31 -158q0 -232 134 -232z" />
    <glyph glyph-name="Dcroat" unicode="&#x110;" horiz-adv-x="697" 
d="M289 704q369 2 369 -352q0 -86 -23 -151t-58.5 -103t-86 -62t-98 -32t-101.5 -8q-51 0 -111.5 2t-80.5 2h-73v8q40 0 55 15t15 58v266h-72v11h72v256q0 45 -15 61.5t-57 16.5v8h62q8 0 84.5 2t118.5 2zM297 7q261 0 261 338q0 177 -68.5 262.5t-209.5 85.5q-32 0 -90 -8
v-327h160v-11h-160v-271q0 -39 22 -54t85 -15z" />
    <glyph glyph-name="dcroat" unicode="&#x111;" horiz-adv-x="612" 
d="M591 573h-84v-487q0 -45 15.5 -61.5t57.5 -16.5v-8h-90q-36 0 -63 -3l-4 4l-3 163q-20 -79 -69 -124.5t-118 -45.5q-83 0 -132.5 63t-49.5 173q0 124 64.5 195t177.5 71q66 0 126 -24v41v60h-154v10h154q-2 58 -18 73t-64 4l-3 7l170 54l3 -3v-135h84v-10zM280 40
q65 0 102 55.5t37 162.5v130q-61 92 -143 92q-68 0 -99 -50t-31 -158q0 -232 134 -232z" />
    <glyph glyph-name="Emacron" unicode="&#x112;" horiz-adv-x="534" 
d="M424 851v-29h-304v29h304zM481 187l8 -1l-25 -186h-438v8q40 0 55 15t15 58v533q0 45 -15 61.5t-57 16.5v8h442l-1 -169h-8q-34 98 -66 128t-108 30h-93v-322h79q51 0 70.5 22.5t37.5 93.5h8v-242h-8q-18 72 -37.5 94t-70.5 22h-79v-346h80q86 0 127 34.5t84 141.5z" />
    <glyph glyph-name="emacron" unicode="&#x113;" horiz-adv-x="511" 
d="M407 641v-29h-304v29h304zM465 105l4 -5q-80 -106 -198 -106q-104 0 -162 66t-58 174q0 116 65 189t175 73q75 0 121 -31.5t46 -91.5q0 -71 -87 -108t-232 -26q8 -94 55.5 -143t128.5 -49q79 0 142 58zM267 482q-61 0 -95.5 -52t-34.5 -149v-15q236 -52 236 108
q0 49 -29.5 78.5t-76.5 29.5z" />
    <glyph glyph-name="Edotaccent" unicode="&#x116;" horiz-adv-x="534" 
d="M272 789q-26 0 -40.5 14.5t-14.5 40.5q0 27 16 42.5t44 15.5q26 0 41 -14.5t15 -40.5q0 -27 -16.5 -42.5t-44.5 -15.5zM481 187l8 -1l-25 -186h-438v8q40 0 55 15t15 58v533q0 45 -15 61.5t-57 16.5v8h442l-1 -169h-8q-34 98 -66 128t-108 30h-93v-322h79q51 0 70.5 22.5
t37.5 93.5h8v-242h-8q-18 72 -37.5 94t-70.5 22h-79v-346h80q86 0 127 34.5t84 141.5z" />
    <glyph glyph-name="edotaccent" unicode="&#x117;" horiz-adv-x="511" 
d="M255 579q-26 0 -40.5 14.5t-14.5 40.5q0 27 16 42.5t44 15.5q26 0 41 -14.5t15 -40.5q0 -27 -16.5 -42.5t-44.5 -15.5zM465 105l4 -5q-80 -106 -198 -106q-104 0 -162 66t-58 174q0 116 65 189t175 73q75 0 121 -31.5t46 -91.5q0 -71 -87 -108t-232 -26q8 -94 55.5 -143
t128.5 -49q79 0 142 58zM267 482q-61 0 -95.5 -52t-34.5 -149v-15q236 -52 236 108q0 49 -29.5 78.5t-76.5 29.5z" />
    <glyph glyph-name="Eogonek" unicode="&#x118;" horiz-adv-x="534" 
d="M465 0q-102 -56 -102 -111q0 -23 13 -35.5t34 -12.5q26 0 45 15l6 -6q-31 -49 -100 -49q-33 0 -54 17t-21 50q0 42 40 73t122 59h-422v8q40 0 55 15t15 58v533q0 45 -15 61.5t-57 16.5v8h442l-1 -169h-8q-34 98 -66 128t-108 30h-93v-322h79q51 0 70.5 22.5t37.5 93.5h8
v-242h-8q-18 72 -37.5 94t-70.5 22h-79v-346h80q86 0 127 34.5t84 141.5l8 -1l-25 -185z" />
    <glyph glyph-name="eogonek" unicode="&#x119;" horiz-adv-x="511" 
d="M465 105l4 -5q-80 -106 -198 -106q-104 0 -162 66t-58 174q0 116 65 189t175 73q75 0 121 -31.5t46 -91.5q0 -71 -87 -108t-232 -26q8 -94 55.5 -143t128.5 -49q79 0 142 58zM267 482q-61 0 -95.5 -52t-34.5 -149v-15q236 -52 236 108q0 49 -29.5 78.5t-76.5 29.5z
M425 10q-102 -56 -102 -111q0 -23 13 -35.5t34 -12.5q26 0 45 15l6 -6q-31 -49 -100 -49q-33 0 -54 17t-21 50q0 44 43 75.5t134 61.5z" />
    <glyph glyph-name="Ecaron" unicode="&#x11a;" horiz-adv-x="534" 
d="M417 915l-144 -139l-143 139l5 7l138 -66l138 66zM481 187l8 -1l-25 -186h-438v8q40 0 55 15t15 58v533q0 45 -15 61.5t-57 16.5v8h442l-1 -169h-8q-34 98 -66 128t-108 30h-93v-322h79q51 0 70.5 22.5t37.5 93.5h8v-242h-8q-18 72 -37.5 94t-70.5 22h-79v-346h80
q86 0 127 34.5t84 141.5z" />
    <glyph glyph-name="ecaron" unicode="&#x11b;" horiz-adv-x="511" 
d="M399 705l-144 -139l-143 139l5 7l138 -66l138 66zM465 105l4 -5q-80 -106 -198 -106q-104 0 -162 66t-58 174q0 116 65 189t175 73q75 0 121 -31.5t46 -91.5q0 -71 -87 -108t-232 -26q8 -94 55.5 -143t128.5 -49q79 0 142 58zM267 482q-61 0 -95.5 -52t-34.5 -149v-15
q236 -52 236 108q0 49 -29.5 78.5t-76.5 29.5z" />
    <glyph glyph-name="Gbreve" unicode="&#x11e;" horiz-adv-x="691" 
d="M375 794q-115 0 -123 123l8 4q21 -64 121 -64q90 0 109 64l7 -4q-6 -123 -122 -123zM451 337h227v-8q-40 0 -55 -14.5t-15 -55.5v-237q-39 6 -117 -12t-130 -18q-144 0 -233 90t-89 254q0 172 96.5 272.5t263.5 100.5q95 0 155.5 -36t60.5 -92q0 -32 -20.5 -48.5t-46 -12
t-39.5 27.5q17 20 17 47q0 40 -38.5 69.5t-107.5 29.5q-114 0 -176 -83.5t-62 -249.5q0 -168 65 -259.5t188 -91.5q77 0 128 43v201q0 44 -15 59.5t-57 15.5v8z" />
    <glyph glyph-name="gbreve" unicode="&#x11f;" horiz-adv-x="527" 
d="M264 584q-115 0 -123 123l8 4q11 -34 40 -49t81 -15q90 0 109 64l7 -4q-6 -123 -122 -123zM531 499q0 -25 -16.5 -38t-37.5 -9.5t-32 20.5q5 10 5 23q0 21 -24 17q-28 -5 -55 -40q76 -43 76 -131q0 -77 -55.5 -123.5t-148.5 -46.5q-40 0 -76 11q-29 -24 -29 -45
q0 -25 38 -36t92.5 -15t109 -12t92.5 -38t38 -84q0 -77 -74.5 -122.5t-203.5 -45.5q-96 0 -150 27t-54 77q0 81 142 133q-89 17 -89 78q0 53 79 86q-95 35 -95 138q0 79 55 126t148 47q53 0 96 -19q42 73 111 73q26 0 42 -14t16 -37zM266 184q97 0 97 132q0 78 -31.5 123
t-88.5 45q-97 0 -97 -134q0 -77 31.5 -121.5t88.5 -44.5zM433 -90q0 30 -15 50t-45 29.5t-56.5 14t-69.5 8t-65 7.5q-86 -48 -86 -114q0 -52 45 -80t123 -28q80 0 124.5 30t44.5 83z" />
    <glyph glyph-name="Gdotaccent" unicode="&#x120;" horiz-adv-x="691" 
d="M374 789q-26 0 -40.5 14.5t-14.5 40.5q0 27 16 42.5t44 15.5q26 0 41 -14.5t15 -40.5q0 -27 -16.5 -42.5t-44.5 -15.5zM451 337h227v-8q-40 0 -55 -14.5t-15 -55.5v-237q-39 6 -117 -12t-130 -18q-144 0 -233 90t-89 254q0 172 96.5 272.5t263.5 100.5q95 0 155.5 -36
t60.5 -92q0 -32 -20.5 -48.5t-46 -12t-39.5 27.5q17 20 17 47q0 40 -38.5 69.5t-107.5 29.5q-114 0 -176 -83.5t-62 -249.5q0 -168 65 -259.5t188 -91.5q77 0 128 43v201q0 44 -15 59.5t-57 15.5v8z" />
    <glyph glyph-name="gdotaccent" unicode="&#x121;" horiz-adv-x="527" 
d="M263 579q-26 0 -40.5 14.5t-14.5 40.5q0 27 16 42.5t44 15.5q26 0 41 -14.5t15 -40.5q0 -27 -16.5 -42.5t-44.5 -15.5zM531 499q0 -25 -16.5 -38t-37.5 -9.5t-32 20.5q5 10 5 23q0 21 -24 17q-28 -5 -55 -40q76 -43 76 -131q0 -77 -55.5 -123.5t-148.5 -46.5
q-40 0 -76 11q-29 -24 -29 -45q0 -25 38 -36t92.5 -15t109 -12t92.5 -38t38 -84q0 -77 -74.5 -122.5t-203.5 -45.5q-96 0 -150 27t-54 77q0 81 142 133q-89 17 -89 78q0 53 79 86q-95 35 -95 138q0 79 55 126t148 47q53 0 96 -19q42 73 111 73q26 0 42 -14t16 -37zM266 184
q97 0 97 132q0 78 -31.5 123t-88.5 45q-97 0 -97 -134q0 -77 31.5 -121.5t88.5 -44.5zM433 -90q0 30 -15 50t-45 29.5t-56.5 14t-69.5 8t-65 7.5q-86 -48 -86 -114q0 -52 45 -80t123 -28q80 0 124.5 30t44.5 83z" />
    <glyph glyph-name="Gcommaaccent" unicode="&#x122;" horiz-adv-x="691" 
d="M451 337h227v-8q-40 0 -55 -14.5t-15 -55.5v-237q-39 6 -117 -12t-130 -18q-144 0 -233 90t-89 254q0 172 96.5 272.5t263.5 100.5q95 0 155.5 -36t60.5 -92q0 -32 -20.5 -48.5t-46 -12t-39.5 27.5q17 20 17 47q0 40 -38.5 69.5t-107.5 29.5q-114 0 -176 -83.5
t-62 -249.5q0 -168 65 -259.5t188 -91.5q77 0 128 43v201q0 44 -15 59.5t-57 15.5v8zM361 -73q30 0 46.5 -17t16.5 -48q0 -44 -34 -81.5t-87 -52.5l-3 5q68 28 79 85q-11 -4 -24 -4q-26 0 -41 15.5t-15 39.5q0 25 17 41.5t45 16.5z" />
    <glyph glyph-name="gcommaaccent" unicode="&#x123;" horiz-adv-x="527" 
d="M264 552q-30 0 -46.5 17t-16.5 48q0 44 34 81.5t87 52.5l3 -5q-68 -28 -79 -85q11 4 24 4q26 0 41 -15.5t15 -39.5q0 -25 -16.5 -41.5t-45.5 -16.5zM531 499q0 -25 -16.5 -38t-37.5 -9.5t-32 20.5q5 10 5 23q0 21 -24 17q-28 -5 -55 -40q76 -43 76 -131
q0 -77 -55.5 -123.5t-148.5 -46.5q-40 0 -76 11q-29 -24 -29 -45q0 -25 38 -36t92.5 -15t109 -12t92.5 -38t38 -84q0 -77 -74.5 -122.5t-203.5 -45.5q-96 0 -150 27t-54 77q0 81 142 133q-89 17 -89 78q0 53 79 86q-95 35 -95 138q0 79 55 126t148 47q53 0 96 -19
q42 73 111 73q26 0 42 -14t16 -37zM266 184q97 0 97 132q0 78 -31.5 123t-88.5 45q-97 0 -97 -134q0 -77 31.5 -121.5t88.5 -44.5zM433 -90q0 30 -15 50t-45 29.5t-56.5 14t-69.5 8t-65 7.5q-86 -48 -86 -114q0 -52 45 -80t123 -28q80 0 124.5 30t44.5 83z" />
    <glyph glyph-name="Hbar" unicode="&#x126;" horiz-adv-x="730" 
d="M634 86q0 -45 15.5 -61.5t57.5 -16.5v-8h-237v8q40 0 55 15t15 58v264h-350v-259q0 -45 15.5 -61.5t57.5 -16.5v-8h-237v8q40 0 55 15t15 58v419h-62v11h62v103q0 45 -15 61.5t-57 16.5v8h236v-8q-40 0 -55 -15t-15 -58v-108h350v103q0 45 -15 61.5t-57 16.5v8h236v-8
q-40 0 -55 -15t-15 -58v-108h62v-11h-62v-414zM190 356h350v144h-350v-144z" />
    <glyph glyph-name="hbar" unicode="&#x127;" horiz-adv-x="633" 
d="M531 86q0 -45 15.5 -61.5t57.5 -16.5v-8h-231v8q40 0 55 15t15 58v205q0 93 -24 129.5t-81 36.5q-70 0 -110 -58.5t-40 -174.5v-133q0 -45 15.5 -61.5t57.5 -16.5v-8h-231v8q40 0 55 15t15 58v449v37h-77v10h76q-2 66 -16 81t-55 5l-2 7l158 51l4 -3v-141h161v-10h-161
v-64v-179q23 84 77 129t126 45q140 0 140 -182v-230z" />
    <glyph glyph-name="Imacron" unicode="&#x12a;" horiz-adv-x="346" 
d="M20 851h304v-29h-304v29zM56 0v8q40 0 55 15t15 58v533q0 45 -15 61.5t-57 16.5v8h236v-8q-40 0 -55 -15t-15 -58v-533q0 -45 15.5 -61.5t57.5 -16.5v-8h-237z" />
    <glyph glyph-name="imacron" unicode="&#x12b;" horiz-adv-x="322" 
d="M9 641h304v-29h-304v29zM119 81v216q0 106 -12 131.5t-60 12.5l-2 8l158 51l4 -3v-216v-195q0 -45 15.5 -61.5t57.5 -16.5v-8h-231v8q40 0 55 15t15 58z" />
    <glyph glyph-name="Iogonek" unicode="&#x12e;" horiz-adv-x="346" 
d="M220 86q0 -45 15.5 -61.5t57.5 -16.5v-8h-1q-102 -56 -102 -111q0 -23 13 -35.5t34 -12.5q25 0 45 15l6 -6q-32 -49 -100 -49q-33 0 -54 17t-21 50q0 42 40 73t122 59h-219v8q40 0 55 15t15 58v533q0 45 -15 61.5t-57 16.5v8h236v-8q-40 0 -55 -15t-15 -58v-533z" />
    <glyph glyph-name="iogonek" unicode="&#x12f;" horiz-adv-x="322" 
d="M160 579q-26 0 -40.5 14.5t-14.5 40.5q0 27 16 42.5t44 15.5q26 0 41 -14.5t15 -40.5q0 -27 -16.5 -42.5t-44.5 -15.5zM207 86q0 -45 15.5 -61.5t57.5 -16.5v-8h-1q-102 -56 -102 -111q0 -23 13 -35.5t34 -12.5q26 0 45 15l6 -6q-31 -49 -100 -49q-33 0 -54 17t-21 50
q0 42 40 73t122 59h-213v8q40 0 55 15t15 58v216q0 106 -12 131.5t-60 12.5l-2 8l158 51l4 -3v-216v-195z" />
    <glyph glyph-name="Idotaccent" unicode="&#x130;" horiz-adv-x="346" 
d="M172 789q-26 0 -40.5 14.5t-14.5 40.5q0 27 16 42.5t44 15.5q26 0 41 -14.5t15 -40.5q0 -27 -16.5 -42.5t-44.5 -15.5zM56 0v8q40 0 55 15t15 58v533q0 45 -15 61.5t-57 16.5v8h236v-8q-40 0 -55 -15t-15 -58v-533q0 -45 15.5 -61.5t57.5 -16.5v-8h-237z" />
    <glyph glyph-name="dotlessi" unicode="&#x131;" horiz-adv-x="322" 
d="M119 81v216q0 106 -12 131.5t-60 12.5l-2 8l158 51l4 -3v-216v-195q0 -45 15.5 -61.5t57.5 -16.5v-8h-231v8q40 0 55 15t15 58z" />
    <glyph glyph-name="Kcommaaccent" unicode="&#x136;" horiz-adv-x="652" 
d="M554 76q23 -41 43.5 -54.5t50.5 -13.5v-8h-239v8q44 0 57.5 14t-3.5 48l-164 285l-109 -146v-123q0 -45 15.5 -61.5t57.5 -16.5v-8h-237v8q40 0 55 15t15 58v533q0 45 -15 61.5t-57 16.5v8h236v-8q-40 0 -55 -15t-15 -58v-391l281 379q32 49 19.5 67t-65.5 18v8h173v-8
q-30 0 -52.5 -17.5t-64.5 -73.5l-128 -173zM332 -73q30 0 46.5 -17t16.5 -48q0 -44 -34 -81.5t-87 -52.5l-3 5q68 28 79 85q-11 -4 -24 -4q-26 0 -41 15.5t-15 39.5q0 25 17 41.5t45 16.5z" />
    <glyph glyph-name="kcommaaccent" unicode="&#x137;" horiz-adv-x="567" 
d="M468 76q22 -39 41.5 -53.5t53.5 -14.5v-8h-237v8q44 0 57.5 14t-3.5 48l-104 187l-87 -99v-72q0 -45 15.5 -61.5t57.5 -16.5v-8h-231v8q40 0 55 15t15 58v449q0 70 -5 98t-21 37t-45 -2l-3 7l159 51l3 -3v-215v-328l200 231q32 36 18.5 56t-69.5 20v8h190v-8
q-34 0 -60.5 -17.5t-65.5 -62.5l-72 -83zM283 -73q30 0 46.5 -17t16.5 -48q0 -44 -34 -81.5t-87 -52.5l-3 5q68 28 79 85q-11 -4 -24 -4q-26 0 -41 15.5t-15 39.5q0 25 17 41.5t45 16.5z" />
    <glyph glyph-name="Lacute" unicode="&#x139;" horiz-adv-x="492" 
d="M379 862l-189 -93l-5 8l169 151h4zM190 622v-556q0 -34 16.5 -44.5t67.5 -10.5q65 0 103.5 41t88.5 159h8l-29 -211h-419v8q40 0 55 14.5t15 55.5v539q0 44 -15 59.5t-57 15.5v8h236v-8q-40 0 -55 -14.5t-15 -55.5z" />
    <glyph glyph-name="lacute" unicode="&#x13a;" horiz-adv-x="292" 
d="M187 86q0 -45 15.5 -61.5t57.5 -16.5v-8h-231v8q40 0 55 15t15 58v449q0 70 -5 98l-12 -6l-5 8l13 12q-6 21 -21.5 25t-41.5 -4l-2 7l152 50l69 61h4l21 -66l-84 -41v-171v-417z" />
    <glyph glyph-name="Lcommaaccent" unicode="&#x13b;" horiz-adv-x="492" 
d="M466 211h8l-29 -211h-419v8q40 0 55 14.5t15 55.5v539q0 44 -15 59.5t-57 15.5v8h236v-8q-40 0 -55 -14.5t-15 -55.5v-556q0 -34 16.5 -44.5t67.5 -10.5q65 0 103.5 41t88.5 159zM251 -73q30 0 46.5 -17t16.5 -48q0 -44 -34 -81.5t-87 -52.5l-3 5q68 28 79 85
q-11 -4 -24 -4q-26 0 -41 15.5t-15 39.5q0 25 17 41.5t45 16.5z" />
    <glyph glyph-name="lcommaaccent" unicode="&#x13c;" horiz-adv-x="292" 
d="M187 86q0 -45 15.5 -61.5t57.5 -16.5v-8h-231v8q40 0 55 15t15 58v449q0 100 -13 122.5t-59 10.5l-2 7l158 51l4 -3v-215v-417zM145 -73q30 0 46.5 -17t16.5 -48q0 -44 -34 -81.5t-87 -52.5l-3 5q68 28 79 85q-11 -4 -24 -4q-26 0 -41 15.5t-15 39.5q0 25 16.5 41.5
t45.5 16.5z" />
    <glyph glyph-name="Lcaron" unicode="&#x13d;" horiz-adv-x="492" 
d="M392 707l-54 -185h-10l-9 193l70 -3zM190 622v-556q0 -34 16.5 -44.5t67.5 -10.5q65 0 103.5 41t88.5 159h8l-29 -211h-419v8q40 0 55 14.5t15 55.5v539q0 44 -15 59.5t-57 15.5v8h236v-8q-40 0 -55 -14.5t-15 -55.5z" />
    <glyph glyph-name="lcaron" unicode="&#x13e;" horiz-adv-x="292" 
d="M99 530q0 100 -13 122.5t-59 10.5l-2 7l158 51l4 -3v-215v-417q0 -45 15.5 -61.5t57.5 -16.5v-8h-231v8q40 0 55 15t15 58v449zM313 713l-54 -185h-10l-9 193l70 -3z" />
    <glyph glyph-name="Lslash" unicode="&#x141;" horiz-adv-x="492" 
d="M190 622v-556q0 -34 16.5 -44.5t67.5 -10.5q65 0 103.5 41t88.5 159h8l-29 -211h-419v8q40 0 55 14.5t15 55.5v539q0 44 -15 59.5t-57 15.5v8h236v-8q-40 0 -55 -14.5t-15 -55.5z" />
    <glyph glyph-name="lslash" unicode="&#x142;" horiz-adv-x="292" 
d="M99 530q0 100 -13 122.5t-59 10.5l-2 7l158 51l4 -3v-215v-417q0 -45 15.5 -61.5t57.5 -16.5v-8h-231v8q40 0 55 15t15 58v449z" />
    <glyph glyph-name="Nacute" unicode="&#x143;" horiz-adv-x="647" 
d="M448 862l-189 -93l-5 8l169 151h4zM470 701h153v-8q-40 0 -55 -26.5t-15 -95.5v-571h-18l-429 620v-487q0 -65 16 -95t57 -30v-8h-153v8q39 0 54.5 28t15.5 92v486q0 45 -15 61.5t-57 16.5v8h128l391 -566v432q0 72 -15.5 99.5t-57.5 27.5v8z" />
    <glyph glyph-name="nacute" unicode="&#x144;" horiz-adv-x="642" 
d="M455 652l-189 -93l-5 8l169 151h4zM540 86q0 -45 15.5 -61.5t57.5 -16.5v-8h-231v8q40 0 55 15t15 58v205q0 93 -23 129.5t-79 36.5q-73 0 -113 -58t-40 -175v-133q0 -45 15.5 -61.5t57.5 -16.5v-8h-231v8q40 0 55 15t15 58v214q0 107 -12.5 133t-59.5 13l-2 8l158 51
l4 -3v-173q22 84 76.5 129t126.5 45q140 0 140 -182v-230z" />
    <glyph glyph-name="Ncommaaccent" unicode="&#x145;" horiz-adv-x="647" 
d="M470 701h153v-8q-40 0 -55 -26.5t-15 -95.5v-571h-18l-429 620v-487q0 -65 16 -95t57 -30v-8h-153v8q39 0 54.5 28t15.5 92v486q0 45 -15 61.5t-57 16.5v8h128l391 -566v432q0 72 -15.5 99.5t-57.5 27.5v8zM323 -73q30 0 46.5 -17t16.5 -48q0 -44 -34 -81.5t-87 -52.5
l-3 5q68 28 79 85q-11 -4 -24 -4q-26 0 -41 15.5t-15 39.5q0 25 17 41.5t45 16.5z" />
    <glyph glyph-name="ncommaaccent" unicode="&#x146;" horiz-adv-x="642" 
d="M540 86q0 -45 15.5 -61.5t57.5 -16.5v-8h-231v8q40 0 55 15t15 58v205q0 93 -23 129.5t-79 36.5q-73 0 -113 -58t-40 -175v-133q0 -45 15.5 -61.5t57.5 -16.5v-8h-231v8q40 0 55 15t15 58v214q0 107 -12.5 133t-59.5 13l-2 8l158 51l4 -3v-173q22 84 76.5 129t126.5 45
q140 0 140 -182v-230zM321 -73q30 0 46.5 -17t16.5 -48q0 -44 -34 -81.5t-87 -52.5l-3 5q68 28 79 85q-11 -4 -24 -4q-26 0 -41 15.5t-15 39.5q0 25 17 41.5t45 16.5z" />
    <glyph glyph-name="Ncaron" unicode="&#x147;" horiz-adv-x="647" 
d="M467 915l-144 -139l-143 139l5 7l138 -66l138 66zM470 701h153v-8q-40 0 -55 -26.5t-15 -95.5v-571h-18l-429 620v-487q0 -65 16 -95t57 -30v-8h-153v8q39 0 54.5 28t15.5 92v486q0 45 -15 61.5t-57 16.5v8h128l391 -566v432q0 72 -15.5 99.5t-57.5 27.5v8z" />
    <glyph glyph-name="ncaron" unicode="&#x148;" horiz-adv-x="642" 
d="M474 705l-144 -139l-143 139l5 7l138 -66l138 66zM540 86q0 -45 15.5 -61.5t57.5 -16.5v-8h-231v8q40 0 55 15t15 58v205q0 93 -23 129.5t-79 36.5q-73 0 -113 -58t-40 -175v-133q0 -45 15.5 -61.5t57.5 -16.5v-8h-231v8q40 0 55 15t15 58v214q0 107 -12.5 133t-59.5 13
l-2 8l158 51l4 -3v-173q22 84 76.5 129t126.5 45q140 0 140 -182v-230z" />
    <glyph glyph-name="Eng" unicode="&#x14a;" horiz-adv-x="647" 
d="M470 701h153v-8q-40 0 -55 -26.5t-15 -95.5v-571q0 -101 -35 -159t-93 -58q-51 0 -81.5 27.5t-30.5 63.5q0 26 15.5 43t39.5 17q43 0 56 -38q-16 -10 -22.5 -34t2.5 -45.5t34 -21.5q34 0 62.5 40t32.5 94.5t-26 110.5l-401 580v-487q0 -65 16 -95t57 -30v-8h-153v8
q39 0 54.5 28t15.5 92v486q0 45 -15 61.5t-57 16.5v8h128l391 -566v432q0 72 -15.5 99.5t-57.5 27.5v8z" />
    <glyph glyph-name="eng" unicode="&#x14b;" horiz-adv-x="642" 
d="M400 498q71 0 105.5 -45t34.5 -140v-258q0 -137 -42 -204t-130 -67q-49 0 -82.5 23.5t-33.5 61.5q0 24 15 39.5t38 15.5q39 0 51 -32q-14 -13 -19 -36t5.5 -42t37.5 -19q40 0 56 48t16 174v269q0 93 -23 129.5t-79 36.5q-73 0 -113 -58t-40 -175v-133q0 -45 15.5 -61.5
t57.5 -16.5v-8h-231v8q40 0 55 15t15 58v214q0 107 -12.5 133t-59.5 13l-2 8l158 51l4 -3v-173q22 84 76.5 129t126.5 45z" />
    <glyph glyph-name="Omacron" unicode="&#x14c;" horiz-adv-x="776" 
d="M235 851h304v-29h-304v29zM388 -13q-159 0 -254 98t-95 267q0 162 98 261.5t257 99.5q158 0 251 -98t93 -260q0 -171 -95 -269.5t-255 -98.5zM402 2q114 0 171.5 84t57.5 238q0 173 -71.5 273.5t-185.5 100.5q-111 0 -170 -86.5t-59 -240.5q0 -173 71 -271t186 -98z" />
    <glyph glyph-name="omacron" unicode="&#x14d;" horiz-adv-x="598" 
d="M147 641h304v-29h-304v29zM286 -6q-109 0 -172 64.5t-63 172.5q0 119 72.5 192t188.5 73q111 0 173 -67.5t62 -174.5q0 -118 -73 -189t-188 -71zM316 10q64 0 99 52t35 154q0 118 -44.5 190.5t-121.5 72.5q-69 0 -102.5 -50.5t-33.5 -157.5q0 -117 45.5 -189t122.5 -72z
" />
    <glyph glyph-name="Ohungarumlaut" unicode="&#x150;" horiz-adv-x="776" 
d="M536 929l-104 -163l-10 2l48 190l34 -7zM402 926l-91 -165l-10 2l34 192l34 -6zM388 -13q-159 0 -254 98t-95 267q0 162 98 261.5t257 99.5q158 0 251 -98t93 -260q0 -171 -95 -269.5t-255 -98.5zM402 2q114 0 171.5 84t57.5 238q0 173 -71.5 273.5t-185.5 100.5
q-111 0 -170 -86.5t-59 -240.5q0 -173 71 -271t186 -98z" />
    <glyph glyph-name="ohungarumlaut" unicode="&#x151;" horiz-adv-x="598" 
d="M447 719l-104 -163l-10 2l48 190l34 -7zM313 716l-92 -165l-9 2l34 192l34 -6zM286 -6q-109 0 -172 64.5t-63 172.5q0 119 72.5 192t188.5 73q111 0 173 -67.5t62 -174.5q0 -118 -73 -189t-188 -71zM316 10q64 0 99 52t35 154q0 118 -44.5 190.5t-121.5 72.5
q-69 0 -102.5 -50.5t-33.5 -157.5q0 -117 45.5 -189t122.5 -72z" />
    <glyph glyph-name="OE" unicode="&#x152;" horiz-adv-x="1310" 
d="M394 713q158 0 251 -98t93 -260q0 -171 -95 -269.5t-255 -98.5q-159 0 -254 98t-95 267q0 162 98 261.5t257 99.5zM1257 187l8 -1l-25 -186h-438v8q40 0 55 15t15 58v533q0 45 -15.5 61.5t-57.5 16.5v8h443l-1 -169h-8q-34 98 -66 128t-108 30h-93v-322h79q51 0 70.5 22
t36.5 93h9v-241h-9q-17 71 -36.5 93.5t-70.5 22.5h-79v-346h80q86 0 127 34.5t84 141.5zM402 2q114 0 171.5 84t57.5 238q0 173 -71.5 273.5t-185.5 100.5q-111 0 -170 -86.5t-59 -240.5q0 -173 71 -271t186 -98z" />
    <glyph glyph-name="oe" unicode="&#x153;" horiz-adv-x="1116" 
d="M312 496q111 0 173 -67.5t62 -174.5q0 -118 -73 -189t-188 -71q-109 0 -172 64.5t-63 172.5q0 119 72.5 192t188.5 73zM1070 105l4 -5q-80 -106 -198 -106q-104 0 -162 66t-58 174q0 116 65 189t175 73q75 0 121 -31.5t46 -91.5q0 -71 -87 -108t-232 -26q8 -94 55.5 -143
t128.5 -49q79 0 142 58zM872 482q-61 0 -95.5 -52t-34.5 -150v-14q236 -52 236 108q0 49 -29.5 78.5t-76.5 29.5zM316 10q64 0 99 52t35 154q0 118 -44.5 190.5t-121.5 72.5q-69 0 -102.5 -50.5t-33.5 -157.5q0 -117 45.5 -189t122.5 -72z" />
    <glyph glyph-name="Racute" unicode="&#x154;" horiz-adv-x="635" 
d="M442 862l-189 -93l-5 8l169 151h4zM620 4v-7q-29 -5 -52.5 -5.5t-41 5t-31 11t-24 20t-17 24.5t-13.5 31.5t-10 34.5l-9 39q-7 32 -13 50.5t-20.5 46t-33.5 42t-52 26t-76 11.5h-37v-247q0 -45 15.5 -61.5t57.5 -16.5v-8h-237v8q40 0 55 15t15 58v533q0 45 -15 61.5
t-57 16.5v8h42q26 0 93.5 2t103.5 2q258 0 258 -194q0 -76 -50 -118.5t-156 -54.5q94 -8 141 -44t62 -112q1 -5 6 -28.5t7.5 -34t9 -31.5t13 -32.5t16 -24.5t22.5 -19t28 -7zM190 343h42q101 0 145 37t44 116q0 106 -43 152t-128 46q-20 0 -60 -9v-342z" />
    <glyph glyph-name="racute" unicode="&#x155;" horiz-adv-x="377" 
d="M313 652l-189 -93l-5 8l169 151h4zM319 496q31 0 55 -10l-22 -95q-84 47 -123.5 -8t-39.5 -211v-86q0 -45 19.5 -61.5t71.5 -16.5v-8h-249v8q40 0 55 15t15 58v214q0 107 -12.5 133t-61.5 13l-3 8l159 51l4 -3q2 -160 2 -215q13 113 43.5 163.5t86.5 50.5z" />
    <glyph glyph-name="Rcommaaccent" unicode="&#x156;" horiz-adv-x="635" 
d="M620 4v-7q-29 -5 -52.5 -5.5t-41 5t-31 11t-24 20t-17 24.5t-13.5 31.5t-10 34.5l-9 39q-7 32 -13 50.5t-20.5 46t-33.5 42t-52 26t-76 11.5h-37v-247q0 -45 15.5 -61.5t57.5 -16.5v-8h-237v8q40 0 55 15t15 58v533q0 45 -15 61.5t-57 16.5v8h42q26 0 93.5 2t103.5 2
q258 0 258 -194q0 -76 -50 -118.5t-156 -54.5q94 -8 141 -44t62 -112q1 -5 6 -28.5t7.5 -34t9 -31.5t13 -32.5t16 -24.5t22.5 -19t28 -7zM190 343h42q101 0 145 37t44 116q0 106 -43 152t-128 46q-20 0 -60 -9v-342zM317 -73q30 0 46.5 -17t16.5 -48q0 -44 -34 -81.5
t-87 -52.5l-3 5q68 28 79 85q-11 -4 -24 -4q-26 0 -41 15.5t-15 39.5q0 25 17 41.5t45 16.5z" />
    <glyph glyph-name="rcommaaccent" unicode="&#x157;" horiz-adv-x="377" 
d="M319 496q31 0 55 -10l-22 -95q-84 47 -123.5 -8t-39.5 -211v-86q0 -45 19.5 -61.5t71.5 -16.5v-8h-249v8q40 0 55 15t15 58v214q0 107 -12.5 133t-61.5 13l-3 8l159 51l4 -3q2 -160 2 -215q13 113 43.5 163.5t86.5 50.5zM188 -73q30 0 46.5 -17t16.5 -48q0 -44 -34 -81.5
t-87 -52.5l-3 5q68 28 79 85q-11 -4 -24 -4q-26 0 -41 15.5t-15 39.5q0 25 17 41.5t45 16.5z" />
    <glyph glyph-name="Rcaron" unicode="&#x158;" horiz-adv-x="635" 
d="M462 915l-144 -139l-143 139l5 7l138 -66l138 66zM620 4v-7q-29 -5 -52.5 -5.5t-41 5t-31 11t-24 20t-17 24.5t-13.5 31.5t-10 34.5l-9 39q-7 32 -13 50.5t-20.5 46t-33.5 42t-52 26t-76 11.5h-37v-247q0 -45 15.5 -61.5t57.5 -16.5v-8h-237v8q40 0 55 15t15 58v533
q0 45 -15 61.5t-57 16.5v8h42q26 0 93.5 2t103.5 2q258 0 258 -194q0 -76 -50 -118.5t-156 -54.5q94 -8 141 -44t62 -112q1 -5 6 -28.5t7.5 -34t9 -31.5t13 -32.5t16 -24.5t22.5 -19t28 -7zM190 343h42q101 0 145 37t44 116q0 106 -43 152t-128 46q-20 0 -60 -9v-342z" />
    <glyph glyph-name="rcaron" unicode="&#x159;" horiz-adv-x="377" 
d="M332 705l-144 -139l-143 139l5 7l138 -66l138 66zM319 496q31 0 55 -10l-22 -95q-84 47 -123.5 -8t-39.5 -211v-86q0 -45 19.5 -61.5t71.5 -16.5v-8h-249v8q40 0 55 15t15 58v214q0 107 -12.5 133t-61.5 13l-3 8l159 51l4 -3q2 -160 2 -215q13 113 43.5 163.5t86.5 50.5z
" />
    <glyph glyph-name="Sacute" unicode="&#x15a;" horiz-adv-x="492" 
d="M380 862l-189 -93l-5 8l169 151h4zM135 581q0 -40 17.5 -71.5t45.5 -53.5t62 -42t68.5 -41t62.5 -45.5t45.5 -61.5t17.5 -83q0 -86 -62.5 -138t-160.5 -52q-93 0 -142.5 42.5t-49.5 92.5q0 28 15 44.5t40 16.5q33 0 52 -30q-21 -17 -24 -53t27.5 -68t94.5 -32t103.5 32
t39.5 93q0 53 -33 93.5t-80 68.5t-94.5 57t-80.5 74t-33 104q0 81 58.5 130t148.5 49q70 0 113 -30.5t43 -75.5q0 -25 -14 -39t-38 -14q-40 0 -51 29q16 18 18.5 45t-20 50t-70.5 23q-59 0 -89 -31t-30 -83z" />
    <glyph glyph-name="sacute" unicode="&#x15b;" horiz-adv-x="422" 
d="M339 652l-189 -93l-5 8l169 151h4zM121 402q0 -38 26.5 -63t64.5 -40t75.5 -31.5t64 -47t26.5 -76.5q0 -67 -50 -108.5t-131 -41.5q-66 0 -109.5 27.5t-43.5 64.5q0 20 13 33t34 13q34 0 46 -26q-16 -15 -18 -38.5t19.5 -43t66.5 -19.5q48 0 78 22.5t30 66.5
q0 39 -25.5 65.5t-61.5 41.5t-72.5 31t-62 47t-25.5 77q0 62 46 101t115 39q57 0 94.5 -26t37.5 -59q0 -18 -12 -28.5t-32 -10.5q-33 0 -42 25q14 14 14.5 34.5t-18 37.5t-55.5 17q-43 0 -68 -23t-25 -61z" />
    <glyph glyph-name="Scedilla" unicode="&#x15e;" horiz-adv-x="492" 
d="M454 183q0 -83 -57.5 -134t-150.5 -55l-9 -57q58 7 85.5 -13t27.5 -56q0 -38 -26 -61t-63 -23q-51 0 -86 50l4 8q32 -15 59 -15q49 0 49 44q0 52 -84 47l-5 7l26 69q-89 1 -137 43.5t-48 90.5q0 28 15 44.5t40 16.5q33 0 52 -30q-21 -17 -24 -53t27.5 -68t94.5 -32
t103.5 32t39.5 93q0 53 -33 93.5t-80 68.5t-94.5 57t-80.5 74t-33 104q0 81 58.5 130t148.5 49q70 0 113 -30.5t43 -75.5q0 -25 -14 -39t-38 -14q-40 0 -51 29q16 18 18.5 45t-20 50t-70.5 23q-59 0 -89 -31t-30 -83q0 -40 17.5 -71.5t45.5 -53.5t62 -42t68.5 -41
t62.5 -45.5t45.5 -61.5t17.5 -83z" />
    <glyph glyph-name="scedilla" unicode="&#x15f;" horiz-adv-x="422" 
d="M378 144q0 -66 -48 -107t-125 -43l-9 -57q58 7 85.5 -13t27.5 -56q0 -38 -26 -61t-63 -23q-51 0 -86 50l4 8q32 -15 59 -15q49 0 49 44q0 52 -84 47l-5 7l26 69q-61 4 -100 30.5t-39 61.5q0 20 13 33t34 13q34 0 46 -26q-16 -15 -18 -38.5t19.5 -43t66.5 -19.5
q48 0 78 22.5t30 66.5q0 39 -25.5 65.5t-61.5 41.5t-72.5 31t-62 47t-25.5 77q0 62 46 101t115 39q57 0 94.5 -26t37.5 -59q0 -18 -12 -28.5t-32 -10.5q-33 0 -42 25q14 14 14.5 34.5t-18 37.5t-55.5 17q-43 0 -68 -23t-25 -61t26.5 -63t64.5 -40t75.5 -31.5t64 -47
t26.5 -76.5z" />
    <glyph glyph-name="Scaron" unicode="&#x160;" horiz-adv-x="492" 
d="M399 915l-144 -139l-143 139l5 7l138 -66l138 66zM135 581q0 -40 17.5 -71.5t45.5 -53.5t62 -42t68.5 -41t62.5 -45.5t45.5 -61.5t17.5 -83q0 -86 -62.5 -138t-160.5 -52q-93 0 -142.5 42.5t-49.5 92.5q0 28 15 44.5t40 16.5q33 0 52 -30q-21 -17 -24 -53t27.5 -68
t94.5 -32t103.5 32t39.5 93q0 53 -33 93.5t-80 68.5t-94.5 57t-80.5 74t-33 104q0 81 58.5 130t148.5 49q70 0 113 -30.5t43 -75.5q0 -25 -14 -39t-38 -14q-40 0 -51 29q16 18 18.5 45t-20 50t-70.5 23q-59 0 -89 -31t-30 -83z" />
    <glyph glyph-name="scaron" unicode="&#x161;" horiz-adv-x="422" 
d="M358 705l-144 -139l-143 139l5 7l138 -66l138 66zM121 402q0 -38 26.5 -63t64.5 -40t75.5 -31.5t64 -47t26.5 -76.5q0 -67 -50 -108.5t-131 -41.5q-66 0 -109.5 27.5t-43.5 64.5q0 20 13 33t34 13q34 0 46 -26q-16 -15 -18 -38.5t19.5 -43t66.5 -19.5q48 0 78 22.5
t30 66.5q0 39 -25.5 65.5t-61.5 41.5t-72.5 31t-62 47t-25.5 77q0 62 46 101t115 39q57 0 94.5 -26t37.5 -59q0 -18 -12 -28.5t-32 -10.5q-33 0 -42 25q14 14 14.5 34.5t-18 37.5t-55.5 17q-43 0 -68 -23t-25 -61z" />
    <glyph glyph-name="uni0162" unicode="&#x162;" horiz-adv-x="583" 
d="M558 700l2 -181h-8q-28 104 -53.5 138t-78.5 34h-81v-605q0 -45 15.5 -61.5t57.5 -16.5v-8h-126l-10 -63q58 7 85.5 -13t27.5 -56q0 -38 -26 -61t-63 -23q-51 0 -86 50l4 8q32 -15 59 -15q49 0 49 44q0 52 -84 47l-5 7l28 75h-90v8q40 0 55 15t15 58v610h-82
q-53 0 -78 -33.5t-54 -138.5h-8l2 181h1h532z" />
    <glyph glyph-name="uni0163" unicode="&#x163;" horiz-adv-x="375" 
d="M223 -10q-17 0 -30 3l-9 -56q58 7 85.5 -13t27.5 -56q0 -38 -26.5 -61t-62.5 -23q-51 0 -86 50l4 8q32 -15 59 -15q49 0 49 44q0 52 -84 47l-5 7l28 74q-68 26 -68 122v335h-80v11l80 7v91q49 10 84 35l4 -2v-117l158 11l3 -2l-9 -34h-152v-298q0 -66 18.5 -94t59.5 -28
q45 0 94 46l5 -6q-72 -86 -147 -86z" />
    <glyph glyph-name="Tcaron" unicode="&#x164;" horiz-adv-x="583" 
d="M435 915l-144 -139l-143 139l5 7l138 -66l138 66zM558 700l2 -181h-8q-28 104 -53.5 138t-78.5 34h-81v-605q0 -45 15.5 -61.5t57.5 -16.5v-8h-237v8q40 0 55 15t15 58v610h-82q-53 0 -78 -33.5t-54 -138.5h-8l2 181h1h532z" />
    <glyph glyph-name="tcaron" unicode="&#x165;" horiz-adv-x="375" 
d="M259 528h-10l-9 193l70 -3l3 -5zM365 82l5 -6q-72 -86 -147 -86q-57 0 -87.5 34t-30.5 97v335h-80v11l80 7v91q49 10 84 35l4 -2v-117l158 11l3 -2l-9 -34h-152v-298q0 -66 18.5 -94t59.5 -28q45 0 94 46z" />
    <glyph glyph-name="Tbar" unicode="&#x166;" horiz-adv-x="583" 
d="M558 700l2 -181h-8q-28 104 -53.5 138t-78.5 34h-81v-336h115v-11h-115v-258q0 -45 15.5 -61.5t57.5 -16.5v-8h-237v8q40 0 55 15t15 58v263h-117v11h117v336h-82q-53 0 -78 -33.5t-54 -138.5h-8l2 181h1h532z" />
    <glyph glyph-name="tbar" unicode="&#x167;" horiz-adv-x="375" 
d="M365 82l5 -6q-72 -86 -147 -86q-57 0 -87.5 34t-30.5 97v133h-81v11h81v191h-80v11l80 7v91q49 10 84 35l4 -2v-117l158 11l3 -2l-9 -34h-152v-191h157v-11h-157v-96q0 -66 18.5 -94t59.5 -28q45 0 94 46z" />
    <glyph glyph-name="Umacron" unicode="&#x16a;" horiz-adv-x="711" 
d="M218 851h304v-29h-304v29zM687 700v-8q-40 0 -55.5 -28.5t-15.5 -108.5v-307q0 -259 -259 -259q-132 0 -201.5 63t-69.5 186v376q0 45 -15 61.5t-57 16.5v8h236v-8q-40 0 -55 -15t-15 -58v-369q0 -123 45 -178.5t152 -55.5q228 0 228 242v292q0 83 -16 112.5t-60 29.5v8
h158z" />
    <glyph glyph-name="umacron" unicode="&#x16b;" horiz-adv-x="617" 
d="M460 641v-29h-304v29h304zM522 86q0 -45 14 -61.5t52 -16.5v-8h-79q-39 0 -69 -3l-4 4l-2 165q-22 -81 -73.5 -126.5t-120.5 -45.5q-75 0 -110.5 42t-35.5 130v152q0 89 -12.5 111.5t-54.5 11.5l-2 7l153 51l4 -4v-299q0 -88 22.5 -123t77.5 -35q74 0 113 58.5t39 169.5
v30q0 103 -13 129t-59 13l-2 7l158 54l4 -4v-409z" />
    <glyph glyph-name="Uring" unicode="&#x16e;" horiz-adv-x="711" 
d="M370 779q-51 0 -80 22t-29 64q0 41 29 62.5t80 21.5q50 0 79 -21.5t29 -62.5q0 -42 -29 -64t-79 -22zM375 791q48 0 48 69q0 77 -59 77q-48 0 -48 -68q0 -78 59 -78zM687 700v-8q-40 0 -55.5 -28.5t-15.5 -108.5v-307q0 -259 -259 -259q-132 0 -201.5 63t-69.5 186v376
q0 45 -15 61.5t-57 16.5v8h236v-8q-40 0 -55 -15t-15 -58v-369q0 -123 45 -178.5t152 -55.5q228 0 228 242v292q0 83 -16 112.5t-60 29.5v8h158z" />
    <glyph glyph-name="uring" unicode="&#x16f;" horiz-adv-x="617" 
d="M309 569q-51 0 -80 22t-29 64q0 41 29 62.5t80 21.5q50 0 79 -21.5t29 -62.5q0 -42 -29 -64t-79 -22zM303 727q-48 0 -48 -68q0 -78 59 -78q48 0 48 69q0 77 -59 77zM522 86q0 -45 14 -61.5t52 -16.5v-8h-79q-39 0 -69 -3l-4 4l-2 165q-22 -81 -73.5 -126.5t-120.5 -45.5
q-75 0 -110.5 42t-35.5 130v152q0 89 -12.5 111.5t-54.5 11.5l-2 7l153 51l4 -4v-299q0 -88 22.5 -123t77.5 -35q74 0 113 58.5t39 169.5v30q0 103 -13 129t-59 13l-2 7l158 54l4 -4v-409z" />
    <glyph glyph-name="Uhungarumlaut" unicode="&#x170;" horiz-adv-x="711" 
d="M518 929l-104 -163l-10 2l48 190l34 -7zM384 926l-91 -165l-10 2l34 192l34 -6zM687 700v-8q-40 0 -55.5 -28.5t-15.5 -108.5v-307q0 -259 -259 -259q-132 0 -201.5 63t-69.5 186v376q0 45 -15 61.5t-57 16.5v8h236v-8q-40 0 -55 -15t-15 -58v-369q0 -123 45 -178.5
t152 -55.5q228 0 228 242v292q0 83 -16 112.5t-60 29.5v8h158z" />
    <glyph glyph-name="uhungarumlaut" unicode="&#x171;" horiz-adv-x="617" 
d="M457 719l-104 -163l-10 2l48 190l34 -7zM322 716l-91 -165l-9 2l34 192l34 -6zM522 86q0 -45 14 -61.5t52 -16.5v-8h-79q-39 0 -69 -3l-4 4l-2 165q-22 -81 -73.5 -126.5t-120.5 -45.5q-75 0 -110.5 42t-35.5 130v152q0 89 -12.5 111.5t-54.5 11.5l-2 7l153 51l4 -4v-299
q0 -88 22.5 -123t77.5 -35q74 0 113 58.5t39 169.5v30q0 103 -13 129t-59 13l-2 7l158 54l4 -4v-409z" />
    <glyph glyph-name="Uogonek" unicode="&#x172;" horiz-adv-x="711" 
d="M687 700v-8q-40 0 -55.5 -28.5t-15.5 -108.5v-307q0 -259 -259 -259q-132 0 -201.5 63t-69.5 186v376q0 45 -15 61.5t-57 16.5v8h236v-8q-40 0 -55 -15t-15 -58v-369q0 -123 45 -178.5t152 -55.5q228 0 228 242v292q0 83 -16 112.5t-60 29.5v8h158zM579 -135l6 -6
q-31 -49 -100 -49q-33 0 -54 17t-21 50q0 44 43 75.5t134 61.5l2 -5q-102 -56 -102 -111q0 -23 13 -35.5t34 -12.5q26 0 45 15z" />
    <glyph glyph-name="uogonek" unicode="&#x173;" horiz-adv-x="617" 
d="M560 0q-90 -52 -90 -104q0 -23 13 -35.5t34 -12.5q25 0 45 15l6 -6q-32 -49 -100 -49q-33 0 -54 17t-21 50q0 40 35 69t108 56h-27q-39 0 -69 -3l-4 4l-2 165q-22 -81 -73.5 -126.5t-120.5 -45.5q-75 0 -110.5 42t-35.5 130v152q0 89 -12.5 111.5t-54.5 11.5l-2 7l153 51
l4 -4v-299q0 -88 22.5 -123t77.5 -35q74 0 113 58.5t39 169.5v30q0 103 -13 129t-59 13l-2 7l158 54l4 -4v-409q0 -38 9 -55t33 -21q1 0 3 1t3 1l1 -3q5 -1 17 -1v-8h-28z" />
    <glyph glyph-name="Wcircumflex" unicode="&#x174;" horiz-adv-x="1062" 
d="M537 854l-139 -66l-5 7l143 140l144 -140l-5 -7zM879 700h187v-8q-33 0 -56 -31t-61 -127l-209 -534h-22l-184 484l-191 -484h-21l-213 558q-31 81 -54.5 107t-59.5 26v9h256v-9q-56 0 -67.5 -25t15.5 -102l172 -456l157 392l-21 58q-32 82 -55 108t-59 26v8h249v-8
q-53 0 -63 -25.5t18 -102.5l171 -461l169 432q38 96 27 126.5t-85 30.5v8z" />
    <glyph glyph-name="wcircumflex" unicode="&#x175;" horiz-adv-x="833" 
d="M417 644l-139 -66l-5 7l143 140l144 -140l-5 -7zM654 490h182v-8q-31 0 -49.5 -24.5t-56.5 -110.5l-152 -349h-12l-144 325l-142 -325h-13l-156 350q-37 82 -59 108t-55 26v8h249v-8q-57 0 -67 -25t22 -103l111 -259l104 241l-5 12q-36 81 -58.5 107.5t-55.5 26.5v8h253
v-8q-37 0 -54.5 -10t-17.5 -38.5t23 -79.5l110 -253l107 247q31 72 16 103t-80 31v8z" />
    <glyph glyph-name="Ycircumflex" unicode="&#x176;" horiz-adv-x="654" 
d="M349 854l-139 -66l-5 7l143 140l144 -140l-5 -7zM495 700h152v-8q-29 0 -51.5 -25t-66.5 -108l-144 -267v-209q0 -43 15.5 -59t59.5 -16v-8h-244v8q43 0 59 14.5t16 55.5v200l-189 346q-23 41 -43 54.5t-53 13.5v8h253v-8q-45 0 -59 -13.5t5 -52.5l174 -320l136 252
q43 86 37 110t-57 24v8z" />
    <glyph glyph-name="ycircumflex" unicode="&#x177;" horiz-adv-x="530" 
d="M275 644l-139 -66l-5 7l143 140l144 -140l-5 -7zM340 490h182v-8q-31 0 -50 -25t-56 -110l-152 -349l-22 -52q-36 -83 -70 -122t-90 -39q-43 0 -70 23.5t-27 61.5q0 25 16 40t38 15q37 0 51 -32q-24 -23 -20.5 -56.5t35.5 -33.5q64 0 125 146l21 49l-155 350
q-35 81 -57.5 107.5t-55.5 26.5v8h253v-8q-37 0 -54.5 -10t-17.5 -38.5t23 -79.5l110 -253l107 247q31 72 16 103t-80 31v8z" />
    <glyph glyph-name="Ydieresis" unicode="&#x178;" horiz-adv-x="654" 
d="M244 790q-24 0 -37.5 14.5t-13.5 38.5q0 55 56 55q24 0 37.5 -14.5t13.5 -40.5q0 -25 -14.5 -39t-41.5 -14zM444 790q-24 0 -37.5 14.5t-13.5 38.5q0 55 56 55q24 0 37.5 -14.5t13.5 -40.5q0 -25 -14.5 -39t-41.5 -14zM495 700h152v-8q-29 0 -51.5 -25t-66.5 -108
l-144 -267v-209q0 -43 15.5 -59t59.5 -16v-8h-244v8q43 0 59 14.5t16 55.5v200l-189 346q-23 41 -43 54.5t-53 13.5v8h253v-8q-45 0 -59 -13.5t5 -52.5l174 -320l136 252q43 86 37 110t-57 24v8z" />
    <glyph glyph-name="Zacute" unicode="&#x179;" horiz-adv-x="558" 
d="M407 862l-189 -93l-5 8l169 151h4zM61 700h454l3 -18l-391 -671h186q88 0 127.5 40t67.5 152h8l8 -203h-491l-3 17l390 672h-186q-68 0 -100 -33.5t-58 -131.5h-8z" />
    <glyph glyph-name="zacute" unicode="&#x17a;" horiz-adv-x="451" 
d="M362 652l-189 -93l-5 8l169 151h4zM403 159l7 -159h-369l-5 19l32 -9h9l-41 9l287 460h-140q-46 0 -68.5 -28t-36.5 -102h-6l-7 141h342l1 -19l-32 8h-5l37 -8l-285 -461h144q61 0 88.5 30t41.5 119h6z" />
    <glyph glyph-name="Zdotaccent" unicode="&#x17b;" horiz-adv-x="558" 
d="M281 789q-26 0 -40.5 14.5t-14.5 40.5q0 27 16 42.5t44 15.5q26 0 41 -14.5t15 -40.5q0 -27 -16.5 -42.5t-44.5 -15.5zM61 700h454l3 -18l-391 -671h186q88 0 127.5 40t67.5 152h8l8 -203h-491l-3 17l390 672h-186q-68 0 -100 -33.5t-58 -131.5h-8z" />
    <glyph glyph-name="zdotaccent" unicode="&#x17c;" horiz-adv-x="451" 
d="M237 579q-26 0 -40.5 14.5t-14.5 40.5q0 27 16 42.5t44 15.5q26 0 41 -14.5t15 -40.5q0 -27 -16.5 -42.5t-44.5 -15.5zM403 159l7 -159h-369l-5 19l32 -9h9l-41 9l287 460h-140q-46 0 -68.5 -28t-36.5 -102h-6l-7 141h342l1 -19l-32 8h-5l37 -8l-285 -461h144
q61 0 88.5 30t41.5 119h6z" />
    <glyph glyph-name="Zcaron" unicode="&#x17d;" horiz-adv-x="558" 
d="M426 915l-144 -139l-143 139l5 7l138 -66l138 66zM516 203l8 -203h-491l-3 17l390 672h-186q-68 0 -100 -33.5t-58 -131.5h-8l-7 176h454l3 -18l-391 -671h186q88 0 127.5 40t67.5 152h8z" />
    <glyph glyph-name="zcaron" unicode="&#x17e;" horiz-adv-x="451" 
d="M381 705l-144 -139l-143 139l5 7l138 -66l138 66zM403 159l7 -159h-369l-5 19l32 -9h9l-41 9l287 460h-140q-46 0 -68.5 -28t-36.5 -102h-6l-7 141h342l1 -19l-32 8h-5l37 -8l-285 -461h144q61 0 88.5 30t41.5 119h6z" />
    <glyph glyph-name="uni01CE" unicode="&#x1ce;" horiz-adv-x="508" 
d="M398 705l-144 -139l-143 139l5 7l138 -66l138 66zM490 45l4 -5q-40 -47 -84 -47q-72 0 -72 77v25q-43 -101 -163 -101q-66 0 -102.5 29.5t-36.5 85.5q0 152 302 160v14q0 103 -27.5 153t-88.5 50q-35 0 -53.5 -18.5t-17 -42.5t19.5 -42q-5 -17 -20 -27t-35 -10
q-24 0 -37.5 12.5t-13.5 33.5q0 45 52.5 74.5t125.5 29.5q89 0 134.5 -47t45.5 -164v-204q0 -28 7 -39t23 -11q20 0 37 14zM224 30q114 0 114 162v49q-114 20 -163.5 -7t-49.5 -95q0 -51 26.5 -80t72.5 -29z" />
    <glyph glyph-name="Scommaaccent" unicode="&#x218;" horiz-adv-x="492" 
d="M135 581q0 -40 17.5 -71.5t45.5 -53.5t62 -42t68.5 -41t62.5 -45.5t45.5 -61.5t17.5 -83q0 -86 -62.5 -138t-160.5 -52q-93 0 -142.5 42.5t-49.5 92.5q0 28 15 44.5t40 16.5q33 0 52 -30q-21 -17 -24 -53t27.5 -68t94.5 -32t103.5 32t39.5 93q0 53 -33 93.5t-80 68.5
t-94.5 57t-80.5 74t-33 104q0 81 58.5 130t148.5 49q70 0 113 -30.5t43 -75.5q0 -25 -14 -39t-38 -14q-40 0 -51 29q16 18 18.5 45t-20 50t-70.5 23q-59 0 -89 -31t-30 -83zM252 -73q30 0 46.5 -17t16.5 -48q0 -44 -34 -81.5t-87 -52.5l-3 5q68 28 79 85q-11 -4 -24 -4
q-26 0 -41 15.5t-15 39.5q0 25 17 41.5t45 16.5z" />
    <glyph glyph-name="scommaaccent" unicode="&#x219;" horiz-adv-x="422" 
d="M121 402q0 -38 26.5 -63t64.5 -40t75.5 -31.5t64 -47t26.5 -76.5q0 -67 -50 -108.5t-131 -41.5q-66 0 -109.5 27.5t-43.5 64.5q0 20 13 33t34 13q34 0 46 -26q-16 -15 -18 -38.5t19.5 -43t66.5 -19.5q48 0 78 22.5t30 66.5q0 39 -25.5 65.5t-61.5 41.5t-72.5 31t-62 47
t-25.5 77q0 62 46 101t115 39q57 0 94.5 -26t37.5 -59q0 -18 -12 -28.5t-32 -10.5q-33 0 -42 25q14 14 14.5 34.5t-18 37.5t-55.5 17q-43 0 -68 -23t-25 -61zM211 -73q30 0 46.5 -17t16.5 -48q0 -44 -34 -81.5t-87 -52.5l-3 5q68 28 79 85q-11 -4 -24 -4q-26 0 -41 15.5
t-15 39.5q0 25 17 41.5t45 16.5z" />
    <glyph glyph-name="uni021A" unicode="&#x21a;" horiz-adv-x="583" 
d="M558 700l2 -181h-8q-28 104 -53.5 138t-78.5 34h-81v-605q0 -45 15.5 -61.5t57.5 -16.5v-8h-237v8q40 0 55 15t15 58v610h-82q-53 0 -78 -33.5t-54 -138.5h-8l2 181h1h532zM291 -73q30 0 46.5 -17t16.5 -48q0 -44 -34 -81.5t-87 -52.5l-3 5q68 28 79 85q-11 -4 -24 -4
q-26 0 -41 15.5t-15 39.5q0 25 17 41.5t45 16.5z" />
    <glyph glyph-name="uni021B" unicode="&#x21b;" horiz-adv-x="375" 
d="M365 82l5 -6q-72 -86 -147 -86q-57 0 -87.5 34t-30.5 97v335h-80v11l80 7v91q49 10 84 35l4 -2v-117l158 11l3 -2l-9 -34h-152v-298q0 -66 18.5 -94t59.5 -28q45 0 94 46zM199 -73q30 0 46.5 -17t16.5 -48q0 -44 -34 -81.5t-87 -52.5l-3 5q68 28 79 85q-11 -4 -24 -4
q-26 0 -41 15.5t-15 39.5q0 25 17 41.5t45 16.5z" />
    <glyph glyph-name="uni0237" unicode="&#x237;" horiz-adv-x="270" 
d="M106 295q0 97 -13 127.5t-64 18.5l-3 8l164 51l4 -3v-451q0 -132 -42 -197t-130 -65q-49 0 -82.5 23.5t-33.5 61.5q0 24 15 39.5t38 15.5q38 0 52 -32q-15 -13 -20 -36t6 -42t38 -19q39 0 55 42t16 150v308z" />
    <glyph glyph-name="circumflex" unicode="&#x2c6;" horiz-adv-x="460" 
d="M347 585l-5 -6l-139 65l-138 -65l-5 6l143 140z" />
    <glyph glyph-name="caron" unicode="&#x2c7;" horiz-adv-x="460" 
d="M341 712l6 -6l-144 -140l-143 140l5 6l138 -65z" />
    <glyph glyph-name="breve" unicode="&#x2d8;" horiz-adv-x="460" 
d="M214 647q90 0 109 64l8 -4q-7 -123 -122 -123q-116 0 -124 123l8 4q21 -64 121 -64z" />
    <glyph glyph-name="dotaccent" unicode="&#x2d9;" horiz-adv-x="370" 
d="M190 579q-26 0 -40.5 14.5t-14.5 40.5q0 27 16 42.5t44 15.5q27 0 41.5 -14.5t14.5 -40.5q0 -27 -16.5 -42.5t-44.5 -15.5z" />
    <glyph glyph-name="ring" unicode="&#x2da;" horiz-adv-x="460" 
d="M194 569q-51 0 -80 22t-29 64q0 41 29 62.5t80 21.5q50 0 79 -21.5t29 -62.5q0 -42 -29 -64t-79 -22zM199 581q48 0 48 69q0 77 -59 77q-48 0 -48 -67q0 -79 59 -79z" />
    <glyph glyph-name="ogonek" unicode="&#x2db;" horiz-adv-x="395" 
d="M264 -144l5 -6q-31 -49 -100 -49q-33 0 -54 17t-21 50q0 44 43 75.5t134 61.5l2 -5q-101 -55 -101 -111q0 -23 12.5 -35.5t33.5 -12.5q25 0 46 15z" />
    <glyph glyph-name="tilde" unicode="&#x2dc;" horiz-adv-x="460" 
d="M277 590q-27 0 -72 16t-74 16q-60 0 -70 -39l-7 2q13 96 97 96q26 0 72 -16t71 -16q54 0 64 38l7 -3q-4 -48 -28 -71t-60 -23z" />
    <glyph glyph-name="hungarumlaut" unicode="&#x2dd;" horiz-adv-x="460" 
d="M333 719l-104 -163l-10 2l48 190l34 -7zM199 716l-91 -165l-10 2l35 192l33 -6z" />
    <glyph glyph-name="gravecomb" unicode="&#x300;" 
d="M-259 711l161 -138l-6 -8l-204 95l-1 4z" />
    <glyph glyph-name="acutecomb" unicode="&#x301;" 
d="M-97 652l-189 -93l-5 8l169 151h4z" />
    <glyph glyph-name="uni0302" unicode="&#x302;" 
d="M-67 585l-5 -6l-139 65l-138 -65l-5 6l143 140z" />
    <glyph glyph-name="tildecomb" unicode="&#x303;" 
d="M-145 590q-27 0 -72 16t-74 16q-60 0 -70 -39l-7 2q13 96 97 96q26 0 72 -16t71 -16q54 0 64 38l7 -3q-4 -48 -28 -71t-60 -23z" />
    <glyph glyph-name="uni0304" unicode="&#x304;" 
d="M-363 641h304v-29h-304v29z" />
    <glyph glyph-name="uni0306" unicode="&#x306;" 
d="M-202 647q90 0 109 64l8 -4q-7 -123 -122 -123q-116 0 -124 123l8 4q21 -64 121 -64z" />
    <glyph glyph-name="uni0307" unicode="&#x307;" 
d="M-193 579q-26 0 -40.5 14.5t-14.5 40.5q0 27 16 42.5t44 15.5q27 0 41.5 -14.5t14.5 -40.5q0 -27 -16.5 -42.5t-44.5 -15.5z" />
    <glyph glyph-name="uni0308" unicode="&#x308;" 
d="M-327 580q-24 0 -37.5 14.5t-13.5 39.5q0 54 56 54q24 0 37.5 -14.5t13.5 -39.5q0 -54 -56 -54zM-127 580q-24 0 -37.5 14.5t-13.5 39.5q0 54 56 54q24 0 37.5 -14.5t13.5 -39.5q0 -54 -56 -54z" />
    <glyph glyph-name="uni030A" unicode="&#x30a;" 
d="M-195 569q-51 0 -80 22t-29 64q0 41 29 62.5t80 21.5q50 0 79 -21.5t29 -62.5q0 -42 -29 -64t-79 -22zM-190 581q48 0 48 69q0 77 -59 77q-48 0 -48 -67q0 -79 59 -79z" />
    <glyph glyph-name="uni030B" unicode="&#x30b;" 
d="M-84 719l-104 -163l-10 2l48 190l34 -7zM-218 716l-91 -165l-10 2l35 192l33 -6z" />
    <glyph glyph-name="uni030C" unicode="&#x30c;" 
d="M-73 712l6 -6l-144 -140l-143 140l5 6l138 -65z" />
    <glyph glyph-name="uni0312" unicode="&#x312;" 
d="M-128 665q25 0 40.5 -15.5t15.5 -39.5q0 -25 -17 -41.5t-46 -16.5t-46 17t-17 48q0 44 34 81.5t87 52.5l3 -5q-69 -28 -78 -85q9 4 24 4z" />
    <glyph glyph-name="uni0326" unicode="&#x326;" 
d="M-134 -73q30 0 46.5 -17t16.5 -48q0 -44 -34 -81.5t-87 -52.5l-3 5q68 28 79 85q-11 -4 -24 -4q-26 0 -41 15.5t-15 39.5q0 25 17 41.5t45 16.5z" />
    <glyph glyph-name="uni0327" unicode="&#x327;" 
d="M-215 -63q58 7 86 -13.5t28 -56.5q0 -37 -26 -60t-63 -23q-51 0 -86 50l4 8q33 -15 59 -15q49 0 49 44q0 52 -84 47l-5 7l28 75h21z" />
    <glyph glyph-name="uni0328" unicode="&#x328;" 
d="M-132 -144l5 -6q-31 -49 -100 -49q-33 0 -54 17t-21 50q0 44 43 75.5t134 61.5l2 -5q-101 -55 -101 -111q0 -23 12.5 -35.5t33.5 -12.5q25 0 46 15z" />
    <glyph glyph-name="uni0335" unicode="&#x335;" 
d="M-536 403v10h326v-10h-326z" />
    <glyph glyph-name="uni0336" unicode="&#x336;" 
d="M-640 313v11h662v-11h-662z" />
    <glyph glyph-name="uni0337" unicode="&#x337;" 
 />
    <glyph glyph-name="uni0338" unicode="&#x338;" 
d="M-512 -57l-10 8l413 584l13 -8z" />
    <glyph glyph-name="Wgrave" unicode="&#x1e80;" horiz-adv-x="1062" 
d="M624 775l-204 95l-1 4l50 47l161 -138zM879 700h187v-8q-33 0 -56 -31t-61 -127l-209 -534h-22l-184 484l-191 -484h-21l-213 558q-31 81 -54.5 107t-59.5 26v9h256v-9q-56 0 -67.5 -25t15.5 -102l172 -456l157 392l-21 58q-32 82 -55 108t-59 26v8h249v-8
q-53 0 -63 -25.5t18 -102.5l171 -461l169 432q38 96 27 126.5t-85 30.5v8z" />
    <glyph glyph-name="wgrave" unicode="&#x1e81;" horiz-adv-x="833" 
d="M504 565l-204 95l-1 4l50 47l161 -138zM654 490h182v-8q-31 0 -49.5 -24.5t-56.5 -110.5l-152 -349h-12l-144 325l-142 -325h-13l-156 350q-37 82 -59 108t-55 26v8h249v-8q-57 0 -67 -25t22 -103l111 -259l104 241l-5 12q-36 81 -58.5 107.5t-55.5 26.5v8h253v-8
q-37 0 -54.5 -10t-17.5 -38.5t23 -79.5l110 -253l107 247q31 72 16 103t-80 31v8z" />
    <glyph glyph-name="Wacute" unicode="&#x1e82;" horiz-adv-x="1062" 
d="M661 862l-189 -93l-5 8l169 151h4zM879 700h187v-8q-33 0 -56 -31t-61 -127l-209 -534h-22l-184 484l-191 -484h-21l-213 558q-31 81 -54.5 107t-59.5 26v9h256v-9q-56 0 -67.5 -25t15.5 -102l172 -456l157 392l-21 58q-32 82 -55 108t-59 26v8h249v-8q-53 0 -63 -25.5
t18 -102.5l171 -461l169 432q38 96 27 126.5t-85 30.5v8z" />
    <glyph glyph-name="wacute" unicode="&#x1e83;" horiz-adv-x="833" 
d="M541 652l-189 -93l-5 8l169 151h4zM654 490h182v-8q-31 0 -49.5 -24.5t-56.5 -110.5l-152 -349h-12l-144 325l-142 -325h-13l-156 350q-37 82 -59 108t-55 26v8h249v-8q-57 0 -67 -25t22 -103l111 -259l104 241l-5 12q-36 81 -58.5 107.5t-55.5 26.5v8h253v-8
q-37 0 -54.5 -10t-17.5 -38.5t23 -79.5l110 -253l107 247q31 72 16 103t-80 31v8z" />
    <glyph glyph-name="Wdieresis" unicode="&#x1e84;" horiz-adv-x="1062" 
d="M433 790q-24 0 -37.5 14.5t-13.5 38.5q0 55 56 55q24 0 37.5 -14.5t13.5 -40.5q0 -25 -14.5 -39t-41.5 -14zM633 790q-24 0 -37.5 14.5t-13.5 38.5q0 55 56 55q24 0 37.5 -14.5t13.5 -40.5q0 -25 -14.5 -39t-41.5 -14zM879 700h187v-8q-33 0 -56 -31t-61 -127l-209 -534
h-22l-184 484l-191 -484h-21l-213 558q-31 81 -54.5 107t-59.5 26v9h256v-9q-56 0 -67.5 -25t15.5 -102l172 -456l157 392l-21 58q-32 82 -55 108t-59 26v8h249v-8q-53 0 -63 -25.5t18 -102.5l171 -461l169 432q38 96 27 126.5t-85 30.5v8z" />
    <glyph glyph-name="wdieresis" unicode="&#x1e85;" horiz-adv-x="833" 
d="M313 580q-24 0 -37.5 14.5t-13.5 38.5q0 55 56 55q24 0 37.5 -14.5t13.5 -40.5q0 -25 -14.5 -39t-41.5 -14zM513 580q-24 0 -37.5 14.5t-13.5 38.5q0 55 56 55q24 0 37.5 -14.5t13.5 -40.5q0 -25 -14.5 -39t-41.5 -14zM654 490h182v-8q-31 0 -49.5 -24.5t-56.5 -110.5
l-152 -349h-12l-144 325l-142 -325h-13l-156 350q-37 82 -59 108t-55 26v8h249v-8q-57 0 -67 -25t22 -103l111 -259l104 241l-5 12q-36 81 -58.5 107.5t-55.5 26.5v8h253v-8q-37 0 -54.5 -10t-17.5 -38.5t23 -79.5l110 -253l107 247q31 72 16 103t-80 31v8z" />
    <glyph glyph-name="Ygrave" unicode="&#x1ef2;" horiz-adv-x="654" 
d="M435 775l-204 95l-1 4l50 47l161 -138zM495 700h152v-8q-29 0 -51.5 -25t-66.5 -108l-144 -267v-209q0 -43 15.5 -59t59.5 -16v-8h-244v8q43 0 59 14.5t16 55.5v200l-189 346q-23 41 -43 54.5t-53 13.5v8h253v-8q-45 0 -59 -13.5t5 -52.5l174 -320l136 252q43 86 37 110
t-57 24v8z" />
    <glyph glyph-name="ygrave" unicode="&#x1ef3;" horiz-adv-x="530" 
d="M362 565l-204 95l-1 4l50 47l161 -138zM340 490h182v-8q-31 0 -50 -25t-56 -110l-152 -349l-22 -52q-36 -83 -70 -122t-90 -39q-43 0 -70 23.5t-27 61.5q0 25 16 40t38 15q37 0 51 -32q-24 -23 -20.5 -56.5t35.5 -33.5q64 0 125 146l21 49l-155 350q-35 81 -57.5 107.5
t-55.5 26.5v8h253v-8q-37 0 -54.5 -10t-17.5 -38.5t23 -79.5l110 -253l107 247q31 72 16 103t-80 31v8z" />
    <glyph glyph-name="endash" unicode="&#x2013;" horiz-adv-x="576" 
d="M47 363h486l-4 -24h-486z" />
    <glyph glyph-name="emdash" unicode="&#x2014;" horiz-adv-x="876" 
d="M47 363h786l-4 -24h-786z" />
    <glyph glyph-name="quoteleft" unicode="&#x2018;" horiz-adv-x="269" 
d="M161 625q27 0 43 -16t16 -41q0 -26 -17.5 -43.5t-47.5 -17.5q-66 0 -66 80q0 102 124 169l3 -5q-45 -35 -63 -64.5t-20 -67.5q13 6 28 6z" />
    <glyph glyph-name="quoteright" unicode="&#x2019;" horiz-adv-x="255" 
d="M107 754q66 0 66 -80q0 -102 -124 -169l-3 5q45 35 63 64.5t20 67.5q-13 -6 -28 -6q-27 0 -43 16t-16 41q0 26 17.5 43.5t47.5 17.5z" />
    <glyph glyph-name="quotesinglbase" unicode="&#x201a;" horiz-adv-x="262" 
d="M121 114q66 0 66 -80q0 -102 -124 -169l-3 5q45 34 63 64t20 68q-13 -6 -28 -6q-27 0 -43 16t-16 41q0 26 17.5 43.5t47.5 17.5z" />
    <glyph glyph-name="quotedblleft" unicode="&#x201c;" horiz-adv-x="432" 
d="M154 625q27 0 43 -16t16 -41q0 -26 -17.5 -43.5t-47.5 -17.5q-66 0 -66 80q0 102 124 169l3 -5q-45 -35 -63 -64.5t-20 -67.5q14 6 28 6zM349 625q27 0 43 -16t16 -41q0 -26 -17.5 -43.5t-47.5 -17.5q-66 0 -66 80q0 102 124 169l3 -5q-45 -35 -63 -64.5t-20 -67.5
q13 6 28 6z" />
    <glyph glyph-name="quotedblright" unicode="&#x201d;" horiz-adv-x="431" 
d="M135 754q31 0 48.5 -20.5t17.5 -59.5q0 -102 -124 -169l-3 5q44 35 62.5 64.5t20.5 67.5q-13 -6 -29 -6q-26 0 -42.5 16t-16.5 41q0 26 17.5 43.5t48.5 17.5zM322 754q66 0 66 -80q0 -102 -124 -169l-3 5q45 35 63 64.5t20 67.5q-13 -6 -28 -6q-27 0 -43.5 16t-16.5 41
q0 26 18 43.5t48 17.5z" />
    <glyph glyph-name="quotedblbase" unicode="&#x201e;" horiz-adv-x="424" 
d="M128 114q31 0 48.5 -20.5t17.5 -59.5q0 -102 -124 -169l-3 5q44 35 62.5 64.5t20.5 67.5q-14 -6 -29 -6q-27 0 -43 16t-16 41q0 26 17.5 43.5t48.5 17.5zM315 114q66 0 66 -80q0 -102 -124 -169l-3 5q45 35 63 64.5t20 67.5q-13 -6 -28 -6q-27 0 -43.5 16t-16.5 41
q0 26 18 43.5t48 17.5z" />
    <glyph glyph-name="dagger" unicode="&#x2020;" horiz-adv-x="600" 
d="M327 716l-35 -249l231 30v-78l-231 32l35 -503h-85l34 503l-231 -32v78l231 -30l-34 249h85z" />
    <glyph glyph-name="daggerdbl" unicode="&#x2021;" horiz-adv-x="600" 
d="M242 -52l35 239l-232 -32v77l232 -33l-21 135l21 134l-232 -33v77l232 -32l-35 236h83l-34 -236l233 32v-77l-233 33l21 -134l-21 -135l233 33v-77l-233 32l34 -239h-83z" />
    <glyph glyph-name="bullet" unicode="&#x2022;" horiz-adv-x="374" 
d="M187 214q-48 0 -77 29t-29 77t29 77.5t77 29.5t77.5 -29.5t29.5 -77.5t-29.5 -77t-77.5 -29z" />
    <glyph glyph-name="ellipsis" unicode="&#x2026;" horiz-adv-x="806" 
d="M393 -6q-29 0 -46 17t-17 46t17 46t46 17t46 -17t17 -46t-17 -46t-46 -17zM650 -6q-28 0 -45.5 17t-17.5 46t17.5 46t45.5 17t45.5 -17t17.5 -46t-17.5 -46t-45.5 -17zM140 -6q-28 0 -45.5 17t-17.5 46t17.5 46t45.5 17t45.5 -17.5t17.5 -45.5t-17.5 -45.5t-45.5 -17.5z
" />
    <glyph glyph-name="perthousand" unicode="&#x2030;" horiz-adv-x="1164" 
d="M194 -9l-19 12l431 709l20 -12zM180 354q-72 0 -115 46t-43 123t44.5 123.5t117.5 46.5q72 0 114 -45t42 -120q0 -79 -43.5 -126.5t-116.5 -47.5zM190 366q80 0 80 138q0 87 -26.5 133t-72.5 46q-80 0 -80 -142q0 -84 26.5 -129.5t72.5 -45.5zM619 -13q-72 0 -115 46
t-43 123t44.5 123.5t118.5 46.5q71 0 113 -45t42 -120q0 -79 -43.5 -126.5t-116.5 -47.5zM982 -13q-72 0 -115 46t-43 123t44.5 123.5t118.5 46.5q71 0 113 -45t42 -120q0 -79 -43.5 -126.5t-116.5 -47.5zM629 -1q80 0 80 138q0 87 -26.5 133t-72.5 46q-80 0 -80 -142
q0 -84 27 -129.5t72 -45.5zM992 -1q80 0 80 138q0 87 -26.5 133t-72.5 46q-80 0 -80 -142q0 -84 27 -129.5t72 -45.5z" />
    <glyph glyph-name="guilsinglleft" unicode="&#x2039;" horiz-adv-x="323" 
d="M245 445l-110 -180l110 -182l-8 -8l-191 188l191 189z" />
    <glyph glyph-name="guilsinglright" unicode="&#x203a;" horiz-adv-x="323" 
d="M86 449l191 -188l-191 -189l-8 8l110 179l-110 182z" />
    <glyph glyph-name="fraction" unicode="&#x2044;" horiz-adv-x="272" 
d="M-76 -9l-18 12l431 709l20 -12z" />
    <glyph glyph-name="Euro" unicode="&#x20ac;" horiz-adv-x="667" 
d="M622 144l6 -6q-96 -146 -250 -146q-107 0 -176.5 72t-85.5 199l-80 1l78 11q-3 29 -3 58q0 18 2 52l-77 2l78 10q15 145 97 228.5t215 83.5q84 0 137.5 -32t53.5 -83q0 -31 -20.5 -47t-45.5 -10t-38 30q17 17 17 49q0 39 -31 59t-86 20q-200 0 -209 -289l219 12l-3 -14
l-137 -21l-79 1v-2q0 -47 5 -97l189 11l-2 -14l-127 -22l-56 1q34 -209 206 -209q114 0 203 92z" />
    <glyph glyph-name="uni2113" unicode="&#x2113;" horiz-adv-x="709" 
d="M558 166l40 -38q-38 -64 -95.5 -98.5t-120.5 -34.5q-80 0 -127.5 43t-55.5 125q-1 -1 -61 -32l-27 55q42 22 87 49v232q0 129 51 188t125 59t116 -47t42 -115q0 -104 -60.5 -183t-188.5 -158v-8q0 -136 119 -136q47 0 87.5 29t68.5 70zM282 482l1 -194q94 64 130 121.5
t36 134.5q0 102 -77 102q-39 0 -64.5 -39.5t-25.5 -124.5z" />
    <glyph glyph-name="trademark" unicode="&#x2122;" horiz-adv-x="807" 
d="M316 700l1 -100h-4q-17 57 -31.5 76t-43.5 19h-35v-319q0 -25 8 -34t30 -9v-5h-136v5q21 0 29 8t8 32v322h-35q-29 0 -43.5 -19.5t-32.5 -75.5h-4l3 100h286zM757 375q5 -25 13.5 -33.5t29.5 -8.5v-5h-137v5q22 0 30 8.5t3 30.5l-56 269l-108 -313h-15l-117 315l-42 -252
q-6 -35 1.5 -46.5t30.5 -11.5v-5h-80v5q21 0 29 10t13 46l44 265q4 24 -4 32.5t-30 8.5v5h81l109 -295l101 295h79v-5q-22 0 -29.5 -8.5t-2.5 -30.5z" />
    <glyph glyph-name="estimated" unicode="&#x212e;" horiz-adv-x="862" 
d="M185 340q-5 0 -5 -4v-195q0 -12 8 -22q103 -106 244 -106q75 0 141.5 31.5t114.5 86.5h57q-54 -64 -137 -101t-177 -37q-165 0 -281.5 104.5t-116.5 252.5t116.5 253t281.5 105t281.5 -105t116.5 -253v-10h-644zM683 561q0 12 -10 24q-103 101 -241 101q-140 0 -243 -105
q-9 -9 -9 -24v-192q0 -6 5 -6h493q5 0 5 6v196z" />
    <glyph glyph-name="partialdiff" unicode="&#x2202;" horiz-adv-x="617" 
d="M79 720q76 58 189 58q119 0 202 -100.5t83 -277.5q0 -172 -78 -289t-215 -117q-104 0 -160.5 71.5t-56.5 161.5q0 111 68 181t166 70q69 0 118.5 -35.5t68.5 -70.5h1q1 13 1 45q0 130 -60 211.5t-148 81.5q-80 0 -149 -48zM268 63q74 0 124 68.5t62 165.5q-15 40 -59 77
t-102 37q-67 0 -115 -53.5t-48 -129.5q0 -71 38 -118t99 -47h1z" />
    <glyph glyph-name="emptyset" unicode="&#x2205;" horiz-adv-x="715" 
d="M587 515q64 -78 64 -192q0 -131 -81.5 -212.5t-211.5 -81.5q-115 0 -193 64l-40 -40l-37 38l40 40q-64 76 -64 192q0 130 82 211.5t212 81.5q114 0 192 -64l42 42l38 -37zM117 323q0 -89 49 -154l346 345q-65 49 -154 49q-107 0 -174 -67t-67 -173zM358 82q107 0 174 67
t67 174q0 90 -50 154l-346 -345q64 -50 155 -50z" />
    <glyph glyph-name="product" unicode="&#x220f;" horiz-adv-x="773" 
d="M625 617v-712h-86v712h-304v-712h-86v712h-123v74h722v-74h-123z" />
    <glyph glyph-name="summation" unicode="&#x2211;" horiz-adv-x="616" 
d="M30 -51v64l314 304l-307 329v54h550v-170h-8q-38 98 -74 128.5t-122 30.5h-272v-2l306 -324l-350 -337v-2h378q59 0 85.5 28t51.5 111h8l-6 -214h-554z" />
    <glyph glyph-name="minus" unicode="&#x2212;" horiz-adv-x="517" 
d="M64 366h389v-22h-389v22z" />
    <glyph glyph-name="radical" unicode="&#x221a;" horiz-adv-x="643" 
d="M384 -152h-61l-185 483l-81 -27l-8 17l142 49l171 -457q11 -35 11 -39h1q0 7 10 47l221 893h19z" />
    <glyph glyph-name="infinity" unicode="&#x221e;" horiz-adv-x="872" 
d="M661 428q66 0 110.5 -49t44.5 -125q0 -78 -47.5 -129.5t-123.5 -51.5q-43 0 -86.5 23t-72 48.5t-70.5 70.5q-52 -68 -98.5 -105t-103.5 -37q-67 0 -112.5 51t-45.5 128q0 78 48 127t121 49q44 0 88.5 -23.5t73 -49.5t70.5 -71q54 69 100 106.5t104 37.5zM655 145
q51 0 78.5 40.5t27.5 93.5q0 59 -35 90.5t-83 31.5q-49 0 -90.5 -32.5t-88.5 -91.5q42 -45 64.5 -67t58.5 -43.5t68 -21.5zM230 99q50 0 91 31.5t89 91.5q-45 48 -67 69.5t-60.5 44.5t-72.5 23q-51 0 -81 -36t-30 -92q0 -67 41.5 -99.5t89.5 -32.5z" />
    <glyph glyph-name="integral" unicode="&#x222b;" horiz-adv-x="390" 
d="M292 733q51 0 107 -27l-17 -43q-42 15 -73 15q-52 0 -73 -44.5t-21 -151.5v-475q0 -111 -44 -170.5t-125 -59.5q-54 0 -110 27l17 46q39 -17 72 -17q54 0 77 46t23 156v468q0 111 43.5 170.5t123.5 59.5z" />
    <glyph glyph-name="approxequal" unicode="&#x2248;" horiz-adv-x="545" 
d="M78 373q-11 62 13.5 94.5t74.5 32.5q42 0 116.5 -31.5t106.5 -31.5q29 0 51 14.5t25 45.5l9 -1q10 -65 -15 -95.5t-72 -30.5q-41 0 -112.5 31.5t-105.5 31.5q-76 0 -82 -62zM78 178q-11 62 13.5 94.5t74.5 32.5q42 0 116.5 -31.5t106.5 -31.5q29 0 51 14.5t25 45.5l9 -1
q10 -65 -15 -95.5t-72 -30.5q-41 0 -112.5 31.5t-105.5 31.5q-76 0 -82 -62z" />
    <glyph glyph-name="notequal" unicode="&#x2260;" horiz-adv-x="517" 
d="M453 402h-163l-36 -97h199v-22h-207l-60 -158l-19 7l57 151h-160v22h168l37 97h-205v22h213l61 162l19 -7l-58 -155h154v-22z" />
    <glyph glyph-name="lessequal" unicode="&#x2264;" horiz-adv-x="544" 
d="M456 166l-6 -12l-383 222v15l383 220l6 -10l-303 -218zM73 99h389v-22h-389v22z" />
    <glyph glyph-name="greaterequal" unicode="&#x2265;" horiz-adv-x="544" 
d="M84 611l383 -220v-15l-383 -222l-6 12l303 217l-303 218zM72 78v22h389v-22h-389z" />
    <glyph glyph-name="lozenge" unicode="&#x25ca;" horiz-adv-x="633" 
d="M326 -59h-29l-224 403l227 404h25l228 -404zM337 680q-5 10 -24 42h-2q-3 -6 -11 -20t-12 -22l-188 -335l191 -338l21 -40h3q18 32 22 40l189 336z" />
    <glyph glyph-name="i.loclTRK" horiz-adv-x="322" 
d="M160 579q-26 0 -40.5 14.5t-14.5 40.5q0 27 16 42.5t44 15.5q26 0 41 -14.5t15 -40.5q0 -27 -16.5 -42.5t-44.5 -15.5zM119 81v216q0 106 -12 131.5t-60 12.5l-2 8l158 51l4 -3v-216v-195q0 -45 15.5 -61.5t57.5 -16.5v-8h-231v8q40 0 55 15t15 58z" />
    <glyph glyph-name="fraction.percent" horiz-adv-x="77" 
d="M-169 -9l-18 12l431 709l20 -12z" />
    <glyph glyph-name="caroncomb.alt" 
d="M-356 713l-54 -185h-10l-9 193l70 -3z" />
    </font>
</defs>
</svg>
