<?xml version="1.0" encoding="utf-8"?>
<!-- Generator: Adobe Illustrator 16.0.4, SVG Export Plug-In . SVG Version: 6.00 Build 0)  -->
<!DOCTYPE svg PUBLIC "-//W3C//DTD SVG 1.1//EN" "http://www.w3.org/Graphics/SVG/1.1/DTD/svg11.dtd">
<svg version="1.1" id="Camada_1" xmlns="http://www.w3.org/2000/svg" xmlns:xlink="http://www.w3.org/1999/xlink" x="0px" y="0px"
	 width="72px" height="23px" viewBox="0 0 72 23" enable-background="new 0 0 72 23" xml:space="preserve">
<g>
	<g>
		<path fill="#9D9D9C" d="M12.583,12.415c-0.786,0-2.412-0.017-2.412-0.017v2.845c0,0,1.614,0,2.412,0c2.034,0,1.93-1.43,1.93-1.43
			S14.58,12.415,12.583,12.415z"/>
		<path fill="#9D9D9C" d="M14.078,8.806c0,0,0-1.166-1.943-1.166c-0.786,0-1.964-0.017-1.964-0.017v2.38c0,0,1.432,0,2.23,0
			C14.224,10.003,14.078,8.806,14.078,8.806z"/>
		<path fill="#9D9D9C" d="M17.26,1.036c-1.846,0-7.992,0-10.713,0c-3.716,0-5.199,2.547-5.199,5.243c0,1.021,0,10.568,0,10.568
			c0,2.623,1.19,5.178,5.199,5.178c2.964,0,9.183,0,10.641,0c4.154,0,5.223-2.773,5.223-5.252c0-0.389,0-9.401,0-10.566
			C22.41,3.729,21.123,1.036,17.26,1.036z M12.567,17.622c-1.851,0-4.975,0-4.975,0v-5.24v-2.229V5.251c0,0,3.054-0.017,4.203-0.017
			c5.028,0,4.883,3.321,4.883,3.321s0.073,1.429-1.055,2.556c1.565,1.059,1.485,2.685,1.485,2.685S17.3,17.622,12.567,17.622z"/>
	</g>
	<g>
		<path fill="#9D9D9C" d="M25.221,15.64l2.109-1.36c0.733,0.932,1.492,1.394,2.695,1.394c0.939,0,1.705-0.389,1.705-1.442
			c0-2.085-5.925-0.635-5.925-5.208c0-2.382,1.821-3.75,4.087-3.75c1.796,0,3.165,0.808,4.194,2.259l-2.011,1.418
			c-0.585-0.768-1.244-1.271-2.241-1.271c-0.857,0-1.352,0.544-1.352,1.394c0,2.035,5.917,0.485,5.917,5.116
			c0,2.621-2.077,3.874-4.483,3.874C27.915,18.062,26.382,17.262,25.221,15.64z"/>
		<path fill="#9D9D9C" d="M37.986,14.107c0.041,1.136,0.742,1.836,1.789,1.836c0.635,0,1.6-0.057,2.356-1.218l1.748,1.128
			c-1.097,1.772-2.423,2.209-4.179,2.209c-3,0-4.121-2.473-4.121-4.476c0-2.761,1.443-4.902,4.352-4.902
			c2.992,0,3.948,2.514,3.948,4.582c0,0.123-0.009,0.205-0.066,0.841H37.986z M38.119,12.418h3.363
			c-0.125-0.998-0.644-1.682-1.658-1.682C38.885,10.736,38.227,11.453,38.119,12.418z"/>
		<path fill="#9D9D9C" d="M45.487,15.384c0,0,0-7.577,0-8.977c0-1.4,2.521-1.671,2.521-1.671V15.31c0,0.312,0.206,0.634,0.618,0.634
			c0.264,0,0.627-0.114,0.891-0.156l0.256,1.805c-0.504,0.174-1.105,0.355-1.649,0.355C46.345,17.947,45.487,17.147,45.487,15.384z"
			/>
		<path fill="#9D9D9C" d="M50.721,15.384c0,0,0-7.474,0-8.925c0-1.452,2.521-1.723,2.521-1.723V15.31
			c0,0.312,0.207,0.634,0.619,0.634c0.264,0,0.625-0.114,0.889-0.156l0.256,1.805c-0.503,0.174-1.104,0.355-1.648,0.355
			C51.578,17.947,50.721,17.147,50.721,15.384z"/>
		<path fill="#9D9D9C" d="M58.039,14.107c0.041,1.136,0.742,1.836,1.789,1.836c0.633,0,1.598-0.057,2.355-1.218l1.747,1.128
			c-1.097,1.772-2.423,2.209-4.178,2.209c-2.999,0-4.12-2.473-4.12-4.476c0-2.761,1.442-4.902,4.352-4.902
			c2.99,0,3.946,2.514,3.946,4.582c0,0.123-0.009,0.205-0.067,0.841H58.039z M58.171,12.418h3.361
			c-0.123-0.998-0.644-1.682-1.655-1.682C58.938,10.736,58.277,11.453,58.171,12.418z"/>
		<path fill="#9D9D9C" d="M70.664,11.28c-0.659-0.239-0.906-0.297-1.055-0.297c-0.668,0-1.499,0.788-1.499,1.773l-0.009,5.074
			h-2.498c0,0,0-6.396,0-7.381c0-1.763,2.273-1.634,2.273-1.634l0.002,1.236c0.544-0.85,1.128-1.303,2.003-1.386
			c0.428-0.04,1.137,0.199,1.466,0.495L70.664,11.28z"/>
	</g>
</g>
</svg>
